<?xml version="1.0" encoding="utf-8" standalone="no"?>
<!DOCTYPE svg PUBLIC "-//W3C//DTD SVG 1.1//EN"
  "http://www.w3.org/Graphics/SVG/1.1/DTD/svg11.dtd">
<svg xmlns:xlink="http://www.w3.org/1999/xlink" width="433.97625pt" height="314.667469pt" viewBox="0 0 433.97625 314.667469" xmlns="http://www.w3.org/2000/svg" version="1.1">
 <metadata>
  <rdf:RDF xmlns:dc="http://purl.org/dc/elements/1.1/" xmlns:cc="http://creativecommons.org/ns#" xmlns:rdf="http://www.w3.org/1999/02/22-rdf-syntax-ns#">
   <cc:Work>
    <dc:type rdf:resource="http://purl.org/dc/dcmitype/StillImage"/>
    <dc:date>2025-08-16T17:03:18.881853</dc:date>
    <dc:format>image/svg+xml</dc:format>
    <dc:creator>
     <cc:Agent>
      <dc:title>Matplotlib v3.10.5, https://matplotlib.org/</dc:title>
     </cc:Agent>
    </dc:creator>
   </cc:Work>
  </rdf:RDF>
 </metadata>
 <defs>
  <style type="text/css">*{stroke-linejoin: round; stroke-linecap: butt}</style>
 </defs>
 <g id="figure_1">
  <g id="patch_1">
   <path d="M 0 314.667469 
L 433.97625 314.667469 
L 433.97625 0 
L 0 0 
z
" style="fill: #ffffff"/>
  </g>
  <g id="axes_1">
   <g id="patch_2">
    <path d="M 58.523438 277.111219 
L 415.643438 277.111219 
L 415.643438 10.999219 
L 58.523438 10.999219 
z
" style="fill: #d3d3d3; fill-opacity: 0.133333"/>
   </g>
   <g id="FillBetweenPolyCollection_1">
    <path d="M 58.523438 476.695219 
L 58.523438 210.583219 
L 62.13071 207.895219 
L 65.737983 205.207219 
L 69.345256 202.519219 
L 72.952528 199.831219 
L 76.559801 197.143219 
L 80.167074 194.455219 
L 83.774347 191.767219 
L 87.381619 189.079219 
L 90.988892 186.391219 
L 94.596165 183.703219 
L 98.203438 181.015219 
L 101.81071 178.327219 
L 105.417983 175.639219 
L 109.025256 172.951219 
L 112.632528 170.263219 
L 116.239801 167.575219 
L 119.847074 164.887219 
L 123.454347 162.199219 
L 127.061619 159.511219 
L 130.668892 156.823219 
L 134.276165 154.135219 
L 137.883438 151.447219 
L 141.49071 148.759219 
L 145.097983 146.071219 
L 148.705256 143.383219 
L 152.312528 140.695219 
L 155.919801 138.007219 
L 159.527074 135.319219 
L 163.134347 132.631219 
L 166.741619 129.943219 
L 170.348892 127.255219 
L 173.956165 124.567219 
L 177.563438 121.879219 
L 181.17071 119.191219 
L 184.777983 116.503219 
L 188.385256 113.815219 
L 191.992528 111.127219 
L 195.599801 108.439219 
L 199.207074 105.751219 
L 202.814347 103.063219 
L 206.421619 100.375219 
L 210.028892 97.687219 
L 213.636165 94.999219 
L 217.243438 92.311219 
L 220.85071 89.623219 
L 224.457983 86.935219 
L 228.065256 84.247219 
L 231.672528 81.559219 
L 235.279801 78.871219 
L 238.887074 76.183219 
L 242.494347 73.495219 
L 246.101619 70.807219 
L 249.708892 68.119219 
L 253.316165 65.431219 
L 256.923437 62.743219 
L 260.53071 60.055219 
L 264.137983 57.367219 
L 267.745256 54.679219 
L 271.352528 51.991219 
L 274.959801 49.303219 
L 278.567074 46.615219 
L 282.174347 43.927219 
L 285.781619 41.239219 
L 289.388892 38.551219 
L 292.996165 35.863219 
L 296.603438 33.175219 
L 300.21071 30.487219 
L 303.817983 27.799219 
L 307.425256 25.111219 
L 311.032528 22.423219 
L 314.639801 19.735219 
L 318.247074 17.047219 
L 321.854347 14.359219 
L 325.461619 11.671219 
L 329.068892 8.983219 
L 332.676165 6.295219 
L 336.283437 3.607219 
L 339.89071 0.919219 
L 343.497983 -1.768781 
L 347.105256 -4.456781 
L 350.712528 -7.144781 
L 354.319801 -9.832781 
L 357.927074 -12.520781 
L 361.534347 -15.208781 
L 365.141619 -17.896781 
L 368.748892 -20.584781 
L 372.356165 -23.272781 
L 375.963438 -25.960781 
L 379.57071 -28.648781 
L 383.177983 -31.336781 
L 386.785256 -34.024781 
L 390.392528 -36.712781 
L 393.999801 -39.400781 
L 397.607074 -42.088781 
L 401.214347 -44.776781 
L 404.821619 -47.464781 
L 408.428892 -50.152781 
L 412.036165 -52.840781 
L 415.643438 -55.528781 
L 415.643438 476.695219 
L 415.643438 476.695219 
L 412.036165 476.695219 
L 408.428892 476.695219 
L 404.821619 476.695219 
L 401.214347 476.695219 
L 397.607074 476.695219 
L 393.999801 476.695219 
L 390.392528 476.695219 
L 386.785256 476.695219 
L 383.177983 476.695219 
L 379.57071 476.695219 
L 375.963438 476.695219 
L 372.356165 476.695219 
L 368.748892 476.695219 
L 365.141619 476.695219 
L 361.534347 476.695219 
L 357.927074 476.695219 
L 354.319801 476.695219 
L 350.712528 476.695219 
L 347.105256 476.695219 
L 343.497983 476.695219 
L 339.89071 476.695219 
L 336.283437 476.695219 
L 332.676165 476.695219 
L 329.068892 476.695219 
L 325.461619 476.695219 
L 321.854347 476.695219 
L 318.247074 476.695219 
L 314.639801 476.695219 
L 311.032528 476.695219 
L 307.425256 476.695219 
L 303.817983 476.695219 
L 300.21071 476.695219 
L 296.603438 476.695219 
L 292.996165 476.695219 
L 289.388892 476.695219 
L 285.781619 476.695219 
L 282.174347 476.695219 
L 278.567074 476.695219 
L 274.959801 476.695219 
L 271.352528 476.695219 
L 267.745256 476.695219 
L 264.137983 476.695219 
L 260.53071 476.695219 
L 256.923437 476.695219 
L 253.316165 476.695219 
L 249.708892 476.695219 
L 246.101619 476.695219 
L 242.494347 476.695219 
L 238.887074 476.695219 
L 235.279801 476.695219 
L 231.672528 476.695219 
L 228.065256 476.695219 
L 224.457983 476.695219 
L 220.85071 476.695219 
L 217.243438 476.695219 
L 213.636165 476.695219 
L 210.028892 476.695219 
L 206.421619 476.695219 
L 202.814347 476.695219 
L 199.207074 476.695219 
L 195.599801 476.695219 
L 191.992528 476.695219 
L 188.385256 476.695219 
L 184.777983 476.695219 
L 181.17071 476.695219 
L 177.563438 476.695219 
L 173.956165 476.695219 
L 170.348892 476.695219 
L 166.741619 476.695219 
L 163.134347 476.695219 
L 159.527074 476.695219 
L 155.919801 476.695219 
L 152.312528 476.695219 
L 148.705256 476.695219 
L 145.097983 476.695219 
L 141.49071 476.695219 
L 137.883438 476.695219 
L 134.276165 476.695219 
L 130.668892 476.695219 
L 127.061619 476.695219 
L 123.454347 476.695219 
L 119.847074 476.695219 
L 116.239801 476.695219 
L 112.632528 476.695219 
L 109.025256 476.695219 
L 105.417983 476.695219 
L 101.81071 476.695219 
L 98.203438 476.695219 
L 94.596165 476.695219 
L 90.988892 476.695219 
L 87.381619 476.695219 
L 83.774347 476.695219 
L 80.167074 476.695219 
L 76.559801 476.695219 
L 72.952528 476.695219 
L 69.345256 476.695219 
L 65.737983 476.695219 
L 62.13071 476.695219 
L 58.523438 476.695219 
z
" clip-path="url(#p0003e4d070)" style="fill: #0000ff; fill-opacity: 0.1; stroke: #0000ff; stroke-opacity: 0.1"/>
   </g>
   <g id="matplotlib.axis_1">
    <g id="xtick_1">
     <g id="line2d_1">
      <path d="M 58.523438 277.111219 
L 58.523438 10.999219 
" clip-path="url(#p0003e4d070)" style="fill: none; stroke: #b0b0b0; stroke-width: 0.8; stroke-linecap: square"/>
     </g>
     <g id="line2d_2">
      <defs>
       <path id="mbb03ff062d" d="M 0 0 
L 0 3.5 
" style="stroke: #000000; stroke-width: 0.8"/>
      </defs>
      <g>
       <use xlink:href="#mbb03ff062d" x="58.523438" y="277.111219" style="stroke: #000000; stroke-width: 0.8"/>
      </g>
     </g>
     <g id="text_1">
      <!-- −0.50 -->
      <g transform="translate(43.200781 291.709656) scale(0.1 -0.1)">
       <defs>
        <path id="DejaVuSans-2212" d="M 678 2272 
L 4684 2272 
L 4684 1741 
L 678 1741 
L 678 2272 
z
" transform="scale(0.015625)"/>
        <path id="DejaVuSans-30" d="M 2034 4250 
Q 1547 4250 1301 3770 
Q 1056 3291 1056 2328 
Q 1056 1369 1301 889 
Q 1547 409 2034 409 
Q 2525 409 2770 889 
Q 3016 1369 3016 2328 
Q 3016 3291 2770 3770 
Q 2525 4250 2034 4250 
z
M 2034 4750 
Q 2819 4750 3233 4129 
Q 3647 3509 3647 2328 
Q 3647 1150 3233 529 
Q 2819 -91 2034 -91 
Q 1250 -91 836 529 
Q 422 1150 422 2328 
Q 422 3509 836 4129 
Q 1250 4750 2034 4750 
z
" transform="scale(0.015625)"/>
        <path id="DejaVuSans-2e" d="M 684 794 
L 1344 794 
L 1344 0 
L 684 0 
L 684 794 
z
" transform="scale(0.015625)"/>
        <path id="DejaVuSans-35" d="M 691 4666 
L 3169 4666 
L 3169 4134 
L 1269 4134 
L 1269 2991 
Q 1406 3038 1543 3061 
Q 1681 3084 1819 3084 
Q 2600 3084 3056 2656 
Q 3513 2228 3513 1497 
Q 3513 744 3044 326 
Q 2575 -91 1722 -91 
Q 1428 -91 1123 -41 
Q 819 9 494 109 
L 494 744 
Q 775 591 1075 516 
Q 1375 441 1709 441 
Q 2250 441 2565 725 
Q 2881 1009 2881 1497 
Q 2881 1984 2565 2268 
Q 2250 2553 1709 2553 
Q 1456 2553 1204 2497 
Q 953 2441 691 2322 
L 691 4666 
z
" transform="scale(0.015625)"/>
       </defs>
       <use xlink:href="#DejaVuSans-2212"/>
       <use xlink:href="#DejaVuSans-30" transform="translate(83.789062 0)"/>
       <use xlink:href="#DejaVuSans-2e" transform="translate(147.412109 0)"/>
       <use xlink:href="#DejaVuSans-35" transform="translate(179.199219 0)"/>
       <use xlink:href="#DejaVuSans-30" transform="translate(242.822266 0)"/>
      </g>
     </g>
    </g>
    <g id="xtick_2">
     <g id="line2d_3">
      <path d="M 103.163438 277.111219 
L 103.163438 10.999219 
" clip-path="url(#p0003e4d070)" style="fill: none; stroke: #b0b0b0; stroke-width: 0.8; stroke-linecap: square"/>
     </g>
     <g id="line2d_4">
      <g>
       <use xlink:href="#mbb03ff062d" x="103.163438" y="277.111219" style="stroke: #000000; stroke-width: 0.8"/>
      </g>
     </g>
     <g id="text_2">
      <!-- −0.25 -->
      <g transform="translate(87.840781 291.709656) scale(0.1 -0.1)">
       <defs>
        <path id="DejaVuSans-32" d="M 1228 531 
L 3431 531 
L 3431 0 
L 469 0 
L 469 531 
Q 828 903 1448 1529 
Q 2069 2156 2228 2338 
Q 2531 2678 2651 2914 
Q 2772 3150 2772 3378 
Q 2772 3750 2511 3984 
Q 2250 4219 1831 4219 
Q 1534 4219 1204 4116 
Q 875 4013 500 3803 
L 500 4441 
Q 881 4594 1212 4672 
Q 1544 4750 1819 4750 
Q 2544 4750 2975 4387 
Q 3406 4025 3406 3419 
Q 3406 3131 3298 2873 
Q 3191 2616 2906 2266 
Q 2828 2175 2409 1742 
Q 1991 1309 1228 531 
z
" transform="scale(0.015625)"/>
       </defs>
       <use xlink:href="#DejaVuSans-2212"/>
       <use xlink:href="#DejaVuSans-30" transform="translate(83.789062 0)"/>
       <use xlink:href="#DejaVuSans-2e" transform="translate(147.412109 0)"/>
       <use xlink:href="#DejaVuSans-32" transform="translate(179.199219 0)"/>
       <use xlink:href="#DejaVuSans-35" transform="translate(242.822266 0)"/>
      </g>
     </g>
    </g>
    <g id="xtick_3">
     <g id="line2d_5">
      <path d="M 147.803438 277.111219 
L 147.803438 10.999219 
" clip-path="url(#p0003e4d070)" style="fill: none; stroke: #b0b0b0; stroke-width: 0.8; stroke-linecap: square"/>
     </g>
     <g id="line2d_6">
      <g>
       <use xlink:href="#mbb03ff062d" x="147.803438" y="277.111219" style="stroke: #000000; stroke-width: 0.8"/>
      </g>
     </g>
     <g id="text_3">
      <!-- 0.00 -->
      <g transform="translate(136.670625 291.709656) scale(0.1 -0.1)">
       <use xlink:href="#DejaVuSans-30"/>
       <use xlink:href="#DejaVuSans-2e" transform="translate(63.623047 0)"/>
       <use xlink:href="#DejaVuSans-30" transform="translate(95.410156 0)"/>
       <use xlink:href="#DejaVuSans-30" transform="translate(159.033203 0)"/>
      </g>
     </g>
    </g>
    <g id="xtick_4">
     <g id="line2d_7">
      <path d="M 192.443438 277.111219 
L 192.443438 10.999219 
" clip-path="url(#p0003e4d070)" style="fill: none; stroke: #b0b0b0; stroke-width: 0.8; stroke-linecap: square"/>
     </g>
     <g id="line2d_8">
      <g>
       <use xlink:href="#mbb03ff062d" x="192.443438" y="277.111219" style="stroke: #000000; stroke-width: 0.8"/>
      </g>
     </g>
     <g id="text_4">
      <!-- 0.25 -->
      <g transform="translate(181.310625 291.709656) scale(0.1 -0.1)">
       <use xlink:href="#DejaVuSans-30"/>
       <use xlink:href="#DejaVuSans-2e" transform="translate(63.623047 0)"/>
       <use xlink:href="#DejaVuSans-32" transform="translate(95.410156 0)"/>
       <use xlink:href="#DejaVuSans-35" transform="translate(159.033203 0)"/>
      </g>
     </g>
    </g>
    <g id="xtick_5">
     <g id="line2d_9">
      <path d="M 237.083438 277.111219 
L 237.083438 10.999219 
" clip-path="url(#p0003e4d070)" style="fill: none; stroke: #b0b0b0; stroke-width: 0.8; stroke-linecap: square"/>
     </g>
     <g id="line2d_10">
      <g>
       <use xlink:href="#mbb03ff062d" x="237.083438" y="277.111219" style="stroke: #000000; stroke-width: 0.8"/>
      </g>
     </g>
     <g id="text_5">
      <!-- 0.50 -->
      <g transform="translate(225.950625 291.709656) scale(0.1 -0.1)">
       <use xlink:href="#DejaVuSans-30"/>
       <use xlink:href="#DejaVuSans-2e" transform="translate(63.623047 0)"/>
       <use xlink:href="#DejaVuSans-35" transform="translate(95.410156 0)"/>
       <use xlink:href="#DejaVuSans-30" transform="translate(159.033203 0)"/>
      </g>
     </g>
    </g>
    <g id="xtick_6">
     <g id="line2d_11">
      <path d="M 281.723438 277.111219 
L 281.723438 10.999219 
" clip-path="url(#p0003e4d070)" style="fill: none; stroke: #b0b0b0; stroke-width: 0.8; stroke-linecap: square"/>
     </g>
     <g id="line2d_12">
      <g>
       <use xlink:href="#mbb03ff062d" x="281.723438" y="277.111219" style="stroke: #000000; stroke-width: 0.8"/>
      </g>
     </g>
     <g id="text_6">
      <!-- 0.75 -->
      <g transform="translate(270.590625 291.709656) scale(0.1 -0.1)">
       <defs>
        <path id="DejaVuSans-37" d="M 525 4666 
L 3525 4666 
L 3525 4397 
L 1831 0 
L 1172 0 
L 2766 4134 
L 525 4134 
L 525 4666 
z
" transform="scale(0.015625)"/>
       </defs>
       <use xlink:href="#DejaVuSans-30"/>
       <use xlink:href="#DejaVuSans-2e" transform="translate(63.623047 0)"/>
       <use xlink:href="#DejaVuSans-37" transform="translate(95.410156 0)"/>
       <use xlink:href="#DejaVuSans-35" transform="translate(159.033203 0)"/>
      </g>
     </g>
    </g>
    <g id="xtick_7">
     <g id="line2d_13">
      <path d="M 326.363438 277.111219 
L 326.363438 10.999219 
" clip-path="url(#p0003e4d070)" style="fill: none; stroke: #b0b0b0; stroke-width: 0.8; stroke-linecap: square"/>
     </g>
     <g id="line2d_14">
      <g>
       <use xlink:href="#mbb03ff062d" x="326.363438" y="277.111219" style="stroke: #000000; stroke-width: 0.8"/>
      </g>
     </g>
     <g id="text_7">
      <!-- 1.00 -->
      <g transform="translate(315.230625 291.709656) scale(0.1 -0.1)">
       <defs>
        <path id="DejaVuSans-31" d="M 794 531 
L 1825 531 
L 1825 4091 
L 703 3866 
L 703 4441 
L 1819 4666 
L 2450 4666 
L 2450 531 
L 3481 531 
L 3481 0 
L 794 0 
L 794 531 
z
" transform="scale(0.015625)"/>
       </defs>
       <use xlink:href="#DejaVuSans-31"/>
       <use xlink:href="#DejaVuSans-2e" transform="translate(63.623047 0)"/>
       <use xlink:href="#DejaVuSans-30" transform="translate(95.410156 0)"/>
       <use xlink:href="#DejaVuSans-30" transform="translate(159.033203 0)"/>
      </g>
     </g>
    </g>
    <g id="xtick_8">
     <g id="line2d_15">
      <path d="M 371.003438 277.111219 
L 371.003438 10.999219 
" clip-path="url(#p0003e4d070)" style="fill: none; stroke: #b0b0b0; stroke-width: 0.8; stroke-linecap: square"/>
     </g>
     <g id="line2d_16">
      <g>
       <use xlink:href="#mbb03ff062d" x="371.003438" y="277.111219" style="stroke: #000000; stroke-width: 0.8"/>
      </g>
     </g>
     <g id="text_8">
      <!-- 1.25 -->
      <g transform="translate(359.870625 291.709656) scale(0.1 -0.1)">
       <use xlink:href="#DejaVuSans-31"/>
       <use xlink:href="#DejaVuSans-2e" transform="translate(63.623047 0)"/>
       <use xlink:href="#DejaVuSans-32" transform="translate(95.410156 0)"/>
       <use xlink:href="#DejaVuSans-35" transform="translate(159.033203 0)"/>
      </g>
     </g>
    </g>
    <g id="xtick_9">
     <g id="line2d_17">
      <path d="M 415.643438 277.111219 
L 415.643438 10.999219 
" clip-path="url(#p0003e4d070)" style="fill: none; stroke: #b0b0b0; stroke-width: 0.8; stroke-linecap: square"/>
     </g>
     <g id="line2d_18">
      <g>
       <use xlink:href="#mbb03ff062d" x="415.643438" y="277.111219" style="stroke: #000000; stroke-width: 0.8"/>
      </g>
     </g>
     <g id="text_9">
      <!-- 1.50 -->
      <g transform="translate(404.510625 291.709656) scale(0.1 -0.1)">
       <use xlink:href="#DejaVuSans-31"/>
       <use xlink:href="#DejaVuSans-2e" transform="translate(63.623047 0)"/>
       <use xlink:href="#DejaVuSans-35" transform="translate(95.410156 0)"/>
       <use xlink:href="#DejaVuSans-30" transform="translate(159.033203 0)"/>
      </g>
     </g>
    </g>
    <g id="text_10">
     <!-- X -->
     <g transform="translate(233.658437 305.387781) scale(0.1 -0.1)">
      <defs>
       <path id="DejaVuSans-58" d="M 403 4666 
L 1081 4666 
L 2241 2931 
L 3406 4666 
L 4084 4666 
L 2584 2425 
L 4184 0 
L 3506 0 
L 2194 1984 
L 872 0 
L 191 0 
L 1856 2491 
L 403 4666 
z
" transform="scale(0.015625)"/>
      </defs>
      <use xlink:href="#DejaVuSans-58"/>
     </g>
    </g>
   </g>
   <g id="matplotlib.axis_2">
    <g id="ytick_1">
     <g id="line2d_19">
      <path d="M 58.523438 277.111219 
L 415.643438 277.111219 
" clip-path="url(#p0003e4d070)" style="fill: none; stroke: #b0b0b0; stroke-width: 0.8; stroke-linecap: square"/>
     </g>
     <g id="line2d_20">
      <defs>
       <path id="me7cb6a960e" d="M 0 0 
L -3.5 0 
" style="stroke: #000000; stroke-width: 0.8"/>
      </defs>
      <g>
       <use xlink:href="#me7cb6a960e" x="58.523438" y="277.111219" style="stroke: #000000; stroke-width: 0.8"/>
      </g>
     </g>
     <g id="text_11">
      <!-- −0.50 -->
      <g transform="translate(20.878125 280.910437) scale(0.1 -0.1)">
       <use xlink:href="#DejaVuSans-2212"/>
       <use xlink:href="#DejaVuSans-30" transform="translate(83.789062 0)"/>
       <use xlink:href="#DejaVuSans-2e" transform="translate(147.412109 0)"/>
       <use xlink:href="#DejaVuSans-35" transform="translate(179.199219 0)"/>
       <use xlink:href="#DejaVuSans-30" transform="translate(242.822266 0)"/>
      </g>
     </g>
    </g>
    <g id="ytick_2">
     <g id="line2d_21">
      <path d="M 58.523438 243.847219 
L 415.643438 243.847219 
" clip-path="url(#p0003e4d070)" style="fill: none; stroke: #b0b0b0; stroke-width: 0.8; stroke-linecap: square"/>
     </g>
     <g id="line2d_22">
      <g>
       <use xlink:href="#me7cb6a960e" x="58.523438" y="243.847219" style="stroke: #000000; stroke-width: 0.8"/>
      </g>
     </g>
     <g id="text_12">
      <!-- −0.25 -->
      <g transform="translate(20.878125 247.646437) scale(0.1 -0.1)">
       <use xlink:href="#DejaVuSans-2212"/>
       <use xlink:href="#DejaVuSans-30" transform="translate(83.789062 0)"/>
       <use xlink:href="#DejaVuSans-2e" transform="translate(147.412109 0)"/>
       <use xlink:href="#DejaVuSans-32" transform="translate(179.199219 0)"/>
       <use xlink:href="#DejaVuSans-35" transform="translate(242.822266 0)"/>
      </g>
     </g>
    </g>
    <g id="ytick_3">
     <g id="line2d_23">
      <path d="M 58.523438 210.583219 
L 415.643438 210.583219 
" clip-path="url(#p0003e4d070)" style="fill: none; stroke: #b0b0b0; stroke-width: 0.8; stroke-linecap: square"/>
     </g>
     <g id="line2d_24">
      <g>
       <use xlink:href="#me7cb6a960e" x="58.523438" y="210.583219" style="stroke: #000000; stroke-width: 0.8"/>
      </g>
     </g>
     <g id="text_13">
      <!-- 0.00 -->
      <g transform="translate(29.257813 214.382437) scale(0.1 -0.1)">
       <use xlink:href="#DejaVuSans-30"/>
       <use xlink:href="#DejaVuSans-2e" transform="translate(63.623047 0)"/>
       <use xlink:href="#DejaVuSans-30" transform="translate(95.410156 0)"/>
       <use xlink:href="#DejaVuSans-30" transform="translate(159.033203 0)"/>
      </g>
     </g>
    </g>
    <g id="ytick_4">
     <g id="line2d_25">
      <path d="M 58.523438 177.319219 
L 415.643438 177.319219 
" clip-path="url(#p0003e4d070)" style="fill: none; stroke: #b0b0b0; stroke-width: 0.8; stroke-linecap: square"/>
     </g>
     <g id="line2d_26">
      <g>
       <use xlink:href="#me7cb6a960e" x="58.523438" y="177.319219" style="stroke: #000000; stroke-width: 0.8"/>
      </g>
     </g>
     <g id="text_14">
      <!-- 0.25 -->
      <g transform="translate(29.257813 181.118437) scale(0.1 -0.1)">
       <use xlink:href="#DejaVuSans-30"/>
       <use xlink:href="#DejaVuSans-2e" transform="translate(63.623047 0)"/>
       <use xlink:href="#DejaVuSans-32" transform="translate(95.410156 0)"/>
       <use xlink:href="#DejaVuSans-35" transform="translate(159.033203 0)"/>
      </g>
     </g>
    </g>
    <g id="ytick_5">
     <g id="line2d_27">
      <path d="M 58.523438 144.055219 
L 415.643438 144.055219 
" clip-path="url(#p0003e4d070)" style="fill: none; stroke: #b0b0b0; stroke-width: 0.8; stroke-linecap: square"/>
     </g>
     <g id="line2d_28">
      <g>
       <use xlink:href="#me7cb6a960e" x="58.523438" y="144.055219" style="stroke: #000000; stroke-width: 0.8"/>
      </g>
     </g>
     <g id="text_15">
      <!-- 0.50 -->
      <g transform="translate(29.257813 147.854437) scale(0.1 -0.1)">
       <use xlink:href="#DejaVuSans-30"/>
       <use xlink:href="#DejaVuSans-2e" transform="translate(63.623047 0)"/>
       <use xlink:href="#DejaVuSans-35" transform="translate(95.410156 0)"/>
       <use xlink:href="#DejaVuSans-30" transform="translate(159.033203 0)"/>
      </g>
     </g>
    </g>
    <g id="ytick_6">
     <g id="line2d_29">
      <path d="M 58.523438 110.791219 
L 415.643438 110.791219 
" clip-path="url(#p0003e4d070)" style="fill: none; stroke: #b0b0b0; stroke-width: 0.8; stroke-linecap: square"/>
     </g>
     <g id="line2d_30">
      <g>
       <use xlink:href="#me7cb6a960e" x="58.523438" y="110.791219" style="stroke: #000000; stroke-width: 0.8"/>
      </g>
     </g>
     <g id="text_16">
      <!-- 0.75 -->
      <g transform="translate(29.257813 114.590437) scale(0.1 -0.1)">
       <use xlink:href="#DejaVuSans-30"/>
       <use xlink:href="#DejaVuSans-2e" transform="translate(63.623047 0)"/>
       <use xlink:href="#DejaVuSans-37" transform="translate(95.410156 0)"/>
       <use xlink:href="#DejaVuSans-35" transform="translate(159.033203 0)"/>
      </g>
     </g>
    </g>
    <g id="ytick_7">
     <g id="line2d_31">
      <path d="M 58.523438 77.527219 
L 415.643438 77.527219 
" clip-path="url(#p0003e4d070)" style="fill: none; stroke: #b0b0b0; stroke-width: 0.8; stroke-linecap: square"/>
     </g>
     <g id="line2d_32">
      <g>
       <use xlink:href="#me7cb6a960e" x="58.523438" y="77.527219" style="stroke: #000000; stroke-width: 0.8"/>
      </g>
     </g>
     <g id="text_17">
      <!-- 1.00 -->
      <g transform="translate(29.257813 81.326437) scale(0.1 -0.1)">
       <use xlink:href="#DejaVuSans-31"/>
       <use xlink:href="#DejaVuSans-2e" transform="translate(63.623047 0)"/>
       <use xlink:href="#DejaVuSans-30" transform="translate(95.410156 0)"/>
       <use xlink:href="#DejaVuSans-30" transform="translate(159.033203 0)"/>
      </g>
     </g>
    </g>
    <g id="ytick_8">
     <g id="line2d_33">
      <path d="M 58.523438 44.263219 
L 415.643438 44.263219 
" clip-path="url(#p0003e4d070)" style="fill: none; stroke: #b0b0b0; stroke-width: 0.8; stroke-linecap: square"/>
     </g>
     <g id="line2d_34">
      <g>
       <use xlink:href="#me7cb6a960e" x="58.523438" y="44.263219" style="stroke: #000000; stroke-width: 0.8"/>
      </g>
     </g>
     <g id="text_18">
      <!-- 1.25 -->
      <g transform="translate(29.257813 48.062437) scale(0.1 -0.1)">
       <use xlink:href="#DejaVuSans-31"/>
       <use xlink:href="#DejaVuSans-2e" transform="translate(63.623047 0)"/>
       <use xlink:href="#DejaVuSans-32" transform="translate(95.410156 0)"/>
       <use xlink:href="#DejaVuSans-35" transform="translate(159.033203 0)"/>
      </g>
     </g>
    </g>
    <g id="ytick_9">
     <g id="line2d_35">
      <path d="M 58.523438 10.999219 
L 415.643438 10.999219 
" clip-path="url(#p0003e4d070)" style="fill: none; stroke: #b0b0b0; stroke-width: 0.8; stroke-linecap: square"/>
     </g>
     <g id="line2d_36">
      <g>
       <use xlink:href="#me7cb6a960e" x="58.523438" y="10.999219" style="stroke: #000000; stroke-width: 0.8"/>
      </g>
     </g>
     <g id="text_19">
      <!-- 1.50 -->
      <g transform="translate(29.257813 14.798437) scale(0.1 -0.1)">
       <use xlink:href="#DejaVuSans-31"/>
       <use xlink:href="#DejaVuSans-2e" transform="translate(63.623047 0)"/>
       <use xlink:href="#DejaVuSans-35" transform="translate(95.410156 0)"/>
       <use xlink:href="#DejaVuSans-30" transform="translate(159.033203 0)"/>
      </g>
     </g>
    </g>
    <g id="text_20">
     <!-- Y -->
     <g transform="translate(14.798438 147.109125) rotate(-90) scale(0.1 -0.1)">
      <defs>
       <path id="DejaVuSans-59" d="M -13 4666 
L 666 4666 
L 1959 2747 
L 3244 4666 
L 3922 4666 
L 2272 2222 
L 2272 0 
L 1638 0 
L 1638 2222 
L -13 4666 
z
" transform="scale(0.015625)"/>
      </defs>
      <use xlink:href="#DejaVuSans-59"/>
     </g>
    </g>
   </g>
   <g id="line2d_37">
    <path d="M 147.803438 210.583219 
" clip-path="url(#p0003e4d070)" style="fill: none; stroke: #0000ff; stroke-width: 1.5; stroke-linecap: square"/>
    <defs>
     <path id="m4bfb505c28" d="M 0 3 
C 0.795609 3 1.55874 2.683901 2.12132 2.12132 
C 2.683901 1.55874 3 0.795609 3 0 
C 3 -0.795609 2.683901 -1.55874 2.12132 -2.12132 
C 1.55874 -2.683901 0.795609 -3 0 -3 
C -0.795609 -3 -1.55874 -2.683901 -2.12132 -2.12132 
C -2.683901 -1.55874 -3 -0.795609 -3 0 
C -3 0.795609 -2.683901 1.55874 -2.12132 2.12132 
C -1.55874 2.683901 -0.795609 3 0 3 
z
" style="stroke: #0000ff"/>
    </defs>
    <g clip-path="url(#p0003e4d070)">
     <use xlink:href="#m4bfb505c28" x="147.803438" y="210.583219" style="fill: #0000ff; stroke: #0000ff"/>
    </g>
   </g>
   <g id="line2d_38">
    <path d="M 147.803438 77.527219 
" clip-path="url(#p0003e4d070)" style="fill: none; stroke: #0000ff; stroke-width: 1.5; stroke-linecap: square"/>
    <g clip-path="url(#p0003e4d070)">
     <use xlink:href="#m4bfb505c28" x="147.803438" y="77.527219" style="fill: #0000ff; stroke: #0000ff"/>
    </g>
   </g>
   <g id="line2d_39">
    <path d="M 326.363438 210.583219 
" clip-path="url(#p0003e4d070)" style="fill: none; stroke: #0000ff; stroke-width: 1.5; stroke-linecap: square"/>
    <g clip-path="url(#p0003e4d070)">
     <use xlink:href="#m4bfb505c28" x="326.363438" y="210.583219" style="fill: #0000ff; stroke: #0000ff"/>
    </g>
   </g>
   <g id="line2d_40">
    <path d="M 326.363438 77.527219 
" clip-path="url(#p0003e4d070)" style="fill: none; stroke: #0000ff; stroke-width: 1.5; stroke-linecap: square"/>
    <g clip-path="url(#p0003e4d070)">
     <use xlink:href="#m4bfb505c28" x="326.363438" y="77.527219" style="fill: #0000ff; stroke: #0000ff"/>
    </g>
   </g>
   <g id="line2d_41">
    <path d="M 58.523438 210.583219 
L 62.13071 207.895219 
L 65.737983 205.207219 
L 69.345256 202.519219 
L 72.952528 199.831219 
L 76.559801 197.143219 
L 80.167074 194.455219 
L 83.774347 191.767219 
L 87.381619 189.079219 
L 90.988892 186.391219 
L 94.596165 183.703219 
L 98.203438 181.015219 
L 101.81071 178.327219 
L 105.417983 175.639219 
L 109.025256 172.951219 
L 112.632528 170.263219 
L 116.239801 167.575219 
L 119.847074 164.887219 
L 123.454347 162.199219 
L 127.061619 159.511219 
L 130.668892 156.823219 
L 134.276165 154.135219 
L 137.883438 151.447219 
L 141.49071 148.759219 
L 145.097983 146.071219 
L 148.705256 143.383219 
L 152.312528 140.695219 
L 155.919801 138.007219 
L 159.527074 135.319219 
L 163.134347 132.631219 
L 166.741619 129.943219 
L 170.348892 127.255219 
L 173.956165 124.567219 
L 177.563438 121.879219 
L 181.17071 119.191219 
L 184.777983 116.503219 
L 188.385256 113.815219 
L 191.992528 111.127219 
L 195.599801 108.439219 
L 199.207074 105.751219 
L 202.814347 103.063219 
L 206.421619 100.375219 
L 210.028892 97.687219 
L 213.636165 94.999219 
L 217.243438 92.311219 
L 220.85071 89.623219 
L 224.457983 86.935219 
L 228.065256 84.247219 
L 231.672528 81.559219 
L 235.279801 78.871219 
L 238.887074 76.183219 
L 242.494347 73.495219 
L 246.101619 70.807219 
L 249.708892 68.119219 
L 253.316165 65.431219 
L 256.923437 62.743219 
L 260.53071 60.055219 
L 264.137983 57.367219 
L 267.745256 54.679219 
L 271.352528 51.991219 
L 274.959801 49.303219 
L 278.567074 46.615219 
L 282.174347 43.927219 
L 285.781619 41.239219 
L 289.388892 38.551219 
L 292.996165 35.863219 
L 296.603438 33.175219 
L 300.21071 30.487219 
L 303.817983 27.799219 
L 307.425256 25.111219 
L 311.032528 22.423219 
L 314.639801 19.735219 
L 318.247074 17.047219 
L 321.854347 14.359219 
L 325.461619 11.671219 
L 329.068892 8.983219 
L 332.676165 6.295219 
L 336.283437 3.607219 
L 339.89071 0.919219 
L 342.466285 -1 
" clip-path="url(#p0003e4d070)" style="fill: none; stroke: #1f77b4; stroke-width: 1.5; stroke-linecap: square"/>
   </g>
   <g id="patch_3">
    <path d="M 58.523438 277.111219 
L 58.523438 10.999219 
" style="fill: none; stroke: #000000; stroke-width: 0.8; stroke-linejoin: miter; stroke-linecap: square"/>
   </g>
   <g id="patch_4">
    <path d="M 415.643438 277.111219 
L 415.643438 10.999219 
" style="fill: none; stroke: #000000; stroke-width: 0.8; stroke-linejoin: miter; stroke-linecap: square"/>
   </g>
   <g id="patch_5">
    <path d="M 58.523438 277.111219 
L 415.643438 277.111219 
" style="fill: none; stroke: #000000; stroke-width: 0.8; stroke-linejoin: miter; stroke-linecap: square"/>
   </g>
   <g id="patch_6">
    <path d="M 58.523438 10.999219 
L 415.643438 10.999219 
" style="fill: none; stroke: #000000; stroke-width: 0.8; stroke-linejoin: miter; stroke-linecap: square"/>
   </g>
   <g id="patch_7">
    <path d="M 238.688232 78.72305 
Q 259.40339 94.159183 279.222043 108.927276 
" style="fill: none; stroke: #000000; stroke-linecap: round"/>
    <path d="M 277.209637 104.933504 
L 279.222043 108.927276 
L 274.819581 108.140938 
" style="fill: none; stroke: #000000; stroke-linecap: round"/>
   </g>
  </g>
 </g>
 <defs>
  <clipPath id="p0003e4d070">
   <rect x="58.523438" y="10.999219" width="357.12" height="266.112"/>
  </clipPath>
 </defs>
</svg>
