<?xml version="1.0" encoding="utf-8" standalone="no"?>
<!DOCTYPE svg PUBLIC "-//W3C//DTD SVG 1.1//EN"
  "http://www.w3.org/Graphics/SVG/1.1/DTD/svg11.dtd">
<svg xmlns:xlink="http://www.w3.org/1999/xlink" width="433.97625pt" height="314.667469pt" viewBox="0 0 433.97625 314.667469" xmlns="http://www.w3.org/2000/svg" version="1.1">
 <metadata>
  <rdf:RDF xmlns:dc="http://purl.org/dc/elements/1.1/" xmlns:cc="http://creativecommons.org/ns#" xmlns:rdf="http://www.w3.org/1999/02/22-rdf-syntax-ns#">
   <cc:Work>
    <dc:type rdf:resource="http://purl.org/dc/dcmitype/StillImage"/>
    <dc:date>2025-08-16T17:03:18.434177</dc:date>
    <dc:format>image/svg+xml</dc:format>
    <dc:creator>
     <cc:Agent>
      <dc:title>Matplotlib v3.10.5, https://matplotlib.org/</dc:title>
     </cc:Agent>
    </dc:creator>
   </cc:Work>
  </rdf:RDF>
 </metadata>
 <defs>
  <style type="text/css">*{stroke-linejoin: round; stroke-linecap: butt}</style>
 </defs>
 <g id="figure_1">
  <g id="patch_1">
   <path d="M 0 314.667469 
L 433.97625 314.667469 
L 433.97625 0 
L 0 0 
z
" style="fill: #ffffff"/>
  </g>
  <g id="axes_1">
   <g id="patch_2">
    <path d="M 58.523438 277.111219 
L 415.643438 277.111219 
L 415.643438 10.999219 
L 58.523438 10.999219 
z
" style="fill: #d3d3d3; fill-opacity: 0.133333"/>
   </g>
   <g id="FillBetweenPolyCollection_1">
    <path d="M 58.523438 -55.528781 
L 58.523438 77.527219 
L 62.13071 80.215219 
L 65.737983 82.903219 
L 69.345256 85.591219 
L 72.952528 88.279219 
L 76.559801 90.967219 
L 80.167074 93.655219 
L 83.774347 96.343219 
L 87.381619 99.031219 
L 90.988892 101.719219 
L 94.596165 104.407219 
L 98.203438 107.095219 
L 101.81071 109.783219 
L 105.417983 112.471219 
L 109.025256 115.159219 
L 112.632528 117.847219 
L 116.239801 120.535219 
L 119.847074 123.223219 
L 123.454347 125.911219 
L 127.061619 128.599219 
L 130.668892 131.287219 
L 134.276165 133.975219 
L 137.883438 136.663219 
L 141.49071 139.351219 
L 145.097983 142.039219 
L 148.705256 144.727219 
L 152.312528 147.415219 
L 155.919801 150.103219 
L 159.527074 152.791219 
L 163.134347 155.479219 
L 166.741619 158.167219 
L 170.348892 160.855219 
L 173.956165 163.543219 
L 177.563438 166.231219 
L 181.17071 168.919219 
L 184.777983 171.607219 
L 188.385256 174.295219 
L 191.992528 176.983219 
L 195.599801 179.671219 
L 199.207074 182.359219 
L 202.814347 185.047219 
L 206.421619 187.735219 
L 210.028892 190.423219 
L 213.636165 193.111219 
L 217.243438 195.799219 
L 220.85071 198.487219 
L 224.457983 201.175219 
L 228.065256 203.863219 
L 231.672528 206.551219 
L 235.279801 209.239219 
L 238.887074 211.927219 
L 242.494347 214.615219 
L 246.101619 217.303219 
L 249.708892 219.991219 
L 253.316165 222.679219 
L 256.923437 225.367219 
L 260.53071 228.055219 
L 264.137983 230.743219 
L 267.745256 233.431219 
L 271.352528 236.119219 
L 274.959801 238.807219 
L 278.567074 241.495219 
L 282.174347 244.183219 
L 285.781619 246.871219 
L 289.388892 249.559219 
L 292.996165 252.247219 
L 296.603438 254.935219 
L 300.21071 257.623219 
L 303.817983 260.311219 
L 307.425256 262.999219 
L 311.032528 265.687219 
L 314.639801 268.375219 
L 318.247074 271.063219 
L 321.854347 273.751219 
L 325.461619 276.439219 
L 329.068892 279.127219 
L 332.676165 281.815219 
L 336.283437 284.503219 
L 339.89071 287.191219 
L 343.497983 289.879219 
L 347.105256 292.567219 
L 350.712528 295.255219 
L 354.319801 297.943219 
L 357.927074 300.631219 
L 361.534347 303.319219 
L 365.141619 306.007219 
L 368.748892 308.695219 
L 372.356165 311.383219 
L 375.963438 314.071219 
L 379.57071 316.759219 
L 383.177983 319.447219 
L 386.785256 322.135219 
L 390.392528 324.823219 
L 393.999801 327.511219 
L 397.607074 330.199219 
L 401.214347 332.887219 
L 404.821619 335.575219 
L 408.428892 338.263219 
L 412.036165 340.951219 
L 415.643438 343.639219 
L 415.643438 -55.528781 
L 415.643438 -55.528781 
L 412.036165 -55.528781 
L 408.428892 -55.528781 
L 404.821619 -55.528781 
L 401.214347 -55.528781 
L 397.607074 -55.528781 
L 393.999801 -55.528781 
L 390.392528 -55.528781 
L 386.785256 -55.528781 
L 383.177983 -55.528781 
L 379.57071 -55.528781 
L 375.963438 -55.528781 
L 372.356165 -55.528781 
L 368.748892 -55.528781 
L 365.141619 -55.528781 
L 361.534347 -55.528781 
L 357.927074 -55.528781 
L 354.319801 -55.528781 
L 350.712528 -55.528781 
L 347.105256 -55.528781 
L 343.497983 -55.528781 
L 339.89071 -55.528781 
L 336.283437 -55.528781 
L 332.676165 -55.528781 
L 329.068892 -55.528781 
L 325.461619 -55.528781 
L 321.854347 -55.528781 
L 318.247074 -55.528781 
L 314.639801 -55.528781 
L 311.032528 -55.528781 
L 307.425256 -55.528781 
L 303.817983 -55.528781 
L 300.21071 -55.528781 
L 296.603438 -55.528781 
L 292.996165 -55.528781 
L 289.388892 -55.528781 
L 285.781619 -55.528781 
L 282.174347 -55.528781 
L 278.567074 -55.528781 
L 274.959801 -55.528781 
L 271.352528 -55.528781 
L 267.745256 -55.528781 
L 264.137983 -55.528781 
L 260.53071 -55.528781 
L 256.923437 -55.528781 
L 253.316165 -55.528781 
L 249.708892 -55.528781 
L 246.101619 -55.528781 
L 242.494347 -55.528781 
L 238.887074 -55.528781 
L 235.279801 -55.528781 
L 231.672528 -55.528781 
L 228.065256 -55.528781 
L 224.457983 -55.528781 
L 220.85071 -55.528781 
L 217.243438 -55.528781 
L 213.636165 -55.528781 
L 210.028892 -55.528781 
L 206.421619 -55.528781 
L 202.814347 -55.528781 
L 199.207074 -55.528781 
L 195.599801 -55.528781 
L 191.992528 -55.528781 
L 188.385256 -55.528781 
L 184.777983 -55.528781 
L 181.17071 -55.528781 
L 177.563438 -55.528781 
L 173.956165 -55.528781 
L 170.348892 -55.528781 
L 166.741619 -55.528781 
L 163.134347 -55.528781 
L 159.527074 -55.528781 
L 155.919801 -55.528781 
L 152.312528 -55.528781 
L 148.705256 -55.528781 
L 145.097983 -55.528781 
L 141.49071 -55.528781 
L 137.883438 -55.528781 
L 134.276165 -55.528781 
L 130.668892 -55.528781 
L 127.061619 -55.528781 
L 123.454347 -55.528781 
L 119.847074 -55.528781 
L 116.239801 -55.528781 
L 112.632528 -55.528781 
L 109.025256 -55.528781 
L 105.417983 -55.528781 
L 101.81071 -55.528781 
L 98.203438 -55.528781 
L 94.596165 -55.528781 
L 90.988892 -55.528781 
L 87.381619 -55.528781 
L 83.774347 -55.528781 
L 80.167074 -55.528781 
L 76.559801 -55.528781 
L 72.952528 -55.528781 
L 69.345256 -55.528781 
L 65.737983 -55.528781 
L 62.13071 -55.528781 
L 58.523438 -55.528781 
z
" clip-path="url(#pf977a649c5)" style="fill: #0000ff; fill-opacity: 0.1; stroke: #0000ff; stroke-opacity: 0.1"/>
   </g>
   <g id="matplotlib.axis_1">
    <g id="xtick_1">
     <g id="line2d_1">
      <path d="M 58.523438 277.111219 
L 58.523438 10.999219 
" clip-path="url(#pf977a649c5)" style="fill: none; stroke: #b0b0b0; stroke-width: 0.8; stroke-linecap: square"/>
     </g>
     <g id="line2d_2">
      <defs>
       <path id="m55c42ea5f9" d="M 0 0 
L 0 3.5 
" style="stroke: #000000; stroke-width: 0.8"/>
      </defs>
      <g>
       <use xlink:href="#m55c42ea5f9" x="58.523438" y="277.111219" style="stroke: #000000; stroke-width: 0.8"/>
      </g>
     </g>
     <g id="text_1">
      <!-- −0.50 -->
      <g transform="translate(43.200781 291.709656) scale(0.1 -0.1)">
       <defs>
        <path id="DejaVuSans-2212" d="M 678 2272 
L 4684 2272 
L 4684 1741 
L 678 1741 
L 678 2272 
z
" transform="scale(0.015625)"/>
        <path id="DejaVuSans-30" d="M 2034 4250 
Q 1547 4250 1301 3770 
Q 1056 3291 1056 2328 
Q 1056 1369 1301 889 
Q 1547 409 2034 409 
Q 2525 409 2770 889 
Q 3016 1369 3016 2328 
Q 3016 3291 2770 3770 
Q 2525 4250 2034 4250 
z
M 2034 4750 
Q 2819 4750 3233 4129 
Q 3647 3509 3647 2328 
Q 3647 1150 3233 529 
Q 2819 -91 2034 -91 
Q 1250 -91 836 529 
Q 422 1150 422 2328 
Q 422 3509 836 4129 
Q 1250 4750 2034 4750 
z
" transform="scale(0.015625)"/>
        <path id="DejaVuSans-2e" d="M 684 794 
L 1344 794 
L 1344 0 
L 684 0 
L 684 794 
z
" transform="scale(0.015625)"/>
        <path id="DejaVuSans-35" d="M 691 4666 
L 3169 4666 
L 3169 4134 
L 1269 4134 
L 1269 2991 
Q 1406 3038 1543 3061 
Q 1681 3084 1819 3084 
Q 2600 3084 3056 2656 
Q 3513 2228 3513 1497 
Q 3513 744 3044 326 
Q 2575 -91 1722 -91 
Q 1428 -91 1123 -41 
Q 819 9 494 109 
L 494 744 
Q 775 591 1075 516 
Q 1375 441 1709 441 
Q 2250 441 2565 725 
Q 2881 1009 2881 1497 
Q 2881 1984 2565 2268 
Q 2250 2553 1709 2553 
Q 1456 2553 1204 2497 
Q 953 2441 691 2322 
L 691 4666 
z
" transform="scale(0.015625)"/>
       </defs>
       <use xlink:href="#DejaVuSans-2212"/>
       <use xlink:href="#DejaVuSans-30" transform="translate(83.789062 0)"/>
       <use xlink:href="#DejaVuSans-2e" transform="translate(147.412109 0)"/>
       <use xlink:href="#DejaVuSans-35" transform="translate(179.199219 0)"/>
       <use xlink:href="#DejaVuSans-30" transform="translate(242.822266 0)"/>
      </g>
     </g>
    </g>
    <g id="xtick_2">
     <g id="line2d_3">
      <path d="M 103.163438 277.111219 
L 103.163438 10.999219 
" clip-path="url(#pf977a649c5)" style="fill: none; stroke: #b0b0b0; stroke-width: 0.8; stroke-linecap: square"/>
     </g>
     <g id="line2d_4">
      <g>
       <use xlink:href="#m55c42ea5f9" x="103.163438" y="277.111219" style="stroke: #000000; stroke-width: 0.8"/>
      </g>
     </g>
     <g id="text_2">
      <!-- −0.25 -->
      <g transform="translate(87.840781 291.709656) scale(0.1 -0.1)">
       <defs>
        <path id="DejaVuSans-32" d="M 1228 531 
L 3431 531 
L 3431 0 
L 469 0 
L 469 531 
Q 828 903 1448 1529 
Q 2069 2156 2228 2338 
Q 2531 2678 2651 2914 
Q 2772 3150 2772 3378 
Q 2772 3750 2511 3984 
Q 2250 4219 1831 4219 
Q 1534 4219 1204 4116 
Q 875 4013 500 3803 
L 500 4441 
Q 881 4594 1212 4672 
Q 1544 4750 1819 4750 
Q 2544 4750 2975 4387 
Q 3406 4025 3406 3419 
Q 3406 3131 3298 2873 
Q 3191 2616 2906 2266 
Q 2828 2175 2409 1742 
Q 1991 1309 1228 531 
z
" transform="scale(0.015625)"/>
       </defs>
       <use xlink:href="#DejaVuSans-2212"/>
       <use xlink:href="#DejaVuSans-30" transform="translate(83.789062 0)"/>
       <use xlink:href="#DejaVuSans-2e" transform="translate(147.412109 0)"/>
       <use xlink:href="#DejaVuSans-32" transform="translate(179.199219 0)"/>
       <use xlink:href="#DejaVuSans-35" transform="translate(242.822266 0)"/>
      </g>
     </g>
    </g>
    <g id="xtick_3">
     <g id="line2d_5">
      <path d="M 147.803438 277.111219 
L 147.803438 10.999219 
" clip-path="url(#pf977a649c5)" style="fill: none; stroke: #b0b0b0; stroke-width: 0.8; stroke-linecap: square"/>
     </g>
     <g id="line2d_6">
      <g>
       <use xlink:href="#m55c42ea5f9" x="147.803438" y="277.111219" style="stroke: #000000; stroke-width: 0.8"/>
      </g>
     </g>
     <g id="text_3">
      <!-- 0.00 -->
      <g transform="translate(136.670625 291.709656) scale(0.1 -0.1)">
       <use xlink:href="#DejaVuSans-30"/>
       <use xlink:href="#DejaVuSans-2e" transform="translate(63.623047 0)"/>
       <use xlink:href="#DejaVuSans-30" transform="translate(95.410156 0)"/>
       <use xlink:href="#DejaVuSans-30" transform="translate(159.033203 0)"/>
      </g>
     </g>
    </g>
    <g id="xtick_4">
     <g id="line2d_7">
      <path d="M 192.443438 277.111219 
L 192.443438 10.999219 
" clip-path="url(#pf977a649c5)" style="fill: none; stroke: #b0b0b0; stroke-width: 0.8; stroke-linecap: square"/>
     </g>
     <g id="line2d_8">
      <g>
       <use xlink:href="#m55c42ea5f9" x="192.443438" y="277.111219" style="stroke: #000000; stroke-width: 0.8"/>
      </g>
     </g>
     <g id="text_4">
      <!-- 0.25 -->
      <g transform="translate(181.310625 291.709656) scale(0.1 -0.1)">
       <use xlink:href="#DejaVuSans-30"/>
       <use xlink:href="#DejaVuSans-2e" transform="translate(63.623047 0)"/>
       <use xlink:href="#DejaVuSans-32" transform="translate(95.410156 0)"/>
       <use xlink:href="#DejaVuSans-35" transform="translate(159.033203 0)"/>
      </g>
     </g>
    </g>
    <g id="xtick_5">
     <g id="line2d_9">
      <path d="M 237.083438 277.111219 
L 237.083438 10.999219 
" clip-path="url(#pf977a649c5)" style="fill: none; stroke: #b0b0b0; stroke-width: 0.8; stroke-linecap: square"/>
     </g>
     <g id="line2d_10">
      <g>
       <use xlink:href="#m55c42ea5f9" x="237.083438" y="277.111219" style="stroke: #000000; stroke-width: 0.8"/>
      </g>
     </g>
     <g id="text_5">
      <!-- 0.50 -->
      <g transform="translate(225.950625 291.709656) scale(0.1 -0.1)">
       <use xlink:href="#DejaVuSans-30"/>
       <use xlink:href="#DejaVuSans-2e" transform="translate(63.623047 0)"/>
       <use xlink:href="#DejaVuSans-35" transform="translate(95.410156 0)"/>
       <use xlink:href="#DejaVuSans-30" transform="translate(159.033203 0)"/>
      </g>
     </g>
    </g>
    <g id="xtick_6">
     <g id="line2d_11">
      <path d="M 281.723438 277.111219 
L 281.723438 10.999219 
" clip-path="url(#pf977a649c5)" style="fill: none; stroke: #b0b0b0; stroke-width: 0.8; stroke-linecap: square"/>
     </g>
     <g id="line2d_12">
      <g>
       <use xlink:href="#m55c42ea5f9" x="281.723438" y="277.111219" style="stroke: #000000; stroke-width: 0.8"/>
      </g>
     </g>
     <g id="text_6">
      <!-- 0.75 -->
      <g transform="translate(270.590625 291.709656) scale(0.1 -0.1)">
       <defs>
        <path id="DejaVuSans-37" d="M 525 4666 
L 3525 4666 
L 3525 4397 
L 1831 0 
L 1172 0 
L 2766 4134 
L 525 4134 
L 525 4666 
z
" transform="scale(0.015625)"/>
       </defs>
       <use xlink:href="#DejaVuSans-30"/>
       <use xlink:href="#DejaVuSans-2e" transform="translate(63.623047 0)"/>
       <use xlink:href="#DejaVuSans-37" transform="translate(95.410156 0)"/>
       <use xlink:href="#DejaVuSans-35" transform="translate(159.033203 0)"/>
      </g>
     </g>
    </g>
    <g id="xtick_7">
     <g id="line2d_13">
      <path d="M 326.363438 277.111219 
L 326.363438 10.999219 
" clip-path="url(#pf977a649c5)" style="fill: none; stroke: #b0b0b0; stroke-width: 0.8; stroke-linecap: square"/>
     </g>
     <g id="line2d_14">
      <g>
       <use xlink:href="#m55c42ea5f9" x="326.363438" y="277.111219" style="stroke: #000000; stroke-width: 0.8"/>
      </g>
     </g>
     <g id="text_7">
      <!-- 1.00 -->
      <g transform="translate(315.230625 291.709656) scale(0.1 -0.1)">
       <defs>
        <path id="DejaVuSans-31" d="M 794 531 
L 1825 531 
L 1825 4091 
L 703 3866 
L 703 4441 
L 1819 4666 
L 2450 4666 
L 2450 531 
L 3481 531 
L 3481 0 
L 794 0 
L 794 531 
z
" transform="scale(0.015625)"/>
       </defs>
       <use xlink:href="#DejaVuSans-31"/>
       <use xlink:href="#DejaVuSans-2e" transform="translate(63.623047 0)"/>
       <use xlink:href="#DejaVuSans-30" transform="translate(95.410156 0)"/>
       <use xlink:href="#DejaVuSans-30" transform="translate(159.033203 0)"/>
      </g>
     </g>
    </g>
    <g id="xtick_8">
     <g id="line2d_15">
      <path d="M 371.003438 277.111219 
L 371.003438 10.999219 
" clip-path="url(#pf977a649c5)" style="fill: none; stroke: #b0b0b0; stroke-width: 0.8; stroke-linecap: square"/>
     </g>
     <g id="line2d_16">
      <g>
       <use xlink:href="#m55c42ea5f9" x="371.003438" y="277.111219" style="stroke: #000000; stroke-width: 0.8"/>
      </g>
     </g>
     <g id="text_8">
      <!-- 1.25 -->
      <g transform="translate(359.870625 291.709656) scale(0.1 -0.1)">
       <use xlink:href="#DejaVuSans-31"/>
       <use xlink:href="#DejaVuSans-2e" transform="translate(63.623047 0)"/>
       <use xlink:href="#DejaVuSans-32" transform="translate(95.410156 0)"/>
       <use xlink:href="#DejaVuSans-35" transform="translate(159.033203 0)"/>
      </g>
     </g>
    </g>
    <g id="xtick_9">
     <g id="line2d_17">
      <path d="M 415.643438 277.111219 
L 415.643438 10.999219 
" clip-path="url(#pf977a649c5)" style="fill: none; stroke: #b0b0b0; stroke-width: 0.8; stroke-linecap: square"/>
     </g>
     <g id="line2d_18">
      <g>
       <use xlink:href="#m55c42ea5f9" x="415.643438" y="277.111219" style="stroke: #000000; stroke-width: 0.8"/>
      </g>
     </g>
     <g id="text_9">
      <!-- 1.50 -->
      <g transform="translate(404.510625 291.709656) scale(0.1 -0.1)">
       <use xlink:href="#DejaVuSans-31"/>
       <use xlink:href="#DejaVuSans-2e" transform="translate(63.623047 0)"/>
       <use xlink:href="#DejaVuSans-35" transform="translate(95.410156 0)"/>
       <use xlink:href="#DejaVuSans-30" transform="translate(159.033203 0)"/>
      </g>
     </g>
    </g>
    <g id="text_10">
     <!-- X -->
     <g transform="translate(233.658437 305.387781) scale(0.1 -0.1)">
      <defs>
       <path id="DejaVuSans-58" d="M 403 4666 
L 1081 4666 
L 2241 2931 
L 3406 4666 
L 4084 4666 
L 2584 2425 
L 4184 0 
L 3506 0 
L 2194 1984 
L 872 0 
L 191 0 
L 1856 2491 
L 403 4666 
z
" transform="scale(0.015625)"/>
      </defs>
      <use xlink:href="#DejaVuSans-58"/>
     </g>
    </g>
   </g>
   <g id="matplotlib.axis_2">
    <g id="ytick_1">
     <g id="line2d_19">
      <path d="M 58.523438 277.111219 
L 415.643438 277.111219 
" clip-path="url(#pf977a649c5)" style="fill: none; stroke: #b0b0b0; stroke-width: 0.8; stroke-linecap: square"/>
     </g>
     <g id="line2d_20">
      <defs>
       <path id="m89398a5d7a" d="M 0 0 
L -3.5 0 
" style="stroke: #000000; stroke-width: 0.8"/>
      </defs>
      <g>
       <use xlink:href="#m89398a5d7a" x="58.523438" y="277.111219" style="stroke: #000000; stroke-width: 0.8"/>
      </g>
     </g>
     <g id="text_11">
      <!-- −0.50 -->
      <g transform="translate(20.878125 280.910437) scale(0.1 -0.1)">
       <use xlink:href="#DejaVuSans-2212"/>
       <use xlink:href="#DejaVuSans-30" transform="translate(83.789062 0)"/>
       <use xlink:href="#DejaVuSans-2e" transform="translate(147.412109 0)"/>
       <use xlink:href="#DejaVuSans-35" transform="translate(179.199219 0)"/>
       <use xlink:href="#DejaVuSans-30" transform="translate(242.822266 0)"/>
      </g>
     </g>
    </g>
    <g id="ytick_2">
     <g id="line2d_21">
      <path d="M 58.523438 243.847219 
L 415.643438 243.847219 
" clip-path="url(#pf977a649c5)" style="fill: none; stroke: #b0b0b0; stroke-width: 0.8; stroke-linecap: square"/>
     </g>
     <g id="line2d_22">
      <g>
       <use xlink:href="#m89398a5d7a" x="58.523438" y="243.847219" style="stroke: #000000; stroke-width: 0.8"/>
      </g>
     </g>
     <g id="text_12">
      <!-- −0.25 -->
      <g transform="translate(20.878125 247.646437) scale(0.1 -0.1)">
       <use xlink:href="#DejaVuSans-2212"/>
       <use xlink:href="#DejaVuSans-30" transform="translate(83.789062 0)"/>
       <use xlink:href="#DejaVuSans-2e" transform="translate(147.412109 0)"/>
       <use xlink:href="#DejaVuSans-32" transform="translate(179.199219 0)"/>
       <use xlink:href="#DejaVuSans-35" transform="translate(242.822266 0)"/>
      </g>
     </g>
    </g>
    <g id="ytick_3">
     <g id="line2d_23">
      <path d="M 58.523438 210.583219 
L 415.643438 210.583219 
" clip-path="url(#pf977a649c5)" style="fill: none; stroke: #b0b0b0; stroke-width: 0.8; stroke-linecap: square"/>
     </g>
     <g id="line2d_24">
      <g>
       <use xlink:href="#m89398a5d7a" x="58.523438" y="210.583219" style="stroke: #000000; stroke-width: 0.8"/>
      </g>
     </g>
     <g id="text_13">
      <!-- 0.00 -->
      <g transform="translate(29.257813 214.382437) scale(0.1 -0.1)">
       <use xlink:href="#DejaVuSans-30"/>
       <use xlink:href="#DejaVuSans-2e" transform="translate(63.623047 0)"/>
       <use xlink:href="#DejaVuSans-30" transform="translate(95.410156 0)"/>
       <use xlink:href="#DejaVuSans-30" transform="translate(159.033203 0)"/>
      </g>
     </g>
    </g>
    <g id="ytick_4">
     <g id="line2d_25">
      <path d="M 58.523438 177.319219 
L 415.643438 177.319219 
" clip-path="url(#pf977a649c5)" style="fill: none; stroke: #b0b0b0; stroke-width: 0.8; stroke-linecap: square"/>
     </g>
     <g id="line2d_26">
      <g>
       <use xlink:href="#m89398a5d7a" x="58.523438" y="177.319219" style="stroke: #000000; stroke-width: 0.8"/>
      </g>
     </g>
     <g id="text_14">
      <!-- 0.25 -->
      <g transform="translate(29.257813 181.118437) scale(0.1 -0.1)">
       <use xlink:href="#DejaVuSans-30"/>
       <use xlink:href="#DejaVuSans-2e" transform="translate(63.623047 0)"/>
       <use xlink:href="#DejaVuSans-32" transform="translate(95.410156 0)"/>
       <use xlink:href="#DejaVuSans-35" transform="translate(159.033203 0)"/>
      </g>
     </g>
    </g>
    <g id="ytick_5">
     <g id="line2d_27">
      <path d="M 58.523438 144.055219 
L 415.643438 144.055219 
" clip-path="url(#pf977a649c5)" style="fill: none; stroke: #b0b0b0; stroke-width: 0.8; stroke-linecap: square"/>
     </g>
     <g id="line2d_28">
      <g>
       <use xlink:href="#m89398a5d7a" x="58.523438" y="144.055219" style="stroke: #000000; stroke-width: 0.8"/>
      </g>
     </g>
     <g id="text_15">
      <!-- 0.50 -->
      <g transform="translate(29.257813 147.854437) scale(0.1 -0.1)">
       <use xlink:href="#DejaVuSans-30"/>
       <use xlink:href="#DejaVuSans-2e" transform="translate(63.623047 0)"/>
       <use xlink:href="#DejaVuSans-35" transform="translate(95.410156 0)"/>
       <use xlink:href="#DejaVuSans-30" transform="translate(159.033203 0)"/>
      </g>
     </g>
    </g>
    <g id="ytick_6">
     <g id="line2d_29">
      <path d="M 58.523438 110.791219 
L 415.643438 110.791219 
" clip-path="url(#pf977a649c5)" style="fill: none; stroke: #b0b0b0; stroke-width: 0.8; stroke-linecap: square"/>
     </g>
     <g id="line2d_30">
      <g>
       <use xlink:href="#m89398a5d7a" x="58.523438" y="110.791219" style="stroke: #000000; stroke-width: 0.8"/>
      </g>
     </g>
     <g id="text_16">
      <!-- 0.75 -->
      <g transform="translate(29.257813 114.590437) scale(0.1 -0.1)">
       <use xlink:href="#DejaVuSans-30"/>
       <use xlink:href="#DejaVuSans-2e" transform="translate(63.623047 0)"/>
       <use xlink:href="#DejaVuSans-37" transform="translate(95.410156 0)"/>
       <use xlink:href="#DejaVuSans-35" transform="translate(159.033203 0)"/>
      </g>
     </g>
    </g>
    <g id="ytick_7">
     <g id="line2d_31">
      <path d="M 58.523438 77.527219 
L 415.643438 77.527219 
" clip-path="url(#pf977a649c5)" style="fill: none; stroke: #b0b0b0; stroke-width: 0.8; stroke-linecap: square"/>
     </g>
     <g id="line2d_32">
      <g>
       <use xlink:href="#m89398a5d7a" x="58.523438" y="77.527219" style="stroke: #000000; stroke-width: 0.8"/>
      </g>
     </g>
     <g id="text_17">
      <!-- 1.00 -->
      <g transform="translate(29.257813 81.326437) scale(0.1 -0.1)">
       <use xlink:href="#DejaVuSans-31"/>
       <use xlink:href="#DejaVuSans-2e" transform="translate(63.623047 0)"/>
       <use xlink:href="#DejaVuSans-30" transform="translate(95.410156 0)"/>
       <use xlink:href="#DejaVuSans-30" transform="translate(159.033203 0)"/>
      </g>
     </g>
    </g>
    <g id="ytick_8">
     <g id="line2d_33">
      <path d="M 58.523438 44.263219 
L 415.643438 44.263219 
" clip-path="url(#pf977a649c5)" style="fill: none; stroke: #b0b0b0; stroke-width: 0.8; stroke-linecap: square"/>
     </g>
     <g id="line2d_34">
      <g>
       <use xlink:href="#m89398a5d7a" x="58.523438" y="44.263219" style="stroke: #000000; stroke-width: 0.8"/>
      </g>
     </g>
     <g id="text_18">
      <!-- 1.25 -->
      <g transform="translate(29.257813 48.062437) scale(0.1 -0.1)">
       <use xlink:href="#DejaVuSans-31"/>
       <use xlink:href="#DejaVuSans-2e" transform="translate(63.623047 0)"/>
       <use xlink:href="#DejaVuSans-32" transform="translate(95.410156 0)"/>
       <use xlink:href="#DejaVuSans-35" transform="translate(159.033203 0)"/>
      </g>
     </g>
    </g>
    <g id="ytick_9">
     <g id="line2d_35">
      <path d="M 58.523438 10.999219 
L 415.643438 10.999219 
" clip-path="url(#pf977a649c5)" style="fill: none; stroke: #b0b0b0; stroke-width: 0.8; stroke-linecap: square"/>
     </g>
     <g id="line2d_36">
      <g>
       <use xlink:href="#m89398a5d7a" x="58.523438" y="10.999219" style="stroke: #000000; stroke-width: 0.8"/>
      </g>
     </g>
     <g id="text_19">
      <!-- 1.50 -->
      <g transform="translate(29.257813 14.798437) scale(0.1 -0.1)">
       <use xlink:href="#DejaVuSans-31"/>
       <use xlink:href="#DejaVuSans-2e" transform="translate(63.623047 0)"/>
       <use xlink:href="#DejaVuSans-35" transform="translate(95.410156 0)"/>
       <use xlink:href="#DejaVuSans-30" transform="translate(159.033203 0)"/>
      </g>
     </g>
    </g>
    <g id="text_20">
     <!-- Y -->
     <g transform="translate(14.798438 147.109125) rotate(-90) scale(0.1 -0.1)">
      <defs>
       <path id="DejaVuSans-59" d="M -13 4666 
L 666 4666 
L 1959 2747 
L 3244 4666 
L 3922 4666 
L 2272 2222 
L 2272 0 
L 1638 0 
L 1638 2222 
L -13 4666 
z
" transform="scale(0.015625)"/>
      </defs>
      <use xlink:href="#DejaVuSans-59"/>
     </g>
    </g>
   </g>
   <g id="line2d_37">
    <path d="M 147.803438 210.583219 
" clip-path="url(#pf977a649c5)" style="fill: none; stroke: #0000ff; stroke-width: 1.5; stroke-linecap: square"/>
    <defs>
     <path id="m4146d659db" d="M 0 3 
C 0.795609 3 1.55874 2.683901 2.12132 2.12132 
C 2.683901 1.55874 3 0.795609 3 0 
C 3 -0.795609 2.683901 -1.55874 2.12132 -2.12132 
C 1.55874 -2.683901 0.795609 -3 0 -3 
C -0.795609 -3 -1.55874 -2.683901 -2.12132 -2.12132 
C -2.683901 -1.55874 -3 -0.795609 -3 0 
C -3 0.795609 -2.683901 1.55874 -2.12132 2.12132 
C -1.55874 2.683901 -0.795609 3 0 3 
z
" style="stroke: #0000ff"/>
    </defs>
    <g clip-path="url(#pf977a649c5)">
     <use xlink:href="#m4146d659db" x="147.803438" y="210.583219" style="fill: #0000ff; stroke: #0000ff"/>
    </g>
   </g>
   <g id="line2d_38">
    <path d="M 147.803438 77.527219 
" clip-path="url(#pf977a649c5)" style="fill: none; stroke: #0000ff; stroke-width: 1.5; stroke-linecap: square"/>
    <g clip-path="url(#pf977a649c5)">
     <use xlink:href="#m4146d659db" x="147.803438" y="77.527219" style="fill: #0000ff; stroke: #0000ff"/>
    </g>
   </g>
   <g id="line2d_39">
    <path d="M 326.363438 210.583219 
" clip-path="url(#pf977a649c5)" style="fill: none; stroke: #0000ff; stroke-width: 1.5; stroke-linecap: square"/>
    <g clip-path="url(#pf977a649c5)">
     <use xlink:href="#m4146d659db" x="326.363438" y="210.583219" style="fill: #0000ff; stroke: #0000ff"/>
    </g>
   </g>
   <g id="line2d_40">
    <path d="M 326.363438 77.527219 
" clip-path="url(#pf977a649c5)" style="fill: none; stroke: #0000ff; stroke-width: 1.5; stroke-linecap: square"/>
    <g clip-path="url(#pf977a649c5)">
     <use xlink:href="#m4146d659db" x="326.363438" y="77.527219" style="fill: #0000ff; stroke: #0000ff"/>
    </g>
   </g>
   <g id="line2d_41">
    <path d="M 58.523438 77.527219 
L 62.13071 80.215219 
L 65.737983 82.903219 
L 69.345256 85.591219 
L 72.952528 88.279219 
L 76.559801 90.967219 
L 80.167074 93.655219 
L 83.774347 96.343219 
L 87.381619 99.031219 
L 90.988892 101.719219 
L 94.596165 104.407219 
L 98.203438 107.095219 
L 101.81071 109.783219 
L 105.417983 112.471219 
L 109.025256 115.159219 
L 112.632528 117.847219 
L 116.239801 120.535219 
L 119.847074 123.223219 
L 123.454347 125.911219 
L 127.061619 128.599219 
L 130.668892 131.287219 
L 134.276165 133.975219 
L 137.883438 136.663219 
L 141.49071 139.351219 
L 145.097983 142.039219 
L 148.705256 144.727219 
L 152.312528 147.415219 
L 155.919801 150.103219 
L 159.527074 152.791219 
L 163.134347 155.479219 
L 166.741619 158.167219 
L 170.348892 160.855219 
L 173.956165 163.543219 
L 177.563438 166.231219 
L 181.17071 168.919219 
L 184.777983 171.607219 
L 188.385256 174.295219 
L 191.992528 176.983219 
L 195.599801 179.671219 
L 199.207074 182.359219 
L 202.814347 185.047219 
L 206.421619 187.735219 
L 210.028892 190.423219 
L 213.636165 193.111219 
L 217.243438 195.799219 
L 220.85071 198.487219 
L 224.457983 201.175219 
L 228.065256 203.863219 
L 231.672528 206.551219 
L 235.279801 209.239219 
L 238.887074 211.927219 
L 242.494347 214.615219 
L 246.101619 217.303219 
L 249.708892 219.991219 
L 253.316165 222.679219 
L 256.923437 225.367219 
L 260.53071 228.055219 
L 264.137983 230.743219 
L 267.745256 233.431219 
L 271.352528 236.119219 
L 274.959801 238.807219 
L 278.567074 241.495219 
L 282.174347 244.183219 
L 285.781619 246.871219 
L 289.388892 249.559219 
L 292.996165 252.247219 
L 296.603438 254.935219 
L 300.21071 257.623219 
L 303.817983 260.311219 
L 307.425256 262.999219 
L 311.032528 265.687219 
L 314.639801 268.375219 
L 318.247074 271.063219 
L 321.854347 273.751219 
L 325.461619 276.439219 
L 329.068892 279.127219 
L 332.676165 281.815219 
L 336.283437 284.503219 
L 339.89071 287.191219 
L 343.497983 289.879219 
L 347.105256 292.567219 
L 350.712528 295.255219 
L 354.319801 297.943219 
L 357.927074 300.631219 
L 361.534347 303.319219 
L 365.141619 306.007219 
L 368.748892 308.695219 
L 372.356165 311.383219 
L 375.963438 314.071219 
L 378.105591 315.667469 
" clip-path="url(#pf977a649c5)" style="fill: none; stroke: #1f77b4; stroke-width: 1.5; stroke-linecap: square"/>
   </g>
   <g id="patch_3">
    <path d="M 58.523438 277.111219 
L 58.523438 10.999219 
" style="fill: none; stroke: #000000; stroke-width: 0.8; stroke-linejoin: miter; stroke-linecap: square"/>
   </g>
   <g id="patch_4">
    <path d="M 415.643438 277.111219 
L 415.643438 10.999219 
" style="fill: none; stroke: #000000; stroke-width: 0.8; stroke-linejoin: miter; stroke-linecap: square"/>
   </g>
   <g id="patch_5">
    <path d="M 58.523438 277.111219 
L 415.643438 277.111219 
" style="fill: none; stroke: #000000; stroke-width: 0.8; stroke-linejoin: miter; stroke-linecap: square"/>
   </g>
   <g id="patch_6">
    <path d="M 58.523438 10.999219 
L 415.643438 10.999219 
" style="fill: none; stroke: #000000; stroke-width: 0.8; stroke-linejoin: miter; stroke-linecap: square"/>
   </g>
   <g id="patch_7">
    <path d="M 238.688232 209.387388 
Q 259.40339 193.951254 279.222043 179.183161 
" style="fill: none; stroke: #000000; stroke-linecap: round"/>
    <path d="M 274.819581 179.9695 
L 279.222043 179.183161 
L 277.209637 183.176934 
" style="fill: none; stroke: #000000; stroke-linecap: round"/>
   </g>
  </g>
 </g>
 <defs>
  <clipPath id="pf977a649c5">
   <rect x="58.523438" y="10.999219" width="357.12" height="266.112"/>
  </clipPath>
 </defs>
</svg>
