<?xml version="1.0" encoding="utf-8" standalone="no"?>
<!DOCTYPE svg PUBLIC "-//W3C//DTD SVG 1.1//EN"
  "http://www.w3.org/Graphics/SVG/1.1/DTD/svg11.dtd">
<svg xmlns:xlink="http://www.w3.org/1999/xlink" width="405.943125pt" height="224.614125pt" viewBox="0 0 405.943125 224.614125" xmlns="http://www.w3.org/2000/svg" version="1.1">
 <metadata>
  <rdf:RDF xmlns:dc="http://purl.org/dc/elements/1.1/" xmlns:cc="http://creativecommons.org/ns#" xmlns:rdf="http://www.w3.org/1999/02/22-rdf-syntax-ns#">
   <cc:Work>
    <dc:type rdf:resource="http://purl.org/dc/dcmitype/StillImage"/>
    <dc:date>2025-05-20T17:47:31.749907</dc:date>
    <dc:format>image/svg+xml</dc:format>
    <dc:creator>
     <cc:Agent>
      <dc:title>Matplotlib v3.10.1, https://matplotlib.org/</dc:title>
     </cc:Agent>
    </dc:creator>
   </cc:Work>
  </rdf:RDF>
 </metadata>
 <defs>
  <style type="text/css">*{stroke-linejoin: round; stroke-linecap: butt}</style>
 </defs>
 <g id="figure_1">
  <g id="patch_1">
   <path d="M -0 224.614125 
L 405.943125 224.614125 
L 405.943125 0 
L -0 0 
z
" style="fill: #ffffff"/>
  </g>
  <g id="axes_1">
   <g id="patch_2">
    <path d="M 30.103125 200.736 
L 398.743125 200.736 
L 398.743125 7.2 
L 30.103125 7.2 
z
" style="fill: #d3d3d3; fill-opacity: 0.133333"/>
   </g>
   <g id="matplotlib.axis_1">
    <g id="xtick_1">
     <g id="line2d_1">
      <path d="M 60.823125 200.736 
L 60.823125 7.2 
" clip-path="url(#p8628d6f354)" style="fill: none; stroke: #b0b0b0; stroke-width: 0.8; stroke-linecap: square"/>
     </g>
     <g id="line2d_2">
      <defs>
       <path id="m755d81661a" d="M 0 0 
L 0 3.5 
" style="stroke: #000000; stroke-width: 0.8"/>
      </defs>
      <g>
       <use xlink:href="#m755d81661a" x="60.823125" y="200.736" style="stroke: #000000; stroke-width: 0.8"/>
      </g>
     </g>
     <g id="text_1">
      <!-- −10 -->
      <g transform="translate(50.270781 215.334438) scale(0.1 -0.1)">
       <defs>
        <path id="DejaVuSans-2212" d="M 678 2272 
L 4684 2272 
L 4684 1741 
L 678 1741 
L 678 2272 
z
" transform="scale(0.015625)"/>
        <path id="DejaVuSans-31" d="M 794 531 
L 1825 531 
L 1825 4091 
L 703 3866 
L 703 4441 
L 1819 4666 
L 2450 4666 
L 2450 531 
L 3481 531 
L 3481 0 
L 794 0 
L 794 531 
z
" transform="scale(0.015625)"/>
        <path id="DejaVuSans-30" d="M 2034 4250 
Q 1547 4250 1301 3770 
Q 1056 3291 1056 2328 
Q 1056 1369 1301 889 
Q 1547 409 2034 409 
Q 2525 409 2770 889 
Q 3016 1369 3016 2328 
Q 3016 3291 2770 3770 
Q 2525 4250 2034 4250 
z
M 2034 4750 
Q 2819 4750 3233 4129 
Q 3647 3509 3647 2328 
Q 3647 1150 3233 529 
Q 2819 -91 2034 -91 
Q 1250 -91 836 529 
Q 422 1150 422 2328 
Q 422 3509 836 4129 
Q 1250 4750 2034 4750 
z
" transform="scale(0.015625)"/>
       </defs>
       <use xlink:href="#DejaVuSans-2212"/>
       <use xlink:href="#DejaVuSans-31" transform="translate(83.789062 0)"/>
       <use xlink:href="#DejaVuSans-30" transform="translate(147.412109 0)"/>
      </g>
     </g>
    </g>
    <g id="xtick_2">
     <g id="line2d_3">
      <path d="M 137.623125 200.736 
L 137.623125 7.2 
" clip-path="url(#p8628d6f354)" style="fill: none; stroke: #b0b0b0; stroke-width: 0.8; stroke-linecap: square"/>
     </g>
     <g id="line2d_4">
      <g>
       <use xlink:href="#m755d81661a" x="137.623125" y="200.736" style="stroke: #000000; stroke-width: 0.8"/>
      </g>
     </g>
     <g id="text_2">
      <!-- −5 -->
      <g transform="translate(130.252031 215.334438) scale(0.1 -0.1)">
       <defs>
        <path id="DejaVuSans-35" d="M 691 4666 
L 3169 4666 
L 3169 4134 
L 1269 4134 
L 1269 2991 
Q 1406 3038 1543 3061 
Q 1681 3084 1819 3084 
Q 2600 3084 3056 2656 
Q 3513 2228 3513 1497 
Q 3513 744 3044 326 
Q 2575 -91 1722 -91 
Q 1428 -91 1123 -41 
Q 819 9 494 109 
L 494 744 
Q 775 591 1075 516 
Q 1375 441 1709 441 
Q 2250 441 2565 725 
Q 2881 1009 2881 1497 
Q 2881 1984 2565 2268 
Q 2250 2553 1709 2553 
Q 1456 2553 1204 2497 
Q 953 2441 691 2322 
L 691 4666 
z
" transform="scale(0.015625)"/>
       </defs>
       <use xlink:href="#DejaVuSans-2212"/>
       <use xlink:href="#DejaVuSans-35" transform="translate(83.789062 0)"/>
      </g>
     </g>
    </g>
    <g id="xtick_3">
     <g id="line2d_5">
      <path d="M 214.423125 200.736 
L 214.423125 7.2 
" clip-path="url(#p8628d6f354)" style="fill: none; stroke: #b0b0b0; stroke-width: 0.8; stroke-linecap: square"/>
     </g>
     <g id="line2d_6">
      <g>
       <use xlink:href="#m755d81661a" x="214.423125" y="200.736" style="stroke: #000000; stroke-width: 0.8"/>
      </g>
     </g>
     <g id="text_3">
      <!-- 0 -->
      <g transform="translate(211.241875 215.334438) scale(0.1 -0.1)">
       <use xlink:href="#DejaVuSans-30"/>
      </g>
     </g>
    </g>
    <g id="xtick_4">
     <g id="line2d_7">
      <path d="M 291.223125 200.736 
L 291.223125 7.2 
" clip-path="url(#p8628d6f354)" style="fill: none; stroke: #b0b0b0; stroke-width: 0.8; stroke-linecap: square"/>
     </g>
     <g id="line2d_8">
      <g>
       <use xlink:href="#m755d81661a" x="291.223125" y="200.736" style="stroke: #000000; stroke-width: 0.8"/>
      </g>
     </g>
     <g id="text_4">
      <!-- 5 -->
      <g transform="translate(288.041875 215.334438) scale(0.1 -0.1)">
       <use xlink:href="#DejaVuSans-35"/>
      </g>
     </g>
    </g>
    <g id="xtick_5">
     <g id="line2d_9">
      <path d="M 368.023125 200.736 
L 368.023125 7.2 
" clip-path="url(#p8628d6f354)" style="fill: none; stroke: #b0b0b0; stroke-width: 0.8; stroke-linecap: square"/>
     </g>
     <g id="line2d_10">
      <g>
       <use xlink:href="#m755d81661a" x="368.023125" y="200.736" style="stroke: #000000; stroke-width: 0.8"/>
      </g>
     </g>
     <g id="text_5">
      <!-- 10 -->
      <g transform="translate(361.660625 215.334438) scale(0.1 -0.1)">
       <use xlink:href="#DejaVuSans-31"/>
       <use xlink:href="#DejaVuSans-30" transform="translate(63.623047 0)"/>
      </g>
     </g>
    </g>
   </g>
   <g id="matplotlib.axis_2">
    <g id="ytick_1">
     <g id="line2d_11">
      <path d="M 30.103125 191.938909 
L 398.743125 191.938909 
" clip-path="url(#p8628d6f354)" style="fill: none; stroke: #b0b0b0; stroke-width: 0.8; stroke-linecap: square"/>
     </g>
     <g id="line2d_12">
      <defs>
       <path id="mef97b94365" d="M 0 0 
L -3.5 0 
" style="stroke: #000000; stroke-width: 0.8"/>
      </defs>
      <g>
       <use xlink:href="#mef97b94365" x="30.103125" y="191.938909" style="stroke: #000000; stroke-width: 0.8"/>
      </g>
     </g>
     <g id="text_6">
      <!-- 0.0 -->
      <g transform="translate(7.2 195.738128) scale(0.1 -0.1)">
       <defs>
        <path id="DejaVuSans-2e" d="M 684 794 
L 1344 794 
L 1344 0 
L 684 0 
L 684 794 
z
" transform="scale(0.015625)"/>
       </defs>
       <use xlink:href="#DejaVuSans-30"/>
       <use xlink:href="#DejaVuSans-2e" transform="translate(63.623047 0)"/>
       <use xlink:href="#DejaVuSans-30" transform="translate(95.410156 0)"/>
      </g>
     </g>
    </g>
    <g id="ytick_2">
     <g id="line2d_13">
      <path d="M 30.103125 156.750545 
L 398.743125 156.750545 
" clip-path="url(#p8628d6f354)" style="fill: none; stroke: #b0b0b0; stroke-width: 0.8; stroke-linecap: square"/>
     </g>
     <g id="line2d_14">
      <g>
       <use xlink:href="#mef97b94365" x="30.103125" y="156.750545" style="stroke: #000000; stroke-width: 0.8"/>
      </g>
     </g>
     <g id="text_7">
      <!-- 0.2 -->
      <g transform="translate(7.2 160.549764) scale(0.1 -0.1)">
       <defs>
        <path id="DejaVuSans-32" d="M 1228 531 
L 3431 531 
L 3431 0 
L 469 0 
L 469 531 
Q 828 903 1448 1529 
Q 2069 2156 2228 2338 
Q 2531 2678 2651 2914 
Q 2772 3150 2772 3378 
Q 2772 3750 2511 3984 
Q 2250 4219 1831 4219 
Q 1534 4219 1204 4116 
Q 875 4013 500 3803 
L 500 4441 
Q 881 4594 1212 4672 
Q 1544 4750 1819 4750 
Q 2544 4750 2975 4387 
Q 3406 4025 3406 3419 
Q 3406 3131 3298 2873 
Q 3191 2616 2906 2266 
Q 2828 2175 2409 1742 
Q 1991 1309 1228 531 
z
" transform="scale(0.015625)"/>
       </defs>
       <use xlink:href="#DejaVuSans-30"/>
       <use xlink:href="#DejaVuSans-2e" transform="translate(63.623047 0)"/>
       <use xlink:href="#DejaVuSans-32" transform="translate(95.410156 0)"/>
      </g>
     </g>
    </g>
    <g id="ytick_3">
     <g id="line2d_15">
      <path d="M 30.103125 121.562182 
L 398.743125 121.562182 
" clip-path="url(#p8628d6f354)" style="fill: none; stroke: #b0b0b0; stroke-width: 0.8; stroke-linecap: square"/>
     </g>
     <g id="line2d_16">
      <g>
       <use xlink:href="#mef97b94365" x="30.103125" y="121.562182" style="stroke: #000000; stroke-width: 0.8"/>
      </g>
     </g>
     <g id="text_8">
      <!-- 0.4 -->
      <g transform="translate(7.2 125.361401) scale(0.1 -0.1)">
       <defs>
        <path id="DejaVuSans-34" d="M 2419 4116 
L 825 1625 
L 2419 1625 
L 2419 4116 
z
M 2253 4666 
L 3047 4666 
L 3047 1625 
L 3713 1625 
L 3713 1100 
L 3047 1100 
L 3047 0 
L 2419 0 
L 2419 1100 
L 313 1100 
L 313 1709 
L 2253 4666 
z
" transform="scale(0.015625)"/>
       </defs>
       <use xlink:href="#DejaVuSans-30"/>
       <use xlink:href="#DejaVuSans-2e" transform="translate(63.623047 0)"/>
       <use xlink:href="#DejaVuSans-34" transform="translate(95.410156 0)"/>
      </g>
     </g>
    </g>
    <g id="ytick_4">
     <g id="line2d_17">
      <path d="M 30.103125 86.373818 
L 398.743125 86.373818 
" clip-path="url(#p8628d6f354)" style="fill: none; stroke: #b0b0b0; stroke-width: 0.8; stroke-linecap: square"/>
     </g>
     <g id="line2d_18">
      <g>
       <use xlink:href="#mef97b94365" x="30.103125" y="86.373818" style="stroke: #000000; stroke-width: 0.8"/>
      </g>
     </g>
     <g id="text_9">
      <!-- 0.6 -->
      <g transform="translate(7.2 90.173037) scale(0.1 -0.1)">
       <defs>
        <path id="DejaVuSans-36" d="M 2113 2584 
Q 1688 2584 1439 2293 
Q 1191 2003 1191 1497 
Q 1191 994 1439 701 
Q 1688 409 2113 409 
Q 2538 409 2786 701 
Q 3034 994 3034 1497 
Q 3034 2003 2786 2293 
Q 2538 2584 2113 2584 
z
M 3366 4563 
L 3366 3988 
Q 3128 4100 2886 4159 
Q 2644 4219 2406 4219 
Q 1781 4219 1451 3797 
Q 1122 3375 1075 2522 
Q 1259 2794 1537 2939 
Q 1816 3084 2150 3084 
Q 2853 3084 3261 2657 
Q 3669 2231 3669 1497 
Q 3669 778 3244 343 
Q 2819 -91 2113 -91 
Q 1303 -91 875 529 
Q 447 1150 447 2328 
Q 447 3434 972 4092 
Q 1497 4750 2381 4750 
Q 2619 4750 2861 4703 
Q 3103 4656 3366 4563 
z
" transform="scale(0.015625)"/>
       </defs>
       <use xlink:href="#DejaVuSans-30"/>
       <use xlink:href="#DejaVuSans-2e" transform="translate(63.623047 0)"/>
       <use xlink:href="#DejaVuSans-36" transform="translate(95.410156 0)"/>
      </g>
     </g>
    </g>
    <g id="ytick_5">
     <g id="line2d_19">
      <path d="M 30.103125 51.185455 
L 398.743125 51.185455 
" clip-path="url(#p8628d6f354)" style="fill: none; stroke: #b0b0b0; stroke-width: 0.8; stroke-linecap: square"/>
     </g>
     <g id="line2d_20">
      <g>
       <use xlink:href="#mef97b94365" x="30.103125" y="51.185455" style="stroke: #000000; stroke-width: 0.8"/>
      </g>
     </g>
     <g id="text_10">
      <!-- 0.8 -->
      <g transform="translate(7.2 54.984673) scale(0.1 -0.1)">
       <defs>
        <path id="DejaVuSans-38" d="M 2034 2216 
Q 1584 2216 1326 1975 
Q 1069 1734 1069 1313 
Q 1069 891 1326 650 
Q 1584 409 2034 409 
Q 2484 409 2743 651 
Q 3003 894 3003 1313 
Q 3003 1734 2745 1975 
Q 2488 2216 2034 2216 
z
M 1403 2484 
Q 997 2584 770 2862 
Q 544 3141 544 3541 
Q 544 4100 942 4425 
Q 1341 4750 2034 4750 
Q 2731 4750 3128 4425 
Q 3525 4100 3525 3541 
Q 3525 3141 3298 2862 
Q 3072 2584 2669 2484 
Q 3125 2378 3379 2068 
Q 3634 1759 3634 1313 
Q 3634 634 3220 271 
Q 2806 -91 2034 -91 
Q 1263 -91 848 271 
Q 434 634 434 1313 
Q 434 1759 690 2068 
Q 947 2378 1403 2484 
z
M 1172 3481 
Q 1172 3119 1398 2916 
Q 1625 2713 2034 2713 
Q 2441 2713 2670 2916 
Q 2900 3119 2900 3481 
Q 2900 3844 2670 4047 
Q 2441 4250 2034 4250 
Q 1625 4250 1398 4047 
Q 1172 3844 1172 3481 
z
" transform="scale(0.015625)"/>
       </defs>
       <use xlink:href="#DejaVuSans-30"/>
       <use xlink:href="#DejaVuSans-2e" transform="translate(63.623047 0)"/>
       <use xlink:href="#DejaVuSans-38" transform="translate(95.410156 0)"/>
      </g>
     </g>
    </g>
    <g id="ytick_6">
     <g id="line2d_21">
      <path d="M 30.103125 15.997091 
L 398.743125 15.997091 
" clip-path="url(#p8628d6f354)" style="fill: none; stroke: #b0b0b0; stroke-width: 0.8; stroke-linecap: square"/>
     </g>
     <g id="line2d_22">
      <g>
       <use xlink:href="#mef97b94365" x="30.103125" y="15.997091" style="stroke: #000000; stroke-width: 0.8"/>
      </g>
     </g>
     <g id="text_11">
      <!-- 1.0 -->
      <g transform="translate(7.2 19.79631) scale(0.1 -0.1)">
       <use xlink:href="#DejaVuSans-31"/>
       <use xlink:href="#DejaVuSans-2e" transform="translate(63.623047 0)"/>
       <use xlink:href="#DejaVuSans-30" transform="translate(95.410156 0)"/>
      </g>
     </g>
    </g>
   </g>
   <g id="line2d_23">
    <path d="M 60.823125 191.938909 
L 63.926155 191.938909 
L 67.029186 191.938909 
L 70.132216 191.938909 
L 73.235246 191.938909 
L 76.338277 191.938909 
L 79.441307 191.938909 
L 82.544337 191.938909 
L 85.647367 191.938909 
L 88.750398 191.938909 
L 91.853428 191.938909 
L 94.956458 191.938909 
L 98.059489 191.938909 
L 101.162519 191.938909 
L 104.265549 191.938909 
L 107.36858 191.938909 
L 110.47161 191.938909 
L 113.57464 191.938909 
L 116.67767 191.938909 
L 119.780701 191.938909 
L 122.883731 191.938909 
L 125.986761 191.938909 
L 129.089792 191.938909 
L 132.192822 191.938909 
L 135.295852 191.938909 
L 138.398883 191.938909 
L 141.501913 191.938909 
L 144.604943 191.938909 
L 147.707973 191.938909 
L 150.811004 191.938909 
L 153.914034 191.938909 
L 157.017064 191.938909 
L 160.120095 191.938909 
L 163.223125 191.938909 
L 166.326155 191.938909 
L 169.429186 191.938909 
L 172.532216 191.938909 
L 175.635246 191.938909 
L 178.738277 191.938909 
L 181.841307 191.938909 
L 184.944337 165.265354 
L 188.047367 129.721552 
L 191.150398 94.177751 
L 194.253428 58.633949 
L 197.356458 23.090147 
L 200.459489 15.997091 
L 203.562519 15.997091 
L 206.665549 15.997091 
L 209.76858 15.997091 
L 212.87161 15.997091 
L 215.97464 15.997091 
L 219.07767 15.997091 
L 222.180701 15.997091 
L 225.283731 15.997091 
L 228.386761 15.997091 
L 231.489792 15.997091 
L 234.592822 15.997091 
L 237.695852 15.997091 
L 240.798883 15.997091 
L 243.901913 15.997091 
L 247.004943 15.997091 
L 250.107973 15.997091 
L 253.211004 15.997091 
L 256.314034 15.997091 
L 259.417064 15.997091 
L 262.520095 15.997091 
L 265.623125 15.997091 
L 268.726155 15.997091 
L 271.829186 15.997091 
L 274.932216 15.997091 
L 278.035246 15.997091 
L 281.138277 15.997091 
L 284.241307 15.997091 
L 287.344337 15.997091 
L 290.447367 15.997091 
L 293.550398 15.997091 
L 296.653428 15.997091 
L 299.756458 15.997091 
L 302.859489 15.997091 
L 305.962519 15.997091 
L 309.065549 15.997091 
L 312.16858 15.997091 
L 315.27161 15.997091 
L 318.37464 15.997091 
L 321.47767 15.997091 
L 324.580701 15.997091 
L 327.683731 15.997091 
L 330.786761 15.997091 
L 333.889792 15.997091 
L 336.992822 15.997091 
L 340.095852 15.997091 
L 343.198883 15.997091 
L 346.301913 15.997091 
L 349.404943 15.997091 
L 352.507973 15.997091 
L 355.611004 15.997091 
L 358.714034 15.997091 
L 361.817064 15.997091 
L 364.920095 15.997091 
L 368.023125 15.997091 
" clip-path="url(#p8628d6f354)" style="fill: none; stroke: #7a76c2; stroke-width: 2; stroke-linecap: square"/>
   </g>
   <g id="line2d_24">
    <path d="M 60.823125 191.938909 
L 63.926155 191.938909 
L 67.029186 191.938909 
L 70.132216 191.938909 
L 73.235246 191.938909 
L 76.338277 191.938909 
L 79.441307 191.938909 
L 82.544337 191.938909 
L 85.647367 191.938909 
L 88.750398 191.938909 
L 91.853428 191.938909 
L 94.956458 191.938909 
L 98.059489 191.938909 
L 101.162519 191.938909 
L 104.265549 191.938909 
L 107.36858 191.938909 
L 110.47161 191.938909 
L 113.57464 191.938909 
L 116.67767 191.938909 
L 119.780701 191.938909 
L 122.883731 191.938909 
L 125.986761 191.938909 
L 129.089792 191.938909 
L 132.192822 191.938909 
L 135.295852 191.938909 
L 138.398883 191.938909 
L 141.501913 191.938909 
L 144.604943 191.938909 
L 147.707973 191.938909 
L 150.811004 191.938909 
L 153.914034 191.938909 
L 157.017064 191.938909 
L 160.120095 191.938909 
L 163.223125 191.938909 
L 166.326155 191.938909 
L 169.429186 191.938909 
L 172.532216 191.938909 
L 175.635246 191.938909 
L 178.738277 191.938909 
L 181.841307 191.938909 
L 184.944337 191.938909 
L 188.047367 191.938909 
L 191.150398 191.938909 
L 194.253428 191.938909 
L 197.356458 191.938909 
L 200.459489 191.938909 
L 203.562519 191.938909 
L 206.665549 191.938909 
L 209.76858 191.938909 
L 212.87161 191.938909 
L 215.97464 191.938909 
L 219.07767 191.938909 
L 222.180701 191.938909 
L 225.283731 191.938909 
L 228.386761 191.938909 
L 231.489792 184.845853 
L 234.592822 149.302051 
L 237.695852 113.758249 
L 240.798883 78.214448 
L 243.901913 42.670646 
L 247.004943 15.997091 
L 250.107973 15.997091 
L 253.211004 15.997091 
L 256.314034 15.997091 
L 259.417064 15.997091 
L 262.520095 15.997091 
L 265.623125 15.997091 
L 268.726155 15.997091 
L 271.829186 15.997091 
L 274.932216 15.997091 
L 278.035246 15.997091 
L 281.138277 15.997091 
L 284.241307 15.997091 
L 287.344337 15.997091 
L 290.447367 15.997091 
L 293.550398 15.997091 
L 296.653428 15.997091 
L 299.756458 15.997091 
L 302.859489 15.997091 
L 305.962519 15.997091 
L 309.065549 15.997091 
L 312.16858 15.997091 
L 315.27161 15.997091 
L 318.37464 15.997091 
L 321.47767 15.997091 
L 324.580701 15.997091 
L 327.683731 15.997091 
L 330.786761 15.997091 
L 333.889792 15.997091 
L 336.992822 15.997091 
L 340.095852 15.997091 
L 343.198883 15.997091 
L 346.301913 15.997091 
L 349.404943 15.997091 
L 352.507973 15.997091 
L 355.611004 15.997091 
L 358.714034 15.997091 
L 361.817064 15.997091 
L 364.920095 15.997091 
L 368.023125 15.997091 
" clip-path="url(#p8628d6f354)" style="fill: none; stroke: #ff6e9c; stroke-width: 2; stroke-linecap: square"/>
   </g>
   <g id="line2d_25">
    <path d="M 60.823125 191.938909 
L 63.926155 191.938909 
L 67.029186 191.938909 
L 70.132216 191.938909 
L 73.235246 191.938909 
L 76.338277 191.938909 
L 79.441307 191.938909 
L 82.544337 191.938909 
L 85.647367 191.938909 
L 88.750398 191.938909 
L 91.853428 191.938909 
L 94.956458 191.938909 
L 98.059489 191.938909 
L 101.162519 191.938909 
L 104.265549 191.938909 
L 107.36858 191.938909 
L 110.47161 191.938909 
L 113.57464 191.938909 
L 116.67767 191.938909 
L 119.780701 191.938909 
L 122.883731 191.938909 
L 125.986761 191.938909 
L 129.089792 191.938909 
L 132.192822 191.938909 
L 135.295852 191.938909 
L 138.398883 191.938909 
L 141.501913 191.938909 
L 144.604943 191.938909 
L 147.707973 191.938909 
L 150.811004 191.938909 
L 153.914034 191.938909 
L 157.017064 191.938909 
L 160.120095 191.938909 
L 163.223125 191.938909 
L 166.326155 191.938909 
L 169.429186 191.938909 
L 172.532216 191.938909 
L 175.635246 191.938909 
L 178.738277 191.938909 
L 181.841307 191.938909 
L 184.944337 191.938909 
L 188.047367 191.938909 
L 191.150398 191.938909 
L 194.253428 191.938909 
L 197.356458 191.938909 
L 200.459489 191.938909 
L 203.562519 191.938909 
L 206.665549 191.938909 
L 209.76858 191.938909 
L 212.87161 191.938909 
L 215.97464 191.938909 
L 219.07767 191.938909 
L 222.180701 191.938909 
L 225.283731 191.938909 
L 228.386761 191.938909 
L 231.489792 191.938909 
L 234.592822 191.938909 
L 237.695852 191.938909 
L 240.798883 191.938909 
L 243.901913 191.938909 
L 247.004943 191.938909 
L 250.107973 191.938909 
L 253.211004 191.938909 
L 256.314034 176.864201 
L 259.417064 141.320399 
L 262.520095 105.776598 
L 265.623125 70.232796 
L 268.726155 34.688995 
L 271.829186 15.997091 
L 274.932216 15.997091 
L 278.035246 15.997091 
L 281.138277 15.997091 
L 284.241307 15.997091 
L 287.344337 15.997091 
L 290.447367 15.997091 
L 293.550398 15.997091 
L 296.653428 15.997091 
L 299.756458 15.997091 
L 302.859489 15.997091 
L 305.962519 15.997091 
L 309.065549 15.997091 
L 312.16858 15.997091 
L 315.27161 15.997091 
L 318.37464 15.997091 
L 321.47767 15.997091 
L 324.580701 15.997091 
L 327.683731 15.997091 
L 330.786761 15.997091 
L 333.889792 15.997091 
L 336.992822 15.997091 
L 340.095852 15.997091 
L 343.198883 15.997091 
L 346.301913 15.997091 
L 349.404943 15.997091 
L 352.507973 15.997091 
L 355.611004 15.997091 
L 358.714034 15.997091 
L 361.817064 15.997091 
L 364.920095 15.997091 
L 368.023125 15.997091 
" clip-path="url(#p8628d6f354)" style="fill: none; stroke: #6dff88; stroke-width: 2; stroke-linecap: square"/>
   </g>
   <g id="patch_3">
    <path d="M 30.103125 200.736 
L 30.103125 7.2 
" style="fill: none; stroke: #000000; stroke-width: 0.8; stroke-linejoin: miter; stroke-linecap: square"/>
   </g>
   <g id="patch_4">
    <path d="M 398.743125 200.736 
L 398.743125 7.2 
" style="fill: none; stroke: #000000; stroke-width: 0.8; stroke-linejoin: miter; stroke-linecap: square"/>
   </g>
   <g id="patch_5">
    <path d="M 30.103125 200.736 
L 398.743125 200.736 
" style="fill: none; stroke: #000000; stroke-width: 0.8; stroke-linejoin: miter; stroke-linecap: square"/>
   </g>
   <g id="patch_6">
    <path d="M 30.103125 7.2 
L 398.743125 7.2 
" style="fill: none; stroke: #000000; stroke-width: 0.8; stroke-linejoin: miter; stroke-linecap: square"/>
   </g>
   <g id="legend_1">
    <g id="patch_7">
     <path d="M 37.103125 59.234375 
L 139.007812 59.234375 
Q 141.007812 59.234375 141.007812 57.234375 
L 141.007812 14.2 
Q 141.007812 12.2 139.007812 12.2 
L 37.103125 12.2 
Q 35.103125 12.2 35.103125 14.2 
L 35.103125 57.234375 
Q 35.103125 59.234375 37.103125 59.234375 
z
" style="fill: #ffffff; opacity: 0.8; stroke: #cccccc; stroke-linejoin: miter"/>
    </g>
    <g id="line2d_26">
     <path d="M 39.103125 20.298438 
L 49.103125 20.298438 
L 59.103125 20.298438 
" style="fill: none; stroke: #7a76c2; stroke-width: 2; stroke-linecap: square"/>
    </g>
    <g id="text_12">
     <!-- theta = -0.5⋅π -->
     <g transform="translate(67.103125 23.798438) scale(0.1 -0.1)">
      <defs>
       <path id="DejaVuSans-74" d="M 1172 4494 
L 1172 3500 
L 2356 3500 
L 2356 3053 
L 1172 3053 
L 1172 1153 
Q 1172 725 1289 603 
Q 1406 481 1766 481 
L 2356 481 
L 2356 0 
L 1766 0 
Q 1100 0 847 248 
Q 594 497 594 1153 
L 594 3053 
L 172 3053 
L 172 3500 
L 594 3500 
L 594 4494 
L 1172 4494 
z
" transform="scale(0.015625)"/>
       <path id="DejaVuSans-68" d="M 3513 2113 
L 3513 0 
L 2938 0 
L 2938 2094 
Q 2938 2591 2744 2837 
Q 2550 3084 2163 3084 
Q 1697 3084 1428 2787 
Q 1159 2491 1159 1978 
L 1159 0 
L 581 0 
L 581 4863 
L 1159 4863 
L 1159 2956 
Q 1366 3272 1645 3428 
Q 1925 3584 2291 3584 
Q 2894 3584 3203 3211 
Q 3513 2838 3513 2113 
z
" transform="scale(0.015625)"/>
       <path id="DejaVuSans-65" d="M 3597 1894 
L 3597 1613 
L 953 1613 
Q 991 1019 1311 708 
Q 1631 397 2203 397 
Q 2534 397 2845 478 
Q 3156 559 3463 722 
L 3463 178 
Q 3153 47 2828 -22 
Q 2503 -91 2169 -91 
Q 1331 -91 842 396 
Q 353 884 353 1716 
Q 353 2575 817 3079 
Q 1281 3584 2069 3584 
Q 2775 3584 3186 3129 
Q 3597 2675 3597 1894 
z
M 3022 2063 
Q 3016 2534 2758 2815 
Q 2500 3097 2075 3097 
Q 1594 3097 1305 2825 
Q 1016 2553 972 2059 
L 3022 2063 
z
" transform="scale(0.015625)"/>
       <path id="DejaVuSans-61" d="M 2194 1759 
Q 1497 1759 1228 1600 
Q 959 1441 959 1056 
Q 959 750 1161 570 
Q 1363 391 1709 391 
Q 2188 391 2477 730 
Q 2766 1069 2766 1631 
L 2766 1759 
L 2194 1759 
z
M 3341 1997 
L 3341 0 
L 2766 0 
L 2766 531 
Q 2569 213 2275 61 
Q 1981 -91 1556 -91 
Q 1019 -91 701 211 
Q 384 513 384 1019 
Q 384 1609 779 1909 
Q 1175 2209 1959 2209 
L 2766 2209 
L 2766 2266 
Q 2766 2663 2505 2880 
Q 2244 3097 1772 3097 
Q 1472 3097 1187 3025 
Q 903 2953 641 2809 
L 641 3341 
Q 956 3463 1253 3523 
Q 1550 3584 1831 3584 
Q 2591 3584 2966 3190 
Q 3341 2797 3341 1997 
z
" transform="scale(0.015625)"/>
       <path id="DejaVuSans-20" transform="scale(0.015625)"/>
       <path id="DejaVuSans-3d" d="M 678 2906 
L 4684 2906 
L 4684 2381 
L 678 2381 
L 678 2906 
z
M 678 1631 
L 4684 1631 
L 4684 1100 
L 678 1100 
L 678 1631 
z
" transform="scale(0.015625)"/>
       <path id="DejaVuSans-2d" d="M 313 2009 
L 1997 2009 
L 1997 1497 
L 313 1497 
L 313 2009 
z
" transform="scale(0.015625)"/>
       <path id="DejaVuSans-22c5" d="M 684 2619 
L 1344 2619 
L 1344 1825 
L 684 1825 
L 684 2619 
z
" transform="scale(0.015625)"/>
       <path id="DejaVuSans-3c0" d="M 231 3500 
L 3584 3500 
L 3584 2925 
L 3144 2925 
L 3144 775 
Q 3144 550 3220 451 
Q 3297 353 3469 353 
Q 3516 353 3584 361 
Q 3653 369 3675 372 
L 3675 -44 
Q 3566 -84 3450 -103 
Q 3334 -122 3219 -122 
Q 2844 -122 2700 83 
Q 2556 288 2556 838 
L 2556 2925 
L 1266 2925 
L 1266 0 
L 678 0 
L 678 2925 
L 231 2925 
L 231 3500 
z
" transform="scale(0.015625)"/>
      </defs>
      <use xlink:href="#DejaVuSans-74"/>
      <use xlink:href="#DejaVuSans-68" transform="translate(39.208984 0)"/>
      <use xlink:href="#DejaVuSans-65" transform="translate(102.587891 0)"/>
      <use xlink:href="#DejaVuSans-74" transform="translate(164.111328 0)"/>
      <use xlink:href="#DejaVuSans-61" transform="translate(203.320312 0)"/>
      <use xlink:href="#DejaVuSans-20" transform="translate(264.599609 0)"/>
      <use xlink:href="#DejaVuSans-3d" transform="translate(296.386719 0)"/>
      <use xlink:href="#DejaVuSans-20" transform="translate(380.175781 0)"/>
      <use xlink:href="#DejaVuSans-2d" transform="translate(411.962891 0)"/>
      <use xlink:href="#DejaVuSans-30" transform="translate(448.046875 0)"/>
      <use xlink:href="#DejaVuSans-2e" transform="translate(511.669922 0)"/>
      <use xlink:href="#DejaVuSans-35" transform="translate(543.457031 0)"/>
      <use xlink:href="#DejaVuSans-22c5" transform="translate(607.080078 0)"/>
      <use xlink:href="#DejaVuSans-3c0" transform="translate(638.867188 0)"/>
     </g>
    </g>
    <g id="line2d_27">
     <path d="M 39.103125 34.976563 
L 49.103125 34.976563 
L 59.103125 34.976563 
" style="fill: none; stroke: #ff6e9c; stroke-width: 2; stroke-linecap: square"/>
    </g>
    <g id="text_13">
     <!-- theta = 0.5⋅π -->
     <g transform="translate(67.103125 38.476563) scale(0.1 -0.1)">
      <use xlink:href="#DejaVuSans-74"/>
      <use xlink:href="#DejaVuSans-68" transform="translate(39.208984 0)"/>
      <use xlink:href="#DejaVuSans-65" transform="translate(102.587891 0)"/>
      <use xlink:href="#DejaVuSans-74" transform="translate(164.111328 0)"/>
      <use xlink:href="#DejaVuSans-61" transform="translate(203.320312 0)"/>
      <use xlink:href="#DejaVuSans-20" transform="translate(264.599609 0)"/>
      <use xlink:href="#DejaVuSans-3d" transform="translate(296.386719 0)"/>
      <use xlink:href="#DejaVuSans-20" transform="translate(380.175781 0)"/>
      <use xlink:href="#DejaVuSans-30" transform="translate(411.962891 0)"/>
      <use xlink:href="#DejaVuSans-2e" transform="translate(475.585938 0)"/>
      <use xlink:href="#DejaVuSans-35" transform="translate(507.373047 0)"/>
      <use xlink:href="#DejaVuSans-22c5" transform="translate(570.996094 0)"/>
      <use xlink:href="#DejaVuSans-3c0" transform="translate(602.783203 0)"/>
     </g>
    </g>
    <g id="line2d_28">
     <path d="M 39.103125 49.654688 
L 49.103125 49.654688 
L 59.103125 49.654688 
" style="fill: none; stroke: #6dff88; stroke-width: 2; stroke-linecap: square"/>
    </g>
    <g id="text_14">
     <!-- theta = π -->
     <g transform="translate(67.103125 53.154688) scale(0.1 -0.1)">
      <use xlink:href="#DejaVuSans-74"/>
      <use xlink:href="#DejaVuSans-68" transform="translate(39.208984 0)"/>
      <use xlink:href="#DejaVuSans-65" transform="translate(102.587891 0)"/>
      <use xlink:href="#DejaVuSans-74" transform="translate(164.111328 0)"/>
      <use xlink:href="#DejaVuSans-61" transform="translate(203.320312 0)"/>
      <use xlink:href="#DejaVuSans-20" transform="translate(264.599609 0)"/>
      <use xlink:href="#DejaVuSans-3d" transform="translate(296.386719 0)"/>
      <use xlink:href="#DejaVuSans-20" transform="translate(380.175781 0)"/>
      <use xlink:href="#DejaVuSans-3c0" transform="translate(411.962891 0)"/>
     </g>
    </g>
   </g>
  </g>
 </g>
 <defs>
  <clipPath id="p8628d6f354">
   <rect x="30.103125" y="7.2" width="368.64" height="193.536"/>
  </clipPath>
 </defs>
</svg>
