<?xml version="1.0" encoding="utf-8" standalone="no"?>
<!DOCTYPE svg PUBLIC "-//W3C//DTD SVG 1.1//EN"
  "http://www.w3.org/Graphics/SVG/1.1/DTD/svg11.dtd">
<svg xmlns:xlink="http://www.w3.org/1999/xlink" width="460.8pt" height="345.6pt" viewBox="0 0 460.8 345.6" xmlns="http://www.w3.org/2000/svg" version="1.1">
 <metadata>
  <rdf:RDF xmlns:dc="http://purl.org/dc/elements/1.1/" xmlns:cc="http://creativecommons.org/ns#" xmlns:rdf="http://www.w3.org/1999/02/22-rdf-syntax-ns#">
   <cc:Work>
    <dc:type rdf:resource="http://purl.org/dc/dcmitype/StillImage"/>
    <dc:date>2025-08-16T18:13:41.483001</dc:date>
    <dc:format>image/svg+xml</dc:format>
    <dc:creator>
     <cc:Agent>
      <dc:title>Matplotlib v3.10.5, https://matplotlib.org/</dc:title>
     </cc:Agent>
    </dc:creator>
   </cc:Work>
  </rdf:RDF>
 </metadata>
 <defs>
  <style type="text/css">*{stroke-linejoin: round; stroke-linecap: butt}</style>
 </defs>
 <g id="figure_1">
  <g id="patch_1">
   <path d="M 0 345.6 
L 460.8 345.6 
L 460.8 0 
L 0 0 
z
" style="fill: #ffffff"/>
  </g>
  <g id="axes_1">
   <g id="patch_2">
    <path d="M 57.6 307.584 
L 219.927273 307.584 
L 219.927273 41.472 
L 57.6 41.472 
z
" style="fill: #d3d3d3; fill-opacity: 0.133333"/>
   </g>
   <g id="PathCollection_1">
    <defs>
     <path id="m4160921b05" d="M 0 3 
C 0.795609 3 1.55874 2.683901 2.12132 2.12132 
C 2.683901 1.55874 3 0.795609 3 0 
C 3 -0.795609 2.683901 -1.55874 2.12132 -2.12132 
C 1.55874 -2.683901 0.795609 -3 0 -3 
C -0.795609 -3 -1.55874 -2.683901 -2.12132 -2.12132 
C -2.683901 -1.55874 -3 -0.795609 -3 0 
C -3 0.795609 -2.683901 1.55874 -2.12132 2.12132 
C -1.55874 2.683901 -0.795609 3 0 3 
z
" style="stroke: #ff6e9c"/>
    </defs>
    <g clip-path="url(#p17d28e457a)">
     <use xlink:href="#m4160921b05" x="110.945361" y="286.891149" style="fill: #ff6e9c; stroke: #ff6e9c"/>
     <use xlink:href="#m4160921b05" x="120.028358" y="221.953007" style="fill: #ff6e9c; stroke: #ff6e9c"/>
     <use xlink:href="#m4160921b05" x="64.978512" y="295.488" style="fill: #ff6e9c; stroke: #ff6e9c"/>
     <use xlink:href="#m4160921b05" x="107.341036" y="263.161146" style="fill: #ff6e9c; stroke: #ff6e9c"/>
     <use xlink:href="#m4160921b05" x="104.393586" y="280.761764" style="fill: #ff6e9c; stroke: #ff6e9c"/>
     <use xlink:href="#m4160921b05" x="122.655986" y="227.289993" style="fill: #ff6e9c; stroke: #ff6e9c"/>
     <use xlink:href="#m4160921b05" x="106.081502" y="215.832267" style="fill: #ff6e9c; stroke: #ff6e9c"/>
     <use xlink:href="#m4160921b05" x="114.262679" y="280.96664" style="fill: #ff6e9c; stroke: #ff6e9c"/>
     <use xlink:href="#m4160921b05" x="112.250215" y="284.231997" style="fill: #ff6e9c; stroke: #ff6e9c"/>
     <use xlink:href="#m4160921b05" x="122.636675" y="254.429168" style="fill: #ff6e9c; stroke: #ff6e9c"/>
     <use xlink:href="#m4160921b05" x="100.9689" y="275.118485" style="fill: #ff6e9c; stroke: #ff6e9c"/>
     <use xlink:href="#m4160921b05" x="129.648429" y="257.858905" style="fill: #ff6e9c; stroke: #ff6e9c"/>
     <use xlink:href="#m4160921b05" x="96.007655" y="264.337937" style="fill: #ff6e9c; stroke: #ff6e9c"/>
     <use xlink:href="#m4160921b05" x="115.583145" y="240.810036" style="fill: #ff6e9c; stroke: #ff6e9c"/>
     <use xlink:href="#m4160921b05" x="113.14646" y="238.66646" style="fill: #ff6e9c; stroke: #ff6e9c"/>
     <use xlink:href="#m4160921b05" x="148.377621" y="266.117716" style="fill: #ff6e9c; stroke: #ff6e9c"/>
     <use xlink:href="#m4160921b05" x="94.297669" y="279.474141" style="fill: #ff6e9c; stroke: #ff6e9c"/>
     <use xlink:href="#m4160921b05" x="117.288145" y="215.775508" style="fill: #ff6e9c; stroke: #ff6e9c"/>
     <use xlink:href="#m4160921b05" x="102.413977" y="280.33921" style="fill: #ff6e9c; stroke: #ff6e9c"/>
     <use xlink:href="#m4160921b05" x="87.934994" y="231.460593" style="fill: #ff6e9c; stroke: #ff6e9c"/>
     <use xlink:href="#m4160921b05" x="119.8817" y="234.983282" style="fill: #ff6e9c; stroke: #ff6e9c"/>
     <use xlink:href="#m4160921b05" x="91.174454" y="245.180104" style="fill: #ff6e9c; stroke: #ff6e9c"/>
     <use xlink:href="#m4160921b05" x="107.113732" y="245.621848" style="fill: #ff6e9c; stroke: #ff6e9c"/>
     <use xlink:href="#m4160921b05" x="122.493593" y="245.460959" style="fill: #ff6e9c; stroke: #ff6e9c"/>
     <use xlink:href="#m4160921b05" x="118.570592" y="250.57642" style="fill: #ff6e9c; stroke: #ff6e9c"/>
     <use xlink:href="#m4160921b05" x="110.627517" y="232.09355" style="fill: #ff6e9c; stroke: #ff6e9c"/>
     <use xlink:href="#m4160921b05" x="75.042595" y="263.273564" style="fill: #ff6e9c; stroke: #ff6e9c"/>
     <use xlink:href="#m4160921b05" x="95.150882" y="273.739696" style="fill: #ff6e9c; stroke: #ff6e9c"/>
     <use xlink:href="#m4160921b05" x="99.129211" y="203.776133" style="fill: #ff6e9c; stroke: #ff6e9c"/>
     <use xlink:href="#m4160921b05" x="87.092382" y="221.044334" style="fill: #ff6e9c; stroke: #ff6e9c"/>
    </g>
   </g>
   <g id="PathCollection_2">
    <defs>
     <path id="m6d5bedd002" d="M 0 3 
C 0.795609 3 1.55874 2.683901 2.12132 2.12132 
C 2.683901 1.55874 3 0.795609 3 0 
C 3 -0.795609 2.683901 -1.55874 2.12132 -2.12132 
C 1.55874 -2.683901 0.795609 -3 0 -3 
C -0.795609 -3 -1.55874 -2.683901 -2.12132 -2.12132 
C -2.683901 -1.55874 -3 -0.795609 -3 0 
C -3 0.795609 -2.683901 1.55874 -2.12132 2.12132 
C -1.55874 2.683901 -0.795609 3 0 3 
z
" style="stroke: #7a76c2"/>
    </defs>
    <g clip-path="url(#p17d28e457a)">
     <use xlink:href="#m6d5bedd002" x="148.31919" y="143.229505" style="fill: #7a76c2; stroke: #7a76c2"/>
     <use xlink:href="#m6d5bedd002" x="173.658634" y="104.542608" style="fill: #7a76c2; stroke: #7a76c2"/>
     <use xlink:href="#m6d5bedd002" x="186.193201" y="137.406515" style="fill: #7a76c2; stroke: #7a76c2"/>
     <use xlink:href="#m6d5bedd002" x="198.994247" y="188.084694" style="fill: #7a76c2; stroke: #7a76c2"/>
     <use xlink:href="#m6d5bedd002" x="156.139017" y="179.488115" style="fill: #7a76c2; stroke: #7a76c2"/>
     <use xlink:href="#m6d5bedd002" x="161.232233" y="194.246308" style="fill: #7a76c2; stroke: #7a76c2"/>
     <use xlink:href="#m6d5bedd002" x="182.118487" y="156.393814" style="fill: #7a76c2; stroke: #7a76c2"/>
     <use xlink:href="#m6d5bedd002" x="139.204104" y="182.406346" style="fill: #7a76c2; stroke: #7a76c2"/>
     <use xlink:href="#m6d5bedd002" x="175.56429" y="121.627132" style="fill: #7a76c2; stroke: #7a76c2"/>
     <use xlink:href="#m6d5bedd002" x="209.864237" y="53.568" style="fill: #7a76c2; stroke: #7a76c2"/>
     <use xlink:href="#m6d5bedd002" x="177.620302" y="181.552516" style="fill: #7a76c2; stroke: #7a76c2"/>
     <use xlink:href="#m6d5bedd002" x="125.729611" y="140.329876" style="fill: #7a76c2; stroke: #7a76c2"/>
     <use xlink:href="#m6d5bedd002" x="152.609827" y="162.726301" style="fill: #7a76c2; stroke: #7a76c2"/>
     <use xlink:href="#m6d5bedd002" x="156.702554" y="153.723832" style="fill: #7a76c2; stroke: #7a76c2"/>
     <use xlink:href="#m6d5bedd002" x="190.89776" y="143.958286" style="fill: #7a76c2; stroke: #7a76c2"/>
     <use xlink:href="#m6d5bedd002" x="165.943027" y="183.064554" style="fill: #7a76c2; stroke: #7a76c2"/>
     <use xlink:href="#m6d5bedd002" x="135.049584" y="165.052628" style="fill: #7a76c2; stroke: #7a76c2"/>
     <use xlink:href="#m6d5bedd002" x="168.079666" y="91.140783" style="fill: #7a76c2; stroke: #7a76c2"/>
     <use xlink:href="#m6d5bedd002" x="171.83031" y="116.885569" style="fill: #7a76c2; stroke: #7a76c2"/>
     <use xlink:href="#m6d5bedd002" x="159.001174" y="187.959468" style="fill: #7a76c2; stroke: #7a76c2"/>
     <use xlink:href="#m6d5bedd002" x="149.50885" y="172.886265" style="fill: #7a76c2; stroke: #7a76c2"/>
     <use xlink:href="#m6d5bedd002" x="212.54876" y="176.039175" style="fill: #7a76c2; stroke: #7a76c2"/>
     <use xlink:href="#m6d5bedd002" x="186.262035" y="178.712721" style="fill: #7a76c2; stroke: #7a76c2"/>
     <use xlink:href="#m6d5bedd002" x="188.158861" y="136.485832" style="fill: #7a76c2; stroke: #7a76c2"/>
     <use xlink:href="#m6d5bedd002" x="165.98372" y="150.444106" style="fill: #7a76c2; stroke: #7a76c2"/>
     <use xlink:href="#m6d5bedd002" x="155.832616" y="134.481792" style="fill: #7a76c2; stroke: #7a76c2"/>
     <use xlink:href="#m6d5bedd002" x="159.904149" y="189.292691" style="fill: #7a76c2; stroke: #7a76c2"/>
     <use xlink:href="#m6d5bedd002" x="143.134308" y="143.448782" style="fill: #7a76c2; stroke: #7a76c2"/>
     <use xlink:href="#m6d5bedd002" x="201.353738" y="143.861789" style="fill: #7a76c2; stroke: #7a76c2"/>
     <use xlink:href="#m6d5bedd002" x="166.75806" y="139.735932" style="fill: #7a76c2; stroke: #7a76c2"/>
    </g>
   </g>
   <g id="matplotlib.axis_1">
    <g id="xtick_1">
     <g id="line2d_1">
      <path d="M 104.735954 307.584 
L 104.735954 41.472 
" clip-path="url(#p17d28e457a)" style="fill: none; stroke: #b0b0b0; stroke-width: 0.8; stroke-linecap: square"/>
     </g>
     <g id="line2d_2">
      <defs>
       <path id="m45460a05ae" d="M 0 0 
L 0 3.5 
" style="stroke: #000000; stroke-width: 0.8"/>
      </defs>
      <g>
       <use xlink:href="#m45460a05ae" x="104.735954" y="307.584" style="stroke: #000000; stroke-width: 0.8"/>
      </g>
     </g>
     <g id="text_1">
      <!-- 0 -->
      <g transform="translate(101.554704 322.182437) scale(0.1 -0.1)">
       <defs>
        <path id="DejaVuSans-30" d="M 2034 4250 
Q 1547 4250 1301 3770 
Q 1056 3291 1056 2328 
Q 1056 1369 1301 889 
Q 1547 409 2034 409 
Q 2525 409 2770 889 
Q 3016 1369 3016 2328 
Q 3016 3291 2770 3770 
Q 2525 4250 2034 4250 
z
M 2034 4750 
Q 2819 4750 3233 4129 
Q 3647 3509 3647 2328 
Q 3647 1150 3233 529 
Q 2819 -91 2034 -91 
Q 1250 -91 836 529 
Q 422 1150 422 2328 
Q 422 3509 836 4129 
Q 1250 4750 2034 4750 
z
" transform="scale(0.015625)"/>
       </defs>
       <use xlink:href="#DejaVuSans-30"/>
      </g>
     </g>
    </g>
    <g id="xtick_2">
     <g id="line2d_3">
      <path d="M 169.175626 307.584 
L 169.175626 41.472 
" clip-path="url(#p17d28e457a)" style="fill: none; stroke: #b0b0b0; stroke-width: 0.8; stroke-linecap: square"/>
     </g>
     <g id="line2d_4">
      <g>
       <use xlink:href="#m45460a05ae" x="169.175626" y="307.584" style="stroke: #000000; stroke-width: 0.8"/>
      </g>
     </g>
     <g id="text_2">
      <!-- 1 -->
      <g transform="translate(165.994376 322.182437) scale(0.1 -0.1)">
       <defs>
        <path id="DejaVuSans-31" d="M 794 531 
L 1825 531 
L 1825 4091 
L 703 3866 
L 703 4441 
L 1819 4666 
L 2450 4666 
L 2450 531 
L 3481 531 
L 3481 0 
L 794 0 
L 794 531 
z
" transform="scale(0.015625)"/>
       </defs>
       <use xlink:href="#DejaVuSans-31"/>
      </g>
     </g>
    </g>
   </g>
   <g id="matplotlib.axis_2">
    <g id="ytick_1">
     <g id="line2d_5">
      <path d="M 57.6 304.634505 
L 219.927273 304.634505 
" clip-path="url(#p17d28e457a)" style="fill: none; stroke: #b0b0b0; stroke-width: 0.8; stroke-linecap: square"/>
     </g>
     <g id="line2d_6">
      <defs>
       <path id="m8990f5f055" d="M 0 0 
L -3.5 0 
" style="stroke: #000000; stroke-width: 0.8"/>
      </defs>
      <g>
       <use xlink:href="#m8990f5f055" x="57.6" y="304.634505" style="stroke: #000000; stroke-width: 0.8"/>
      </g>
     </g>
     <g id="text_3">
      <!-- −0.5 -->
      <g transform="translate(26.317187 308.433724) scale(0.1 -0.1)">
       <defs>
        <path id="DejaVuSans-2212" d="M 678 2272 
L 4684 2272 
L 4684 1741 
L 678 1741 
L 678 2272 
z
" transform="scale(0.015625)"/>
        <path id="DejaVuSans-2e" d="M 684 794 
L 1344 794 
L 1344 0 
L 684 0 
L 684 794 
z
" transform="scale(0.015625)"/>
        <path id="DejaVuSans-35" d="M 691 4666 
L 3169 4666 
L 3169 4134 
L 1269 4134 
L 1269 2991 
Q 1406 3038 1543 3061 
Q 1681 3084 1819 3084 
Q 2600 3084 3056 2656 
Q 3513 2228 3513 1497 
Q 3513 744 3044 326 
Q 2575 -91 1722 -91 
Q 1428 -91 1123 -41 
Q 819 9 494 109 
L 494 744 
Q 775 591 1075 516 
Q 1375 441 1709 441 
Q 2250 441 2565 725 
Q 2881 1009 2881 1497 
Q 2881 1984 2565 2268 
Q 2250 2553 1709 2553 
Q 1456 2553 1204 2497 
Q 953 2441 691 2322 
L 691 4666 
z
" transform="scale(0.015625)"/>
       </defs>
       <use xlink:href="#DejaVuSans-2212"/>
       <use xlink:href="#DejaVuSans-30" transform="translate(83.789062 0)"/>
       <use xlink:href="#DejaVuSans-2e" transform="translate(147.412109 0)"/>
       <use xlink:href="#DejaVuSans-35" transform="translate(179.199219 0)"/>
      </g>
     </g>
    </g>
    <g id="ytick_2">
     <g id="line2d_7">
      <path d="M 57.6 252.792199 
L 219.927273 252.792199 
" clip-path="url(#p17d28e457a)" style="fill: none; stroke: #b0b0b0; stroke-width: 0.8; stroke-linecap: square"/>
     </g>
     <g id="line2d_8">
      <g>
       <use xlink:href="#m8990f5f055" x="57.6" y="252.792199" style="stroke: #000000; stroke-width: 0.8"/>
      </g>
     </g>
     <g id="text_4">
      <!-- 0.0 -->
      <g transform="translate(34.696875 256.591418) scale(0.1 -0.1)">
       <use xlink:href="#DejaVuSans-30"/>
       <use xlink:href="#DejaVuSans-2e" transform="translate(63.623047 0)"/>
       <use xlink:href="#DejaVuSans-30" transform="translate(95.410156 0)"/>
      </g>
     </g>
    </g>
    <g id="ytick_3">
     <g id="line2d_9">
      <path d="M 57.6 200.949893 
L 219.927273 200.949893 
" clip-path="url(#p17d28e457a)" style="fill: none; stroke: #b0b0b0; stroke-width: 0.8; stroke-linecap: square"/>
     </g>
     <g id="line2d_10">
      <g>
       <use xlink:href="#m8990f5f055" x="57.6" y="200.949893" style="stroke: #000000; stroke-width: 0.8"/>
      </g>
     </g>
     <g id="text_5">
      <!-- 0.5 -->
      <g transform="translate(34.696875 204.749112) scale(0.1 -0.1)">
       <use xlink:href="#DejaVuSans-30"/>
       <use xlink:href="#DejaVuSans-2e" transform="translate(63.623047 0)"/>
       <use xlink:href="#DejaVuSans-35" transform="translate(95.410156 0)"/>
      </g>
     </g>
    </g>
    <g id="ytick_4">
     <g id="line2d_11">
      <path d="M 57.6 149.107587 
L 219.927273 149.107587 
" clip-path="url(#p17d28e457a)" style="fill: none; stroke: #b0b0b0; stroke-width: 0.8; stroke-linecap: square"/>
     </g>
     <g id="line2d_12">
      <g>
       <use xlink:href="#m8990f5f055" x="57.6" y="149.107587" style="stroke: #000000; stroke-width: 0.8"/>
      </g>
     </g>
     <g id="text_6">
      <!-- 1.0 -->
      <g transform="translate(34.696875 152.906805) scale(0.1 -0.1)">
       <use xlink:href="#DejaVuSans-31"/>
       <use xlink:href="#DejaVuSans-2e" transform="translate(63.623047 0)"/>
       <use xlink:href="#DejaVuSans-30" transform="translate(95.410156 0)"/>
      </g>
     </g>
    </g>
    <g id="ytick_5">
     <g id="line2d_13">
      <path d="M 57.6 97.26528 
L 219.927273 97.26528 
" clip-path="url(#p17d28e457a)" style="fill: none; stroke: #b0b0b0; stroke-width: 0.8; stroke-linecap: square"/>
     </g>
     <g id="line2d_14">
      <g>
       <use xlink:href="#m8990f5f055" x="57.6" y="97.26528" style="stroke: #000000; stroke-width: 0.8"/>
      </g>
     </g>
     <g id="text_7">
      <!-- 1.5 -->
      <g transform="translate(34.696875 101.064499) scale(0.1 -0.1)">
       <use xlink:href="#DejaVuSans-31"/>
       <use xlink:href="#DejaVuSans-2e" transform="translate(63.623047 0)"/>
       <use xlink:href="#DejaVuSans-35" transform="translate(95.410156 0)"/>
      </g>
     </g>
    </g>
    <g id="ytick_6">
     <g id="line2d_15">
      <path d="M 57.6 45.422974 
L 219.927273 45.422974 
" clip-path="url(#p17d28e457a)" style="fill: none; stroke: #b0b0b0; stroke-width: 0.8; stroke-linecap: square"/>
     </g>
     <g id="line2d_16">
      <g>
       <use xlink:href="#m8990f5f055" x="57.6" y="45.422974" style="stroke: #000000; stroke-width: 0.8"/>
      </g>
     </g>
     <g id="text_8">
      <!-- 2.0 -->
      <g transform="translate(34.696875 49.222193) scale(0.1 -0.1)">
       <defs>
        <path id="DejaVuSans-32" d="M 1228 531 
L 3431 531 
L 3431 0 
L 469 0 
L 469 531 
Q 828 903 1448 1529 
Q 2069 2156 2228 2338 
Q 2531 2678 2651 2914 
Q 2772 3150 2772 3378 
Q 2772 3750 2511 3984 
Q 2250 4219 1831 4219 
Q 1534 4219 1204 4116 
Q 875 4013 500 3803 
L 500 4441 
Q 881 4594 1212 4672 
Q 1544 4750 1819 4750 
Q 2544 4750 2975 4387 
Q 3406 4025 3406 3419 
Q 3406 3131 3298 2873 
Q 3191 2616 2906 2266 
Q 2828 2175 2409 1742 
Q 1991 1309 1228 531 
z
" transform="scale(0.015625)"/>
       </defs>
       <use xlink:href="#DejaVuSans-32"/>
       <use xlink:href="#DejaVuSans-2e" transform="translate(63.623047 0)"/>
       <use xlink:href="#DejaVuSans-30" transform="translate(95.410156 0)"/>
      </g>
     </g>
    </g>
   </g>
   <g id="patch_3">
    <path d="M 57.6 307.584 
L 57.6 41.472 
" style="fill: none; stroke: #000000; stroke-width: 0.8; stroke-linejoin: miter; stroke-linecap: square"/>
   </g>
   <g id="patch_4">
    <path d="M 219.927273 307.584 
L 219.927273 41.472 
" style="fill: none; stroke: #000000; stroke-width: 0.8; stroke-linejoin: miter; stroke-linecap: square"/>
   </g>
   <g id="patch_5">
    <path d="M 57.6 307.584 
L 219.927273 307.584 
" style="fill: none; stroke: #000000; stroke-width: 0.8; stroke-linejoin: miter; stroke-linecap: square"/>
   </g>
   <g id="patch_6">
    <path d="M 57.6 41.472 
L 219.927273 41.472 
" style="fill: none; stroke: #000000; stroke-width: 0.8; stroke-linejoin: miter; stroke-linecap: square"/>
   </g>
  </g>
  <g id="axes_2">
   <g id="patch_7">
    <path d="M 252.392727 307.584 
L 414.72 307.584 
L 414.72 41.472 
L 252.392727 41.472 
z
" style="fill: #d3d3d3; fill-opacity: 0.133333"/>
   </g>
   <g id="PathCollection_3">
    <g clip-path="url(#p31502b9e3a)">
     <use xlink:href="#m4160921b05" x="341.107111" y="243.88437" style="fill: #ff6e9c; stroke: #ff6e9c"/>
     <use xlink:href="#m4160921b05" x="357.178988" y="95.18932" style="fill: #ff6e9c; stroke: #ff6e9c"/>
     <use xlink:href="#m4160921b05" x="259.77124" y="263.569398" style="fill: #ff6e9c; stroke: #ff6e9c"/>
     <use xlink:href="#m4160921b05" x="334.729452" y="189.547522" style="fill: #ff6e9c; stroke: #ff6e9c"/>
     <use xlink:href="#m4160921b05" x="329.514098" y="229.849331" style="fill: #ff6e9c; stroke: #ff6e9c"/>
     <use xlink:href="#m4160921b05" x="361.828434" y="107.409926" style="fill: #ff6e9c; stroke: #ff6e9c"/>
     <use xlink:href="#m4160921b05" x="332.500774" y="81.174078" style="fill: #ff6e9c; stroke: #ff6e9c"/>
     <use xlink:href="#m4160921b05" x="346.976927" y="230.318457" style="fill: #ff6e9c; stroke: #ff6e9c"/>
     <use xlink:href="#m4160921b05" x="343.41598" y="237.795456" style="fill: #ff6e9c; stroke: #ff6e9c"/>
     <use xlink:href="#m4160921b05" x="361.794264" y="169.553078" style="fill: #ff6e9c; stroke: #ff6e9c"/>
     <use xlink:href="#m4160921b05" x="323.454299" y="216.927379" style="fill: #ff6e9c; stroke: #ff6e9c"/>
     <use xlink:href="#m4160921b05" x="374.201187" y="177.406473" style="fill: #ff6e9c; stroke: #ff6e9c"/>
     <use xlink:href="#m4160921b05" x="314.675642" y="192.242132" style="fill: #ff6e9c; stroke: #ff6e9c"/>
     <use xlink:href="#m4160921b05" x="349.313421" y="138.368056" style="fill: #ff6e9c; stroke: #ff6e9c"/>
     <use xlink:href="#m4160921b05" x="345.001837" y="133.459705" style="fill: #ff6e9c; stroke: #ff6e9c"/>
     <use xlink:href="#m4160921b05" x="407.341488" y="196.31746" style="fill: #ff6e9c; stroke: #ff6e9c"/>
     <use xlink:href="#m4160921b05" x="311.649915" y="226.90094" style="fill: #ff6e9c; stroke: #ff6e9c"/>
     <use xlink:href="#m4160921b05" x="352.330327" y="81.044112" style="fill: #ff6e9c; stroke: #ff6e9c"/>
     <use xlink:href="#m4160921b05" x="326.011285" y="228.881771" style="fill: #ff6e9c; stroke: #ff6e9c"/>
     <use xlink:href="#m4160921b05" x="300.391502" y="116.959745" style="fill: #ff6e9c; stroke: #ff6e9c"/>
     <use xlink:href="#m4160921b05" x="356.919484" y="125.025982" style="fill: #ff6e9c; stroke: #ff6e9c"/>
     <use xlink:href="#m4160921b05" x="306.123553" y="148.374617" style="fill: #ff6e9c; stroke: #ff6e9c"/>
     <use xlink:href="#m4160921b05" x="334.32725" y="149.386118" style="fill: #ff6e9c; stroke: #ff6e9c"/>
     <use xlink:href="#m4160921b05" x="361.541088" y="149.017716" style="fill: #ff6e9c; stroke: #ff6e9c"/>
     <use xlink:href="#m4160921b05" x="354.599549" y="160.731074" style="fill: #ff6e9c; stroke: #ff6e9c"/>
     <use xlink:href="#m4160921b05" x="340.544704" y="118.409087" style="fill: #ff6e9c; stroke: #ff6e9c"/>
     <use xlink:href="#m4160921b05" x="277.579094" y="189.804935" style="fill: #ff6e9c; stroke: #ff6e9c"/>
     <use xlink:href="#m4160921b05" x="313.159628" y="213.770235" style="fill: #ff6e9c; stroke: #ff6e9c"/>
     <use xlink:href="#m4160921b05" x="320.199069" y="53.568" style="fill: #ff6e9c; stroke: #ff6e9c"/>
     <use xlink:href="#m4160921b05" x="298.900545" y="93.108643" style="fill: #ff6e9c; stroke: #ff6e9c"/>
    </g>
   </g>
   <g id="PathCollection_4">
    <g clip-path="url(#p31502b9e3a)">
     <use xlink:href="#m6d5bedd002" x="269.440505" y="190.947153" style="fill: #7a76c2; stroke: #7a76c2"/>
     <use xlink:href="#m6d5bedd002" x="335.988301" y="121.792531" style="fill: #7a76c2; stroke: #7a76c2"/>
     <use xlink:href="#m6d5bedd002" x="355.764662" y="106.24207" style="fill: #7a76c2; stroke: #7a76c2"/>
     <use xlink:href="#m6d5bedd002" x="317.545886" y="200.517065" style="fill: #7a76c2; stroke: #7a76c2"/>
     <use xlink:href="#m6d5bedd002" x="361.056016" y="180.167444" style="fill: #7a76c2; stroke: #7a76c2"/>
     <use xlink:href="#m6d5bedd002" x="284.122357" y="250.889353" style="fill: #7a76c2; stroke: #7a76c2"/>
     <use xlink:href="#m6d5bedd002" x="296.967121" y="128.47907" style="fill: #7a76c2; stroke: #7a76c2"/>
     <use xlink:href="#m6d5bedd002" x="335.255357" y="113.964703" style="fill: #7a76c2; stroke: #7a76c2"/>
     <use xlink:href="#m6d5bedd002" x="314.71441" y="153.90196" style="fill: #7a76c2; stroke: #7a76c2"/>
     <use xlink:href="#m6d5bedd002" x="352.67687" y="189.029782" style="fill: #7a76c2; stroke: #7a76c2"/>
     <use xlink:href="#m6d5bedd002" x="346.589886" y="215.500633" style="fill: #7a76c2; stroke: #7a76c2"/>
     <use xlink:href="#m6d5bedd002" x="317.029232" y="194.464758" style="fill: #7a76c2; stroke: #7a76c2"/>
     <use xlink:href="#m6d5bedd002" x="287.001396" y="129.243982" style="fill: #7a76c2; stroke: #7a76c2"/>
     <use xlink:href="#m6d5bedd002" x="313.194615" y="164.866726" style="fill: #7a76c2; stroke: #7a76c2"/>
     <use xlink:href="#m6d5bedd002" x="347.454226" y="132.280222" style="fill: #7a76c2; stroke: #7a76c2"/>
     <use xlink:href="#m6d5bedd002" x="354.111752" y="173.198819" style="fill: #7a76c2; stroke: #7a76c2"/>
     <use xlink:href="#m6d5bedd002" x="314.856992" y="171.789815" style="fill: #7a76c2; stroke: #7a76c2"/>
     <use xlink:href="#m6d5bedd002" x="269.279523" y="274.450632" style="fill: #7a76c2; stroke: #7a76c2"/>
     <use xlink:href="#m6d5bedd002" x="282.427195" y="240.675754" style="fill: #7a76c2; stroke: #7a76c2"/>
     <use xlink:href="#m6d5bedd002" x="344.534596" y="233.78604" style="fill: #7a76c2; stroke: #7a76c2"/>
     <use xlink:href="#m6d5bedd002" x="316.484456" y="68.261683" style="fill: #7a76c2; stroke: #7a76c2"/>
     <use xlink:href="#m6d5bedd002" x="317.274055" y="110.433783" style="fill: #7a76c2; stroke: #7a76c2"/>
     <use xlink:href="#m6d5bedd002" x="296.456358" y="181.228535" style="fill: #7a76c2; stroke: #7a76c2"/>
     <use xlink:href="#m6d5bedd002" x="295.864864" y="191.258579" style="fill: #7a76c2; stroke: #7a76c2"/>
     <use xlink:href="#m6d5bedd002" x="360.418968" y="295.488" style="fill: #7a76c2; stroke: #7a76c2"/>
     <use xlink:href="#m6d5bedd002" x="345.783953" y="147.956113" style="fill: #7a76c2; stroke: #7a76c2"/>
     <use xlink:href="#m6d5bedd002" x="308.696578" y="274.371453" style="fill: #7a76c2; stroke: #7a76c2"/>
     <use xlink:href="#m6d5bedd002" x="332.720679" y="205.55785" style="fill: #7a76c2; stroke: #7a76c2"/>
     <use xlink:href="#m6d5bedd002" x="338.509527" y="164.164147" style="fill: #7a76c2; stroke: #7a76c2"/>
     <use xlink:href="#m6d5bedd002" x="387.875391" y="183.775025" style="fill: #7a76c2; stroke: #7a76c2"/>
    </g>
   </g>
   <g id="matplotlib.axis_3">
    <g id="xtick_3">
     <g id="line2d_17">
      <path d="M 273.108627 307.584 
L 273.108627 41.472 
" clip-path="url(#p31502b9e3a)" style="fill: none; stroke: #b0b0b0; stroke-width: 0.8; stroke-linecap: square"/>
     </g>
     <g id="line2d_18">
      <g>
       <use xlink:href="#m45460a05ae" x="273.108627" y="307.584" style="stroke: #000000; stroke-width: 0.8"/>
      </g>
     </g>
     <g id="text_9">
      <!-- −0.5 -->
      <g transform="translate(260.967221 322.182437) scale(0.1 -0.1)">
       <use xlink:href="#DejaVuSans-2212"/>
       <use xlink:href="#DejaVuSans-30" transform="translate(83.789062 0)"/>
       <use xlink:href="#DejaVuSans-2e" transform="translate(147.412109 0)"/>
       <use xlink:href="#DejaVuSans-35" transform="translate(179.199219 0)"/>
      </g>
     </g>
    </g>
    <g id="xtick_4">
     <g id="line2d_19">
      <path d="M 330.119899 307.584 
L 330.119899 41.472 
" clip-path="url(#p31502b9e3a)" style="fill: none; stroke: #b0b0b0; stroke-width: 0.8; stroke-linecap: square"/>
     </g>
     <g id="line2d_20">
      <g>
       <use xlink:href="#m45460a05ae" x="330.119899" y="307.584" style="stroke: #000000; stroke-width: 0.8"/>
      </g>
     </g>
     <g id="text_10">
      <!-- 0.0 -->
      <g transform="translate(322.168336 322.182437) scale(0.1 -0.1)">
       <use xlink:href="#DejaVuSans-30"/>
       <use xlink:href="#DejaVuSans-2e" transform="translate(63.623047 0)"/>
       <use xlink:href="#DejaVuSans-30" transform="translate(95.410156 0)"/>
      </g>
     </g>
    </g>
    <g id="xtick_5">
     <g id="line2d_21">
      <path d="M 387.13117 307.584 
L 387.13117 41.472 
" clip-path="url(#p31502b9e3a)" style="fill: none; stroke: #b0b0b0; stroke-width: 0.8; stroke-linecap: square"/>
     </g>
     <g id="line2d_22">
      <g>
       <use xlink:href="#m45460a05ae" x="387.13117" y="307.584" style="stroke: #000000; stroke-width: 0.8"/>
      </g>
     </g>
     <g id="text_11">
      <!-- 0.5 -->
      <g transform="translate(379.179608 322.182437) scale(0.1 -0.1)">
       <use xlink:href="#DejaVuSans-30"/>
       <use xlink:href="#DejaVuSans-2e" transform="translate(63.623047 0)"/>
       <use xlink:href="#DejaVuSans-35" transform="translate(95.410156 0)"/>
      </g>
     </g>
    </g>
   </g>
   <g id="matplotlib.axis_4">
    <g id="ytick_7">
     <g id="line2d_23">
      <path d="M 252.392727 260.771369 
L 414.72 260.771369 
" clip-path="url(#p31502b9e3a)" style="fill: none; stroke: #b0b0b0; stroke-width: 0.8; stroke-linecap: square"/>
     </g>
     <g id="line2d_24">
      <g>
       <use xlink:href="#m8990f5f055" x="252.392727" y="260.771369" style="stroke: #000000; stroke-width: 0.8"/>
      </g>
     </g>
     <g id="text_12">
      <!-- −0.4 -->
      <g transform="translate(221.109915 264.570588) scale(0.1 -0.1)">
       <defs>
        <path id="DejaVuSans-34" d="M 2419 4116 
L 825 1625 
L 2419 1625 
L 2419 4116 
z
M 2253 4666 
L 3047 4666 
L 3047 1625 
L 3713 1625 
L 3713 1100 
L 3047 1100 
L 3047 0 
L 2419 0 
L 2419 1100 
L 313 1100 
L 313 1709 
L 2253 4666 
z
" transform="scale(0.015625)"/>
       </defs>
       <use xlink:href="#DejaVuSans-2212"/>
       <use xlink:href="#DejaVuSans-30" transform="translate(83.789062 0)"/>
       <use xlink:href="#DejaVuSans-2e" transform="translate(147.412109 0)"/>
       <use xlink:href="#DejaVuSans-34" transform="translate(179.199219 0)"/>
      </g>
     </g>
    </g>
    <g id="ytick_8">
     <g id="line2d_25">
      <path d="M 252.392727 213.288062 
L 414.72 213.288062 
" clip-path="url(#p31502b9e3a)" style="fill: none; stroke: #b0b0b0; stroke-width: 0.8; stroke-linecap: square"/>
     </g>
     <g id="line2d_26">
      <g>
       <use xlink:href="#m8990f5f055" x="252.392727" y="213.288062" style="stroke: #000000; stroke-width: 0.8"/>
      </g>
     </g>
     <g id="text_13">
      <!-- −0.2 -->
      <g transform="translate(221.109915 217.087281) scale(0.1 -0.1)">
       <use xlink:href="#DejaVuSans-2212"/>
       <use xlink:href="#DejaVuSans-30" transform="translate(83.789062 0)"/>
       <use xlink:href="#DejaVuSans-2e" transform="translate(147.412109 0)"/>
       <use xlink:href="#DejaVuSans-32" transform="translate(179.199219 0)"/>
      </g>
     </g>
    </g>
    <g id="ytick_9">
     <g id="line2d_27">
      <path d="M 252.392727 165.804755 
L 414.72 165.804755 
" clip-path="url(#p31502b9e3a)" style="fill: none; stroke: #b0b0b0; stroke-width: 0.8; stroke-linecap: square"/>
     </g>
     <g id="line2d_28">
      <g>
       <use xlink:href="#m8990f5f055" x="252.392727" y="165.804755" style="stroke: #000000; stroke-width: 0.8"/>
      </g>
     </g>
     <g id="text_14">
      <!-- 0.0 -->
      <g transform="translate(229.489602 169.603974) scale(0.1 -0.1)">
       <use xlink:href="#DejaVuSans-30"/>
       <use xlink:href="#DejaVuSans-2e" transform="translate(63.623047 0)"/>
       <use xlink:href="#DejaVuSans-30" transform="translate(95.410156 0)"/>
      </g>
     </g>
    </g>
    <g id="ytick_10">
     <g id="line2d_29">
      <path d="M 252.392727 118.321449 
L 414.72 118.321449 
" clip-path="url(#p31502b9e3a)" style="fill: none; stroke: #b0b0b0; stroke-width: 0.8; stroke-linecap: square"/>
     </g>
     <g id="line2d_30">
      <g>
       <use xlink:href="#m8990f5f055" x="252.392727" y="118.321449" style="stroke: #000000; stroke-width: 0.8"/>
      </g>
     </g>
     <g id="text_15">
      <!-- 0.2 -->
      <g transform="translate(229.489602 122.120667) scale(0.1 -0.1)">
       <use xlink:href="#DejaVuSans-30"/>
       <use xlink:href="#DejaVuSans-2e" transform="translate(63.623047 0)"/>
       <use xlink:href="#DejaVuSans-32" transform="translate(95.410156 0)"/>
      </g>
     </g>
    </g>
    <g id="ytick_11">
     <g id="line2d_31">
      <path d="M 252.392727 70.838142 
L 414.72 70.838142 
" clip-path="url(#p31502b9e3a)" style="fill: none; stroke: #b0b0b0; stroke-width: 0.8; stroke-linecap: square"/>
     </g>
     <g id="line2d_32">
      <g>
       <use xlink:href="#m8990f5f055" x="252.392727" y="70.838142" style="stroke: #000000; stroke-width: 0.8"/>
      </g>
     </g>
     <g id="text_16">
      <!-- 0.4 -->
      <g transform="translate(229.489602 74.637361) scale(0.1 -0.1)">
       <use xlink:href="#DejaVuSans-30"/>
       <use xlink:href="#DejaVuSans-2e" transform="translate(63.623047 0)"/>
       <use xlink:href="#DejaVuSans-34" transform="translate(95.410156 0)"/>
      </g>
     </g>
    </g>
   </g>
   <g id="patch_8">
    <path d="M 252.392727 307.584 
L 252.392727 41.472 
" style="fill: none; stroke: #000000; stroke-width: 0.8; stroke-linejoin: miter; stroke-linecap: square"/>
   </g>
   <g id="patch_9">
    <path d="M 414.72 307.584 
L 414.72 41.472 
" style="fill: none; stroke: #000000; stroke-width: 0.8; stroke-linejoin: miter; stroke-linecap: square"/>
   </g>
   <g id="patch_10">
    <path d="M 252.392727 307.584 
L 414.72 307.584 
" style="fill: none; stroke: #000000; stroke-width: 0.8; stroke-linejoin: miter; stroke-linecap: square"/>
   </g>
   <g id="patch_11">
    <path d="M 252.392727 41.472 
L 414.72 41.472 
" style="fill: none; stroke: #000000; stroke-width: 0.8; stroke-linejoin: miter; stroke-linecap: square"/>
   </g>
  </g>
 </g>
 <defs>
  <clipPath id="p17d28e457a">
   <rect x="57.6" y="41.472" width="162.327273" height="266.112"/>
  </clipPath>
  <clipPath id="p31502b9e3a">
   <rect x="252.392727" y="41.472" width="162.327273" height="266.112"/>
  </clipPath>
 </defs>
</svg>
