<svg width="186.6mm" height="155.1mm" version="1.1" viewBox="0 0 186.6389 155.0771" xmlns="http://www.w3.org/2000/svg" xmlns:xlink="http://www.w3.org/1999/xlink">
 <defs>
  <marker id="i" overflow="visible" orient="auto">
   <path transform="matrix(.4 0 0 .4 4 0)" d="m0 0 5-5-17.5 5 17.5 5z" fill="#d35f5f" fill-rule="evenodd" stroke="#d45500" stroke-width="1pt"/>
  </marker>
  <marker id="j" overflow="visible" orient="auto">
   <path transform="matrix(.4 0 0 .4 4 0)" d="m0 0 5-5-17.5 5 17.5 5z" fill="#d35f5f" fill-rule="evenodd" stroke="#d45500" stroke-width="1pt"/>
  </marker>
  <marker id="k" overflow="visible" orient="auto">
   <path transform="matrix(.4 0 0 .4 4 0)" d="m0 0 5-5-17.5 5 17.5 5z" fill="#d35f5f" fill-rule="evenodd" stroke="#d45500" stroke-width="1pt"/>
  </marker>
  <marker id="l" overflow="visible" orient="auto">
   <path transform="matrix(.4 0 0 .4 4 0)" d="m0 0 5-5-17.5 5 17.5 5z" fill="#d35f5f" fill-rule="evenodd" stroke="#d45500" stroke-width="1pt"/>
  </marker>
  <marker id="m" overflow="visible" orient="auto">
   <path transform="matrix(.4 0 0 .4 4 0)" d="m0 0 5-5-17.5 5 17.5 5z" fill="#d35f5f" fill-rule="evenodd" stroke="#d45500" stroke-width="1pt"/>
  </marker>
  <linearGradient id="a">
   <stop stop-color="#655a2f" offset="0"/>
   <stop stop-color="#ddd6bb" offset=".2914"/>
   <stop stop-color="#a89f7e" offset=".594"/>
   <stop stop-color="#5c5024" offset="1"/>
  </linearGradient>
  <linearGradient id="c">
   <stop stop-color="#655a2f" offset="0"/>
   <stop stop-color="#ddd6bb" offset=".2285"/>
   <stop stop-color="#a89f7e" offset=".594"/>
   <stop stop-color="#5c5024" offset="1"/>
  </linearGradient>
  <linearGradient id="b">
   <stop stop-color="#655a2f" offset="0"/>
   <stop stop-color="#ddd6bb" offset=".6276"/>
   <stop stop-color="#a89f7e" offset=".7521"/>
   <stop stop-color="#5c5024" offset="1"/>
  </linearGradient>
  <linearGradient id="f">
   <stop stop-color="#806600" offset="0"/>
   <stop stop-color="#ddd6bb" offset=".3387"/>
   <stop stop-color="#a89f7e" offset=".5649"/>
   <stop stop-color="#5c5024" offset="1"/>
  </linearGradient>
  <linearGradient id="d">
   <stop stop-color="#806600" offset="0"/>
   <stop stop-color="#ddd6bb" offset=".3387"/>
   <stop stop-color="#a89f7e" offset=".6162"/>
   <stop stop-color="#5c5024" offset="1"/>
  </linearGradient>
  <linearGradient id="e">
   <stop stop-color="#806600" offset="0"/>
   <stop stop-color="#ddd6bb" offset=".3387"/>
   <stop stop-color="#a89f7e" offset=".6162"/>
   <stop stop-color="#806600" offset="1"/>
  </linearGradient>
  <linearGradient id="az" x1="52.1" x2="74.6" y1="141.5" y2="141.5" gradientTransform="matrix(.9997 0 0 .9997 -1.123 -64.21)" gradientUnits="userSpaceOnUse">
   <stop stop-color="#806600" offset="0"/>
   <stop stop-color="#ffd42a" offset=".2337"/>
   <stop stop-color="#d4aa00" offset=".4833"/>
   <stop stop-color="#fd5" offset=".7223"/>
   <stop stop-color="#806600" offset="1"/>
  </linearGradient>
  <linearGradient id="ay" x1="52.03" x2="74.64" y1="153.2" y2="153.2" gradientTransform="matrix(-.9997 0 0 -.9997 125.5 242)" gradientUnits="userSpaceOnUse">
   <stop stop-color="#806600" offset="0"/>
   <stop stop-color="#ffd42a" offset=".1748"/>
   <stop stop-color="#d4aa00" offset=".429"/>
   <stop stop-color="#fd5" offset=".647"/>
   <stop stop-color="#806600" offset="1"/>
  </linearGradient>
  <linearGradient id="ax" x1="52.03" x2="74.64" y1="153.2" y2="153.2" gradientTransform="matrix(1.356 0 0 -.9997 -23.62 266.6)" gradientUnits="userSpaceOnUse">
   <stop stop-color="#806600" offset="0"/>
   <stop stop-color="#ffd42a" offset=".3387"/>
   <stop stop-color="#d4aa00" offset=".6162"/>
   <stop stop-color="#fd5" offset=".8342"/>
   <stop stop-color="#806600" offset="1"/>
  </linearGradient>
  <linearGradient id="aw" x1="52.1" x2="74.6" y1="141.5" y2="141.5" gradientTransform="matrix(1.356 0 0 .9997 -23.62 -39.58)" gradientUnits="userSpaceOnUse">
   <stop stop-color="#806600" offset="0"/>
   <stop stop-color="#ffd42a" offset=".3378"/>
   <stop stop-color="#d4aa00" offset=".5526"/>
   <stop stop-color="#fd5" offset=".7743"/>
   <stop stop-color="#806600" offset="1"/>
  </linearGradient>
  <radialGradient id="h" cx="66.18" cy="118.8" r="11.25" gradientTransform="matrix(.6496 -.006107 .001584 .1685 21.76 57.31)" gradientUnits="userSpaceOnUse">
   <stop stop-color="#0ff" offset="0"/>
   <stop stop-color="#0af" offset="1"/>
  </radialGradient>
  <radialGradient id="g" cx="66.43" cy="120.4" r="11.25" gradientTransform="matrix(1.313 -.02925 .01527 .5258 81.1 -45.25)" gradientUnits="userSpaceOnUse">
   <stop stop-color="#34e39d" offset="0"/>
   <stop stop-color="#4b9e74" offset="1"/>
  </radialGradient>
  <linearGradient id="av" x1="52.03" x2="74.64" y1="153.2" y2="153.2" gradientTransform="matrix(-.9147 -1.637 1.513 -.8458 -97.95 378.3)" gradientUnits="userSpaceOnUse">
   <stop stop-color="#666" offset="0"/>
   <stop stop-color="#ccc" offset=".3387"/>
   <stop stop-color="#e6e6e6" offset=".6162"/>
   <stop stop-color="#b3b3b3" offset=".8342"/>
   <stop stop-color="#333" offset="1"/>
  </linearGradient>
  <linearGradient id="au" x1="60.71" x2="62.41" y1="261.2" y2="256.4" gradientTransform="matrix(.9997 0 0 .9997 35.22 -83.95)" gradientUnits="userSpaceOnUse">
   <stop stop-color="#806600" offset="0"/>
   <stop stop-color="#ddd6bb" offset=".3387"/>
   <stop stop-color="#d0c8ac" offset=".6162"/>
   <stop stop-color="#806600" offset="1"/>
  </linearGradient>
  <linearGradient id="at" x1="72.07" x2="73.75" y1="257.1" y2="252.9" gradientTransform="matrix(.9997 0 0 .9997 35.22 -83.95)" gradientUnits="userSpaceOnUse" xlink:href="#e"/>
  <linearGradient id="as" x1="71.84" x2="74.05" y1="251.2" y2="245.1" gradientTransform="matrix(.9997 0 0 .9997 35.22 -83.95)" gradientUnits="userSpaceOnUse" xlink:href="#e"/>
  <linearGradient id="ar" x1="83.85" x2="85.33" y1="253.8" y2="250" gradientTransform="matrix(.9997 0 0 .9997 35.22 -83.95)" gradientUnits="userSpaceOnUse" xlink:href="#e"/>
  <linearGradient id="aq" x1="56.97" x2="59.19" y1="269.9" y2="263.4" gradientTransform="matrix(.9997 0 0 .9997 35.22 -83.95)" gradientUnits="userSpaceOnUse">
   <stop stop-color="#806600" offset="0"/>
   <stop stop-color="#ddd6bb" offset=".3387"/>
   <stop stop-color="#d0c8ac" offset=".6162"/>
   <stop stop-color="#8c825c" offset="1"/>
  </linearGradient>
  <linearGradient id="ap" x1="64.84" x2="66.44" y1="280.9" y2="275" gradientTransform="matrix(.9997 0 0 .9997 35.22 -83.95)" gradientUnits="userSpaceOnUse">
   <stop stop-color="#806600" offset="0"/>
   <stop stop-color="#ddd6bb" offset=".1841"/>
   <stop stop-color="#a89f7e" offset=".7787"/>
   <stop stop-color="#beb286" offset="1"/>
  </linearGradient>
  <linearGradient id="ao" x1="63.99" x2="64.84" y1="287.3" y2="281.3" gradientTransform="matrix(.9997 0 0 .9997 35.22 -83.95)" gradientUnits="userSpaceOnUse">
   <stop stop-color="#806600" offset="0"/>
   <stop stop-color="#ddd6bb" offset=".3387"/>
   <stop stop-color="#d0c8ac" offset=".6162"/>
   <stop stop-color="#7a7048" offset="1"/>
  </linearGradient>
  <linearGradient id="an" x1="71.76" x2="72.51" y1="288.9" y2="286" gradientTransform="matrix(.9997 0 0 .9997 35.22 -83.95)" gradientUnits="userSpaceOnUse" xlink:href="#d"/>
  <linearGradient id="am" x1="93.16" x2="93.88" y1="287.5" y2="284.8" gradientTransform="matrix(.9997 0 0 .9997 35.22 -83.95)" gradientUnits="userSpaceOnUse" xlink:href="#d"/>
  <linearGradient id="al" x1="76.9" x2="78.27" y1="294.1" y2="288.7" gradientTransform="matrix(.9997 0 0 .9997 35.22 -83.95)" gradientUnits="userSpaceOnUse">
   <stop stop-color="#806600" offset="0"/>
   <stop stop-color="#988333" offset=".133"/>
   <stop stop-color="#afa065" offset=".2124"/>
   <stop stop-color="#6f643b" offset="1"/>
  </linearGradient>
  <linearGradient id="ak" x1="82.53" x2="85.44" y1="294.3" y2="288.1" gradientTransform="matrix(.9997 0 0 .9997 35.22 -83.95)" gradientUnits="userSpaceOnUse">
   <stop stop-color="#806600" offset="0"/>
   <stop stop-color="#ddd6bb" offset=".3387"/>
   <stop stop-color="#a89f7e" offset=".6091"/>
   <stop stop-color="#605429" offset="1"/>
  </linearGradient>
  <linearGradient id="aj" x1="62.53" x2="66.95" y1="288.5" y2="277.3" gradientTransform="matrix(.9997 0 0 .9997 35.22 -83.95)" gradientUnits="userSpaceOnUse">
   <stop stop-color="#908762" offset="0"/>
   <stop stop-color="#bfb488" offset=".3387"/>
   <stop stop-color="#837952" offset=".6162"/>
   <stop stop-color="#80754e" offset="1"/>
  </linearGradient>
  <linearGradient id="ai" x1="65.79" x2="68.4" y1="292.9" y2="286" gradientTransform="matrix(.9997 0 0 .9997 35.22 -83.95)" gradientUnits="userSpaceOnUse">
   <stop stop-color="#d9d2b7" offset="0"/>
   <stop stop-color="#827851" offset=".2484"/>
   <stop stop-color="#c4ba93" offset=".5947"/>
   <stop stop-color="#6e6339" offset="1"/>
  </linearGradient>
  <linearGradient id="ah" x1="61.33" x2="63.65" y1="273" y2="266.7" gradientTransform="matrix(.9997 0 0 .9997 35.22 -83.95)" gradientUnits="userSpaceOnUse" xlink:href="#f"/>
  <linearGradient id="ag" x1="65.01" x2="67.34" y1="266.2" y2="260.9" gradientTransform="matrix(.9997 0 0 .9997 35.22 -83.95)" gradientUnits="userSpaceOnUse" xlink:href="#f"/>
  <linearGradient id="af" x1="71.44" x2="74.06" y1="255.9" y2="248" gradientTransform="matrix(.9997 0 0 .9997 35.22 -83.95)" gradientUnits="userSpaceOnUse">
   <stop stop-color="#806600" offset="0"/>
   <stop stop-color="#ddd6bb" offset=".3387"/>
   <stop stop-color="#a89f7e" offset=".7441"/>
   <stop stop-color="#5c5024" offset="1"/>
  </linearGradient>
  <linearGradient id="ae" x1="74.34" x2="77.67" y1="253" y2="243.7" gradientTransform="matrix(.9997 0 0 .9997 35.22 -83.95)" gradientUnits="userSpaceOnUse">
   <stop stop-color="#806600" offset="0"/>
   <stop stop-color="#ddd6bb" offset=".4749"/>
   <stop stop-color="#a89f7e" offset=".8862"/>
   <stop stop-color="#5c5024" offset="1"/>
  </linearGradient>
  <linearGradient id="ad" x1="83.23" x2="87.17" y1="255.3" y2="243.1" gradientTransform="matrix(.9997 0 0 .9997 35.22 -83.95)" gradientUnits="userSpaceOnUse">
   <stop stop-color="#806600" offset="0"/>
   <stop stop-color="#ddd6bb" offset=".6459"/>
   <stop stop-color="#a89f7e" offset=".8862"/>
   <stop stop-color="#5c5024" offset="1"/>
  </linearGradient>
  <linearGradient id="ac" x1="93.21" x2="97.01" y1="258.1" y2="248.3" gradientTransform="matrix(.9997 0 0 .9997 35.22 -83.95)" gradientUnits="userSpaceOnUse" xlink:href="#b"/>
  <linearGradient id="ab" x1="98.05" x2="100" y1="260.6" y2="255.4" gradientTransform="matrix(.9997 0 0 .9997 35.22 -83.95)" gradientUnits="userSpaceOnUse" xlink:href="#b"/>
  <linearGradient id="aa" x1="96.18" x2="101.8" y1="275.1" y2="265" gradientTransform="matrix(.9997 0 0 .9997 35.22 -83.95)" gradientUnits="userSpaceOnUse" xlink:href="#b"/>
  <linearGradient id="z" x1="65.26" x2="67.94" y1="263.4" y2="255.2" gradientTransform="matrix(.9997 0 0 .9997 35.22 -83.95)" gradientUnits="userSpaceOnUse" xlink:href="#b"/>
  <linearGradient id="y" x1="58.61" x2="59.95" y1="267.2" y2="262.8" gradientTransform="matrix(.9997 0 0 .9997 35.22 -83.95)" gradientUnits="userSpaceOnUse" xlink:href="#c"/>
  <linearGradient id="x" x1="55.44" x2="57.24" y1="263.1" y2="257.3" gradientTransform="matrix(.9997 0 0 .9997 35.22 -83.95)" gradientUnits="userSpaceOnUse" xlink:href="#c"/>
  <linearGradient id="w" x1="61.49" x2="64.7" y1="255.7" y2="247.3" gradientTransform="matrix(.9997 0 0 .9997 35.22 -83.95)" gradientUnits="userSpaceOnUse" xlink:href="#c"/>
  <linearGradient id="v" x1="76.9" x2="78.15" y1="245.4" y2="242" gradientTransform="matrix(.9997 0 0 .9997 35.22 -83.95)" gradientUnits="userSpaceOnUse">
   <stop stop-color="#655a2f" offset="0"/>
   <stop stop-color="#ddd6bb" offset=".1818"/>
   <stop stop-color="#a89f7e" offset=".594"/>
   <stop stop-color="#5c5024" offset="1"/>
  </linearGradient>
  <linearGradient id="u" x1="70.34" x2="72.49" y1="250.2" y2="245.1" gradientTransform="matrix(.9997 0 0 .9997 35.22 -83.95)" gradientUnits="userSpaceOnUse" xlink:href="#a"/>
  <linearGradient id="t" x1="57.34" x2="58.82" y1="274.6" y2="269.2" gradientTransform="matrix(.9997 0 0 .9997 35.22 -83.95)" gradientUnits="userSpaceOnUse" xlink:href="#a"/>
  <linearGradient id="s" x1="59.56" x2="60.6" y1="283.1" y2="279.1" gradientTransform="matrix(.9997 0 0 .9997 35.22 -83.95)" gradientUnits="userSpaceOnUse" xlink:href="#a"/>
  <linearGradient id="r" x1="62.86" x2="60.72" y1="286.7" y2="293.1" gradientTransform="matrix(.9997 0 0 .9997 35.22 -83.95)" gradientUnits="userSpaceOnUse" xlink:href="#a"/>
  <linearGradient id="q" x1="61.68" x2="64.04" y1="282.7" y2="275.2" gradientTransform="matrix(.9997 0 0 .9997 35.22 -83.95)" gradientUnits="userSpaceOnUse" xlink:href="#d"/>
  <linearGradient id="p" x1="-22.11" x2="-13.81" y1="299.2" y2="282.9" gradientTransform="matrix(.8804 0 0 1.039 131.9 -101)" gradientUnits="userSpaceOnUse">
   <stop stop-color="#655a2f" offset="0"/>
   <stop stop-color="#ddd6bb" offset=".588"/>
   <stop stop-color="#a89f7e" offset=".885"/>
   <stop stop-color="#5c5024" offset="1"/>
  </linearGradient>
  <linearGradient id="o" x1="180" x2="189.5" y1="250.2" y2="255.2" gradientTransform="matrix(.9978 .06171 -.06171 .9978 8.121 -74.87)" gradientUnits="userSpaceOnUse">
   <stop stop-color="#00f" offset="0"/>
   <stop stop-color="#0ff" offset=".2592"/>
   <stop stop-color="#0ff" offset=".6162"/>
   <stop stop-color="#1af3fa" offset="1"/>
  </linearGradient>
  <linearGradient id="n" x1="174.2" x2="183.8" y1="281.9" y2="281" gradientTransform="matrix(.9978 .06171 -.06171 .9978 8.121 -74.87)" gradientUnits="userSpaceOnUse">
   <stop stop-color="#00f" offset="0"/>
   <stop stop-color="#0ff" offset=".2892"/>
   <stop stop-color="#0ff" offset=".6162"/>
   <stop stop-color="#0ff" offset="1"/>
  </linearGradient>
 </defs>
 <g transform="translate(-11.56 -71.89)">
  <text fill="#000000" font-family="Arial" font-size="5.998px"><tspan x="97.80974" y="83.26158" style="line-height:6.497983px">1 - источник света;</tspan><tspan x="97.80974" y="89.75957">2 - светоделительное</tspan><tspan x="97.80974" y="96.25755">полупрозрачное</tspan><tspan x="97.80974" y="102.7555">зеркало;</tspan><tspan x="97.80974" y="109.2535">3 - прерыватель</tspan><tspan x="97.80974" y="115.7515">светового пучка</tspan><tspan x="97.80974" y="122.2495">(зубчатое колесо);</tspan><tspan x="97.80974" y="128.7475">4 - удалённое зеркало;</tspan><tspan x="97.80974" y="135.2455">5 - телескоп.</tspan></text>
  <rect x="11.56" y="71.89" width="186.6" height="155.1" fill="#fff" stroke-width=".9997" style="paint-order:stroke fill markers"/>
  <path d="m108 202.7 6.852 2.397 0.9899 5.394-6.852-2.397z" fill="url(#al)" stroke="#72673e" stroke-dashoffset="11.34" stroke-linecap="round" stroke-linejoin="round" stroke-width=".09997" style="paint-order:fill markers stroke"/>
  <path d="m126.1 170 3.893-3.544-6.852-2.397-3.893 3.544z" fill="url(#ac)" stroke="#72673e" stroke-dashoffset="11.34" stroke-linecap="round" stroke-linejoin="round" stroke-width=".09997" style="paint-order:fill markers stroke"/>
  <g fill="#9e9572" stroke="#6f643b" stroke-dashoffset="11.34" stroke-linecap="round" stroke-linejoin="round" stroke-width=".0954">
   <path d="m119.1 167.7 4.038-3.734 1.44 1.529-2.565 4.953 1.334 2.244" style="paint-order:fill markers stroke"/>
   <path d="m123.2 172.7 4.81-1.716 0.794 2.117-3.888 3.553 0.4693 2.751" style="paint-order:fill markers stroke"/>
   <path d="m94.4 180.4-4.153-2.758 0.7429-2.287 4.645 0.5751 1.332-2.497" style="paint-order:fill markers stroke"/>
  </g>
  <g stroke="#72673e" stroke-dashoffset="11.34" stroke-linecap="round" stroke-linejoin="round">
   <ellipse transform="matrix(.9939 -.1099 .0116 .9999 0 0)" cx="108" cy="195.5" rx="15.91" ry="18.77" fill="#ffd42a" stroke-width=".1002" style="paint-order:fill markers stroke"/>
   <g stroke-width=".09997">
    <path d="m96.9 173.5 6.852 2.397-1.268 2.521-6.852-2.397z" fill="url(#au)" style="paint-order:fill markers stroke"/>
    <path d="m95.63 176 6.852 2.397-4.646-0.5756-6.852-2.397z" fill="url(#ag)" style="paint-order:fill markers stroke"/>
    <path d="m93.81 183.2 6.852 2.397-4.618 1.612-6.852-2.397z" fill="url(#ah)" style="paint-order:fill markers stroke"/>
    <path d="m94.2 180.4 6.852 2.397-3.96-2.685-6.852-2.397c1.32 0.8951 4.214 2.857 3.96 2.685z" fill="url(#y)" style="paint-order:fill markers stroke"/>
    <path d="m90.24 177.7 6.852 2.397 0.743-2.287-6.852-2.397z" fill="url(#x)" style="paint-order:fill markers stroke"/>
    <path d="m96.9 173.5 6.852 2.397-2.673-4.375-6.852-2.397z" fill="url(#z)" style="paint-order:fill markers stroke"/>
    <path d="m94.2 180.4 6.852 2.397-0.3975 2.832-6.852-2.397z" fill="url(#aq)" style="paint-order:fill markers stroke"/>
    <path d="m99.59 169.9 6.852 2.397 1.944-1.826-6.852-2.397z" fill="url(#at)" style="paint-order:fill markers stroke"/>
    <path d="m94.23 169.1 6.852 2.397 1.401-1.842-6.852-2.397z" fill="url(#w)" style="paint-order:fill markers stroke"/>
    <path d="m105.1 166 6.852 2.397 2.325-0.8525-6.852-2.397z" fill="url(#as)" style="paint-order:fill markers stroke"/>
    <path d="m101.5 168.1 6.852 2.397-0.9802-5.398-6.852-2.397z" fill="url(#af)" style="paint-order:fill markers stroke"/>
    <path d="m118.1 167.1-0.8508-5.44-6.852-2.397 0.8508 5.44z" fill="none" style="paint-order:fill markers stroke"/>
    <path d="m118.1 167.1 2.338 0.4178-6.838-2.564-2.352-0.2506z" fill="url(#ar)" style="paint-order:fill markers stroke"/>
    <path d="m123 162.4-2.588 5.115-6.838-2.564 2.573-4.948z" fill="url(#ad)" style="paint-order:fill markers stroke"/>
    <path d="m115.3 161.8-1.002 5.717-6.852-2.397 1.002-5.717z" fill="url(#ae)" style="paint-order:fill markers stroke"/>
    <path d="m130.2 175.1 4.62-1.6-6.852-2.397-4.62 1.6z" fill="url(#ab)" style="paint-order:fill markers stroke"/>
    <path d="m132.3 181.9 4.644 0.5872-6.852-2.397-4.644-0.5872z" fill="url(#aa)" style="paint-order:fill markers stroke"/>
    <path d="m94.39 190.5 6.852 2.397-0.5329-2.713-6.852-2.397z" fill="url(#ap)" style="paint-order:fill markers stroke"/>
    <path d="m97.3 196.8 6.852 2.397-1.382-2.18-6.852-2.397z" fill="url(#ao)" style="paint-order:fill markers stroke"/>
    <path d="m94.39 190.5 6.852 2.397-3.888 3.553-6.852-2.397z" fill="url(#q)" style="paint-order:fill markers stroke"/>
    <path d="m102.1 201 6.852 2.397-2.02-1.316-6.852-2.397z" fill="url(#an)" style="paint-order:fill markers stroke"/>
    <path d="m102.1 201 6.852 2.397-0.8527 5.6-6.852-2.397z" fill="url(#ai)" style="paint-order:fill markers stroke"/>
    <path d="m97.3 196.8 6.852 2.397-2.565 4.954-6.852-2.397z" fill="url(#aj)" style="paint-order:fill markers stroke"/>
    <path d="m91.3 196.2 6.852 2.397-0.7941-2.117-6.852-2.397z" fill="url(#s)" style="paint-order:fill markers stroke"/>
    <path d="m96.18 203.3 6.852 2.397-1.44-1.528-6.852-2.397z" fill="url(#r)" style="paint-order:fill markers stroke"/>
    <path d="m114.2 201.4 6.852 2.397 2.682 4.368-6.852-2.397z" fill="url(#ak)" style="paint-order:fill markers stroke"/>
    <path d="m119.7 197.4 6.852 2.397 3.965 2.675-6.852-2.397z" fill="url(#am)" style="paint-order:fill markers stroke"/>
   </g>
  </g>
  <g fill="#9e9572" stroke-dashoffset="11.34" stroke-linecap="round" stroke-linejoin="round">
   <g stroke="#6f643b" stroke-width=".0954">
    <path d="m120.4 167.5 2.651-5.184 1.866 0.7069-0.8524 5.6 1.995 1.394" style="paint-order:fill markers stroke"/>
    <path d="m125.9 170.1 4.038-3.734 1.44 1.529-2.565 4.953 1.334 2.244" style="paint-order:fill markers stroke"/>
    <path d="m130 175.1 4.81-1.716 0.794 2.117-3.888 3.553 0.4693 2.751" style="paint-order:fill markers stroke"/>
    <path d="m132.1 181.9 4.851 0.5637 0.028 2.384-4.618 1.611-0.4667 2.84" style="paint-order:fill markers stroke"/>
    <path d="m131.8 189.2 4.152 2.758-0.7429 2.287-4.645-0.5751-1.332 2.497" style="paint-order:fill markers stroke"/>
    <path d="m129.1 196.1 2.822 4.532-1.401 1.843-3.965-2.674-1.994 1.773" style="paint-order:fill markers stroke"/>
    <path d="m124.5 201.3 1.062 5.616-1.844 1.117-2.682-4.367-2.352 0.7793" style="paint-order:fill markers stroke"/>
    <path d="m118.7 204.3-0.8592 5.845-2.008 0.2221-0.9895-5.394-2.353-0.3328" style="paint-order:fill markers stroke"/>
    <path d="m112.6 204.5-2.651 5.184-1.866-0.707 0.8524-5.6-1.995-1.394" style="paint-order:fill markers stroke"/>
    <path d="m107.1 201.8-4.038 3.734-1.44-1.529 2.565-4.953-1.334-2.243" style="paint-order:fill markers stroke"/>
    <path d="m103 196.8-4.81 1.716-0.794-2.117 3.887-3.553-0.4693-2.751" style="paint-order:fill markers stroke"/>
    <path d="m100.9 190.1-4.851-0.5638-0.0276-2.384 4.618-1.611 0.4666-2.84" style="paint-order:fill markers stroke"/>
   </g>
   <ellipse transform="matrix(.9939 -.1099 .0116 .9999 0 0)" cx="114.9" cy="198.6" rx="15.91" ry="18.77" stroke="#9e9572" stroke-width=".1002" style="paint-order:fill markers stroke"/>
   <path d="m101.2 182.8-4.153-2.758 0.7429-2.287 4.645 0.5751 1.332-2.497" stroke="#6f643b" stroke-width=".0954" style="paint-order:fill markers stroke"/>
  </g>
  <path d="m73.14 154.2 20.59 7.496m74.59 30.89-138.5-50.4" fill="#d35f5f" marker-start="url(#j)" stroke="#d40000" stroke-dashoffset="42.85" stroke-linecap="round" stroke-linejoin="round" stroke-width=".9997" style="paint-order:fill markers stroke"/>
  <g fill="#9e9572" stroke="#6f643b" stroke-dashoffset="11.34" stroke-linecap="round" stroke-linejoin="round" stroke-width=".0954">
   <path d="m108.5 170.7-1.062-5.616 1.844-1.117 2.682 4.367 2.352-0.7793" style="paint-order:fill markers stroke"/>
   <path d="m114.3 167.5 1.005-5.826 2.008-0.1503 0.8508 5.44 2.338 0.4178" style="paint-order:fill markers stroke"/>
   <path d="m103.9 176-2.822-4.532 1.401-1.843 3.965 2.674 1.994-1.773" style="paint-order:fill markers stroke"/>
  </g>
  <ellipse transform="matrix(.9939 -.1099 .0116 .9999 0 0)" cx="115.2" cy="198.8" rx="6.786" ry="8.007" fill="url(#p)" stroke="#000" stroke-dashoffset="11.34" stroke-linecap="round" stroke-linejoin="round" stroke-width=".04274" style="paint-order:fill markers stroke"/>
  <path d="m115.1 178.5a6.677 8.098 12.06 0 0 -5.299 8.431 6.677 8.098 12.06 0 0 1.339 4.541 6.677 8.098 12.06 0 0 5.299 -8.43 6.677 8.098 12.06 0 0 -1.339 -4.541z" fill="#fff" stroke="#000" stroke-dashoffset="11.34" stroke-linecap="round" stroke-linejoin="round" stroke-width=".04263" style="paint-order:fill markers stroke"/>
  <g stroke="#72673e" stroke-dashoffset="11.34" stroke-linecap="round" stroke-linejoin="round" stroke-width=".09997">
   <path d="m115.3 161.8 2.008-0.1504-6.852-2.397-2.008 0.1505z" fill="url(#v)" style="paint-order:fill markers stroke"/>
   <path d="m100.6 162.7 6.852 2.397 1.844-1.118-6.852-2.397z" fill="url(#u)" style="paint-order:fill markers stroke"/>
   <path d="m89.22 187.2 6.852 2.397-0.0276-2.384-6.852-2.397z" fill="url(#t)" style="paint-order:fill markers stroke"/>
  </g>
  <g stroke="#806600" stroke-dashoffset="11.34" stroke-linecap="round" stroke-linejoin="round" stroke-width=".1999">
   <path d="m47.36 101.6v23.57c-1.721 7.613 29.78 8.827 29.69 0.3048v-23.88" fill="url(#ax)" style="paint-order:fill markers stroke"/>
   <ellipse cx="62.24" cy="101.9" rx="14.88" ry="3.214" fill="url(#aw)" style="paint-order:fill markers stroke"/>
   <path d="m73.14 77.01v23.57c0 3.548-21.9 4.241-21.9 0.3048v-23.88" fill="url(#ay)" style="paint-order:fill markers stroke"/>
   <ellipse cx="62.21" cy="77.21" rx="10.98" ry="3.214" fill="url(#az)" style="paint-order:fill markers stroke"/>
   <ellipse cx="62.21" cy="77.61" rx="10.56" ry="2.661" fill="url(#h)" style="paint-order:fill markers stroke"/>
  </g>
  <g stroke-linejoin="round">
   <path d="m72.55 170.6-4.084 2.464c-11.53 6.686-30.12-30.42-20.65-35.85l4.434-2.478" fill="url(#av)" opacity=".487" stroke="#000" stroke-dashoffset="11.34" stroke-linecap="round" stroke-width=".2999" style="paint-order:fill markers stroke"/>
   <ellipse transform="matrix(.4712 .882 -.8891 .4577 0 0)" cx="164.3" cy="16.79" rx="20.69" ry="6.826" fill="url(#g)" opacity=".487" stroke="#000" stroke-dashoffset="11.34" stroke-linecap="round" stroke-width=".2999" style="paint-order:fill markers stroke"/>
   <path d="m175.4 191.5-113.5-41.3 0.2208-18.74" fill="none" stroke="#c83737" stroke-dashoffset="42.85" stroke-width=".9997" style="paint-order:fill markers stroke"/>
  </g>
  <g fill-rule="evenodd" stroke-dashoffset="42.85" stroke-linecap="round" stroke-linejoin="round">
   <g stroke-width=".3779">
    <path d="m164.6 199.7 1.024 22.01 23.46-38.38-1.024-22.01z" fill="#353564" style="paint-order:fill markers stroke"/>
    <path d="m188 161.4 6.919 3.072 1.024 22.01-6.919-3.072z" fill="#e9e9ff" style="paint-order:fill markers stroke"/>
    <path d="m165.6 221.8 6.919 3.072 23.46-38.38-6.919-3.072z" fill="#afafde" style="paint-order:fill markers stroke"/>
   </g>
   <path d="m164.6 199.7 6.919 3.072 23.46-38.38-6.919-3.072z" fill="url(#o)" opacity=".654" stroke="#00f" stroke-width=".1999" style="paint-order:fill markers stroke"/>
  </g>
  <g stroke-dashoffset="42.85" stroke-linecap="round" stroke-linejoin="round">
   <path d="m171.5 202.8 1.024 22.01 23.46-38.38-1.024-22.01z" fill="#459e81" opacity=".909" stroke="#00f" stroke-width=".3779" style="paint-order:stroke fill markers"/>
   <path d="m164.6 199.7 6.919 3.072 1.024 22.01-6.919-3.072z" fill="url(#n)" opacity=".849" stroke="#00f" stroke-width=".1999" style="paint-order:fill markers stroke"/>
   <path d="m132.3 169.3c4.896-15.84-10.74-24.16-16.33-25.82l9.73 3.044c15.46 4.843 14.69 20.48 13.3 25.03z" fill="#808080" stroke="#000" stroke-width=".1188" style="paint-order:fill markers stroke"/>
   <path d="m107.7 153.7-2.828-0.885c3.865-7.868 15.3-8.272 20.72-6.247l-9.73-3.044c-10.05-3.146-14.2 2.82-17.97 7.108l-3.052-0.955 3.857 9.35z" fill="#ececec" stroke="#000" stroke-width=".1188" style="paint-order:fill markers stroke"/>
  </g>
  <g fill="#d35f5f" stroke="#d40000" stroke-dashoffset="42.85" stroke-linecap="round" stroke-linejoin="round">
   <path d="m62.21 137.5-0.2208 12.67" marker-start="url(#m)" stroke-width=".9" style="paint-order:fill markers stroke"/>
   <path d="m88.56 163.5-23.59-8.587" marker-start="url(#l)" stroke-width=".9997" style="paint-order:fill markers stroke"/>
   <path d="m139.4 178.4 20.59 7.496" marker-start="url(#k)" stroke-width=".9997" style="paint-order:fill markers stroke"/>
  </g>
  <g stroke-dashoffset="11.34" stroke-linejoin="round">
   <path d="m15.68 140.5c1.486 0.5881 2.722 1.106 3.293 1.33 4.145 1.628 3.034 6.307 7.752 7.628 3.32 0.9298 7.137-0.8427 8.626-5.28 1.676-4.37-0.156-8.093-3.308-9.489-4.479-1.984-6.601 2.332-10.83 0.9488-0.5828-0.1904-1.866-0.5781-3.386-1.07-2.186-0.7081-2.67 0.028-3.547 2.076-0.6352 2.135-0.7307 3.011 1.406 3.856z" fill="#fd5" stroke="#d4aa00" stroke-width=".4998" style="paint-order:fill markers stroke"/>
   <path d="m22.38 135.7c-0.4063 0.167-1.307 0.091-1.683-0.4629-0.1507-0.2172-0.8414 0.2196-1.189 0-0.3509-0.2211-0.3498-0.4817-0.6244-0.6462-0.214-0.1285-0.7799 0.07-0.9996-0.022-0.3087-0.1281-0.3655-0.5516-0.6211-0.6711-0.2785-0.1302-0.4535 0.033-0.6863 0.1335-0.228 0.096-0.5467-0.1688-0.6728-0.064-0.6177 0.6293-2.168 5.479-2.084 5.775 0.0306 0.1611 0.4448 0.1598 0.5596 0.3789 0.1157 0.2256 0.1467 0.463 0.4444 0.5398 0.2731 0.071 0.5864-0.2199 0.9061-0.1223 0.2279 0.069 0.5381 0.5822 0.785 0.6192 0.3164 0.048 0.4815-0.1538 0.8928-0.101 0.408 0.052 0.6626 0.8286 0.92 0.7536 0.6429-0.1881 1.386 0.3268 1.593 0.7142 0.9653-2.224 1.706-4.524 2.46-6.825z" stroke="#000" stroke-linecap="round" stroke-width=".4998" style="paint-order:fill markers stroke"/>
   <path d="m28.97 139.1-0.7195 0.5172 0.5139 0.8387-0.9248 0.387 0.4589 0.9245-0.92 0.331 0.4668 0.8872-0.9301 0.3197 0.2257 0.8568" fill="none" stroke="#fff" stroke-linecap="round" stroke-width=".9996" style="paint-order:fill markers stroke"/>
   <path d="m27.68 144.9-7.822-4.45m9.989-1.553-8.865-1.547" fill="#0df" opacity=".782" stroke="#000" stroke-width=".4998" style="paint-order:fill markers stroke"/>
  </g>
  <path d="m42.83 146.9-12.99-4.726" fill="#d40000" marker-start="url(#i)" stroke="#d40000" stroke-dashoffset="42.85" stroke-linecap="round" stroke-linejoin="round" stroke-width=".9997" style="paint-order:fill markers stroke"/>
  <path d="m165.1 176.4 8.042 12.82m-88.74 8.078 7.482-9.539m-56.77-99.73 18.04 7.762m11.98 51.62 12.16-10.94m-47.42-7.758 1.497 6.92" fill="none" stroke="#000" stroke-width=".2645px"/>
  <g fill="#000000" font-family="Arial" font-size="12px" text-anchor="middle">
   <text x="29.16276" y="125.8279"><tspan x="29.16276" y="125.8279">1</tspan><tspan x="80.78323" y="140.4164">2</tspan><tspan x="80.22213" y="205.3159">3</tspan><tspan x="162.8896" y="175.2975">4</tspan><tspan x="31.22009" y="92.06885">5</tspan></text>
  </g>
 </g>
</svg>
