<?xml version="1.0" encoding="utf-8" standalone="no"?>
<!DOCTYPE svg PUBLIC "-//W3C//DTD SVG 1.1//EN"
  "http://www.w3.org/Graphics/SVG/1.1/DTD/svg11.dtd">
<svg xmlns:xlink="http://www.w3.org/1999/xlink" width="460.8pt" height="345.6pt" viewBox="0 0 460.8 345.6" xmlns="http://www.w3.org/2000/svg" version="1.1">
 <metadata>
  <rdf:RDF xmlns:dc="http://purl.org/dc/elements/1.1/" xmlns:cc="http://creativecommons.org/ns#" xmlns:rdf="http://www.w3.org/1999/02/22-rdf-syntax-ns#">
   <cc:Work>
    <dc:type rdf:resource="http://purl.org/dc/dcmitype/StillImage"/>
    <dc:date>2025-07-18T19:09:38.187637</dc:date>
    <dc:format>image/svg+xml</dc:format>
    <dc:creator>
     <cc:Agent>
      <dc:title>Matplotlib v3.10.3, https://matplotlib.org/</dc:title>
     </cc:Agent>
    </dc:creator>
   </cc:Work>
  </rdf:RDF>
 </metadata>
 <defs>
  <style type="text/css">*{stroke-linejoin: round; stroke-linecap: butt}</style>
 </defs>
 <g id="figure_1">
  <g id="patch_1">
   <path d="M 0 345.6 
L 460.8 345.6 
L 460.8 0 
L 0 0 
z
" style="fill: #ffffff"/>
  </g>
  <g id="axes_1">
   <g id="patch_2">
    <path d="M 57.6 307.584 
L 414.72 307.584 
L 414.72 41.472 
L 57.6 41.472 
z
" style="fill: #ffffff"/>
   </g>
   <g id="matplotlib.axis_1">
    <g id="xtick_1">
     <g id="line2d_1">
      <path d="M 73.832727 307.584 
L 73.832727 41.472 
" clip-path="url(#pfcf0fcbfe1)" style="fill: none; stroke: #b0b0b0; stroke-width: 0.8; stroke-linecap: square"/>
     </g>
     <g id="line2d_2">
      <defs>
       <path id="mfc15b14081" d="M 0 0 
L 0 3.5 
" style="stroke: #000000; stroke-width: 0.8"/>
      </defs>
      <g>
       <use xlink:href="#mfc15b14081" x="73.832727" y="307.584" style="stroke: #000000; stroke-width: 0.8"/>
      </g>
     </g>
     <g id="text_1">
      <!-- 0 -->
      <g transform="translate(70.651477 322.182437) scale(0.1 -0.1)">
       <defs>
        <path id="DejaVuSans-30" d="M 2034 4250 
Q 1547 4250 1301 3770 
Q 1056 3291 1056 2328 
Q 1056 1369 1301 889 
Q 1547 409 2034 409 
Q 2525 409 2770 889 
Q 3016 1369 3016 2328 
Q 3016 3291 2770 3770 
Q 2525 4250 2034 4250 
z
M 2034 4750 
Q 2819 4750 3233 4129 
Q 3647 3509 3647 2328 
Q 3647 1150 3233 529 
Q 2819 -91 2034 -91 
Q 1250 -91 836 529 
Q 422 1150 422 2328 
Q 422 3509 836 4129 
Q 1250 4750 2034 4750 
z
" transform="scale(0.015625)"/>
       </defs>
       <use xlink:href="#DejaVuSans-30"/>
      </g>
     </g>
    </g>
    <g id="xtick_2">
     <g id="line2d_3">
      <path d="M 138.763636 307.584 
L 138.763636 41.472 
" clip-path="url(#pfcf0fcbfe1)" style="fill: none; stroke: #b0b0b0; stroke-width: 0.8; stroke-linecap: square"/>
     </g>
     <g id="line2d_4">
      <g>
       <use xlink:href="#mfc15b14081" x="138.763636" y="307.584" style="stroke: #000000; stroke-width: 0.8"/>
      </g>
     </g>
     <g id="text_2">
      <!-- 2 -->
      <g transform="translate(135.582386 322.182437) scale(0.1 -0.1)">
       <defs>
        <path id="DejaVuSans-32" d="M 1228 531 
L 3431 531 
L 3431 0 
L 469 0 
L 469 531 
Q 828 903 1448 1529 
Q 2069 2156 2228 2338 
Q 2531 2678 2651 2914 
Q 2772 3150 2772 3378 
Q 2772 3750 2511 3984 
Q 2250 4219 1831 4219 
Q 1534 4219 1204 4116 
Q 875 4013 500 3803 
L 500 4441 
Q 881 4594 1212 4672 
Q 1544 4750 1819 4750 
Q 2544 4750 2975 4387 
Q 3406 4025 3406 3419 
Q 3406 3131 3298 2873 
Q 3191 2616 2906 2266 
Q 2828 2175 2409 1742 
Q 1991 1309 1228 531 
z
" transform="scale(0.015625)"/>
       </defs>
       <use xlink:href="#DejaVuSans-32"/>
      </g>
     </g>
    </g>
    <g id="xtick_3">
     <g id="line2d_5">
      <path d="M 203.694545 307.584 
L 203.694545 41.472 
" clip-path="url(#pfcf0fcbfe1)" style="fill: none; stroke: #b0b0b0; stroke-width: 0.8; stroke-linecap: square"/>
     </g>
     <g id="line2d_6">
      <g>
       <use xlink:href="#mfc15b14081" x="203.694545" y="307.584" style="stroke: #000000; stroke-width: 0.8"/>
      </g>
     </g>
     <g id="text_3">
      <!-- 4 -->
      <g transform="translate(200.513295 322.182437) scale(0.1 -0.1)">
       <defs>
        <path id="DejaVuSans-34" d="M 2419 4116 
L 825 1625 
L 2419 1625 
L 2419 4116 
z
M 2253 4666 
L 3047 4666 
L 3047 1625 
L 3713 1625 
L 3713 1100 
L 3047 1100 
L 3047 0 
L 2419 0 
L 2419 1100 
L 313 1100 
L 313 1709 
L 2253 4666 
z
" transform="scale(0.015625)"/>
       </defs>
       <use xlink:href="#DejaVuSans-34"/>
      </g>
     </g>
    </g>
    <g id="xtick_4">
     <g id="line2d_7">
      <path d="M 268.625455 307.584 
L 268.625455 41.472 
" clip-path="url(#pfcf0fcbfe1)" style="fill: none; stroke: #b0b0b0; stroke-width: 0.8; stroke-linecap: square"/>
     </g>
     <g id="line2d_8">
      <g>
       <use xlink:href="#mfc15b14081" x="268.625455" y="307.584" style="stroke: #000000; stroke-width: 0.8"/>
      </g>
     </g>
     <g id="text_4">
      <!-- 6 -->
      <g transform="translate(265.444205 322.182437) scale(0.1 -0.1)">
       <defs>
        <path id="DejaVuSans-36" d="M 2113 2584 
Q 1688 2584 1439 2293 
Q 1191 2003 1191 1497 
Q 1191 994 1439 701 
Q 1688 409 2113 409 
Q 2538 409 2786 701 
Q 3034 994 3034 1497 
Q 3034 2003 2786 2293 
Q 2538 2584 2113 2584 
z
M 3366 4563 
L 3366 3988 
Q 3128 4100 2886 4159 
Q 2644 4219 2406 4219 
Q 1781 4219 1451 3797 
Q 1122 3375 1075 2522 
Q 1259 2794 1537 2939 
Q 1816 3084 2150 3084 
Q 2853 3084 3261 2657 
Q 3669 2231 3669 1497 
Q 3669 778 3244 343 
Q 2819 -91 2113 -91 
Q 1303 -91 875 529 
Q 447 1150 447 2328 
Q 447 3434 972 4092 
Q 1497 4750 2381 4750 
Q 2619 4750 2861 4703 
Q 3103 4656 3366 4563 
z
" transform="scale(0.015625)"/>
       </defs>
       <use xlink:href="#DejaVuSans-36"/>
      </g>
     </g>
    </g>
    <g id="xtick_5">
     <g id="line2d_9">
      <path d="M 333.556364 307.584 
L 333.556364 41.472 
" clip-path="url(#pfcf0fcbfe1)" style="fill: none; stroke: #b0b0b0; stroke-width: 0.8; stroke-linecap: square"/>
     </g>
     <g id="line2d_10">
      <g>
       <use xlink:href="#mfc15b14081" x="333.556364" y="307.584" style="stroke: #000000; stroke-width: 0.8"/>
      </g>
     </g>
     <g id="text_5">
      <!-- 8 -->
      <g transform="translate(330.375114 322.182437) scale(0.1 -0.1)">
       <defs>
        <path id="DejaVuSans-38" d="M 2034 2216 
Q 1584 2216 1326 1975 
Q 1069 1734 1069 1313 
Q 1069 891 1326 650 
Q 1584 409 2034 409 
Q 2484 409 2743 651 
Q 3003 894 3003 1313 
Q 3003 1734 2745 1975 
Q 2488 2216 2034 2216 
z
M 1403 2484 
Q 997 2584 770 2862 
Q 544 3141 544 3541 
Q 544 4100 942 4425 
Q 1341 4750 2034 4750 
Q 2731 4750 3128 4425 
Q 3525 4100 3525 3541 
Q 3525 3141 3298 2862 
Q 3072 2584 2669 2484 
Q 3125 2378 3379 2068 
Q 3634 1759 3634 1313 
Q 3634 634 3220 271 
Q 2806 -91 2034 -91 
Q 1263 -91 848 271 
Q 434 634 434 1313 
Q 434 1759 690 2068 
Q 947 2378 1403 2484 
z
M 1172 3481 
Q 1172 3119 1398 2916 
Q 1625 2713 2034 2713 
Q 2441 2713 2670 2916 
Q 2900 3119 2900 3481 
Q 2900 3844 2670 4047 
Q 2441 4250 2034 4250 
Q 1625 4250 1398 4047 
Q 1172 3844 1172 3481 
z
" transform="scale(0.015625)"/>
       </defs>
       <use xlink:href="#DejaVuSans-38"/>
      </g>
     </g>
    </g>
    <g id="xtick_6">
     <g id="line2d_11">
      <path d="M 398.487273 307.584 
L 398.487273 41.472 
" clip-path="url(#pfcf0fcbfe1)" style="fill: none; stroke: #b0b0b0; stroke-width: 0.8; stroke-linecap: square"/>
     </g>
     <g id="line2d_12">
      <g>
       <use xlink:href="#mfc15b14081" x="398.487273" y="307.584" style="stroke: #000000; stroke-width: 0.8"/>
      </g>
     </g>
     <g id="text_6">
      <!-- 10 -->
      <g transform="translate(392.124773 322.182437) scale(0.1 -0.1)">
       <defs>
        <path id="DejaVuSans-31" d="M 794 531 
L 1825 531 
L 1825 4091 
L 703 3866 
L 703 4441 
L 1819 4666 
L 2450 4666 
L 2450 531 
L 3481 531 
L 3481 0 
L 794 0 
L 794 531 
z
" transform="scale(0.015625)"/>
       </defs>
       <use xlink:href="#DejaVuSans-31"/>
       <use xlink:href="#DejaVuSans-30" transform="translate(63.623047 0)"/>
      </g>
     </g>
    </g>
    <g id="text_7">
     <!-- x -->
     <g transform="translate(233.200625 335.860562) scale(0.1 -0.1)">
      <defs>
       <path id="DejaVuSans-78" d="M 3513 3500 
L 2247 1797 
L 3578 0 
L 2900 0 
L 1881 1375 
L 863 0 
L 184 0 
L 1544 1831 
L 300 3500 
L 978 3500 
L 1906 2253 
L 2834 3500 
L 3513 3500 
z
" transform="scale(0.015625)"/>
      </defs>
      <use xlink:href="#DejaVuSans-78"/>
     </g>
    </g>
   </g>
   <g id="matplotlib.axis_2">
    <g id="ytick_1">
     <g id="line2d_13">
      <path d="M 57.6 295.488017 
L 414.72 295.488017 
" clip-path="url(#pfcf0fcbfe1)" style="fill: none; stroke: #b0b0b0; stroke-width: 0.8; stroke-linecap: square"/>
     </g>
     <g id="line2d_14">
      <defs>
       <path id="m7e2ba5ed0f" d="M 0 0 
L -3.5 0 
" style="stroke: #000000; stroke-width: 0.8"/>
      </defs>
      <g>
       <use xlink:href="#m7e2ba5ed0f" x="57.6" y="295.488017" style="stroke: #000000; stroke-width: 0.8"/>
      </g>
     </g>
     <g id="text_8">
      <!-- −2.0 -->
      <g transform="translate(26.317187 299.287235) scale(0.1 -0.1)">
       <defs>
        <path id="DejaVuSans-2212" d="M 678 2272 
L 4684 2272 
L 4684 1741 
L 678 1741 
L 678 2272 
z
" transform="scale(0.015625)"/>
        <path id="DejaVuSans-2e" d="M 684 794 
L 1344 794 
L 1344 0 
L 684 0 
L 684 794 
z
" transform="scale(0.015625)"/>
       </defs>
       <use xlink:href="#DejaVuSans-2212"/>
       <use xlink:href="#DejaVuSans-32" transform="translate(83.789062 0)"/>
       <use xlink:href="#DejaVuSans-2e" transform="translate(147.412109 0)"/>
       <use xlink:href="#DejaVuSans-30" transform="translate(179.199219 0)"/>
      </g>
     </g>
    </g>
    <g id="ytick_2">
     <g id="line2d_15">
      <path d="M 57.6 265.247963 
L 414.72 265.247963 
" clip-path="url(#pfcf0fcbfe1)" style="fill: none; stroke: #b0b0b0; stroke-width: 0.8; stroke-linecap: square"/>
     </g>
     <g id="line2d_16">
      <g>
       <use xlink:href="#m7e2ba5ed0f" x="57.6" y="265.247963" style="stroke: #000000; stroke-width: 0.8"/>
      </g>
     </g>
     <g id="text_9">
      <!-- −1.5 -->
      <g transform="translate(26.317187 269.047181) scale(0.1 -0.1)">
       <defs>
        <path id="DejaVuSans-35" d="M 691 4666 
L 3169 4666 
L 3169 4134 
L 1269 4134 
L 1269 2991 
Q 1406 3038 1543 3061 
Q 1681 3084 1819 3084 
Q 2600 3084 3056 2656 
Q 3513 2228 3513 1497 
Q 3513 744 3044 326 
Q 2575 -91 1722 -91 
Q 1428 -91 1123 -41 
Q 819 9 494 109 
L 494 744 
Q 775 591 1075 516 
Q 1375 441 1709 441 
Q 2250 441 2565 725 
Q 2881 1009 2881 1497 
Q 2881 1984 2565 2268 
Q 2250 2553 1709 2553 
Q 1456 2553 1204 2497 
Q 953 2441 691 2322 
L 691 4666 
z
" transform="scale(0.015625)"/>
       </defs>
       <use xlink:href="#DejaVuSans-2212"/>
       <use xlink:href="#DejaVuSans-31" transform="translate(83.789062 0)"/>
       <use xlink:href="#DejaVuSans-2e" transform="translate(147.412109 0)"/>
       <use xlink:href="#DejaVuSans-35" transform="translate(179.199219 0)"/>
      </g>
     </g>
    </g>
    <g id="ytick_3">
     <g id="line2d_17">
      <path d="M 57.6 235.007909 
L 414.72 235.007909 
" clip-path="url(#pfcf0fcbfe1)" style="fill: none; stroke: #b0b0b0; stroke-width: 0.8; stroke-linecap: square"/>
     </g>
     <g id="line2d_18">
      <g>
       <use xlink:href="#m7e2ba5ed0f" x="57.6" y="235.007909" style="stroke: #000000; stroke-width: 0.8"/>
      </g>
     </g>
     <g id="text_10">
      <!-- −1.0 -->
      <g transform="translate(26.317187 238.807127) scale(0.1 -0.1)">
       <use xlink:href="#DejaVuSans-2212"/>
       <use xlink:href="#DejaVuSans-31" transform="translate(83.789062 0)"/>
       <use xlink:href="#DejaVuSans-2e" transform="translate(147.412109 0)"/>
       <use xlink:href="#DejaVuSans-30" transform="translate(179.199219 0)"/>
      </g>
     </g>
    </g>
    <g id="ytick_4">
     <g id="line2d_19">
      <path d="M 57.6 204.767855 
L 414.72 204.767855 
" clip-path="url(#pfcf0fcbfe1)" style="fill: none; stroke: #b0b0b0; stroke-width: 0.8; stroke-linecap: square"/>
     </g>
     <g id="line2d_20">
      <g>
       <use xlink:href="#m7e2ba5ed0f" x="57.6" y="204.767855" style="stroke: #000000; stroke-width: 0.8"/>
      </g>
     </g>
     <g id="text_11">
      <!-- −0.5 -->
      <g transform="translate(26.317187 208.567073) scale(0.1 -0.1)">
       <use xlink:href="#DejaVuSans-2212"/>
       <use xlink:href="#DejaVuSans-30" transform="translate(83.789062 0)"/>
       <use xlink:href="#DejaVuSans-2e" transform="translate(147.412109 0)"/>
       <use xlink:href="#DejaVuSans-35" transform="translate(179.199219 0)"/>
      </g>
     </g>
    </g>
    <g id="ytick_5">
     <g id="line2d_21">
      <path d="M 57.6 174.527801 
L 414.72 174.527801 
" clip-path="url(#pfcf0fcbfe1)" style="fill: none; stroke: #b0b0b0; stroke-width: 0.8; stroke-linecap: square"/>
     </g>
     <g id="line2d_22">
      <g>
       <use xlink:href="#m7e2ba5ed0f" x="57.6" y="174.527801" style="stroke: #000000; stroke-width: 0.8"/>
      </g>
     </g>
     <g id="text_12">
      <!-- 0.0 -->
      <g transform="translate(34.696875 178.327019) scale(0.1 -0.1)">
       <use xlink:href="#DejaVuSans-30"/>
       <use xlink:href="#DejaVuSans-2e" transform="translate(63.623047 0)"/>
       <use xlink:href="#DejaVuSans-30" transform="translate(95.410156 0)"/>
      </g>
     </g>
    </g>
    <g id="ytick_6">
     <g id="line2d_23">
      <path d="M 57.6 144.287747 
L 414.72 144.287747 
" clip-path="url(#pfcf0fcbfe1)" style="fill: none; stroke: #b0b0b0; stroke-width: 0.8; stroke-linecap: square"/>
     </g>
     <g id="line2d_24">
      <g>
       <use xlink:href="#m7e2ba5ed0f" x="57.6" y="144.287747" style="stroke: #000000; stroke-width: 0.8"/>
      </g>
     </g>
     <g id="text_13">
      <!-- 0.5 -->
      <g transform="translate(34.696875 148.086965) scale(0.1 -0.1)">
       <use xlink:href="#DejaVuSans-30"/>
       <use xlink:href="#DejaVuSans-2e" transform="translate(63.623047 0)"/>
       <use xlink:href="#DejaVuSans-35" transform="translate(95.410156 0)"/>
      </g>
     </g>
    </g>
    <g id="ytick_7">
     <g id="line2d_25">
      <path d="M 57.6 114.047693 
L 414.72 114.047693 
" clip-path="url(#pfcf0fcbfe1)" style="fill: none; stroke: #b0b0b0; stroke-width: 0.8; stroke-linecap: square"/>
     </g>
     <g id="line2d_26">
      <g>
       <use xlink:href="#m7e2ba5ed0f" x="57.6" y="114.047693" style="stroke: #000000; stroke-width: 0.8"/>
      </g>
     </g>
     <g id="text_14">
      <!-- 1.0 -->
      <g transform="translate(34.696875 117.846911) scale(0.1 -0.1)">
       <use xlink:href="#DejaVuSans-31"/>
       <use xlink:href="#DejaVuSans-2e" transform="translate(63.623047 0)"/>
       <use xlink:href="#DejaVuSans-30" transform="translate(95.410156 0)"/>
      </g>
     </g>
    </g>
    <g id="ytick_8">
     <g id="line2d_27">
      <path d="M 57.6 83.807639 
L 414.72 83.807639 
" clip-path="url(#pfcf0fcbfe1)" style="fill: none; stroke: #b0b0b0; stroke-width: 0.8; stroke-linecap: square"/>
     </g>
     <g id="line2d_28">
      <g>
       <use xlink:href="#m7e2ba5ed0f" x="57.6" y="83.807639" style="stroke: #000000; stroke-width: 0.8"/>
      </g>
     </g>
     <g id="text_15">
      <!-- 1.5 -->
      <g transform="translate(34.696875 87.606857) scale(0.1 -0.1)">
       <use xlink:href="#DejaVuSans-31"/>
       <use xlink:href="#DejaVuSans-2e" transform="translate(63.623047 0)"/>
       <use xlink:href="#DejaVuSans-35" transform="translate(95.410156 0)"/>
      </g>
     </g>
    </g>
    <g id="ytick_9">
     <g id="line2d_29">
      <path d="M 57.6 53.567585 
L 414.72 53.567585 
" clip-path="url(#pfcf0fcbfe1)" style="fill: none; stroke: #b0b0b0; stroke-width: 0.8; stroke-linecap: square"/>
     </g>
     <g id="line2d_30">
      <g>
       <use xlink:href="#m7e2ba5ed0f" x="57.6" y="53.567585" style="stroke: #000000; stroke-width: 0.8"/>
      </g>
     </g>
     <g id="text_16">
      <!-- 2.0 -->
      <g transform="translate(34.696875 57.366803) scale(0.1 -0.1)">
       <use xlink:href="#DejaVuSans-32"/>
       <use xlink:href="#DejaVuSans-2e" transform="translate(63.623047 0)"/>
       <use xlink:href="#DejaVuSans-30" transform="translate(95.410156 0)"/>
      </g>
     </g>
    </g>
    <g id="text_17">
     <!-- D(x, 0) = -2 sin(1.33pi x) -->
     <g transform="translate(20.2375 236.849094) rotate(-90) scale(0.1 -0.1)">
      <defs>
       <path id="DejaVuSans-44" d="M 1259 4147 
L 1259 519 
L 2022 519 
Q 2988 519 3436 956 
Q 3884 1394 3884 2338 
Q 3884 3275 3436 3711 
Q 2988 4147 2022 4147 
L 1259 4147 
z
M 628 4666 
L 1925 4666 
Q 3281 4666 3915 4102 
Q 4550 3538 4550 2338 
Q 4550 1131 3912 565 
Q 3275 0 1925 0 
L 628 0 
L 628 4666 
z
" transform="scale(0.015625)"/>
       <path id="DejaVuSans-28" d="M 1984 4856 
Q 1566 4138 1362 3434 
Q 1159 2731 1159 2009 
Q 1159 1288 1364 580 
Q 1569 -128 1984 -844 
L 1484 -844 
Q 1016 -109 783 600 
Q 550 1309 550 2009 
Q 550 2706 781 3412 
Q 1013 4119 1484 4856 
L 1984 4856 
z
" transform="scale(0.015625)"/>
       <path id="DejaVuSans-2c" d="M 750 794 
L 1409 794 
L 1409 256 
L 897 -744 
L 494 -744 
L 750 256 
L 750 794 
z
" transform="scale(0.015625)"/>
       <path id="DejaVuSans-20" transform="scale(0.015625)"/>
       <path id="DejaVuSans-29" d="M 513 4856 
L 1013 4856 
Q 1481 4119 1714 3412 
Q 1947 2706 1947 2009 
Q 1947 1309 1714 600 
Q 1481 -109 1013 -844 
L 513 -844 
Q 928 -128 1133 580 
Q 1338 1288 1338 2009 
Q 1338 2731 1133 3434 
Q 928 4138 513 4856 
z
" transform="scale(0.015625)"/>
       <path id="DejaVuSans-3d" d="M 678 2906 
L 4684 2906 
L 4684 2381 
L 678 2381 
L 678 2906 
z
M 678 1631 
L 4684 1631 
L 4684 1100 
L 678 1100 
L 678 1631 
z
" transform="scale(0.015625)"/>
       <path id="DejaVuSans-2d" d="M 313 2009 
L 1997 2009 
L 1997 1497 
L 313 1497 
L 313 2009 
z
" transform="scale(0.015625)"/>
       <path id="DejaVuSans-73" d="M 2834 3397 
L 2834 2853 
Q 2591 2978 2328 3040 
Q 2066 3103 1784 3103 
Q 1356 3103 1142 2972 
Q 928 2841 928 2578 
Q 928 2378 1081 2264 
Q 1234 2150 1697 2047 
L 1894 2003 
Q 2506 1872 2764 1633 
Q 3022 1394 3022 966 
Q 3022 478 2636 193 
Q 2250 -91 1575 -91 
Q 1294 -91 989 -36 
Q 684 19 347 128 
L 347 722 
Q 666 556 975 473 
Q 1284 391 1588 391 
Q 1994 391 2212 530 
Q 2431 669 2431 922 
Q 2431 1156 2273 1281 
Q 2116 1406 1581 1522 
L 1381 1569 
Q 847 1681 609 1914 
Q 372 2147 372 2553 
Q 372 3047 722 3315 
Q 1072 3584 1716 3584 
Q 2034 3584 2315 3537 
Q 2597 3491 2834 3397 
z
" transform="scale(0.015625)"/>
       <path id="DejaVuSans-69" d="M 603 3500 
L 1178 3500 
L 1178 0 
L 603 0 
L 603 3500 
z
M 603 4863 
L 1178 4863 
L 1178 4134 
L 603 4134 
L 603 4863 
z
" transform="scale(0.015625)"/>
       <path id="DejaVuSans-6e" d="M 3513 2113 
L 3513 0 
L 2938 0 
L 2938 2094 
Q 2938 2591 2744 2837 
Q 2550 3084 2163 3084 
Q 1697 3084 1428 2787 
Q 1159 2491 1159 1978 
L 1159 0 
L 581 0 
L 581 3500 
L 1159 3500 
L 1159 2956 
Q 1366 3272 1645 3428 
Q 1925 3584 2291 3584 
Q 2894 3584 3203 3211 
Q 3513 2838 3513 2113 
z
" transform="scale(0.015625)"/>
       <path id="DejaVuSans-33" d="M 2597 2516 
Q 3050 2419 3304 2112 
Q 3559 1806 3559 1356 
Q 3559 666 3084 287 
Q 2609 -91 1734 -91 
Q 1441 -91 1130 -33 
Q 819 25 488 141 
L 488 750 
Q 750 597 1062 519 
Q 1375 441 1716 441 
Q 2309 441 2620 675 
Q 2931 909 2931 1356 
Q 2931 1769 2642 2001 
Q 2353 2234 1838 2234 
L 1294 2234 
L 1294 2753 
L 1863 2753 
Q 2328 2753 2575 2939 
Q 2822 3125 2822 3475 
Q 2822 3834 2567 4026 
Q 2313 4219 1838 4219 
Q 1578 4219 1281 4162 
Q 984 4106 628 3988 
L 628 4550 
Q 988 4650 1302 4700 
Q 1616 4750 1894 4750 
Q 2613 4750 3031 4423 
Q 3450 4097 3450 3541 
Q 3450 3153 3228 2886 
Q 3006 2619 2597 2516 
z
" transform="scale(0.015625)"/>
       <path id="DejaVuSans-70" d="M 1159 525 
L 1159 -1331 
L 581 -1331 
L 581 3500 
L 1159 3500 
L 1159 2969 
Q 1341 3281 1617 3432 
Q 1894 3584 2278 3584 
Q 2916 3584 3314 3078 
Q 3713 2572 3713 1747 
Q 3713 922 3314 415 
Q 2916 -91 2278 -91 
Q 1894 -91 1617 61 
Q 1341 213 1159 525 
z
M 3116 1747 
Q 3116 2381 2855 2742 
Q 2594 3103 2138 3103 
Q 1681 3103 1420 2742 
Q 1159 2381 1159 1747 
Q 1159 1113 1420 752 
Q 1681 391 2138 391 
Q 2594 391 2855 752 
Q 3116 1113 3116 1747 
z
" transform="scale(0.015625)"/>
      </defs>
      <use xlink:href="#DejaVuSans-44"/>
      <use xlink:href="#DejaVuSans-28" transform="translate(77.001953 0)"/>
      <use xlink:href="#DejaVuSans-78" transform="translate(116.015625 0)"/>
      <use xlink:href="#DejaVuSans-2c" transform="translate(175.195312 0)"/>
      <use xlink:href="#DejaVuSans-20" transform="translate(206.982422 0)"/>
      <use xlink:href="#DejaVuSans-30" transform="translate(238.769531 0)"/>
      <use xlink:href="#DejaVuSans-29" transform="translate(302.392578 0)"/>
      <use xlink:href="#DejaVuSans-20" transform="translate(341.40625 0)"/>
      <use xlink:href="#DejaVuSans-3d" transform="translate(373.193359 0)"/>
      <use xlink:href="#DejaVuSans-20" transform="translate(456.982422 0)"/>
      <use xlink:href="#DejaVuSans-2d" transform="translate(488.769531 0)"/>
      <use xlink:href="#DejaVuSans-32" transform="translate(524.853516 0)"/>
      <use xlink:href="#DejaVuSans-20" transform="translate(588.476562 0)"/>
      <use xlink:href="#DejaVuSans-73" transform="translate(620.263672 0)"/>
      <use xlink:href="#DejaVuSans-69" transform="translate(672.363281 0)"/>
      <use xlink:href="#DejaVuSans-6e" transform="translate(700.146484 0)"/>
      <use xlink:href="#DejaVuSans-28" transform="translate(763.525391 0)"/>
      <use xlink:href="#DejaVuSans-31" transform="translate(802.539062 0)"/>
      <use xlink:href="#DejaVuSans-2e" transform="translate(866.162109 0)"/>
      <use xlink:href="#DejaVuSans-33" transform="translate(897.949219 0)"/>
      <use xlink:href="#DejaVuSans-33" transform="translate(961.572266 0)"/>
      <use xlink:href="#DejaVuSans-70" transform="translate(1025.195312 0)"/>
      <use xlink:href="#DejaVuSans-69" transform="translate(1088.671875 0)"/>
      <use xlink:href="#DejaVuSans-20" transform="translate(1116.455078 0)"/>
      <use xlink:href="#DejaVuSans-78" transform="translate(1148.242188 0)"/>
      <use xlink:href="#DejaVuSans-29" transform="translate(1207.421875 0)"/>
     </g>
    </g>
   </g>
   <g id="line2d_31">
    <path d="M 73.832727 174.527801 
L 77.082523 223.773082 
L 78.70742 245.687966 
L 80.007338 261.017966 
L 81.307256 273.920715 
L 82.282195 281.784207 
L 83.257133 287.952818 
L 83.907093 291.074336 
L 84.557052 293.376727 
L 85.207011 294.84381 
L 85.53199 295.260656 
L 85.85697 295.465273 
L 86.181949 295.457298 
L 86.506929 295.236748 
L 86.831908 294.804009 
L 87.481867 293.305379 
L 88.131826 290.971942 
L 88.781785 287.820098 
L 89.756724 281.607812 
L 90.731663 273.703433 
L 92.031581 260.751612 
L 93.331499 245.380015 
L 94.956396 223.425402 
L 97.231253 189.325774 
L 101.780966 120.354294 
L 103.405864 99.032475 
L 104.705782 84.315152 
L 106.0057 72.129548 
L 106.980639 64.860459 
L 107.955577 59.32435 
L 108.605536 56.640749 
L 109.255495 54.785696 
L 109.905455 53.77223 
L 110.230434 53.583551 
L 110.555414 53.607473 
L 110.880393 53.843956 
L 111.205373 54.292583 
L 111.855332 55.822745 
L 112.505291 58.187204 
L 113.15525 61.369343 
L 114.130188 67.625243 
L 115.105127 75.570432 
L 116.405045 88.571197 
L 117.704963 103.984238 
L 119.329861 125.978362 
L 121.604717 160.107431 
L 126.154431 229.041145 
L 127.779328 250.319957 
L 129.079247 264.993404 
L 130.379165 277.128034 
L 131.354103 284.355087 
L 132.329042 289.846634 
L 132.979001 292.499469 
L 133.62896 294.32316 
L 134.278919 295.304892 
L 134.603898 295.477633 
L 134.928878 295.437762 
L 135.253857 295.18535 
L 135.578837 294.720839 
L 136.228796 293.15916 
L 136.878755 290.763701 
L 137.528714 287.551299 
L 138.503653 281.251848 
L 139.478591 273.265928 
L 140.778509 260.216348 
L 142.078428 244.762013 
L 143.703325 222.728595 
L 145.978182 188.570425 
L 150.202916 124.242415 
L 151.827813 102.448017 
L 153.127731 87.243715 
L 154.427649 74.488945 
L 155.402588 66.748581 
L 156.377527 60.71136 
L 157.027486 57.681004 
L 157.677445 55.471885 
L 158.327404 54.099529 
L 158.652383 53.730384 
L 158.977363 53.573582 
L 159.302342 53.629401 
L 159.627322 53.897741 
L 159.952301 54.378131 
L 160.60226 55.971312 
L 161.252219 58.397746 
L 161.902179 61.640379 
L 162.877117 67.98332 
L 163.852056 76.009892 
L 165.151974 89.108158 
L 166.451892 104.603632 
L 168.07679 126.676126 
L 170.351646 160.863062 
L 174.57638 225.158897 
L 176.201278 246.912703 
L 177.501196 262.074803 
L 178.801114 274.779994 
L 179.776052 282.479162 
L 180.750991 288.472467 
L 181.40095 291.472375 
L 182.050909 293.650359 
L 182.700868 294.991112 
L 183.025848 295.344349 
L 183.350827 295.485209 
L 183.675807 295.413443 
L 184.000786 295.129178 
L 184.325766 294.632914 
L 184.975725 293.008247 
L 185.625684 290.550862 
L 186.275643 287.278029 
L 187.250581 280.891661 
L 188.22552 272.824517 
L 189.525438 259.677694 
L 190.825356 244.141234 
L 192.450254 222.029882 
L 194.725111 187.81452 
L 198.949844 123.551494 
L 200.574742 101.838497 
L 201.87466 86.718747 
L 203.174578 74.063261 
L 204.149517 66.405365 
L 205.124455 60.456036 
L 205.774414 57.486605 
L 206.424373 55.339778 
L 207.074333 54.030642 
L 207.399312 53.693316 
L 207.724292 53.568399 
L 208.049271 53.656111 
L 208.374251 53.956298 
L 208.69923 54.468431 
L 209.349189 56.124568 
L 209.999148 58.61288 
L 210.649107 61.915881 
L 211.624046 68.345612 
L 212.598984 76.453249 
L 213.898903 89.648498 
L 215.198821 105.225791 
L 216.823718 127.375783 
L 219.423554 166.671979 
L 223.323309 225.848814 
L 224.948206 247.520788 
L 226.248124 262.598038 
L 227.548043 275.203694 
L 228.522981 282.820241 
L 229.49792 288.725535 
L 230.147879 291.664459 
L 230.797838 293.78011 
L 231.447797 295.057616 
L 231.772776 295.379027 
L 232.097756 295.488 
L 232.422735 295.384342 
L 232.747715 295.068237 
L 233.397674 293.801276 
L 234.047633 291.696023 
L 234.697592 288.767274 
L 235.672531 282.876671 
L 236.647469 275.273924 
L 237.622408 266.079171 
L 238.922326 251.597522 
L 240.547224 230.507502 
L 242.497101 202.052874 
L 248.346732 113.883055 
L 249.97163 93.429559 
L 251.271548 79.585759 
L 252.246486 70.932924 
L 253.221425 63.91711 
L 254.196364 58.649182 
L 254.846323 56.150566 
L 255.496282 54.483943 
L 255.821261 53.966521 
L 256.146241 53.661027 
L 256.47122 53.568 
L 256.7962 53.687602 
L 257.121179 54.019624 
L 257.771138 55.318218 
L 258.421097 57.454656 
L 259.071057 60.413921 
L 260.045995 66.348578 
L 261.020934 73.992699 
L 261.995872 83.22549 
L 263.29579 97.75164 
L 264.920688 118.885577 
L 266.870565 147.373271 
L 272.720197 235.501373 
L 274.345094 255.90787 
L 275.645012 269.705068 
L 276.619951 278.31854 
L 277.594889 285.291896 
L 278.569828 290.514942 
L 279.219787 292.98264 
L 279.869746 294.617798 
L 280.194726 295.119353 
L 280.519705 295.408925 
L 280.844685 295.486006 
L 281.169664 295.350461 
L 281.494644 295.002527 
L 282.144603 293.672312 
L 282.794562 291.50471 
L 283.444521 288.514958 
L 284.419459 282.536305 
L 285.394398 274.850887 
L 286.369337 265.580148 
L 287.669255 251.00964 
L 289.294152 229.831997 
L 291.244029 201.311517 
L 297.093661 113.226006 
L 298.718559 92.866708 
L 300.018477 79.116249 
L 300.993415 70.542224 
L 301.968354 63.611395 
L 302.943292 58.433283 
L 303.593251 55.996529 
L 304.24321 54.392851 
L 304.56819 53.907169 
L 304.89317 53.63352 
L 305.218149 53.572386 
L 305.543129 53.723874 
L 305.868108 54.087717 
L 306.518067 55.44954 
L 307.168026 57.648283 
L 307.817985 60.668493 
L 308.792924 66.691082 
L 309.767862 74.417722 
L 311.067781 87.15598 
L 312.367699 102.346231 
L 313.992596 124.127123 
L 316.267453 158.095285 
L 320.817166 227.222531 
L 322.442064 248.728273 
L 323.741982 263.634035 
L 325.0419 276.039129 
L 326.016839 283.489534 
L 326.991777 289.21811 
L 327.641736 292.03472 
L 328.291695 294.025454 
L 328.941654 295.176319 
L 329.266634 295.434041 
L 329.591613 295.479228 
L 329.916593 295.3118 
L 330.241572 294.932051 
L 330.891532 293.538634 
L 331.541491 291.30877 
L 332.19145 288.258133 
L 333.166388 282.191667 
L 334.141327 274.423881 
L 335.441245 261.636128 
L 336.741163 246.403776 
L 338.366061 224.582435 
L 340.640917 190.583374 
L 345.190631 121.490936 
L 346.815528 100.027284 
L 348.115446 85.164764 
L 349.415364 72.810119 
L 350.390303 65.401434 
L 351.365242 59.71718 
L 352.015201 56.931219 
L 352.66516 54.971765 
L 353.315119 53.852589 
L 353.640098 53.610796 
L 353.965078 53.581557 
L 354.290057 53.764924 
L 354.615037 54.160575 
L 355.264996 55.585572 
L 355.914955 57.846534 
L 356.564914 60.927569 
L 357.539853 67.037851 
L 358.514791 74.846706 
L 359.814709 87.683827 
L 361.114627 102.958129 
L 362.739525 124.819704 
L 365.014382 158.849328 
L 369.564095 227.906276 
L 371.188993 249.327624 
L 372.488911 264.146756 
L 373.788829 276.450831 
L 374.763767 283.817721 
L 375.738706 289.457597 
L 376.388665 292.212882 
L 377.038624 294.141037 
L 377.688583 295.228513 
L 378.013563 295.454374 
L 378.338542 295.467665 
L 378.663522 295.268361 
L 378.988501 294.856812 
L 379.63846 293.400249 
L 380.288419 291.108211 
L 380.938378 287.996809 
L 381.913317 281.84277 
L 382.888256 273.992924 
L 384.188174 261.106561 
L 385.488092 245.79046 
L 387.112989 223.888867 
L 389.387846 189.829017 
L 393.937559 120.808243 
L 395.562457 99.429409 
L 396.862375 84.653813 
L 398.162293 72.40043 
L 398.487273 69.773181 
L 398.487273 69.773181 
" clip-path="url(#pfcf0fcbfe1)" style="fill: none; stroke: #1f77b4; stroke-width: 1.5; stroke-linecap: square"/>
   </g>
   <g id="patch_3">
    <path d="M 57.6 307.584 
L 57.6 41.472 
" style="fill: none; stroke: #000000; stroke-width: 0.8; stroke-linejoin: miter; stroke-linecap: square"/>
   </g>
   <g id="patch_4">
    <path d="M 414.72 307.584 
L 414.72 41.472 
" style="fill: none; stroke: #000000; stroke-width: 0.8; stroke-linejoin: miter; stroke-linecap: square"/>
   </g>
   <g id="patch_5">
    <path d="M 57.6 307.584 
L 414.72 307.584 
" style="fill: none; stroke: #000000; stroke-width: 0.8; stroke-linejoin: miter; stroke-linecap: square"/>
   </g>
   <g id="patch_6">
    <path d="M 57.6 41.472 
L 414.72 41.472 
" style="fill: none; stroke: #000000; stroke-width: 0.8; stroke-linejoin: miter; stroke-linecap: square"/>
   </g>
   <g id="text_18">
    <!-- Snapshot graph of D(x, t) with t = 0 -->
    <g transform="translate(128.470313 35.472) scale(0.12 -0.12)">
     <defs>
      <path id="DejaVuSans-53" d="M 3425 4513 
L 3425 3897 
Q 3066 4069 2747 4153 
Q 2428 4238 2131 4238 
Q 1616 4238 1336 4038 
Q 1056 3838 1056 3469 
Q 1056 3159 1242 3001 
Q 1428 2844 1947 2747 
L 2328 2669 
Q 3034 2534 3370 2195 
Q 3706 1856 3706 1288 
Q 3706 609 3251 259 
Q 2797 -91 1919 -91 
Q 1588 -91 1214 -16 
Q 841 59 441 206 
L 441 856 
Q 825 641 1194 531 
Q 1563 422 1919 422 
Q 2459 422 2753 634 
Q 3047 847 3047 1241 
Q 3047 1584 2836 1778 
Q 2625 1972 2144 2069 
L 1759 2144 
Q 1053 2284 737 2584 
Q 422 2884 422 3419 
Q 422 4038 858 4394 
Q 1294 4750 2059 4750 
Q 2388 4750 2728 4690 
Q 3069 4631 3425 4513 
z
" transform="scale(0.015625)"/>
      <path id="DejaVuSans-61" d="M 2194 1759 
Q 1497 1759 1228 1600 
Q 959 1441 959 1056 
Q 959 750 1161 570 
Q 1363 391 1709 391 
Q 2188 391 2477 730 
Q 2766 1069 2766 1631 
L 2766 1759 
L 2194 1759 
z
M 3341 1997 
L 3341 0 
L 2766 0 
L 2766 531 
Q 2569 213 2275 61 
Q 1981 -91 1556 -91 
Q 1019 -91 701 211 
Q 384 513 384 1019 
Q 384 1609 779 1909 
Q 1175 2209 1959 2209 
L 2766 2209 
L 2766 2266 
Q 2766 2663 2505 2880 
Q 2244 3097 1772 3097 
Q 1472 3097 1187 3025 
Q 903 2953 641 2809 
L 641 3341 
Q 956 3463 1253 3523 
Q 1550 3584 1831 3584 
Q 2591 3584 2966 3190 
Q 3341 2797 3341 1997 
z
" transform="scale(0.015625)"/>
      <path id="DejaVuSans-68" d="M 3513 2113 
L 3513 0 
L 2938 0 
L 2938 2094 
Q 2938 2591 2744 2837 
Q 2550 3084 2163 3084 
Q 1697 3084 1428 2787 
Q 1159 2491 1159 1978 
L 1159 0 
L 581 0 
L 581 4863 
L 1159 4863 
L 1159 2956 
Q 1366 3272 1645 3428 
Q 1925 3584 2291 3584 
Q 2894 3584 3203 3211 
Q 3513 2838 3513 2113 
z
" transform="scale(0.015625)"/>
      <path id="DejaVuSans-6f" d="M 1959 3097 
Q 1497 3097 1228 2736 
Q 959 2375 959 1747 
Q 959 1119 1226 758 
Q 1494 397 1959 397 
Q 2419 397 2687 759 
Q 2956 1122 2956 1747 
Q 2956 2369 2687 2733 
Q 2419 3097 1959 3097 
z
M 1959 3584 
Q 2709 3584 3137 3096 
Q 3566 2609 3566 1747 
Q 3566 888 3137 398 
Q 2709 -91 1959 -91 
Q 1206 -91 779 398 
Q 353 888 353 1747 
Q 353 2609 779 3096 
Q 1206 3584 1959 3584 
z
" transform="scale(0.015625)"/>
      <path id="DejaVuSans-74" d="M 1172 4494 
L 1172 3500 
L 2356 3500 
L 2356 3053 
L 1172 3053 
L 1172 1153 
Q 1172 725 1289 603 
Q 1406 481 1766 481 
L 2356 481 
L 2356 0 
L 1766 0 
Q 1100 0 847 248 
Q 594 497 594 1153 
L 594 3053 
L 172 3053 
L 172 3500 
L 594 3500 
L 594 4494 
L 1172 4494 
z
" transform="scale(0.015625)"/>
      <path id="DejaVuSans-67" d="M 2906 1791 
Q 2906 2416 2648 2759 
Q 2391 3103 1925 3103 
Q 1463 3103 1205 2759 
Q 947 2416 947 1791 
Q 947 1169 1205 825 
Q 1463 481 1925 481 
Q 2391 481 2648 825 
Q 2906 1169 2906 1791 
z
M 3481 434 
Q 3481 -459 3084 -895 
Q 2688 -1331 1869 -1331 
Q 1566 -1331 1297 -1286 
Q 1028 -1241 775 -1147 
L 775 -588 
Q 1028 -725 1275 -790 
Q 1522 -856 1778 -856 
Q 2344 -856 2625 -561 
Q 2906 -266 2906 331 
L 2906 616 
Q 2728 306 2450 153 
Q 2172 0 1784 0 
Q 1141 0 747 490 
Q 353 981 353 1791 
Q 353 2603 747 3093 
Q 1141 3584 1784 3584 
Q 2172 3584 2450 3431 
Q 2728 3278 2906 2969 
L 2906 3500 
L 3481 3500 
L 3481 434 
z
" transform="scale(0.015625)"/>
      <path id="DejaVuSans-72" d="M 2631 2963 
Q 2534 3019 2420 3045 
Q 2306 3072 2169 3072 
Q 1681 3072 1420 2755 
Q 1159 2438 1159 1844 
L 1159 0 
L 581 0 
L 581 3500 
L 1159 3500 
L 1159 2956 
Q 1341 3275 1631 3429 
Q 1922 3584 2338 3584 
Q 2397 3584 2469 3576 
Q 2541 3569 2628 3553 
L 2631 2963 
z
" transform="scale(0.015625)"/>
      <path id="DejaVuSans-66" d="M 2375 4863 
L 2375 4384 
L 1825 4384 
Q 1516 4384 1395 4259 
Q 1275 4134 1275 3809 
L 1275 3500 
L 2222 3500 
L 2222 3053 
L 1275 3053 
L 1275 0 
L 697 0 
L 697 3053 
L 147 3053 
L 147 3500 
L 697 3500 
L 697 3744 
Q 697 4328 969 4595 
Q 1241 4863 1831 4863 
L 2375 4863 
z
" transform="scale(0.015625)"/>
      <path id="DejaVuSans-77" d="M 269 3500 
L 844 3500 
L 1563 769 
L 2278 3500 
L 2956 3500 
L 3675 769 
L 4391 3500 
L 4966 3500 
L 4050 0 
L 3372 0 
L 2619 2869 
L 1863 0 
L 1184 0 
L 269 3500 
z
" transform="scale(0.015625)"/>
     </defs>
     <use xlink:href="#DejaVuSans-53"/>
     <use xlink:href="#DejaVuSans-6e" transform="translate(63.476562 0)"/>
     <use xlink:href="#DejaVuSans-61" transform="translate(126.855469 0)"/>
     <use xlink:href="#DejaVuSans-70" transform="translate(188.134766 0)"/>
     <use xlink:href="#DejaVuSans-73" transform="translate(251.611328 0)"/>
     <use xlink:href="#DejaVuSans-68" transform="translate(303.710938 0)"/>
     <use xlink:href="#DejaVuSans-6f" transform="translate(367.089844 0)"/>
     <use xlink:href="#DejaVuSans-74" transform="translate(428.271484 0)"/>
     <use xlink:href="#DejaVuSans-20" transform="translate(467.480469 0)"/>
     <use xlink:href="#DejaVuSans-67" transform="translate(499.267578 0)"/>
     <use xlink:href="#DejaVuSans-72" transform="translate(562.744141 0)"/>
     <use xlink:href="#DejaVuSans-61" transform="translate(603.857422 0)"/>
     <use xlink:href="#DejaVuSans-70" transform="translate(665.136719 0)"/>
     <use xlink:href="#DejaVuSans-68" transform="translate(728.613281 0)"/>
     <use xlink:href="#DejaVuSans-20" transform="translate(791.992188 0)"/>
     <use xlink:href="#DejaVuSans-6f" transform="translate(823.779297 0)"/>
     <use xlink:href="#DejaVuSans-66" transform="translate(884.960938 0)"/>
     <use xlink:href="#DejaVuSans-20" transform="translate(920.166016 0)"/>
     <use xlink:href="#DejaVuSans-44" transform="translate(951.953125 0)"/>
     <use xlink:href="#DejaVuSans-28" transform="translate(1028.955078 0)"/>
     <use xlink:href="#DejaVuSans-78" transform="translate(1067.96875 0)"/>
     <use xlink:href="#DejaVuSans-2c" transform="translate(1127.148438 0)"/>
     <use xlink:href="#DejaVuSans-20" transform="translate(1158.935547 0)"/>
     <use xlink:href="#DejaVuSans-74" transform="translate(1190.722656 0)"/>
     <use xlink:href="#DejaVuSans-29" transform="translate(1229.931641 0)"/>
     <use xlink:href="#DejaVuSans-20" transform="translate(1268.945312 0)"/>
     <use xlink:href="#DejaVuSans-77" transform="translate(1300.732422 0)"/>
     <use xlink:href="#DejaVuSans-69" transform="translate(1382.519531 0)"/>
     <use xlink:href="#DejaVuSans-74" transform="translate(1410.302734 0)"/>
     <use xlink:href="#DejaVuSans-68" transform="translate(1449.511719 0)"/>
     <use xlink:href="#DejaVuSans-20" transform="translate(1512.890625 0)"/>
     <use xlink:href="#DejaVuSans-74" transform="translate(1544.677734 0)"/>
     <use xlink:href="#DejaVuSans-20" transform="translate(1583.886719 0)"/>
     <use xlink:href="#DejaVuSans-3d" transform="translate(1615.673828 0)"/>
     <use xlink:href="#DejaVuSans-20" transform="translate(1699.462891 0)"/>
     <use xlink:href="#DejaVuSans-30" transform="translate(1731.25 0)"/>
    </g>
   </g>
  </g>
 </g>
 <defs>
  <clipPath id="pfcf0fcbfe1">
   <rect x="57.6" y="41.472" width="357.12" height="266.112"/>
  </clipPath>
 </defs>
</svg>
