<?xml version="1.0" encoding="utf-8" standalone="no"?>
<!DOCTYPE svg PUBLIC "-//W3C//DTD SVG 1.1//EN"
  "http://www.w3.org/Graphics/SVG/1.1/DTD/svg11.dtd">
<svg xmlns:xlink="http://www.w3.org/1999/xlink" width="460.8pt" height="345.6pt" viewBox="0 0 460.8 345.6" xmlns="http://www.w3.org/2000/svg" version="1.1">
 <metadata>
  <rdf:RDF xmlns:dc="http://purl.org/dc/elements/1.1/" xmlns:cc="http://creativecommons.org/ns#" xmlns:rdf="http://www.w3.org/1999/02/22-rdf-syntax-ns#">
   <cc:Work>
    <dc:type rdf:resource="http://purl.org/dc/dcmitype/StillImage"/>
    <dc:date>2025-07-18T19:09:29.877982</dc:date>
    <dc:format>image/svg+xml</dc:format>
    <dc:creator>
     <cc:Agent>
      <dc:title>Matplotlib v3.10.3, https://matplotlib.org/</dc:title>
     </cc:Agent>
    </dc:creator>
   </cc:Work>
  </rdf:RDF>
 </metadata>
 <defs>
  <style type="text/css">*{stroke-linejoin: round; stroke-linecap: butt}</style>
 </defs>
 <g id="figure_1">
  <g id="patch_1">
   <path d="M 0 345.6 
L 460.8 345.6 
L 460.8 0 
L 0 0 
z
" style="fill: #ffffff"/>
  </g>
  <g id="axes_1">
   <g id="patch_2">
    <path d="M 57.6 307.584 
L 414.72 307.584 
L 414.72 41.472 
L 57.6 41.472 
z
" style="fill: #ffffff"/>
   </g>
   <g id="matplotlib.axis_1">
    <g id="xtick_1">
     <g id="line2d_1">
      <path d="M 73.832727 307.584 
L 73.832727 41.472 
" clip-path="url(#pcaf0387e2d)" style="fill: none; stroke: #b0b0b0; stroke-width: 0.8; stroke-linecap: square"/>
     </g>
     <g id="line2d_2">
      <defs>
       <path id="m6d1890c822" d="M 0 0 
L 0 3.5 
" style="stroke: #000000; stroke-width: 0.8"/>
      </defs>
      <g>
       <use xlink:href="#m6d1890c822" x="73.832727" y="307.584" style="stroke: #000000; stroke-width: 0.8"/>
      </g>
     </g>
     <g id="text_1">
      <!-- 0 -->
      <g transform="translate(70.651477 322.182437) scale(0.1 -0.1)">
       <defs>
        <path id="DejaVuSans-30" d="M 2034 4250 
Q 1547 4250 1301 3770 
Q 1056 3291 1056 2328 
Q 1056 1369 1301 889 
Q 1547 409 2034 409 
Q 2525 409 2770 889 
Q 3016 1369 3016 2328 
Q 3016 3291 2770 3770 
Q 2525 4250 2034 4250 
z
M 2034 4750 
Q 2819 4750 3233 4129 
Q 3647 3509 3647 2328 
Q 3647 1150 3233 529 
Q 2819 -91 2034 -91 
Q 1250 -91 836 529 
Q 422 1150 422 2328 
Q 422 3509 836 4129 
Q 1250 4750 2034 4750 
z
" transform="scale(0.015625)"/>
       </defs>
       <use xlink:href="#DejaVuSans-30"/>
      </g>
     </g>
    </g>
    <g id="xtick_2">
     <g id="line2d_3">
      <path d="M 138.420697 307.584 
L 138.420697 41.472 
" clip-path="url(#pcaf0387e2d)" style="fill: none; stroke: #b0b0b0; stroke-width: 0.8; stroke-linecap: square"/>
     </g>
     <g id="line2d_4">
      <g>
       <use xlink:href="#m6d1890c822" x="138.420697" y="307.584" style="stroke: #000000; stroke-width: 0.8"/>
      </g>
     </g>
     <g id="text_2">
      <!-- 5 -->
      <g transform="translate(135.239447 322.182437) scale(0.1 -0.1)">
       <defs>
        <path id="DejaVuSans-35" d="M 691 4666 
L 3169 4666 
L 3169 4134 
L 1269 4134 
L 1269 2991 
Q 1406 3038 1543 3061 
Q 1681 3084 1819 3084 
Q 2600 3084 3056 2656 
Q 3513 2228 3513 1497 
Q 3513 744 3044 326 
Q 2575 -91 1722 -91 
Q 1428 -91 1123 -41 
Q 819 9 494 109 
L 494 744 
Q 775 591 1075 516 
Q 1375 441 1709 441 
Q 2250 441 2565 725 
Q 2881 1009 2881 1497 
Q 2881 1984 2565 2268 
Q 2250 2553 1709 2553 
Q 1456 2553 1204 2497 
Q 953 2441 691 2322 
L 691 4666 
z
" transform="scale(0.015625)"/>
       </defs>
       <use xlink:href="#DejaVuSans-35"/>
      </g>
     </g>
    </g>
    <g id="xtick_3">
     <g id="line2d_5">
      <path d="M 203.008667 307.584 
L 203.008667 41.472 
" clip-path="url(#pcaf0387e2d)" style="fill: none; stroke: #b0b0b0; stroke-width: 0.8; stroke-linecap: square"/>
     </g>
     <g id="line2d_6">
      <g>
       <use xlink:href="#m6d1890c822" x="203.008667" y="307.584" style="stroke: #000000; stroke-width: 0.8"/>
      </g>
     </g>
     <g id="text_3">
      <!-- 10 -->
      <g transform="translate(196.646167 322.182437) scale(0.1 -0.1)">
       <defs>
        <path id="DejaVuSans-31" d="M 794 531 
L 1825 531 
L 1825 4091 
L 703 3866 
L 703 4441 
L 1819 4666 
L 2450 4666 
L 2450 531 
L 3481 531 
L 3481 0 
L 794 0 
L 794 531 
z
" transform="scale(0.015625)"/>
       </defs>
       <use xlink:href="#DejaVuSans-31"/>
       <use xlink:href="#DejaVuSans-30" transform="translate(63.623047 0)"/>
      </g>
     </g>
    </g>
    <g id="xtick_4">
     <g id="line2d_7">
      <path d="M 267.596636 307.584 
L 267.596636 41.472 
" clip-path="url(#pcaf0387e2d)" style="fill: none; stroke: #b0b0b0; stroke-width: 0.8; stroke-linecap: square"/>
     </g>
     <g id="line2d_8">
      <g>
       <use xlink:href="#m6d1890c822" x="267.596636" y="307.584" style="stroke: #000000; stroke-width: 0.8"/>
      </g>
     </g>
     <g id="text_4">
      <!-- 15 -->
      <g transform="translate(261.234136 322.182437) scale(0.1 -0.1)">
       <use xlink:href="#DejaVuSans-31"/>
       <use xlink:href="#DejaVuSans-35" transform="translate(63.623047 0)"/>
      </g>
     </g>
    </g>
    <g id="xtick_5">
     <g id="line2d_9">
      <path d="M 332.184606 307.584 
L 332.184606 41.472 
" clip-path="url(#pcaf0387e2d)" style="fill: none; stroke: #b0b0b0; stroke-width: 0.8; stroke-linecap: square"/>
     </g>
     <g id="line2d_10">
      <g>
       <use xlink:href="#m6d1890c822" x="332.184606" y="307.584" style="stroke: #000000; stroke-width: 0.8"/>
      </g>
     </g>
     <g id="text_5">
      <!-- 20 -->
      <g transform="translate(325.822106 322.182437) scale(0.1 -0.1)">
       <defs>
        <path id="DejaVuSans-32" d="M 1228 531 
L 3431 531 
L 3431 0 
L 469 0 
L 469 531 
Q 828 903 1448 1529 
Q 2069 2156 2228 2338 
Q 2531 2678 2651 2914 
Q 2772 3150 2772 3378 
Q 2772 3750 2511 3984 
Q 2250 4219 1831 4219 
Q 1534 4219 1204 4116 
Q 875 4013 500 3803 
L 500 4441 
Q 881 4594 1212 4672 
Q 1544 4750 1819 4750 
Q 2544 4750 2975 4387 
Q 3406 4025 3406 3419 
Q 3406 3131 3298 2873 
Q 3191 2616 2906 2266 
Q 2828 2175 2409 1742 
Q 1991 1309 1228 531 
z
" transform="scale(0.015625)"/>
       </defs>
       <use xlink:href="#DejaVuSans-32"/>
       <use xlink:href="#DejaVuSans-30" transform="translate(63.623047 0)"/>
      </g>
     </g>
    </g>
    <g id="xtick_6">
     <g id="line2d_11">
      <path d="M 396.772575 307.584 
L 396.772575 41.472 
" clip-path="url(#pcaf0387e2d)" style="fill: none; stroke: #b0b0b0; stroke-width: 0.8; stroke-linecap: square"/>
     </g>
     <g id="line2d_12">
      <g>
       <use xlink:href="#m6d1890c822" x="396.772575" y="307.584" style="stroke: #000000; stroke-width: 0.8"/>
      </g>
     </g>
     <g id="text_6">
      <!-- 25 -->
      <g transform="translate(390.410075 322.182437) scale(0.1 -0.1)">
       <use xlink:href="#DejaVuSans-32"/>
       <use xlink:href="#DejaVuSans-35" transform="translate(63.623047 0)"/>
      </g>
     </g>
    </g>
    <g id="text_7">
     <!-- x -->
     <g transform="translate(233.200625 335.860562) scale(0.1 -0.1)">
      <defs>
       <path id="DejaVuSans-78" d="M 3513 3500 
L 2247 1797 
L 3578 0 
L 2900 0 
L 1881 1375 
L 863 0 
L 184 0 
L 1544 1831 
L 300 3500 
L 978 3500 
L 1906 2253 
L 2834 3500 
L 3513 3500 
z
" transform="scale(0.015625)"/>
      </defs>
      <use xlink:href="#DejaVuSans-78"/>
     </g>
    </g>
   </g>
   <g id="matplotlib.axis_2">
    <g id="ytick_1">
     <g id="line2d_13">
      <path d="M 57.6 295.48815 
L 414.72 295.48815 
" clip-path="url(#pcaf0387e2d)" style="fill: none; stroke: #b0b0b0; stroke-width: 0.8; stroke-linecap: square"/>
     </g>
     <g id="line2d_14">
      <defs>
       <path id="mb4606edfc4" d="M 0 0 
L -3.5 0 
" style="stroke: #000000; stroke-width: 0.8"/>
      </defs>
      <g>
       <use xlink:href="#mb4606edfc4" x="57.6" y="295.48815" style="stroke: #000000; stroke-width: 0.8"/>
      </g>
     </g>
     <g id="text_8">
      <!-- −1.00 -->
      <g transform="translate(19.954687 299.287368) scale(0.1 -0.1)">
       <defs>
        <path id="DejaVuSans-2212" d="M 678 2272 
L 4684 2272 
L 4684 1741 
L 678 1741 
L 678 2272 
z
" transform="scale(0.015625)"/>
        <path id="DejaVuSans-2e" d="M 684 794 
L 1344 794 
L 1344 0 
L 684 0 
L 684 794 
z
" transform="scale(0.015625)"/>
       </defs>
       <use xlink:href="#DejaVuSans-2212"/>
       <use xlink:href="#DejaVuSans-31" transform="translate(83.789062 0)"/>
       <use xlink:href="#DejaVuSans-2e" transform="translate(147.412109 0)"/>
       <use xlink:href="#DejaVuSans-30" transform="translate(179.199219 0)"/>
       <use xlink:href="#DejaVuSans-30" transform="translate(242.822266 0)"/>
      </g>
     </g>
    </g>
    <g id="ytick_2">
     <g id="line2d_15">
      <path d="M 57.6 265.247989 
L 414.72 265.247989 
" clip-path="url(#pcaf0387e2d)" style="fill: none; stroke: #b0b0b0; stroke-width: 0.8; stroke-linecap: square"/>
     </g>
     <g id="line2d_16">
      <g>
       <use xlink:href="#mb4606edfc4" x="57.6" y="265.247989" style="stroke: #000000; stroke-width: 0.8"/>
      </g>
     </g>
     <g id="text_9">
      <!-- −0.75 -->
      <g transform="translate(19.954687 269.047207) scale(0.1 -0.1)">
       <defs>
        <path id="DejaVuSans-37" d="M 525 4666 
L 3525 4666 
L 3525 4397 
L 1831 0 
L 1172 0 
L 2766 4134 
L 525 4134 
L 525 4666 
z
" transform="scale(0.015625)"/>
       </defs>
       <use xlink:href="#DejaVuSans-2212"/>
       <use xlink:href="#DejaVuSans-30" transform="translate(83.789062 0)"/>
       <use xlink:href="#DejaVuSans-2e" transform="translate(147.412109 0)"/>
       <use xlink:href="#DejaVuSans-37" transform="translate(179.199219 0)"/>
       <use xlink:href="#DejaVuSans-35" transform="translate(242.822266 0)"/>
      </g>
     </g>
    </g>
    <g id="ytick_3">
     <g id="line2d_17">
      <path d="M 57.6 235.007828 
L 414.72 235.007828 
" clip-path="url(#pcaf0387e2d)" style="fill: none; stroke: #b0b0b0; stroke-width: 0.8; stroke-linecap: square"/>
     </g>
     <g id="line2d_18">
      <g>
       <use xlink:href="#mb4606edfc4" x="57.6" y="235.007828" style="stroke: #000000; stroke-width: 0.8"/>
      </g>
     </g>
     <g id="text_10">
      <!-- −0.50 -->
      <g transform="translate(19.954687 238.807046) scale(0.1 -0.1)">
       <use xlink:href="#DejaVuSans-2212"/>
       <use xlink:href="#DejaVuSans-30" transform="translate(83.789062 0)"/>
       <use xlink:href="#DejaVuSans-2e" transform="translate(147.412109 0)"/>
       <use xlink:href="#DejaVuSans-35" transform="translate(179.199219 0)"/>
       <use xlink:href="#DejaVuSans-30" transform="translate(242.822266 0)"/>
      </g>
     </g>
    </g>
    <g id="ytick_4">
     <g id="line2d_19">
      <path d="M 57.6 204.767667 
L 414.72 204.767667 
" clip-path="url(#pcaf0387e2d)" style="fill: none; stroke: #b0b0b0; stroke-width: 0.8; stroke-linecap: square"/>
     </g>
     <g id="line2d_20">
      <g>
       <use xlink:href="#mb4606edfc4" x="57.6" y="204.767667" style="stroke: #000000; stroke-width: 0.8"/>
      </g>
     </g>
     <g id="text_11">
      <!-- −0.25 -->
      <g transform="translate(19.954687 208.566885) scale(0.1 -0.1)">
       <use xlink:href="#DejaVuSans-2212"/>
       <use xlink:href="#DejaVuSans-30" transform="translate(83.789062 0)"/>
       <use xlink:href="#DejaVuSans-2e" transform="translate(147.412109 0)"/>
       <use xlink:href="#DejaVuSans-32" transform="translate(179.199219 0)"/>
       <use xlink:href="#DejaVuSans-35" transform="translate(242.822266 0)"/>
      </g>
     </g>
    </g>
    <g id="ytick_5">
     <g id="line2d_21">
      <path d="M 57.6 174.527506 
L 414.72 174.527506 
" clip-path="url(#pcaf0387e2d)" style="fill: none; stroke: #b0b0b0; stroke-width: 0.8; stroke-linecap: square"/>
     </g>
     <g id="line2d_22">
      <g>
       <use xlink:href="#mb4606edfc4" x="57.6" y="174.527506" style="stroke: #000000; stroke-width: 0.8"/>
      </g>
     </g>
     <g id="text_12">
      <!-- 0.00 -->
      <g transform="translate(28.334375 178.326724) scale(0.1 -0.1)">
       <use xlink:href="#DejaVuSans-30"/>
       <use xlink:href="#DejaVuSans-2e" transform="translate(63.623047 0)"/>
       <use xlink:href="#DejaVuSans-30" transform="translate(95.410156 0)"/>
       <use xlink:href="#DejaVuSans-30" transform="translate(159.033203 0)"/>
      </g>
     </g>
    </g>
    <g id="ytick_6">
     <g id="line2d_23">
      <path d="M 57.6 144.287345 
L 414.72 144.287345 
" clip-path="url(#pcaf0387e2d)" style="fill: none; stroke: #b0b0b0; stroke-width: 0.8; stroke-linecap: square"/>
     </g>
     <g id="line2d_24">
      <g>
       <use xlink:href="#mb4606edfc4" x="57.6" y="144.287345" style="stroke: #000000; stroke-width: 0.8"/>
      </g>
     </g>
     <g id="text_13">
      <!-- 0.25 -->
      <g transform="translate(28.334375 148.086564) scale(0.1 -0.1)">
       <use xlink:href="#DejaVuSans-30"/>
       <use xlink:href="#DejaVuSans-2e" transform="translate(63.623047 0)"/>
       <use xlink:href="#DejaVuSans-32" transform="translate(95.410156 0)"/>
       <use xlink:href="#DejaVuSans-35" transform="translate(159.033203 0)"/>
      </g>
     </g>
    </g>
    <g id="ytick_7">
     <g id="line2d_25">
      <path d="M 57.6 114.047184 
L 414.72 114.047184 
" clip-path="url(#pcaf0387e2d)" style="fill: none; stroke: #b0b0b0; stroke-width: 0.8; stroke-linecap: square"/>
     </g>
     <g id="line2d_26">
      <g>
       <use xlink:href="#mb4606edfc4" x="57.6" y="114.047184" style="stroke: #000000; stroke-width: 0.8"/>
      </g>
     </g>
     <g id="text_14">
      <!-- 0.50 -->
      <g transform="translate(28.334375 117.846403) scale(0.1 -0.1)">
       <use xlink:href="#DejaVuSans-30"/>
       <use xlink:href="#DejaVuSans-2e" transform="translate(63.623047 0)"/>
       <use xlink:href="#DejaVuSans-35" transform="translate(95.410156 0)"/>
       <use xlink:href="#DejaVuSans-30" transform="translate(159.033203 0)"/>
      </g>
     </g>
    </g>
    <g id="ytick_8">
     <g id="line2d_27">
      <path d="M 57.6 83.807023 
L 414.72 83.807023 
" clip-path="url(#pcaf0387e2d)" style="fill: none; stroke: #b0b0b0; stroke-width: 0.8; stroke-linecap: square"/>
     </g>
     <g id="line2d_28">
      <g>
       <use xlink:href="#mb4606edfc4" x="57.6" y="83.807023" style="stroke: #000000; stroke-width: 0.8"/>
      </g>
     </g>
     <g id="text_15">
      <!-- 0.75 -->
      <g transform="translate(28.334375 87.606242) scale(0.1 -0.1)">
       <use xlink:href="#DejaVuSans-30"/>
       <use xlink:href="#DejaVuSans-2e" transform="translate(63.623047 0)"/>
       <use xlink:href="#DejaVuSans-37" transform="translate(95.410156 0)"/>
       <use xlink:href="#DejaVuSans-35" transform="translate(159.033203 0)"/>
      </g>
     </g>
    </g>
    <g id="ytick_9">
     <g id="line2d_29">
      <path d="M 57.6 53.566862 
L 414.72 53.566862 
" clip-path="url(#pcaf0387e2d)" style="fill: none; stroke: #b0b0b0; stroke-width: 0.8; stroke-linecap: square"/>
     </g>
     <g id="line2d_30">
      <g>
       <use xlink:href="#mb4606edfc4" x="57.6" y="53.566862" style="stroke: #000000; stroke-width: 0.8"/>
      </g>
     </g>
     <g id="text_16">
      <!-- 1.00 -->
      <g transform="translate(28.334375 57.366081) scale(0.1 -0.1)">
       <use xlink:href="#DejaVuSans-31"/>
       <use xlink:href="#DejaVuSans-2e" transform="translate(63.623047 0)"/>
       <use xlink:href="#DejaVuSans-30" transform="translate(95.410156 0)"/>
       <use xlink:href="#DejaVuSans-30" transform="translate(159.033203 0)"/>
      </g>
     </g>
    </g>
    <g id="text_17">
     <!-- D(x, 0) -->
     <g transform="translate(13.875 191.598312) rotate(-90) scale(0.1 -0.1)">
      <defs>
       <path id="DejaVuSans-44" d="M 1259 4147 
L 1259 519 
L 2022 519 
Q 2988 519 3436 956 
Q 3884 1394 3884 2338 
Q 3884 3275 3436 3711 
Q 2988 4147 2022 4147 
L 1259 4147 
z
M 628 4666 
L 1925 4666 
Q 3281 4666 3915 4102 
Q 4550 3538 4550 2338 
Q 4550 1131 3912 565 
Q 3275 0 1925 0 
L 628 0 
L 628 4666 
z
" transform="scale(0.015625)"/>
       <path id="DejaVuSans-28" d="M 1984 4856 
Q 1566 4138 1362 3434 
Q 1159 2731 1159 2009 
Q 1159 1288 1364 580 
Q 1569 -128 1984 -844 
L 1484 -844 
Q 1016 -109 783 600 
Q 550 1309 550 2009 
Q 550 2706 781 3412 
Q 1013 4119 1484 4856 
L 1984 4856 
z
" transform="scale(0.015625)"/>
       <path id="DejaVuSans-2c" d="M 750 794 
L 1409 794 
L 1409 256 
L 897 -744 
L 494 -744 
L 750 256 
L 750 794 
z
" transform="scale(0.015625)"/>
       <path id="DejaVuSans-20" transform="scale(0.015625)"/>
       <path id="DejaVuSans-29" d="M 513 4856 
L 1013 4856 
Q 1481 4119 1714 3412 
Q 1947 2706 1947 2009 
Q 1947 1309 1714 600 
Q 1481 -109 1013 -844 
L 513 -844 
Q 928 -128 1133 580 
Q 1338 1288 1338 2009 
Q 1338 2731 1133 3434 
Q 928 4138 513 4856 
z
" transform="scale(0.015625)"/>
      </defs>
      <use xlink:href="#DejaVuSans-44"/>
      <use xlink:href="#DejaVuSans-28" transform="translate(77.001953 0)"/>
      <use xlink:href="#DejaVuSans-78" transform="translate(116.015625 0)"/>
      <use xlink:href="#DejaVuSans-2c" transform="translate(175.195312 0)"/>
      <use xlink:href="#DejaVuSans-20" transform="translate(206.982422 0)"/>
      <use xlink:href="#DejaVuSans-30" transform="translate(238.769531 0)"/>
      <use xlink:href="#DejaVuSans-29" transform="translate(302.392578 0)"/>
     </g>
    </g>
   </g>
   <g id="line2d_31">
    <path d="M 73.832727 174.527506 
L 78.382441 132.799285 
L 80.982277 110.945081 
L 82.932154 96.194254 
L 84.557052 85.249656 
L 86.181949 75.71584 
L 87.481867 69.206601 
L 88.781785 63.763018 
L 89.756724 60.413223 
L 90.731663 57.713145 
L 91.706601 55.678159 
L 92.35656 54.696876 
L 93.006519 54.018903 
L 93.656478 53.645954 
L 94.306437 53.578974 
L 94.956396 53.818132 
L 95.606355 54.362823 
L 96.256314 55.211668 
L 96.906274 56.362519 
L 97.881212 58.648478 
L 98.856151 61.594202 
L 99.831089 65.18292 
L 101.131007 70.932263 
L 102.430925 77.7298 
L 104.055823 87.595011 
L 105.680721 98.833942 
L 107.630598 113.882545 
L 109.905455 133.156529 
L 113.15525 162.754102 
L 119.329861 219.45193 
L 121.929697 240.996465 
L 123.879574 255.437702 
L 125.504472 266.0792 
L 127.129369 275.273985 
L 128.429287 281.489711 
L 129.729206 286.623174 
L 130.704144 289.731364 
L 131.679083 292.183632 
L 132.654021 293.966016 
L 133.30398 294.776944 
L 133.953939 295.283503 
L 134.603898 295.484411 
L 135.253857 295.37916 
L 135.903817 294.968015 
L 136.553776 294.252018 
L 137.203735 293.232981 
L 138.178673 291.142076 
L 139.153612 288.387216 
L 140.12855 284.984088 
L 141.428468 279.472173 
L 142.728387 272.898409 
L 144.353284 263.29028 
L 145.978182 252.279509 
L 147.928059 237.461479 
L 150.202916 218.390401 
L 153.452711 188.947927 
L 160.277281 126.442862 
L 162.552138 107.741064 
L 164.502015 93.334945 
L 166.126912 82.727656 
L 167.75181 73.571001 
L 169.051728 67.388199 
L 170.351646 62.289452 
L 171.326585 59.208264 
L 172.301523 56.783655 
L 173.276462 55.02943 
L 173.926421 54.237473 
L 174.57638 53.749988 
L 175.226339 53.568208 
L 175.876298 53.692593 
L 176.526257 54.12283 
L 177.176216 54.857828 
L 177.826175 55.895727 
L 178.801114 58.014562 
L 179.776052 60.796771 
L 180.750991 64.226516 
L 182.050909 69.772515 
L 183.350827 76.378444 
L 184.975725 86.023587 
L 186.600622 97.067282 
L 188.5505 111.918693 
L 190.825356 131.019325 
L 194.075152 160.484832 
L 200.574742 220.1574 
L 203.174578 241.630768 
L 205.124455 256.001627 
L 206.749353 266.574603 
L 208.374251 275.693038 
L 209.674169 281.842854 
L 210.974087 286.906835 
L 211.949025 289.96099 
L 212.923964 292.357916 
L 213.898903 294.083965 
L 214.548862 294.856943 
L 215.198821 295.32535 
L 215.84878 295.488 
L 216.498739 295.344481 
L 217.148698 294.895158 
L 217.798657 294.141166 
L 218.448616 293.084414 
L 219.423554 290.937672 
L 220.398493 288.128139 
L 221.373432 284.671813 
L 222.67335 279.091783 
L 223.973268 272.453754 
L 225.598165 262.771692 
L 227.223063 251.695182 
L 229.17294 236.810533 
L 231.447797 217.680524 
L 234.697592 188.192229 
L 241.197183 128.544784 
L 243.797019 107.106172 
L 245.746896 92.768974 
L 247.371794 82.228001 
L 248.996691 73.144249 
L 250.296609 67.023595 
L 251.596527 61.989909 
L 252.571466 58.959532 
L 253.546405 56.588087 
L 254.521343 54.890788 
L 255.171302 54.140158 
L 255.821261 53.698178 
L 256.47122 53.568 
L 257.121179 53.752821 
L 257.771138 54.256186 
L 258.421097 55.08239 
L 259.071057 56.237021 
L 260.045995 58.602215 
L 261.020934 61.763937 
L 261.995872 65.788311 
L 262.970811 70.784495 
L 263.945749 76.930101 
L 264.920688 84.509563 
L 265.895627 93.970763 
L 266.870565 106.004239 
L 267.845504 121.640016 
L 268.820442 142.320331 
L 269.795381 169.79123 
L 270.770319 205.349409 
L 272.720197 285.27957 
L 273.045176 292.827203 
L 273.370156 295.478832 
L 273.695135 291.57103 
L 274.020115 279.534325 
L 274.345094 258.25882 
L 274.995053 188.962624 
L 275.969992 70.698402 
L 276.294971 54.254087 
L 276.619951 60.808345 
L 276.94493 92.250936 
L 278.244848 291.246565 
L 278.569828 291.125155 
L 278.894808 258.319988 
L 279.869746 86.800534 
L 280.194726 57.516903 
L 280.519705 56.768415 
L 280.844685 81.915073 
L 282.469582 284.391179 
L 282.794562 294.896458 
L 283.119541 292.800011 
L 283.444521 280.702211 
L 284.09448 238.318919 
L 285.394398 142.853465 
L 286.044357 107.266118 
L 286.694316 82.095478 
L 287.344275 66.008063 
L 287.994234 57.137895 
L 288.319214 54.851469 
L 288.644193 53.739601 
L 288.969173 53.637746 
L 289.294152 54.403751 
L 289.619132 55.91605 
L 290.269091 60.782604 
L 290.91905 67.589667 
L 291.893989 80.466391 
L 293.193907 101.09119 
L 295.143784 136.471569 
L 300.018477 228.010576 
L 301.643374 253.516497 
L 302.943292 270.301977 
L 303.918231 280.348614 
L 304.89317 287.969122 
L 305.543129 291.617217 
L 306.193088 294.076551 
L 306.518067 294.852545 
L 306.843047 295.323373 
L 307.168026 295.487943 
L 307.493006 295.345922 
L 307.817985 294.897742 
L 308.142965 294.144602 
L 308.792924 291.732034 
L 309.442883 288.132963 
L 310.092842 283.384045 
L 311.067781 274.213225 
L 312.042719 262.775244 
L 313.342637 244.454497 
L 314.967535 217.682123 
L 317.567371 169.964541 
L 320.167207 122.976997 
L 321.792105 97.359923 
L 323.092023 80.29648 
L 324.066962 69.963254 
L 325.0419 62.008025 
L 325.691859 58.117347 
L 326.341818 55.40453 
L 326.991777 53.897021 
L 327.316757 53.600505 
L 327.641736 53.610073 
L 327.966716 53.925701 
L 328.291695 54.546589 
L 328.941654 56.697094 
L 329.591613 60.039828 
L 330.241572 64.540969 
L 331.216511 73.361972 
L 332.19145 84.48367 
L 333.491368 102.447466 
L 335.116265 128.89761 
L 337.391122 170.344056 
L 340.640917 229.154203 
L 342.265815 254.300273 
L 343.565733 270.867077 
L 344.540672 280.770744 
L 345.51561 288.25824 
L 346.165569 291.82111 
L 346.815528 294.197184 
L 347.140508 294.932182 
L 347.465487 295.362418 
L 347.790467 295.486804 
L 348.115446 295.305024 
L 348.440426 294.817538 
L 348.765405 294.025581 
L 349.415364 291.537036 
L 350.065324 287.864569 
L 350.715283 283.045336 
L 351.690221 273.776025 
L 352.66516 262.249616 
L 353.965078 243.82976 
L 355.589975 216.968973 
L 358.189812 169.203774 
L 360.789648 122.289581 
L 362.414545 96.775503 
L 363.714464 79.821294 
L 364.689402 69.582839 
L 365.664341 61.731023 
L 366.3143 57.912936 
L 366.964259 55.274775 
L 367.614218 53.843234 
L 367.939197 53.584954 
L 368.264177 53.632798 
L 368.589156 53.986643 
L 368.914136 54.645595 
L 369.564095 56.871379 
L 370.214054 60.287628 
L 370.864013 64.859776 
L 371.838952 73.781027 
L 372.81389 84.993442 
L 374.113808 103.05984 
L 375.738706 129.603081 
L 378.338542 177.190017 
L 381.263358 229.831898 
L 382.888256 254.870577 
L 384.188174 271.325211 
L 385.163112 281.132336 
L 386.138051 288.515066 
L 386.78801 292.004695 
L 387.437969 294.305669 
L 387.762948 295.002658 
L 388.087928 295.394706 
L 388.412907 295.480823 
L 388.737887 295.260789 
L 389.062867 294.735161 
L 389.712826 292.773217 
L 390.362785 289.614842 
L 391.012744 285.291993 
L 391.987682 276.723127 
L 392.962621 265.830139 
L 394.262539 248.125952 
L 395.887437 221.913119 
L 398.162293 180.611169 
L 398.487273 174.527506 
L 398.487273 174.527506 
" clip-path="url(#pcaf0387e2d)" style="fill: none; stroke: #0000ff; stroke-width: 1.5; stroke-linecap: square"/>
   </g>
   <g id="line2d_32">
    <path d="M 276.741818 307.584 
L 276.741818 41.472 
" clip-path="url(#pcaf0387e2d)" style="fill: none; stroke-dasharray: 5.55,2.4; stroke-dashoffset: 0; stroke: #ff0000; stroke-width: 1.5"/>
   </g>
   <g id="patch_3">
    <path d="M 57.6 307.584 
L 57.6 41.472 
" style="fill: none; stroke: #000000; stroke-width: 0.8; stroke-linejoin: miter; stroke-linecap: square"/>
   </g>
   <g id="patch_4">
    <path d="M 414.72 307.584 
L 414.72 41.472 
" style="fill: none; stroke: #000000; stroke-width: 0.8; stroke-linejoin: miter; stroke-linecap: square"/>
   </g>
   <g id="patch_5">
    <path d="M 57.6 307.584 
L 414.72 307.584 
" style="fill: none; stroke: #000000; stroke-width: 0.8; stroke-linejoin: miter; stroke-linecap: square"/>
   </g>
   <g id="patch_6">
    <path d="M 57.6 41.472 
L 414.72 41.472 
" style="fill: none; stroke: #000000; stroke-width: 0.8; stroke-linejoin: miter; stroke-linecap: square"/>
   </g>
   <g id="text_18">
    <!-- Light wave traversing two different media -->
    <g transform="translate(110.025937 35.472) scale(0.12 -0.12)">
     <defs>
      <path id="DejaVuSans-4c" d="M 628 4666 
L 1259 4666 
L 1259 531 
L 3531 531 
L 3531 0 
L 628 0 
L 628 4666 
z
" transform="scale(0.015625)"/>
      <path id="DejaVuSans-69" d="M 603 3500 
L 1178 3500 
L 1178 0 
L 603 0 
L 603 3500 
z
M 603 4863 
L 1178 4863 
L 1178 4134 
L 603 4134 
L 603 4863 
z
" transform="scale(0.015625)"/>
      <path id="DejaVuSans-67" d="M 2906 1791 
Q 2906 2416 2648 2759 
Q 2391 3103 1925 3103 
Q 1463 3103 1205 2759 
Q 947 2416 947 1791 
Q 947 1169 1205 825 
Q 1463 481 1925 481 
Q 2391 481 2648 825 
Q 2906 1169 2906 1791 
z
M 3481 434 
Q 3481 -459 3084 -895 
Q 2688 -1331 1869 -1331 
Q 1566 -1331 1297 -1286 
Q 1028 -1241 775 -1147 
L 775 -588 
Q 1028 -725 1275 -790 
Q 1522 -856 1778 -856 
Q 2344 -856 2625 -561 
Q 2906 -266 2906 331 
L 2906 616 
Q 2728 306 2450 153 
Q 2172 0 1784 0 
Q 1141 0 747 490 
Q 353 981 353 1791 
Q 353 2603 747 3093 
Q 1141 3584 1784 3584 
Q 2172 3584 2450 3431 
Q 2728 3278 2906 2969 
L 2906 3500 
L 3481 3500 
L 3481 434 
z
" transform="scale(0.015625)"/>
      <path id="DejaVuSans-68" d="M 3513 2113 
L 3513 0 
L 2938 0 
L 2938 2094 
Q 2938 2591 2744 2837 
Q 2550 3084 2163 3084 
Q 1697 3084 1428 2787 
Q 1159 2491 1159 1978 
L 1159 0 
L 581 0 
L 581 4863 
L 1159 4863 
L 1159 2956 
Q 1366 3272 1645 3428 
Q 1925 3584 2291 3584 
Q 2894 3584 3203 3211 
Q 3513 2838 3513 2113 
z
" transform="scale(0.015625)"/>
      <path id="DejaVuSans-74" d="M 1172 4494 
L 1172 3500 
L 2356 3500 
L 2356 3053 
L 1172 3053 
L 1172 1153 
Q 1172 725 1289 603 
Q 1406 481 1766 481 
L 2356 481 
L 2356 0 
L 1766 0 
Q 1100 0 847 248 
Q 594 497 594 1153 
L 594 3053 
L 172 3053 
L 172 3500 
L 594 3500 
L 594 4494 
L 1172 4494 
z
" transform="scale(0.015625)"/>
      <path id="DejaVuSans-77" d="M 269 3500 
L 844 3500 
L 1563 769 
L 2278 3500 
L 2956 3500 
L 3675 769 
L 4391 3500 
L 4966 3500 
L 4050 0 
L 3372 0 
L 2619 2869 
L 1863 0 
L 1184 0 
L 269 3500 
z
" transform="scale(0.015625)"/>
      <path id="DejaVuSans-61" d="M 2194 1759 
Q 1497 1759 1228 1600 
Q 959 1441 959 1056 
Q 959 750 1161 570 
Q 1363 391 1709 391 
Q 2188 391 2477 730 
Q 2766 1069 2766 1631 
L 2766 1759 
L 2194 1759 
z
M 3341 1997 
L 3341 0 
L 2766 0 
L 2766 531 
Q 2569 213 2275 61 
Q 1981 -91 1556 -91 
Q 1019 -91 701 211 
Q 384 513 384 1019 
Q 384 1609 779 1909 
Q 1175 2209 1959 2209 
L 2766 2209 
L 2766 2266 
Q 2766 2663 2505 2880 
Q 2244 3097 1772 3097 
Q 1472 3097 1187 3025 
Q 903 2953 641 2809 
L 641 3341 
Q 956 3463 1253 3523 
Q 1550 3584 1831 3584 
Q 2591 3584 2966 3190 
Q 3341 2797 3341 1997 
z
" transform="scale(0.015625)"/>
      <path id="DejaVuSans-76" d="M 191 3500 
L 800 3500 
L 1894 563 
L 2988 3500 
L 3597 3500 
L 2284 0 
L 1503 0 
L 191 3500 
z
" transform="scale(0.015625)"/>
      <path id="DejaVuSans-65" d="M 3597 1894 
L 3597 1613 
L 953 1613 
Q 991 1019 1311 708 
Q 1631 397 2203 397 
Q 2534 397 2845 478 
Q 3156 559 3463 722 
L 3463 178 
Q 3153 47 2828 -22 
Q 2503 -91 2169 -91 
Q 1331 -91 842 396 
Q 353 884 353 1716 
Q 353 2575 817 3079 
Q 1281 3584 2069 3584 
Q 2775 3584 3186 3129 
Q 3597 2675 3597 1894 
z
M 3022 2063 
Q 3016 2534 2758 2815 
Q 2500 3097 2075 3097 
Q 1594 3097 1305 2825 
Q 1016 2553 972 2059 
L 3022 2063 
z
" transform="scale(0.015625)"/>
      <path id="DejaVuSans-72" d="M 2631 2963 
Q 2534 3019 2420 3045 
Q 2306 3072 2169 3072 
Q 1681 3072 1420 2755 
Q 1159 2438 1159 1844 
L 1159 0 
L 581 0 
L 581 3500 
L 1159 3500 
L 1159 2956 
Q 1341 3275 1631 3429 
Q 1922 3584 2338 3584 
Q 2397 3584 2469 3576 
Q 2541 3569 2628 3553 
L 2631 2963 
z
" transform="scale(0.015625)"/>
      <path id="DejaVuSans-73" d="M 2834 3397 
L 2834 2853 
Q 2591 2978 2328 3040 
Q 2066 3103 1784 3103 
Q 1356 3103 1142 2972 
Q 928 2841 928 2578 
Q 928 2378 1081 2264 
Q 1234 2150 1697 2047 
L 1894 2003 
Q 2506 1872 2764 1633 
Q 3022 1394 3022 966 
Q 3022 478 2636 193 
Q 2250 -91 1575 -91 
Q 1294 -91 989 -36 
Q 684 19 347 128 
L 347 722 
Q 666 556 975 473 
Q 1284 391 1588 391 
Q 1994 391 2212 530 
Q 2431 669 2431 922 
Q 2431 1156 2273 1281 
Q 2116 1406 1581 1522 
L 1381 1569 
Q 847 1681 609 1914 
Q 372 2147 372 2553 
Q 372 3047 722 3315 
Q 1072 3584 1716 3584 
Q 2034 3584 2315 3537 
Q 2597 3491 2834 3397 
z
" transform="scale(0.015625)"/>
      <path id="DejaVuSans-6e" d="M 3513 2113 
L 3513 0 
L 2938 0 
L 2938 2094 
Q 2938 2591 2744 2837 
Q 2550 3084 2163 3084 
Q 1697 3084 1428 2787 
Q 1159 2491 1159 1978 
L 1159 0 
L 581 0 
L 581 3500 
L 1159 3500 
L 1159 2956 
Q 1366 3272 1645 3428 
Q 1925 3584 2291 3584 
Q 2894 3584 3203 3211 
Q 3513 2838 3513 2113 
z
" transform="scale(0.015625)"/>
      <path id="DejaVuSans-6f" d="M 1959 3097 
Q 1497 3097 1228 2736 
Q 959 2375 959 1747 
Q 959 1119 1226 758 
Q 1494 397 1959 397 
Q 2419 397 2687 759 
Q 2956 1122 2956 1747 
Q 2956 2369 2687 2733 
Q 2419 3097 1959 3097 
z
M 1959 3584 
Q 2709 3584 3137 3096 
Q 3566 2609 3566 1747 
Q 3566 888 3137 398 
Q 2709 -91 1959 -91 
Q 1206 -91 779 398 
Q 353 888 353 1747 
Q 353 2609 779 3096 
Q 1206 3584 1959 3584 
z
" transform="scale(0.015625)"/>
      <path id="DejaVuSans-64" d="M 2906 2969 
L 2906 4863 
L 3481 4863 
L 3481 0 
L 2906 0 
L 2906 525 
Q 2725 213 2448 61 
Q 2172 -91 1784 -91 
Q 1150 -91 751 415 
Q 353 922 353 1747 
Q 353 2572 751 3078 
Q 1150 3584 1784 3584 
Q 2172 3584 2448 3432 
Q 2725 3281 2906 2969 
z
M 947 1747 
Q 947 1113 1208 752 
Q 1469 391 1925 391 
Q 2381 391 2643 752 
Q 2906 1113 2906 1747 
Q 2906 2381 2643 2742 
Q 2381 3103 1925 3103 
Q 1469 3103 1208 2742 
Q 947 2381 947 1747 
z
" transform="scale(0.015625)"/>
      <path id="DejaVuSans-66" d="M 2375 4863 
L 2375 4384 
L 1825 4384 
Q 1516 4384 1395 4259 
Q 1275 4134 1275 3809 
L 1275 3500 
L 2222 3500 
L 2222 3053 
L 1275 3053 
L 1275 0 
L 697 0 
L 697 3053 
L 147 3053 
L 147 3500 
L 697 3500 
L 697 3744 
Q 697 4328 969 4595 
Q 1241 4863 1831 4863 
L 2375 4863 
z
" transform="scale(0.015625)"/>
      <path id="DejaVuSans-6d" d="M 3328 2828 
Q 3544 3216 3844 3400 
Q 4144 3584 4550 3584 
Q 5097 3584 5394 3201 
Q 5691 2819 5691 2113 
L 5691 0 
L 5113 0 
L 5113 2094 
Q 5113 2597 4934 2840 
Q 4756 3084 4391 3084 
Q 3944 3084 3684 2787 
Q 3425 2491 3425 1978 
L 3425 0 
L 2847 0 
L 2847 2094 
Q 2847 2600 2669 2842 
Q 2491 3084 2119 3084 
Q 1678 3084 1418 2786 
Q 1159 2488 1159 1978 
L 1159 0 
L 581 0 
L 581 3500 
L 1159 3500 
L 1159 2956 
Q 1356 3278 1631 3431 
Q 1906 3584 2284 3584 
Q 2666 3584 2933 3390 
Q 3200 3197 3328 2828 
z
" transform="scale(0.015625)"/>
     </defs>
     <use xlink:href="#DejaVuSans-4c"/>
     <use xlink:href="#DejaVuSans-69" transform="translate(55.712891 0)"/>
     <use xlink:href="#DejaVuSans-67" transform="translate(83.496094 0)"/>
     <use xlink:href="#DejaVuSans-68" transform="translate(146.972656 0)"/>
     <use xlink:href="#DejaVuSans-74" transform="translate(210.351562 0)"/>
     <use xlink:href="#DejaVuSans-20" transform="translate(249.560547 0)"/>
     <use xlink:href="#DejaVuSans-77" transform="translate(281.347656 0)"/>
     <use xlink:href="#DejaVuSans-61" transform="translate(363.134766 0)"/>
     <use xlink:href="#DejaVuSans-76" transform="translate(424.414062 0)"/>
     <use xlink:href="#DejaVuSans-65" transform="translate(483.59375 0)"/>
     <use xlink:href="#DejaVuSans-20" transform="translate(545.117188 0)"/>
     <use xlink:href="#DejaVuSans-74" transform="translate(576.904297 0)"/>
     <use xlink:href="#DejaVuSans-72" transform="translate(616.113281 0)"/>
     <use xlink:href="#DejaVuSans-61" transform="translate(657.226562 0)"/>
     <use xlink:href="#DejaVuSans-76" transform="translate(718.505859 0)"/>
     <use xlink:href="#DejaVuSans-65" transform="translate(777.685547 0)"/>
     <use xlink:href="#DejaVuSans-72" transform="translate(839.208984 0)"/>
     <use xlink:href="#DejaVuSans-73" transform="translate(880.322266 0)"/>
     <use xlink:href="#DejaVuSans-69" transform="translate(932.421875 0)"/>
     <use xlink:href="#DejaVuSans-6e" transform="translate(960.205078 0)"/>
     <use xlink:href="#DejaVuSans-67" transform="translate(1023.583984 0)"/>
     <use xlink:href="#DejaVuSans-20" transform="translate(1087.060547 0)"/>
     <use xlink:href="#DejaVuSans-74" transform="translate(1118.847656 0)"/>
     <use xlink:href="#DejaVuSans-77" transform="translate(1158.056641 0)"/>
     <use xlink:href="#DejaVuSans-6f" transform="translate(1239.84375 0)"/>
     <use xlink:href="#DejaVuSans-20" transform="translate(1301.025391 0)"/>
     <use xlink:href="#DejaVuSans-64" transform="translate(1332.8125 0)"/>
     <use xlink:href="#DejaVuSans-69" transform="translate(1396.289062 0)"/>
     <use xlink:href="#DejaVuSans-66" transform="translate(1424.072266 0)"/>
     <use xlink:href="#DejaVuSans-66" transform="translate(1459.277344 0)"/>
     <use xlink:href="#DejaVuSans-65" transform="translate(1494.482422 0)"/>
     <use xlink:href="#DejaVuSans-72" transform="translate(1556.005859 0)"/>
     <use xlink:href="#DejaVuSans-65" transform="translate(1594.869141 0)"/>
     <use xlink:href="#DejaVuSans-6e" transform="translate(1656.392578 0)"/>
     <use xlink:href="#DejaVuSans-74" transform="translate(1719.771484 0)"/>
     <use xlink:href="#DejaVuSans-20" transform="translate(1758.980469 0)"/>
     <use xlink:href="#DejaVuSans-6d" transform="translate(1790.767578 0)"/>
     <use xlink:href="#DejaVuSans-65" transform="translate(1888.179688 0)"/>
     <use xlink:href="#DejaVuSans-64" transform="translate(1949.703125 0)"/>
     <use xlink:href="#DejaVuSans-69" transform="translate(2013.179688 0)"/>
     <use xlink:href="#DejaVuSans-61" transform="translate(2040.962891 0)"/>
    </g>
   </g>
   <g id="legend_1">
    <g id="patch_7">
     <path d="M 64.6 190.706125 
L 176.179688 190.706125 
Q 178.179688 190.706125 178.179688 188.706125 
L 178.179688 160.349875 
Q 178.179688 158.349875 176.179688 158.349875 
L 64.6 158.349875 
Q 62.6 158.349875 62.6 160.349875 
L 62.6 188.706125 
Q 62.6 190.706125 64.6 190.706125 
z
" style="fill: #ffffff; opacity: 0.8; stroke: #cccccc; stroke-linejoin: miter"/>
    </g>
    <g id="line2d_33">
     <path d="M 66.6 166.448312 
L 76.6 166.448312 
L 86.6 166.448312 
" style="fill: none; stroke: #0000ff; stroke-width: 1.5; stroke-linecap: square"/>
    </g>
    <g id="text_19">
     <!-- sinusoidal wave -->
     <g transform="translate(94.6 169.948312) scale(0.1 -0.1)">
      <defs>
       <path id="DejaVuSans-75" d="M 544 1381 
L 544 3500 
L 1119 3500 
L 1119 1403 
Q 1119 906 1312 657 
Q 1506 409 1894 409 
Q 2359 409 2629 706 
Q 2900 1003 2900 1516 
L 2900 3500 
L 3475 3500 
L 3475 0 
L 2900 0 
L 2900 538 
Q 2691 219 2414 64 
Q 2138 -91 1772 -91 
Q 1169 -91 856 284 
Q 544 659 544 1381 
z
M 1991 3584 
L 1991 3584 
z
" transform="scale(0.015625)"/>
       <path id="DejaVuSans-6c" d="M 603 4863 
L 1178 4863 
L 1178 0 
L 603 0 
L 603 4863 
z
" transform="scale(0.015625)"/>
      </defs>
      <use xlink:href="#DejaVuSans-73"/>
      <use xlink:href="#DejaVuSans-69" transform="translate(52.099609 0)"/>
      <use xlink:href="#DejaVuSans-6e" transform="translate(79.882812 0)"/>
      <use xlink:href="#DejaVuSans-75" transform="translate(143.261719 0)"/>
      <use xlink:href="#DejaVuSans-73" transform="translate(206.640625 0)"/>
      <use xlink:href="#DejaVuSans-6f" transform="translate(258.740234 0)"/>
      <use xlink:href="#DejaVuSans-69" transform="translate(319.921875 0)"/>
      <use xlink:href="#DejaVuSans-64" transform="translate(347.705078 0)"/>
      <use xlink:href="#DejaVuSans-61" transform="translate(411.181641 0)"/>
      <use xlink:href="#DejaVuSans-6c" transform="translate(472.460938 0)"/>
      <use xlink:href="#DejaVuSans-20" transform="translate(500.244141 0)"/>
      <use xlink:href="#DejaVuSans-77" transform="translate(532.03125 0)"/>
      <use xlink:href="#DejaVuSans-61" transform="translate(613.818359 0)"/>
      <use xlink:href="#DejaVuSans-76" transform="translate(675.097656 0)"/>
      <use xlink:href="#DejaVuSans-65" transform="translate(734.277344 0)"/>
     </g>
    </g>
    <g id="line2d_34">
     <path d="M 66.6 181.126437 
L 76.6 181.126437 
L 86.6 181.126437 
" style="fill: none; stroke-dasharray: 5.55,2.4; stroke-dashoffset: 0; stroke: #ff0000; stroke-width: 1.5"/>
    </g>
    <g id="text_20">
     <!-- boundary -->
     <g transform="translate(94.6 184.626437) scale(0.1 -0.1)">
      <defs>
       <path id="DejaVuSans-62" d="M 3116 1747 
Q 3116 2381 2855 2742 
Q 2594 3103 2138 3103 
Q 1681 3103 1420 2742 
Q 1159 2381 1159 1747 
Q 1159 1113 1420 752 
Q 1681 391 2138 391 
Q 2594 391 2855 752 
Q 3116 1113 3116 1747 
z
M 1159 2969 
Q 1341 3281 1617 3432 
Q 1894 3584 2278 3584 
Q 2916 3584 3314 3078 
Q 3713 2572 3713 1747 
Q 3713 922 3314 415 
Q 2916 -91 2278 -91 
Q 1894 -91 1617 61 
Q 1341 213 1159 525 
L 1159 0 
L 581 0 
L 581 4863 
L 1159 4863 
L 1159 2969 
z
" transform="scale(0.015625)"/>
       <path id="DejaVuSans-79" d="M 2059 -325 
Q 1816 -950 1584 -1140 
Q 1353 -1331 966 -1331 
L 506 -1331 
L 506 -850 
L 844 -850 
Q 1081 -850 1212 -737 
Q 1344 -625 1503 -206 
L 1606 56 
L 191 3500 
L 800 3500 
L 1894 763 
L 2988 3500 
L 3597 3500 
L 2059 -325 
z
" transform="scale(0.015625)"/>
      </defs>
      <use xlink:href="#DejaVuSans-62"/>
      <use xlink:href="#DejaVuSans-6f" transform="translate(63.476562 0)"/>
      <use xlink:href="#DejaVuSans-75" transform="translate(124.658203 0)"/>
      <use xlink:href="#DejaVuSans-6e" transform="translate(188.037109 0)"/>
      <use xlink:href="#DejaVuSans-64" transform="translate(251.416016 0)"/>
      <use xlink:href="#DejaVuSans-61" transform="translate(314.892578 0)"/>
      <use xlink:href="#DejaVuSans-72" transform="translate(376.171875 0)"/>
      <use xlink:href="#DejaVuSans-79" transform="translate(417.285156 0)"/>
     </g>
    </g>
   </g>
  </g>
 </g>
 <defs>
  <clipPath id="pcaf0387e2d">
   <rect x="57.6" y="41.472" width="357.12" height="266.112"/>
  </clipPath>
 </defs>
</svg>
