<?xml version="1.0" encoding="utf-8" standalone="no"?>
<!DOCTYPE svg PUBLIC "-//W3C//DTD SVG 1.1//EN"
  "http://www.w3.org/Graphics/SVG/1.1/DTD/svg11.dtd">
<svg xmlns:xlink="http://www.w3.org/1999/xlink" width="329.290125pt" height="300.989344pt" viewBox="0 0 329.290125 300.989344" xmlns="http://www.w3.org/2000/svg" version="1.1">
 <metadata>
  <rdf:RDF xmlns:dc="http://purl.org/dc/elements/1.1/" xmlns:cc="http://creativecommons.org/ns#" xmlns:rdf="http://www.w3.org/1999/02/22-rdf-syntax-ns#">
   <cc:Work>
    <dc:type rdf:resource="http://purl.org/dc/dcmitype/StillImage"/>
    <dc:date>2025-08-30T19:20:43.318501</dc:date>
    <dc:format>image/svg+xml</dc:format>
    <dc:creator>
     <cc:Agent>
      <dc:title>Matplotlib v3.10.5, https://matplotlib.org/</dc:title>
     </cc:Agent>
    </dc:creator>
   </cc:Work>
  </rdf:RDF>
 </metadata>
 <defs>
  <style type="text/css">*{stroke-linejoin: round; stroke-linecap: butt}</style>
 </defs>
 <g id="figure_1">
  <g id="patch_1">
   <path d="M -0 300.989344 
L 329.290125 300.989344 
L 329.290125 0 
L -0 0 
z
" style="fill: #ffffff"/>
  </g>
  <g id="axes_1">
   <g id="patch_2">
    <path d="M 44.845313 277.111219 
L 310.957312 277.111219 
L 310.957312 10.999219 
L 44.845313 10.999219 
z
" style="fill: #d3d3d3; fill-opacity: 0.133333"/>
   </g>
   <g id="matplotlib.axis_1">
    <g id="xtick_1">
     <g id="line2d_1">
      <path d="M 44.845313 277.111219 
L 44.845313 10.999219 
" clip-path="url(#pa960ecec31)" style="fill: none; stroke: #b0b0b0; stroke-width: 0.8; stroke-linecap: square"/>
     </g>
     <g id="line2d_2">
      <defs>
       <path id="m13b1c401b1" d="M 0 0 
L 0 3.5 
" style="stroke: #000000; stroke-width: 0.8"/>
      </defs>
      <g>
       <use xlink:href="#m13b1c401b1" x="44.845313" y="277.111219" style="stroke: #000000; stroke-width: 0.8"/>
      </g>
     </g>
     <g id="text_1">
      <!-- −1.00 -->
      <g transform="translate(29.522656 291.709656) scale(0.1 -0.1)">
       <defs>
        <path id="DejaVuSans-2212" d="M 678 2272 
L 4684 2272 
L 4684 1741 
L 678 1741 
L 678 2272 
z
" transform="scale(0.015625)"/>
        <path id="DejaVuSans-31" d="M 794 531 
L 1825 531 
L 1825 4091 
L 703 3866 
L 703 4441 
L 1819 4666 
L 2450 4666 
L 2450 531 
L 3481 531 
L 3481 0 
L 794 0 
L 794 531 
z
" transform="scale(0.015625)"/>
        <path id="DejaVuSans-2e" d="M 684 794 
L 1344 794 
L 1344 0 
L 684 0 
L 684 794 
z
" transform="scale(0.015625)"/>
        <path id="DejaVuSans-30" d="M 2034 4250 
Q 1547 4250 1301 3770 
Q 1056 3291 1056 2328 
Q 1056 1369 1301 889 
Q 1547 409 2034 409 
Q 2525 409 2770 889 
Q 3016 1369 3016 2328 
Q 3016 3291 2770 3770 
Q 2525 4250 2034 4250 
z
M 2034 4750 
Q 2819 4750 3233 4129 
Q 3647 3509 3647 2328 
Q 3647 1150 3233 529 
Q 2819 -91 2034 -91 
Q 1250 -91 836 529 
Q 422 1150 422 2328 
Q 422 3509 836 4129 
Q 1250 4750 2034 4750 
z
" transform="scale(0.015625)"/>
       </defs>
       <use xlink:href="#DejaVuSans-2212"/>
       <use xlink:href="#DejaVuSans-31" transform="translate(83.789062 0)"/>
       <use xlink:href="#DejaVuSans-2e" transform="translate(147.412109 0)"/>
       <use xlink:href="#DejaVuSans-30" transform="translate(179.199219 0)"/>
       <use xlink:href="#DejaVuSans-30" transform="translate(242.822266 0)"/>
      </g>
     </g>
    </g>
    <g id="xtick_2">
     <g id="line2d_3">
      <path d="M 78.109313 277.111219 
L 78.109313 10.999219 
" clip-path="url(#pa960ecec31)" style="fill: none; stroke: #b0b0b0; stroke-width: 0.8; stroke-linecap: square"/>
     </g>
     <g id="line2d_4">
      <g>
       <use xlink:href="#m13b1c401b1" x="78.109313" y="277.111219" style="stroke: #000000; stroke-width: 0.8"/>
      </g>
     </g>
     <g id="text_2">
      <!-- −0.75 -->
      <g transform="translate(62.786656 291.709656) scale(0.1 -0.1)">
       <defs>
        <path id="DejaVuSans-37" d="M 525 4666 
L 3525 4666 
L 3525 4397 
L 1831 0 
L 1172 0 
L 2766 4134 
L 525 4134 
L 525 4666 
z
" transform="scale(0.015625)"/>
        <path id="DejaVuSans-35" d="M 691 4666 
L 3169 4666 
L 3169 4134 
L 1269 4134 
L 1269 2991 
Q 1406 3038 1543 3061 
Q 1681 3084 1819 3084 
Q 2600 3084 3056 2656 
Q 3513 2228 3513 1497 
Q 3513 744 3044 326 
Q 2575 -91 1722 -91 
Q 1428 -91 1123 -41 
Q 819 9 494 109 
L 494 744 
Q 775 591 1075 516 
Q 1375 441 1709 441 
Q 2250 441 2565 725 
Q 2881 1009 2881 1497 
Q 2881 1984 2565 2268 
Q 2250 2553 1709 2553 
Q 1456 2553 1204 2497 
Q 953 2441 691 2322 
L 691 4666 
z
" transform="scale(0.015625)"/>
       </defs>
       <use xlink:href="#DejaVuSans-2212"/>
       <use xlink:href="#DejaVuSans-30" transform="translate(83.789062 0)"/>
       <use xlink:href="#DejaVuSans-2e" transform="translate(147.412109 0)"/>
       <use xlink:href="#DejaVuSans-37" transform="translate(179.199219 0)"/>
       <use xlink:href="#DejaVuSans-35" transform="translate(242.822266 0)"/>
      </g>
     </g>
    </g>
    <g id="xtick_3">
     <g id="line2d_5">
      <path d="M 111.373312 277.111219 
L 111.373312 10.999219 
" clip-path="url(#pa960ecec31)" style="fill: none; stroke: #b0b0b0; stroke-width: 0.8; stroke-linecap: square"/>
     </g>
     <g id="line2d_6">
      <g>
       <use xlink:href="#m13b1c401b1" x="111.373312" y="277.111219" style="stroke: #000000; stroke-width: 0.8"/>
      </g>
     </g>
     <g id="text_3">
      <!-- −0.50 -->
      <g transform="translate(96.050656 291.709656) scale(0.1 -0.1)">
       <use xlink:href="#DejaVuSans-2212"/>
       <use xlink:href="#DejaVuSans-30" transform="translate(83.789062 0)"/>
       <use xlink:href="#DejaVuSans-2e" transform="translate(147.412109 0)"/>
       <use xlink:href="#DejaVuSans-35" transform="translate(179.199219 0)"/>
       <use xlink:href="#DejaVuSans-30" transform="translate(242.822266 0)"/>
      </g>
     </g>
    </g>
    <g id="xtick_4">
     <g id="line2d_7">
      <path d="M 144.637313 277.111219 
L 144.637313 10.999219 
" clip-path="url(#pa960ecec31)" style="fill: none; stroke: #b0b0b0; stroke-width: 0.8; stroke-linecap: square"/>
     </g>
     <g id="line2d_8">
      <g>
       <use xlink:href="#m13b1c401b1" x="144.637313" y="277.111219" style="stroke: #000000; stroke-width: 0.8"/>
      </g>
     </g>
     <g id="text_4">
      <!-- −0.25 -->
      <g transform="translate(129.314656 291.709656) scale(0.1 -0.1)">
       <defs>
        <path id="DejaVuSans-32" d="M 1228 531 
L 3431 531 
L 3431 0 
L 469 0 
L 469 531 
Q 828 903 1448 1529 
Q 2069 2156 2228 2338 
Q 2531 2678 2651 2914 
Q 2772 3150 2772 3378 
Q 2772 3750 2511 3984 
Q 2250 4219 1831 4219 
Q 1534 4219 1204 4116 
Q 875 4013 500 3803 
L 500 4441 
Q 881 4594 1212 4672 
Q 1544 4750 1819 4750 
Q 2544 4750 2975 4387 
Q 3406 4025 3406 3419 
Q 3406 3131 3298 2873 
Q 3191 2616 2906 2266 
Q 2828 2175 2409 1742 
Q 1991 1309 1228 531 
z
" transform="scale(0.015625)"/>
       </defs>
       <use xlink:href="#DejaVuSans-2212"/>
       <use xlink:href="#DejaVuSans-30" transform="translate(83.789062 0)"/>
       <use xlink:href="#DejaVuSans-2e" transform="translate(147.412109 0)"/>
       <use xlink:href="#DejaVuSans-32" transform="translate(179.199219 0)"/>
       <use xlink:href="#DejaVuSans-35" transform="translate(242.822266 0)"/>
      </g>
     </g>
    </g>
    <g id="xtick_5">
     <g id="line2d_9">
      <path d="M 177.901312 277.111219 
L 177.901312 10.999219 
" clip-path="url(#pa960ecec31)" style="fill: none; stroke: #b0b0b0; stroke-width: 0.8; stroke-linecap: square"/>
     </g>
     <g id="line2d_10">
      <g>
       <use xlink:href="#m13b1c401b1" x="177.901312" y="277.111219" style="stroke: #000000; stroke-width: 0.8"/>
      </g>
     </g>
     <g id="text_5">
      <!-- 0.00 -->
      <g transform="translate(166.7685 291.709656) scale(0.1 -0.1)">
       <use xlink:href="#DejaVuSans-30"/>
       <use xlink:href="#DejaVuSans-2e" transform="translate(63.623047 0)"/>
       <use xlink:href="#DejaVuSans-30" transform="translate(95.410156 0)"/>
       <use xlink:href="#DejaVuSans-30" transform="translate(159.033203 0)"/>
      </g>
     </g>
    </g>
    <g id="xtick_6">
     <g id="line2d_11">
      <path d="M 211.165312 277.111219 
L 211.165312 10.999219 
" clip-path="url(#pa960ecec31)" style="fill: none; stroke: #b0b0b0; stroke-width: 0.8; stroke-linecap: square"/>
     </g>
     <g id="line2d_12">
      <g>
       <use xlink:href="#m13b1c401b1" x="211.165312" y="277.111219" style="stroke: #000000; stroke-width: 0.8"/>
      </g>
     </g>
     <g id="text_6">
      <!-- 0.25 -->
      <g transform="translate(200.0325 291.709656) scale(0.1 -0.1)">
       <use xlink:href="#DejaVuSans-30"/>
       <use xlink:href="#DejaVuSans-2e" transform="translate(63.623047 0)"/>
       <use xlink:href="#DejaVuSans-32" transform="translate(95.410156 0)"/>
       <use xlink:href="#DejaVuSans-35" transform="translate(159.033203 0)"/>
      </g>
     </g>
    </g>
    <g id="xtick_7">
     <g id="line2d_13">
      <path d="M 244.429312 277.111219 
L 244.429312 10.999219 
" clip-path="url(#pa960ecec31)" style="fill: none; stroke: #b0b0b0; stroke-width: 0.8; stroke-linecap: square"/>
     </g>
     <g id="line2d_14">
      <g>
       <use xlink:href="#m13b1c401b1" x="244.429312" y="277.111219" style="stroke: #000000; stroke-width: 0.8"/>
      </g>
     </g>
     <g id="text_7">
      <!-- 0.50 -->
      <g transform="translate(233.2965 291.709656) scale(0.1 -0.1)">
       <use xlink:href="#DejaVuSans-30"/>
       <use xlink:href="#DejaVuSans-2e" transform="translate(63.623047 0)"/>
       <use xlink:href="#DejaVuSans-35" transform="translate(95.410156 0)"/>
       <use xlink:href="#DejaVuSans-30" transform="translate(159.033203 0)"/>
      </g>
     </g>
    </g>
    <g id="xtick_8">
     <g id="line2d_15">
      <path d="M 277.693312 277.111219 
L 277.693312 10.999219 
" clip-path="url(#pa960ecec31)" style="fill: none; stroke: #b0b0b0; stroke-width: 0.8; stroke-linecap: square"/>
     </g>
     <g id="line2d_16">
      <g>
       <use xlink:href="#m13b1c401b1" x="277.693312" y="277.111219" style="stroke: #000000; stroke-width: 0.8"/>
      </g>
     </g>
     <g id="text_8">
      <!-- 0.75 -->
      <g transform="translate(266.5605 291.709656) scale(0.1 -0.1)">
       <use xlink:href="#DejaVuSans-30"/>
       <use xlink:href="#DejaVuSans-2e" transform="translate(63.623047 0)"/>
       <use xlink:href="#DejaVuSans-37" transform="translate(95.410156 0)"/>
       <use xlink:href="#DejaVuSans-35" transform="translate(159.033203 0)"/>
      </g>
     </g>
    </g>
    <g id="xtick_9">
     <g id="line2d_17">
      <path d="M 310.957312 277.111219 
L 310.957312 10.999219 
" clip-path="url(#pa960ecec31)" style="fill: none; stroke: #b0b0b0; stroke-width: 0.8; stroke-linecap: square"/>
     </g>
     <g id="line2d_18">
      <g>
       <use xlink:href="#m13b1c401b1" x="310.957312" y="277.111219" style="stroke: #000000; stroke-width: 0.8"/>
      </g>
     </g>
     <g id="text_9">
      <!-- 1.00 -->
      <g transform="translate(299.8245 291.709656) scale(0.1 -0.1)">
       <use xlink:href="#DejaVuSans-31"/>
       <use xlink:href="#DejaVuSans-2e" transform="translate(63.623047 0)"/>
       <use xlink:href="#DejaVuSans-30" transform="translate(95.410156 0)"/>
       <use xlink:href="#DejaVuSans-30" transform="translate(159.033203 0)"/>
      </g>
     </g>
    </g>
   </g>
   <g id="matplotlib.axis_2">
    <g id="ytick_1">
     <g id="line2d_19">
      <path d="M 44.845313 277.111219 
L 310.957312 277.111219 
" clip-path="url(#pa960ecec31)" style="fill: none; stroke: #b0b0b0; stroke-width: 0.8; stroke-linecap: square"/>
     </g>
     <g id="line2d_20">
      <defs>
       <path id="mc138965b9b" d="M 0 0 
L -3.5 0 
" style="stroke: #000000; stroke-width: 0.8"/>
      </defs>
      <g>
       <use xlink:href="#mc138965b9b" x="44.845313" y="277.111219" style="stroke: #000000; stroke-width: 0.8"/>
      </g>
     </g>
     <g id="text_10">
      <!-- −1.00 -->
      <g transform="translate(7.2 280.910437) scale(0.1 -0.1)">
       <use xlink:href="#DejaVuSans-2212"/>
       <use xlink:href="#DejaVuSans-31" transform="translate(83.789062 0)"/>
       <use xlink:href="#DejaVuSans-2e" transform="translate(147.412109 0)"/>
       <use xlink:href="#DejaVuSans-30" transform="translate(179.199219 0)"/>
       <use xlink:href="#DejaVuSans-30" transform="translate(242.822266 0)"/>
      </g>
     </g>
    </g>
    <g id="ytick_2">
     <g id="line2d_21">
      <path d="M 44.845313 243.847219 
L 310.957312 243.847219 
" clip-path="url(#pa960ecec31)" style="fill: none; stroke: #b0b0b0; stroke-width: 0.8; stroke-linecap: square"/>
     </g>
     <g id="line2d_22">
      <g>
       <use xlink:href="#mc138965b9b" x="44.845313" y="243.847219" style="stroke: #000000; stroke-width: 0.8"/>
      </g>
     </g>
     <g id="text_11">
      <!-- −0.75 -->
      <g transform="translate(7.2 247.646437) scale(0.1 -0.1)">
       <use xlink:href="#DejaVuSans-2212"/>
       <use xlink:href="#DejaVuSans-30" transform="translate(83.789062 0)"/>
       <use xlink:href="#DejaVuSans-2e" transform="translate(147.412109 0)"/>
       <use xlink:href="#DejaVuSans-37" transform="translate(179.199219 0)"/>
       <use xlink:href="#DejaVuSans-35" transform="translate(242.822266 0)"/>
      </g>
     </g>
    </g>
    <g id="ytick_3">
     <g id="line2d_23">
      <path d="M 44.845313 210.583219 
L 310.957312 210.583219 
" clip-path="url(#pa960ecec31)" style="fill: none; stroke: #b0b0b0; stroke-width: 0.8; stroke-linecap: square"/>
     </g>
     <g id="line2d_24">
      <g>
       <use xlink:href="#mc138965b9b" x="44.845313" y="210.583219" style="stroke: #000000; stroke-width: 0.8"/>
      </g>
     </g>
     <g id="text_12">
      <!-- −0.50 -->
      <g transform="translate(7.2 214.382437) scale(0.1 -0.1)">
       <use xlink:href="#DejaVuSans-2212"/>
       <use xlink:href="#DejaVuSans-30" transform="translate(83.789062 0)"/>
       <use xlink:href="#DejaVuSans-2e" transform="translate(147.412109 0)"/>
       <use xlink:href="#DejaVuSans-35" transform="translate(179.199219 0)"/>
       <use xlink:href="#DejaVuSans-30" transform="translate(242.822266 0)"/>
      </g>
     </g>
    </g>
    <g id="ytick_4">
     <g id="line2d_25">
      <path d="M 44.845313 177.319219 
L 310.957312 177.319219 
" clip-path="url(#pa960ecec31)" style="fill: none; stroke: #b0b0b0; stroke-width: 0.8; stroke-linecap: square"/>
     </g>
     <g id="line2d_26">
      <g>
       <use xlink:href="#mc138965b9b" x="44.845313" y="177.319219" style="stroke: #000000; stroke-width: 0.8"/>
      </g>
     </g>
     <g id="text_13">
      <!-- −0.25 -->
      <g transform="translate(7.2 181.118437) scale(0.1 -0.1)">
       <use xlink:href="#DejaVuSans-2212"/>
       <use xlink:href="#DejaVuSans-30" transform="translate(83.789062 0)"/>
       <use xlink:href="#DejaVuSans-2e" transform="translate(147.412109 0)"/>
       <use xlink:href="#DejaVuSans-32" transform="translate(179.199219 0)"/>
       <use xlink:href="#DejaVuSans-35" transform="translate(242.822266 0)"/>
      </g>
     </g>
    </g>
    <g id="ytick_5">
     <g id="line2d_27">
      <path d="M 44.845313 144.055219 
L 310.957312 144.055219 
" clip-path="url(#pa960ecec31)" style="fill: none; stroke: #b0b0b0; stroke-width: 0.8; stroke-linecap: square"/>
     </g>
     <g id="line2d_28">
      <g>
       <use xlink:href="#mc138965b9b" x="44.845313" y="144.055219" style="stroke: #000000; stroke-width: 0.8"/>
      </g>
     </g>
     <g id="text_14">
      <!-- 0.00 -->
      <g transform="translate(15.579688 147.854437) scale(0.1 -0.1)">
       <use xlink:href="#DejaVuSans-30"/>
       <use xlink:href="#DejaVuSans-2e" transform="translate(63.623047 0)"/>
       <use xlink:href="#DejaVuSans-30" transform="translate(95.410156 0)"/>
       <use xlink:href="#DejaVuSans-30" transform="translate(159.033203 0)"/>
      </g>
     </g>
    </g>
    <g id="ytick_6">
     <g id="line2d_29">
      <path d="M 44.845313 110.791219 
L 310.957312 110.791219 
" clip-path="url(#pa960ecec31)" style="fill: none; stroke: #b0b0b0; stroke-width: 0.8; stroke-linecap: square"/>
     </g>
     <g id="line2d_30">
      <g>
       <use xlink:href="#mc138965b9b" x="44.845313" y="110.791219" style="stroke: #000000; stroke-width: 0.8"/>
      </g>
     </g>
     <g id="text_15">
      <!-- 0.25 -->
      <g transform="translate(15.579688 114.590437) scale(0.1 -0.1)">
       <use xlink:href="#DejaVuSans-30"/>
       <use xlink:href="#DejaVuSans-2e" transform="translate(63.623047 0)"/>
       <use xlink:href="#DejaVuSans-32" transform="translate(95.410156 0)"/>
       <use xlink:href="#DejaVuSans-35" transform="translate(159.033203 0)"/>
      </g>
     </g>
    </g>
    <g id="ytick_7">
     <g id="line2d_31">
      <path d="M 44.845313 77.527219 
L 310.957312 77.527219 
" clip-path="url(#pa960ecec31)" style="fill: none; stroke: #b0b0b0; stroke-width: 0.8; stroke-linecap: square"/>
     </g>
     <g id="line2d_32">
      <g>
       <use xlink:href="#mc138965b9b" x="44.845313" y="77.527219" style="stroke: #000000; stroke-width: 0.8"/>
      </g>
     </g>
     <g id="text_16">
      <!-- 0.50 -->
      <g transform="translate(15.579688 81.326437) scale(0.1 -0.1)">
       <use xlink:href="#DejaVuSans-30"/>
       <use xlink:href="#DejaVuSans-2e" transform="translate(63.623047 0)"/>
       <use xlink:href="#DejaVuSans-35" transform="translate(95.410156 0)"/>
       <use xlink:href="#DejaVuSans-30" transform="translate(159.033203 0)"/>
      </g>
     </g>
    </g>
    <g id="ytick_8">
     <g id="line2d_33">
      <path d="M 44.845313 44.263219 
L 310.957312 44.263219 
" clip-path="url(#pa960ecec31)" style="fill: none; stroke: #b0b0b0; stroke-width: 0.8; stroke-linecap: square"/>
     </g>
     <g id="line2d_34">
      <g>
       <use xlink:href="#mc138965b9b" x="44.845313" y="44.263219" style="stroke: #000000; stroke-width: 0.8"/>
      </g>
     </g>
     <g id="text_17">
      <!-- 0.75 -->
      <g transform="translate(15.579688 48.062437) scale(0.1 -0.1)">
       <use xlink:href="#DejaVuSans-30"/>
       <use xlink:href="#DejaVuSans-2e" transform="translate(63.623047 0)"/>
       <use xlink:href="#DejaVuSans-37" transform="translate(95.410156 0)"/>
       <use xlink:href="#DejaVuSans-35" transform="translate(159.033203 0)"/>
      </g>
     </g>
    </g>
    <g id="ytick_9">
     <g id="line2d_35">
      <path d="M 44.845313 10.999219 
L 310.957312 10.999219 
" clip-path="url(#pa960ecec31)" style="fill: none; stroke: #b0b0b0; stroke-width: 0.8; stroke-linecap: square"/>
     </g>
     <g id="line2d_36">
      <g>
       <use xlink:href="#mc138965b9b" x="44.845313" y="10.999219" style="stroke: #000000; stroke-width: 0.8"/>
      </g>
     </g>
     <g id="text_18">
      <!-- 1.00 -->
      <g transform="translate(15.579688 14.798437) scale(0.1 -0.1)">
       <use xlink:href="#DejaVuSans-31"/>
       <use xlink:href="#DejaVuSans-2e" transform="translate(63.623047 0)"/>
       <use xlink:href="#DejaVuSans-30" transform="translate(95.410156 0)"/>
       <use xlink:href="#DejaVuSans-30" transform="translate(159.033203 0)"/>
      </g>
     </g>
    </g>
   </g>
   <g id="QuadContourSet_1">
    <path clip-path="url(#pa960ecec31)" style="fill: none; stroke: #440154; stroke-width: 1.5"/>
    <path d="M 175.637096 170.569918 
L 173.239691 170.254932 
L 170.842285 169.713071 
L 168.44488 168.929521 
L 166.313853 168.011083 
L 164.13788 166.83057 
L 162.051799 165.43147 
L 160.172174 163.900408 
L 158.322502 162.078011 
L 156.930559 160.437489 
L 155.599049 158.57284 
L 154.326826 156.39994 
L 153.261312 154.10587 
L 152.462177 151.865261 
L 151.856438 149.515976 
L 151.467023 147.11857 
L 151.298447 144.721165 
L 151.346502 142.323759 
L 151.612376 139.926354 
L 152.102809 137.528948 
L 152.83097 135.131543 
L 153.794069 132.786342 
L 154.859583 130.742766 
L 156.191475 128.665951 
L 157.580134 126.873813 
L 159.316462 125.009165 
L 161.109731 123.410894 
L 163.117312 121.928675 
L 165.24834 120.644656 
L 167.379367 119.612582 
L 169.776772 118.714614 
L 172.174177 118.067612 
L 174.571583 117.653162 
L 176.968988 117.460356 
L 179.366394 117.48438 
L 181.763799 117.725828 
L 184.161204 118.190788 
L 186.55861 118.891616 
L 188.689637 119.728971 
L 190.820664 120.790567 
L 192.951691 122.108925 
L 195.015266 123.677273 
L 196.755295 125.275543 
L 198.444707 127.140192 
L 199.877529 129.048713 
L 201.209421 131.214787 
L 202.274934 133.374949 
L 203.154965 135.6643 
L 203.828774 138.061705 
L 204.268407 140.459111 
L 204.4855 142.856516 
L 204.4855 145.253921 
L 204.268407 147.651327 
L 203.828774 150.048732 
L 203.154965 152.446138 
L 202.274934 154.735489 
L 201.209421 156.895651 
L 200.027856 158.839219 
L 198.545637 160.8468 
L 196.947367 162.640069 
L 195.082718 164.376397 
L 193.218069 165.816406 
L 191.087042 167.169912 
L 188.956015 168.261554 
L 186.824988 169.125561 
L 184.427583 169.853722 
L 182.030177 170.344155 
L 179.632772 170.610029 
L 177.235367 170.658085 
L 175.637096 170.569918 
L 175.637096 170.569918 
" clip-path="url(#pa960ecec31)" style="fill: none; stroke: #472d7b; stroke-width: 1.5"/>
    <path d="M 175.10434 197.204074 
L 171.641421 196.908199 
L 168.178502 196.381987 
L 164.715583 195.618385 
L 161.519042 194.693578 
L 158.322502 193.545542 
L 155.080171 192.136516 
L 151.929421 190.510392 
L 148.887315 188.673597 
L 146.069096 186.708799 
L 143.405312 184.584752 
L 140.868336 182.280516 
L 138.544229 179.883111 
L 136.274868 177.219327 
L 134.285376 174.555543 
L 132.376534 171.625381 
L 130.726207 168.695219 
L 129.189925 165.498678 
L 127.904587 162.302138 
L 126.851246 159.105597 
L 125.955631 155.642678 
L 125.302685 152.179759 
L 124.883457 148.71684 
L 124.692413 145.253921 
L 124.727097 141.791003 
L 124.987952 138.328084 
L 125.478356 134.865165 
L 126.204841 131.402246 
L 127.156231 128.006905 
L 128.221745 124.961885 
L 129.553637 121.803831 
L 131.152256 118.616084 
L 132.870192 115.685921 
L 134.855226 112.755759 
L 136.9243 110.091976 
L 139.143258 107.580188 
L 141.540664 105.189821 
L 144.204448 102.858842 
L 146.935281 100.768732 
L 149.798394 98.857354 
L 152.728556 97.162232 
L 155.925096 95.581857 
L 159.121637 94.256168 
L 162.318177 93.165257 
L 165.724494 92.244624 
L 168.977637 91.586262 
L 172.440556 91.113705 
L 175.903475 90.870329 
L 179.366394 90.852988 
L 182.829312 91.061459 
L 186.292231 91.49843 
L 189.75515 92.169675 
L 193.081516 93.043759 
L 196.286381 94.109273 
L 199.344772 95.343832 
L 202.541312 96.880113 
L 205.647695 98.637705 
L 208.491527 100.502354 
L 211.065421 102.428774 
L 213.801847 104.764408 
L 216.261343 107.161813 
L 218.524015 109.669032 
L 220.655042 112.357727 
L 222.592374 115.153165 
L 224.38434 118.13334 
L 226.004392 121.279867 
L 227.391635 124.476408 
L 228.539672 127.672948 
L 229.464479 130.869489 
L 230.228081 134.332408 
L 230.754293 137.795327 
L 231.050168 141.258246 
L 231.119546 144.721165 
L 230.963316 148.184084 
L 230.579471 151.647003 
L 229.96298 155.109921 
L 229.105428 158.57284 
L 228.089276 161.769381 
L 226.843773 164.965921 
L 225.350878 168.162462 
L 223.744504 171.092624 
L 221.884985 174.022786 
L 219.855907 176.80312 
L 217.72488 179.363935 
L 215.327475 181.895641 
L 212.907268 184.145165 
L 210.266285 186.306015 
L 207.336123 188.397242 
L 204.405961 190.208488 
L 201.475799 191.771717 
L 198.279258 193.221899 
L 195.082718 194.428043 
L 191.886177 195.407399 
L 188.423258 196.227164 
L 184.96034 196.80741 
L 181.497421 197.155989 
L 178.034502 197.277452 
L 175.10434 197.204074 
L 175.10434 197.204074 
" clip-path="url(#pa960ecec31)" style="fill: none; stroke: #3b528b; stroke-width: 1.5"/>
    <path d="M 175.10434 223.839808 
L 174.988219 223.835543 
L 174.837961 223.830024 
L 174.571583 223.81935 
L 174.305204 223.807784 
L 174.038826 223.795327 
L 173.772448 223.781978 
L 173.506069 223.767736 
L 173.239691 223.752602 
L 172.973312 223.736574 
L 172.706934 223.719653 
L 172.440556 223.701837 
L 172.174177 223.683125 
L 171.907799 223.663519 
L 171.641421 223.643015 
L 171.375042 223.621615 
L 171.108664 223.599317 
L 170.842285 223.57612 
L 170.765373 223.569165 
L 170.575907 223.552024 
L 170.309529 223.527028 
L 170.04315 223.50113 
L 169.776772 223.474331 
L 169.510394 223.446629 
L 169.244015 223.418023 
L 168.977637 223.388513 
L 168.711258 223.358097 
L 168.44488 223.326774 
L 168.246603 223.302786 
L 168.178502 223.294544 
L 167.912123 223.261403 
L 167.645745 223.227353 
L 167.379367 223.192391 
L 167.112988 223.156517 
L 166.84661 223.11973 
L 166.580231 223.082028 
L 166.313853 223.04341 
L 166.266652 223.036408 
L 166.047475 223.003873 
L 165.781096 222.963417 
L 165.514718 222.92204 
L 165.24834 222.879742 
L 164.981961 222.836522 
L 164.715583 222.792377 
L 164.583467 222.77003 
L 164.449204 222.747304 
L 164.182826 222.701302 
L 163.916448 222.654371 
L 163.650069 222.606509 
L 163.383691 222.557715 
L 163.117312 222.507988 
L 163.094497 222.503651 
L 162.850934 222.45732 
L 162.584556 222.405714 
L 162.318177 222.353168 
L 162.051799 222.299683 
L 161.785421 222.245254 
L 161.747003 222.237273 
L 161.519042 222.189875 
L 161.252664 222.133548 
L 160.986285 222.076272 
L 160.719907 222.018047 
L 160.507629 221.970894 
L 160.453529 221.958867 
L 160.18715 221.898725 
L 159.920772 221.837626 
L 159.654394 221.775569 
L 159.388015 221.712552 
L 159.354535 221.704516 
L 159.121637 221.648561 
L 158.855258 221.583604 
L 158.58888 221.517679 
L 158.322502 221.450785 
L 158.272827 221.438138 
L 158.056123 221.382907 
L 157.789745 221.314053 
L 157.523367 221.244221 
L 157.256988 221.173411 
L 157.250855 221.171759 
L 156.99061 221.101603 
L 156.724231 221.02881 
L 156.457853 220.95503 
L 156.280915 220.905381 
L 156.191475 220.880255 
L 155.925096 220.804475 
L 155.658718 220.7277 
L 155.39234 220.649929 
L 155.355361 220.639003 
L 155.125961 220.571138 
L 154.859583 220.491342 
L 154.593204 220.41054 
L 154.469684 220.372624 
L 154.326826 220.328716 
L 154.060448 220.24587 
L 153.794069 220.162008 
L 153.619005 220.106246 
L 153.527691 220.077121 
L 153.261312 219.991195 
L 152.994934 219.904245 
L 152.799955 219.839867 
L 152.728556 219.81626 
L 152.462177 219.727224 
L 152.195799 219.637154 
L 152.009592 219.573489 
L 151.929421 219.546038 
L 151.663042 219.453859 
L 151.396664 219.360637 
L 151.245338 219.307111 
L 151.130285 219.266353 
L 150.863907 219.170998 
L 150.597529 219.074591 
L 150.504921 219.040732 
L 150.33115 218.9771 
L 150.064772 218.878535 
L 149.798394 218.778906 
L 149.786337 218.774354 
L 149.532015 218.678168 
L 149.265637 218.576357 
L 149.088521 218.507976 
L 148.999258 218.473455 
L 148.73288 218.369443 
L 148.466502 218.264348 
L 148.409371 218.241597 
L 148.200123 218.158126 
L 147.933745 218.050803 
L 147.747964 217.975219 
L 147.667367 217.94237 
L 147.400988 217.832799 
L 147.13461 217.722126 
L 147.102913 217.70884 
L 146.868231 217.610294 
L 146.601853 217.497344 
L 146.473598 217.442462 
L 146.335475 217.383246 
L 146.069096 217.267999 
L 145.858639 217.176084 
L 145.802718 217.151614 
L 145.53634 217.034047 
L 145.269961 216.915347 
L 145.257403 216.909705 
L 145.003583 216.795442 
L 144.737204 216.674392 
L 144.669413 216.643327 
L 144.470826 216.552139 
L 144.204448 216.428715 
L 144.093666 216.376948 
L 143.938069 216.304089 
L 143.671691 216.178268 
L 143.529585 216.11057 
L 143.405312 216.051242 
L 143.138934 215.923 
L 142.976631 215.844192 
L 142.872556 215.793547 
L 142.606177 215.662859 
L 142.434298 215.577813 
L 142.339799 215.530952 
L 142.073421 215.397792 
L 141.902113 215.311435 
L 141.807042 215.263401 
L 141.540664 215.127743 
L 141.379631 215.045057 
L 141.274285 214.990839 
L 141.007907 214.852657 
L 140.866436 214.778678 
L 140.741529 214.713207 
L 140.47515 214.572474 
L 140.362134 214.5123 
L 140.208772 214.430447 
L 139.942394 214.287135 
L 139.866358 214.245921 
L 139.676015 214.142496 
L 139.409637 213.996577 
L 139.378761 213.979543 
L 139.143258 213.849293 
L 138.899132 213.713165 
L 138.87688 213.700725 
L 138.610502 213.550771 
L 138.427238 213.446786 
L 138.344123 213.399504 
L 138.077745 213.246865 
L 137.962624 213.180408 
L 137.811367 213.09286 
L 137.544988 212.937505 
L 137.505011 212.91403 
L 137.27861 212.780724 
L 137.054343 212.647651 
L 137.012231 212.622595 
L 136.745853 212.463024 
L 136.610381 212.381273 
L 136.479475 212.302058 
L 136.213096 212.139686 
L 136.172694 212.114894 
L 135.946718 211.97584 
L 135.741338 211.848516 
L 135.68034 211.810593 
L 135.413961 211.643865 
L 135.31602 211.582138 
L 135.147583 211.475671 
L 134.896421 211.315759 
L 134.881204 211.306042 
L 134.614826 211.134867 
L 134.482729 211.049381 
L 134.348448 210.962221 
L 134.082069 210.788098 
L 134.074321 210.783003 
L 133.815691 210.612387 
L 133.671537 210.516624 
L 133.549312 210.435179 
L 133.282934 210.256454 
L 133.273737 210.250246 
L 133.016556 210.076104 
L 132.881263 209.983867 
L 132.750177 209.894216 
L 132.493513 209.717489 
L 132.483799 209.710779 
L 132.217421 209.525678 
L 132.110816 209.451111 
L 131.951042 209.338989 
L 131.732674 209.184732 
L 131.684664 209.150706 
L 131.418285 208.960755 
L 131.359188 208.918354 
L 131.151907 208.769134 
L 130.990209 208.651976 
L 130.885529 208.575872 
L 130.625473 208.385597 
L 130.61915 208.380955 
L 130.352772 208.184271 
L 130.265218 208.119219 
L 130.086394 207.985891 
L 129.909052 207.85284 
L 129.820015 207.785805 
L 129.556879 207.586462 
L 129.553637 207.583997 
L 129.287258 207.380355 
L 129.208897 207.320084 
L 129.02088 207.17495 
L 128.864758 207.053705 
L 128.754502 206.967768 
L 128.524383 206.787327 
L 128.488123 206.75879 
L 128.221745 206.547952 
L 128.187819 206.520948 
L 127.955367 206.335234 
L 127.854991 206.25457 
L 127.688988 206.120661 
L 127.525719 205.988192 
L 127.42261 205.904213 
L 127.199942 205.721813 
L 127.156231 205.685869 
L 126.889853 205.465589 
L 126.877639 205.455435 
L 126.623475 205.243308 
L 126.558836 205.189057 
L 126.357096 205.019066 
L 126.243341 204.922678 
L 126.090718 204.792839 
L 125.931101 204.6563 
L 125.82434 204.564604 
L 125.622063 204.389921 
L 125.557961 204.334338 
L 125.316175 204.123543 
L 125.291583 204.102015 
L 125.025204 203.86759 
L 125.013419 203.857165 
L 124.758826 203.631017 
L 124.713773 203.590786 
L 124.492448 203.392314 
L 124.417119 203.324408 
L 124.226069 203.151451 
L 124.12341 203.05803 
L 123.959691 202.908402 
L 123.832601 202.791651 
L 123.693312 202.663138 
L 123.544647 202.525273 
L 123.426934 202.415632 
L 123.259506 202.258894 
L 123.160556 202.165852 
L 122.977135 201.992516 
L 122.894177 201.913768 
L 122.697493 201.726138 
L 122.627799 201.659351 
L 122.42054 201.459759 
L 122.361421 201.402567 
L 122.146237 201.193381 
L 122.095042 201.143384 
L 121.874544 200.927003 
L 121.828664 200.881769 
L 121.605425 200.660624 
L 121.562285 200.617688 
L 121.338843 200.394246 
L 121.295907 200.351106 
L 121.074762 200.127867 
L 121.029529 200.081987 
L 120.813147 199.861489 
L 120.76315 199.810294 
L 120.553965 199.595111 
L 120.496772 199.535991 
L 120.297181 199.328732 
L 120.230394 199.259038 
L 120.042763 199.062354 
L 119.964015 198.979396 
L 119.79068 198.795976 
L 119.697637 198.697025 
L 119.5409 198.529597 
L 119.431258 198.411884 
L 119.293393 198.263219 
L 119.16488 198.123931 
L 119.048129 197.99684 
L 118.898502 197.833122 
L 118.80508 197.730462 
L 118.632123 197.539412 
L 118.564218 197.464084 
L 118.365745 197.242758 
L 118.325514 197.197705 
L 118.099367 196.943112 
L 118.088942 196.931327 
L 117.854516 196.664948 
L 117.832988 196.640357 
L 117.622193 196.39857 
L 117.56661 196.334468 
L 117.391927 196.132192 
L 117.300231 196.02543 
L 117.163692 195.865813 
L 117.033853 195.71319 
L 116.937466 195.599435 
L 116.767475 195.397696 
L 116.713223 195.333057 
L 116.501096 195.078893 
L 116.490942 195.066678 
L 116.270662 194.8003 
L 116.234718 194.756589 
L 116.052318 194.533921 
L 115.96834 194.430812 
L 115.83587 194.267543 
L 115.701961 194.10154 
L 115.621297 194.001165 
L 115.435583 193.768713 
L 115.408579 193.734786 
L 115.197741 193.468408 
L 115.169204 193.432148 
L 114.988764 193.20203 
L 114.902826 193.091773 
L 114.781582 192.935651 
L 114.636448 192.747634 
L 114.576177 192.669273 
L 114.372534 192.402894 
L 114.370069 192.399653 
L 114.170726 192.136516 
L 114.103691 192.047479 
L 113.97064 191.870138 
L 113.837312 191.691313 
L 113.77226 191.603759 
L 113.575576 191.337381 
L 113.570934 191.331059 
L 113.380659 191.071003 
L 113.304556 190.966322 
L 113.187398 190.804624 
L 113.038177 190.597343 
L 112.995776 190.538246 
L 112.805826 190.271867 
L 112.771799 190.223857 
L 112.617543 190.005489 
L 112.505421 189.845715 
L 112.430853 189.739111 
L 112.245752 189.472732 
L 112.239042 189.463018 
L 112.062315 189.206354 
L 111.972664 189.075269 
L 111.880428 188.939976 
L 111.706285 188.682794 
L 111.700078 188.673597 
L 111.521352 188.407219 
L 111.439907 188.284995 
L 111.344144 188.14084 
L 111.173529 187.88221 
L 111.168433 187.874462 
L 110.99431 187.608084 
L 110.90715 187.473803 
L 110.821664 187.341705 
L 110.650489 187.075327 
L 110.640772 187.06011 
L 110.48086 186.808948 
L 110.374394 186.640511 
L 110.312666 186.54257 
L 110.145939 186.276192 
L 110.108015 186.215194 
L 109.980691 186.009813 
L 109.841637 185.783837 
L 109.816845 185.743435 
L 109.654473 185.477057 
L 109.575258 185.34615 
L 109.493507 185.210678 
L 109.333936 184.9443 
L 109.30888 184.902188 
L 109.175807 184.677921 
L 109.042502 184.45152 
L 109.019027 184.411543 
L 108.863671 184.145165 
L 108.776123 183.993907 
L 108.709667 183.878786 
L 108.557027 183.612408 
L 108.509745 183.529293 
L 108.40576 183.34603 
L 108.255806 183.079651 
L 108.243367 183.0574 
L 108.107239 182.813273 
L 107.976988 182.57777 
L 107.959954 182.546894 
L 107.814035 182.280516 
L 107.71061 182.090173 
L 107.669396 182.014138 
L 107.526085 181.747759 
L 107.444231 181.594397 
L 107.384057 181.481381 
L 107.243324 181.215003 
L 107.177853 181.090096 
L 107.103874 180.948624 
L 106.965693 180.682246 
L 106.911475 180.5769 
L 106.828788 180.415867 
L 106.69313 180.149489 
L 106.645096 180.054418 
L 106.558739 179.883111 
L 106.42558 179.616732 
L 106.378718 179.522233 
L 106.293672 179.350354 
L 106.162984 179.083976 
L 106.11234 178.9799 
L 106.033532 178.817597 
L 105.905289 178.551219 
L 105.845961 178.426946 
L 105.778263 178.28484 
L 105.652442 178.018462 
L 105.579583 177.862865 
L 105.527816 177.752084 
L 105.404392 177.485705 
L 105.313204 177.287118 
L 105.282139 177.219327 
L 105.161089 176.952948 
L 105.046826 176.699128 
L 105.041184 176.68657 
L 104.922485 176.420192 
L 104.804918 176.153813 
L 104.780448 176.097892 
L 104.688533 175.887435 
L 104.573285 175.621057 
L 104.514069 175.482933 
L 104.459187 175.354678 
L 104.346237 175.0883 
L 104.247691 174.853618 
L 104.234405 174.821921 
L 104.123732 174.555543 
L 104.014161 174.289165 
L 103.981313 174.208568 
L 103.905728 174.022786 
L 103.798405 173.756408 
L 103.714934 173.547161 
L 103.692183 173.49003 
L 103.587089 173.223651 
L 103.483076 172.957273 
L 103.448556 172.86801 
L 103.380174 172.690894 
L 103.278363 172.424516 
L 103.182177 172.170194 
L 103.177625 172.158138 
L 103.077996 171.891759 
L 102.979431 171.625381 
L 102.915799 171.45161 
L 102.881941 171.359003 
L 102.785533 171.092624 
L 102.690178 170.826246 
L 102.649421 170.711193 
L 102.595894 170.559867 
L 102.502672 170.293489 
L 102.410493 170.027111 
L 102.383042 169.946939 
L 102.319377 169.760732 
L 102.229308 169.494354 
L 102.140271 169.227976 
L 102.116664 169.156577 
L 102.052287 168.961597 
L 101.965337 168.695219 
L 101.87941 168.42884 
L 101.850285 168.337526 
L 101.794523 168.162462 
L 101.710662 167.896084 
L 101.627815 167.629705 
L 101.583907 167.486847 
L 101.545991 167.363327 
L 101.465189 167.096948 
L 101.385393 166.83057 
L 101.317529 166.601171 
L 101.306602 166.564192 
L 101.228831 166.297813 
L 101.152056 166.031435 
L 101.076276 165.765057 
L 101.05115 165.675616 
L 101.001501 165.498678 
L 100.927722 165.2323 
L 100.854929 164.965921 
L 100.784772 164.705676 
L 100.783121 164.699543 
L 100.71231 164.433165 
L 100.642479 164.166786 
L 100.573624 163.900408 
L 100.518394 163.683704 
L 100.505746 163.63403 
L 100.438852 163.367651 
L 100.372927 163.101273 
L 100.30797 162.834894 
L 100.252015 162.601996 
L 100.243979 162.568516 
L 100.180962 162.302138 
L 100.118905 162.035759 
L 100.057806 161.769381 
L 99.997664 161.503003 
L 99.985637 161.448902 
L 99.938485 161.236624 
L 99.880259 160.970246 
L 99.822984 160.703867 
L 99.766656 160.437489 
L 99.719258 160.209528 
L 99.711277 160.171111 
L 99.656849 159.904732 
L 99.603363 159.638354 
L 99.550818 159.371976 
L 99.499212 159.105597 
L 99.45288 158.862034 
L 99.448543 158.839219 
L 99.398816 158.57284 
L 99.350022 158.306462 
L 99.30216 158.040084 
L 99.255229 157.773705 
L 99.209227 157.507327 
L 99.186502 157.373064 
L 99.164154 157.240948 
L 99.12001 156.97457 
L 99.076789 156.708192 
L 99.034491 156.441813 
L 98.993114 156.175435 
L 98.952658 155.909057 
L 98.920123 155.689879 
L 98.913121 155.642678 
L 98.874503 155.3763 
L 98.836801 155.109921 
L 98.800014 154.843543 
L 98.76414 154.577165 
L 98.729179 154.310786 
L 98.695128 154.044408 
L 98.661988 153.77803 
L 98.653745 153.709928 
L 98.629757 153.511651 
L 98.598435 153.245273 
L 98.568019 152.978894 
L 98.538508 152.712516 
L 98.509903 152.446138 
L 98.4822 152.179759 
L 98.455401 151.913381 
L 98.429504 151.647003 
L 98.404507 151.380624 
L 98.387367 151.191158 
L 98.380411 151.114246 
L 98.357214 150.847867 
L 98.334916 150.581489 
L 98.313516 150.315111 
L 98.293013 150.048732 
L 98.273406 149.782354 
L 98.254695 149.515976 
L 98.236878 149.249597 
L 98.219957 148.983219 
L 98.203929 148.71684 
L 98.188795 148.450462 
L 98.174553 148.184084 
L 98.161204 147.917705 
L 98.148747 147.651327 
L 98.137182 147.384948 
L 98.126507 147.11857 
L 98.120988 146.968312 
L 98.116724 146.852192 
L 98.10783 146.585813 
L 98.099827 146.319435 
L 98.092714 146.053057 
L 98.086491 145.786678 
L 98.081157 145.5203 
L 98.076712 145.253921 
L 98.073157 144.987543 
L 98.07049 144.721165 
L 98.068712 144.454786 
L 98.067824 144.188408 
L 98.067824 143.92203 
L 98.068712 143.655651 
L 98.07049 143.389273 
L 98.073157 143.122894 
L 98.076712 142.856516 
L 98.081157 142.590138 
L 98.086491 142.323759 
L 98.092714 142.057381 
L 98.099827 141.791003 
L 98.10783 141.524624 
L 98.116724 141.258246 
L 98.120988 141.142125 
L 98.126507 140.991867 
L 98.137182 140.725489 
L 98.148747 140.459111 
L 98.161204 140.192732 
L 98.174553 139.926354 
L 98.188795 139.659976 
L 98.203929 139.393597 
L 98.219957 139.127219 
L 98.236878 138.86084 
L 98.254695 138.594462 
L 98.273406 138.328084 
L 98.293013 138.061705 
L 98.313516 137.795327 
L 98.334916 137.528948 
L 98.357214 137.26257 
L 98.380411 136.996192 
L 98.387367 136.919279 
L 98.404507 136.729813 
L 98.429504 136.463435 
L 98.455401 136.197057 
L 98.4822 135.930678 
L 98.509903 135.6643 
L 98.538508 135.397921 
L 98.568019 135.131543 
L 98.598435 134.865165 
L 98.629757 134.598786 
L 98.653745 134.400509 
L 98.661988 134.332408 
L 98.695128 134.06603 
L 98.729179 133.799651 
L 98.76414 133.533273 
L 98.800014 133.266894 
L 98.836801 133.000516 
L 98.874503 132.734138 
L 98.913121 132.467759 
L 98.920123 132.420558 
L 98.952658 132.201381 
L 98.993114 131.935003 
L 99.034491 131.668624 
L 99.076789 131.402246 
L 99.12001 131.135867 
L 99.164154 130.869489 
L 99.186502 130.737373 
L 99.209227 130.603111 
L 99.255229 130.336732 
L 99.30216 130.070354 
L 99.350022 129.803976 
L 99.398816 129.537597 
L 99.448543 129.271219 
L 99.45288 129.248404 
L 99.499212 129.00484 
L 99.550818 128.738462 
L 99.603363 128.472084 
L 99.656849 128.205705 
L 99.711277 127.939327 
L 99.719258 127.900909 
L 99.766656 127.672948 
L 99.822984 127.40657 
L 99.880259 127.140192 
L 99.938485 126.873813 
L 99.985637 126.661535 
L 99.997664 126.607435 
L 100.057806 126.341057 
L 100.118905 126.074678 
L 100.180962 125.8083 
L 100.243979 125.541921 
L 100.252015 125.508442 
L 100.30797 125.275543 
L 100.372927 125.009165 
L 100.438852 124.742786 
L 100.505746 124.476408 
L 100.518394 124.426733 
L 100.573624 124.21003 
L 100.642479 123.943651 
L 100.71231 123.677273 
L 100.783121 123.410894 
L 100.784772 123.404762 
L 100.854929 123.144516 
L 100.927722 122.878138 
L 101.001501 122.611759 
L 101.05115 122.434821 
L 101.076276 122.345381 
L 101.152056 122.079003 
L 101.228831 121.812624 
L 101.306602 121.546246 
L 101.317529 121.509267 
L 101.385393 121.279867 
L 101.465189 121.013489 
L 101.545991 120.747111 
L 101.583907 120.623591 
L 101.627815 120.480732 
L 101.710662 120.214354 
L 101.794523 119.947976 
L 101.850285 119.772911 
L 101.87941 119.681597 
L 101.965337 119.415219 
L 102.052287 119.14884 
L 102.116664 118.953861 
L 102.140271 118.882462 
L 102.229308 118.616084 
L 102.319377 118.349705 
L 102.383042 118.163498 
L 102.410493 118.083327 
L 102.502672 117.816948 
L 102.595894 117.55057 
L 102.649421 117.399244 
L 102.690178 117.284192 
L 102.785533 117.017813 
L 102.881941 116.751435 
L 102.915799 116.658827 
L 102.979431 116.485057 
L 103.077996 116.218678 
L 103.177625 115.9523 
L 103.182177 115.940243 
L 103.278363 115.685921 
L 103.380174 115.419543 
L 103.448556 115.242427 
L 103.483076 115.153165 
L 103.587089 114.886786 
L 103.692183 114.620408 
L 103.714934 114.563277 
L 103.798405 114.35403 
L 103.905728 114.087651 
L 103.981313 113.90187 
L 104.014161 113.821273 
L 104.123732 113.554894 
L 104.234405 113.288516 
L 104.247691 113.25682 
L 104.346237 113.022138 
L 104.459187 112.755759 
L 104.514069 112.627504 
L 104.573285 112.489381 
L 104.688533 112.223003 
L 104.780448 112.012545 
L 104.804918 111.956624 
L 104.922485 111.690246 
L 105.041184 111.423867 
L 105.046826 111.411309 
L 105.161089 111.157489 
L 105.282139 110.891111 
L 105.313204 110.823319 
L 105.404392 110.624732 
L 105.527816 110.358354 
L 105.579583 110.247572 
L 105.652442 110.091976 
L 105.778263 109.825597 
L 105.845961 109.683491 
L 105.905289 109.559219 
L 106.033532 109.29284 
L 106.11234 109.130537 
L 106.162984 109.026462 
L 106.293672 108.760084 
L 106.378718 108.588204 
L 106.42558 108.493705 
L 106.558739 108.227327 
L 106.645096 108.056019 
L 106.69313 107.960948 
L 106.828788 107.69457 
L 106.911475 107.533538 
L 106.965693 107.428192 
L 107.103874 107.161813 
L 107.177853 107.020342 
L 107.243324 106.895435 
L 107.384057 106.629057 
L 107.444231 106.51604 
L 107.526085 106.362678 
L 107.669396 106.0963 
L 107.71061 106.020264 
L 107.814035 105.829921 
L 107.959954 105.563543 
L 107.976988 105.532667 
L 108.107239 105.297165 
L 108.243367 105.053038 
L 108.255806 105.030786 
L 108.40576 104.764408 
L 108.509745 104.581145 
L 108.557027 104.49803 
L 108.709667 104.231651 
L 108.776123 104.11653 
L 108.863671 103.965273 
L 109.019027 103.698894 
L 109.042502 103.658918 
L 109.175807 103.432516 
L 109.30888 103.208249 
L 109.333936 103.166138 
L 109.493507 102.899759 
L 109.575258 102.764287 
L 109.654473 102.633381 
L 109.816845 102.367003 
L 109.841637 102.3266 
L 109.980691 102.100624 
L 110.108015 101.895244 
L 110.145939 101.834246 
L 110.312666 101.567867 
L 110.374394 101.469927 
L 110.48086 101.301489 
L 110.640772 101.050328 
L 110.650489 101.035111 
L 110.821664 100.768732 
L 110.90715 100.636635 
L 110.99431 100.502354 
L 111.168433 100.235976 
L 111.173529 100.228227 
L 111.344144 99.969597 
L 111.439907 99.825443 
L 111.521352 99.703219 
L 111.700078 99.43684 
L 111.706285 99.427644 
L 111.880428 99.170462 
L 111.972664 99.035169 
L 112.062315 98.904084 
L 112.239042 98.647419 
L 112.245752 98.637705 
L 112.430853 98.371327 
L 112.505421 98.264722 
L 112.617543 98.104948 
L 112.771799 97.88658 
L 112.805826 97.83857 
L 112.995776 97.572192 
L 113.038177 97.513095 
L 113.187398 97.305813 
L 113.304556 97.144115 
L 113.380659 97.039435 
L 113.570934 96.779379 
L 113.575576 96.773057 
L 113.77226 96.506678 
L 113.837312 96.419124 
L 113.97064 96.2403 
L 114.103691 96.062958 
L 114.170726 95.973921 
L 114.370069 95.710785 
L 114.372534 95.707543 
L 114.576177 95.441165 
L 114.636448 95.362803 
L 114.781582 95.174786 
L 114.902826 95.018664 
L 114.988764 94.908408 
L 115.169204 94.67829 
L 115.197741 94.64203 
L 115.408579 94.375651 
L 115.435583 94.341725 
L 115.621297 94.109273 
L 115.701961 94.008897 
L 115.83587 93.842894 
L 115.96834 93.679625 
L 116.052318 93.576516 
L 116.234718 93.353848 
L 116.270662 93.310138 
L 116.490942 93.043759 
L 116.501096 93.031545 
L 116.713223 92.777381 
L 116.767475 92.712742 
L 116.937466 92.511003 
L 117.033853 92.397248 
L 117.163692 92.244624 
L 117.300231 92.085008 
L 117.391927 91.978246 
L 117.56661 91.775969 
L 117.622193 91.711867 
L 117.832988 91.470081 
L 117.854516 91.445489 
L 118.088942 91.179111 
L 118.099367 91.167325 
L 118.325514 90.912732 
L 118.365745 90.867679 
L 118.564218 90.646354 
L 118.632123 90.571025 
L 118.80508 90.379976 
L 118.898502 90.277316 
L 119.048129 90.113597 
L 119.16488 89.986507 
L 119.293393 89.847219 
L 119.431258 89.698553 
L 119.5409 89.58084 
L 119.697637 89.413412 
L 119.79068 89.314462 
L 119.964015 89.131041 
L 120.042763 89.048084 
L 120.230394 88.8514 
L 120.297181 88.781705 
L 120.496772 88.574447 
L 120.553965 88.515327 
L 120.76315 88.300143 
L 120.813147 88.248948 
L 121.029529 88.028451 
L 121.074762 87.98257 
L 121.295907 87.759332 
L 121.338843 87.716192 
L 121.562285 87.492749 
L 121.605425 87.449813 
L 121.828664 87.228668 
L 121.874544 87.183435 
L 122.095042 86.967054 
L 122.146237 86.917057 
L 122.361421 86.707871 
L 122.42054 86.650678 
L 122.627799 86.451087 
L 122.697493 86.3843 
L 122.894177 86.196669 
L 122.977135 86.117921 
L 123.160556 85.944586 
L 123.259506 85.851543 
L 123.426934 85.694806 
L 123.544647 85.585165 
L 123.693312 85.447299 
L 123.832601 85.318786 
L 123.959691 85.202036 
L 124.12341 85.052408 
L 124.226069 84.958987 
L 124.417119 84.78603 
L 124.492448 84.718124 
L 124.713773 84.519651 
L 124.758826 84.47942 
L 125.013419 84.253273 
L 125.025204 84.242848 
L 125.291583 84.008423 
L 125.316175 83.986894 
L 125.557961 83.7761 
L 125.622063 83.720516 
L 125.82434 83.545833 
L 125.931101 83.454138 
L 126.090718 83.317599 
L 126.243341 83.187759 
L 126.357096 83.091372 
L 126.558836 82.921381 
L 126.623475 82.867129 
L 126.877639 82.655003 
L 126.889853 82.644848 
L 127.156231 82.424568 
L 127.199942 82.388624 
L 127.42261 82.206224 
L 127.525719 82.122246 
L 127.688988 81.989776 
L 127.854991 81.855867 
L 127.955367 81.775203 
L 128.187819 81.589489 
L 128.221745 81.562485 
L 128.488123 81.351648 
L 128.524383 81.323111 
L 128.754502 81.14267 
L 128.864758 81.056732 
L 129.02088 80.935488 
L 129.208897 80.790354 
L 129.287258 80.730083 
L 129.553637 80.52644 
L 129.556879 80.523976 
L 129.820015 80.324632 
L 129.909052 80.257597 
L 130.086394 80.124547 
L 130.265218 79.991219 
L 130.352772 79.926167 
L 130.61915 79.729482 
L 130.625473 79.72484 
L 130.885529 79.534565 
L 130.990209 79.458462 
L 131.151907 79.341304 
L 131.359188 79.192084 
L 131.418285 79.149682 
L 131.684664 78.959732 
L 131.732674 78.925705 
L 131.951042 78.771449 
L 132.110816 78.659327 
L 132.217421 78.58476 
L 132.483799 78.399659 
L 132.493513 78.392948 
L 132.750177 78.216221 
L 132.881263 78.12657 
L 133.016556 78.034334 
L 133.273737 77.860192 
L 133.282934 77.853984 
L 133.549312 77.675258 
L 133.671537 77.593813 
L 133.815691 77.49805 
L 134.074321 77.327435 
L 134.082069 77.322339 
L 134.348448 77.148216 
L 134.482729 77.061057 
L 134.614826 76.97557 
L 134.881204 76.804395 
L 134.896421 76.794678 
L 135.147583 76.634766 
L 135.31602 76.5283 
L 135.413961 76.466573 
L 135.68034 76.299845 
L 135.741338 76.261921 
L 135.946718 76.134597 
L 136.172694 75.995543 
L 136.213096 75.970751 
L 136.479475 75.80838 
L 136.610381 75.729165 
L 136.745853 75.647413 
L 137.012231 75.487842 
L 137.054343 75.462786 
L 137.27861 75.329713 
L 137.505011 75.196408 
L 137.544988 75.172933 
L 137.811367 75.017577 
L 137.962624 74.93003 
L 138.077745 74.863573 
L 138.344123 74.710933 
L 138.427238 74.663651 
L 138.610502 74.559666 
L 138.87688 74.409712 
L 138.899132 74.397273 
L 139.143258 74.261145 
L 139.378761 74.130894 
L 139.409637 74.11386 
L 139.676015 73.967941 
L 139.866358 73.864516 
L 139.942394 73.823302 
L 140.208772 73.679991 
L 140.362134 73.598138 
L 140.47515 73.537963 
L 140.741529 73.39723 
L 140.866436 73.331759 
L 141.007907 73.25778 
L 141.274285 73.119599 
L 141.379631 73.065381 
L 141.540664 72.982694 
L 141.807042 72.847037 
L 141.902113 72.799003 
L 142.073421 72.712646 
L 142.339799 72.579486 
L 142.434298 72.532624 
L 142.606177 72.447579 
L 142.872556 72.31689 
L 142.976631 72.266246 
L 143.138934 72.187438 
L 143.405312 72.059195 
L 143.529585 71.999867 
L 143.671691 71.93217 
L 143.938069 71.806349 
L 144.093666 71.733489 
L 144.204448 71.681722 
L 144.470826 71.558298 
L 144.669413 71.467111 
L 144.737204 71.436045 
L 145.003583 71.314995 
L 145.257403 71.200732 
L 145.269961 71.19509 
L 145.53634 71.076391 
L 145.802718 70.958824 
L 145.858639 70.934354 
L 146.069096 70.842439 
L 146.335475 70.727191 
L 146.473598 70.667976 
L 146.601853 70.613094 
L 146.868231 70.500144 
L 147.102913 70.401597 
L 147.13461 70.388312 
L 147.400988 70.277639 
L 147.667367 70.168068 
L 147.747964 70.135219 
L 147.933745 70.059634 
L 148.200123 69.952311 
L 148.409371 69.86884 
L 148.466502 69.84609 
L 148.73288 69.740995 
L 148.999258 69.636982 
L 149.088521 69.602462 
L 149.265637 69.534081 
L 149.532015 69.432269 
L 149.786337 69.336084 
L 149.798394 69.331531 
L 150.064772 69.231903 
L 150.33115 69.133337 
L 150.504921 69.069705 
L 150.597529 69.035847 
L 150.863907 68.939439 
L 151.130285 68.844084 
L 151.245338 68.803327 
L 151.396664 68.7498 
L 151.663042 68.656578 
L 151.929421 68.564399 
L 152.009592 68.536948 
L 152.195799 68.473284 
L 152.462177 68.383214 
L 152.728556 68.294177 
L 152.799955 68.27057 
L 152.994934 68.206193 
L 153.261312 68.119243 
L 153.527691 68.033317 
L 153.619005 68.004192 
L 153.794069 67.948429 
L 154.060448 67.864568 
L 154.326826 67.781721 
L 154.469684 67.737813 
L 154.593204 67.699898 
L 154.859583 67.619096 
L 155.125961 67.539299 
L 155.355361 67.471435 
L 155.39234 67.460509 
L 155.658718 67.382737 
L 155.925096 67.305962 
L 156.191475 67.230183 
L 156.280915 67.205057 
L 156.457853 67.155408 
L 156.724231 67.081628 
L 156.99061 67.008835 
L 157.250855 66.938678 
L 157.256988 66.937027 
L 157.523367 66.866216 
L 157.789745 66.796385 
L 158.056123 66.72753 
L 158.272827 66.6723 
L 158.322502 66.659653 
L 158.58888 66.592758 
L 158.855258 66.526834 
L 159.121637 66.461876 
L 159.354535 66.405921 
L 159.388015 66.397886 
L 159.654394 66.334868 
L 159.920772 66.272811 
L 160.18715 66.211713 
L 160.453529 66.151571 
L 160.507629 66.139543 
L 160.719907 66.092391 
L 160.986285 66.034165 
L 161.252664 65.97689 
L 161.519042 65.920563 
L 161.747003 65.873165 
L 161.785421 65.865183 
L 162.051799 65.810755 
L 162.318177 65.757269 
L 162.584556 65.704724 
L 162.850934 65.653118 
L 163.094497 65.606786 
L 163.117312 65.60245 
L 163.383691 65.552722 
L 163.650069 65.503928 
L 163.916448 65.456067 
L 164.182826 65.409135 
L 164.449204 65.363133 
L 164.583467 65.340408 
L 164.715583 65.318061 
L 164.981961 65.273916 
L 165.24834 65.230695 
L 165.514718 65.188397 
L 165.781096 65.147021 
L 166.047475 65.106564 
L 166.266652 65.07403 
L 166.313853 65.067027 
L 166.580231 65.028409 
L 166.84661 64.990707 
L 167.112988 64.95392 
L 167.379367 64.918046 
L 167.645745 64.883085 
L 167.912123 64.849034 
L 168.178502 64.815894 
L 168.246603 64.807651 
L 168.44488 64.783663 
L 168.711258 64.752341 
L 168.977637 64.721925 
L 169.244015 64.692415 
L 169.510394 64.663809 
L 169.776772 64.636107 
L 170.04315 64.609307 
L 170.309529 64.58341 
L 170.575907 64.558413 
L 170.765373 64.541273 
L 170.842285 64.534317 
L 171.108664 64.511121 
L 171.375042 64.488823 
L 171.641421 64.467422 
L 171.907799 64.446919 
L 172.174177 64.427312 
L 172.440556 64.408601 
L 172.706934 64.390785 
L 172.973312 64.373863 
L 173.239691 64.357835 
L 173.506069 64.342701 
L 173.772448 64.32846 
L 174.038826 64.31511 
L 174.305204 64.302653 
L 174.571583 64.291088 
L 174.837961 64.280413 
L 174.988219 64.274894 
L 175.10434 64.27063 
L 175.370718 64.261737 
L 175.637096 64.253734 
L 175.903475 64.246621 
L 176.169853 64.240397 
L 176.436231 64.235063 
L 176.70261 64.230619 
L 176.968988 64.227063 
L 177.235367 64.224396 
L 177.501745 64.222619 
L 177.768123 64.22173 
L 178.034502 64.22173 
L 178.30088 64.222619 
L 178.567258 64.224396 
L 178.833637 64.227063 
L 179.100015 64.230619 
L 179.366394 64.235063 
L 179.632772 64.240397 
L 179.89915 64.246621 
L 180.165529 64.253734 
L 180.431907 64.261737 
L 180.698285 64.27063 
L 180.814406 64.274894 
L 180.964664 64.280413 
L 181.231042 64.291088 
L 181.497421 64.302653 
L 181.763799 64.31511 
L 182.030177 64.32846 
L 182.296556 64.342701 
L 182.562934 64.357835 
L 182.829312 64.373863 
L 183.095691 64.390785 
L 183.362069 64.408601 
L 183.628448 64.427312 
L 183.894826 64.446919 
L 184.161204 64.467422 
L 184.427583 64.488823 
L 184.693961 64.511121 
L 184.96034 64.534317 
L 185.037252 64.541273 
L 185.226718 64.558413 
L 185.493096 64.58341 
L 185.759475 64.609307 
L 186.025853 64.636107 
L 186.292231 64.663809 
L 186.55861 64.692415 
L 186.824988 64.721925 
L 187.091367 64.752341 
L 187.357745 64.783663 
L 187.556022 64.807651 
L 187.624123 64.815894 
L 187.890502 64.849034 
L 188.15688 64.883085 
L 188.423258 64.918046 
L 188.689637 64.95392 
L 188.956015 64.990707 
L 189.222394 65.028409 
L 189.488772 65.067027 
L 189.535973 65.07403 
L 189.75515 65.106564 
L 190.021529 65.147021 
L 190.287907 65.188397 
L 190.554285 65.230695 
L 190.820664 65.273916 
L 191.087042 65.318061 
L 191.219158 65.340408 
L 191.353421 65.363133 
L 191.619799 65.409135 
L 191.886177 65.456067 
L 192.152556 65.503928 
L 192.418934 65.552722 
L 192.685312 65.60245 
L 192.708128 65.606786 
L 192.951691 65.653118 
L 193.218069 65.704724 
L 193.484448 65.757269 
L 193.750826 65.810755 
L 194.017204 65.865183 
L 194.055622 65.873165 
L 194.283583 65.920563 
L 194.549961 65.97689 
L 194.81634 66.034165 
L 195.082718 66.092391 
L 195.294996 66.139543 
L 195.349096 66.151571 
L 195.615475 66.211713 
L 195.881853 66.272811 
L 196.148231 66.334868 
L 196.41461 66.397886 
L 196.44809 66.405921 
L 196.680988 66.461876 
L 196.947367 66.526834 
L 197.213745 66.592758 
L 197.480123 66.659653 
L 197.529798 66.6723 
L 197.746502 66.72753 
L 198.01288 66.796385 
L 198.279258 66.866216 
L 198.545637 66.937027 
L 198.55177 66.938678 
L 198.812015 67.008835 
L 199.078394 67.081628 
L 199.344772 67.155408 
L 199.52171 67.205057 
L 199.61115 67.230183 
L 199.877529 67.305962 
L 200.143907 67.382737 
L 200.410285 67.460509 
L 200.447264 67.471435 
L 200.676664 67.539299 
L 200.943042 67.619096 
L 201.209421 67.699898 
L 201.332941 67.737813 
L 201.475799 67.781721 
L 201.742177 67.864568 
L 202.008556 67.948429 
L 202.18362 68.004192 
L 202.274934 68.033317 
L 202.541312 68.119243 
L 202.807691 68.206193 
L 203.00267 68.27057 
L 203.074069 68.294177 
L 203.340448 68.383214 
L 203.606826 68.473284 
L 203.793033 68.536948 
L 203.873204 68.564399 
L 204.139583 68.656578 
L 204.405961 68.7498 
L 204.557287 68.803327 
L 204.67234 68.844084 
L 204.938718 68.939439 
L 205.205096 69.035847 
L 205.297704 69.069705 
L 205.471475 69.133337 
L 205.737853 69.231903 
L 206.004231 69.331531 
L 206.016288 69.336084 
L 206.27061 69.432269 
L 206.536988 69.534081 
L 206.714104 69.602462 
L 206.803367 69.636982 
L 207.069745 69.740995 
L 207.336123 69.84609 
L 207.393254 69.86884 
L 207.602502 69.952311 
L 207.86888 70.059634 
L 208.054661 70.135219 
L 208.135258 70.168068 
L 208.401637 70.277639 
L 208.668015 70.388312 
L 208.699712 70.401597 
L 208.934394 70.500144 
L 209.200772 70.613094 
L 209.329027 70.667976 
L 209.46715 70.727191 
L 209.733529 70.842439 
L 209.943986 70.934354 
L 209.999907 70.958824 
L 210.266285 71.076391 
L 210.532664 71.19509 
L 210.545222 71.200732 
L 210.799042 71.314995 
L 211.065421 71.436045 
L 211.133212 71.467111 
L 211.331799 71.558298 
L 211.598177 71.681722 
L 211.708959 71.733489 
L 211.864556 71.806349 
L 212.130934 71.93217 
L 212.27304 71.999867 
L 212.397312 72.059195 
L 212.663691 72.187438 
L 212.825994 72.266246 
L 212.930069 72.31689 
L 213.196448 72.447579 
L 213.368327 72.532624 
L 213.462826 72.579486 
L 213.729204 72.712646 
L 213.900512 72.799003 
L 213.995583 72.847037 
L 214.261961 72.982694 
L 214.422994 73.065381 
L 214.52834 73.119599 
L 214.794718 73.25778 
L 214.936189 73.331759 
L 215.061096 73.39723 
L 215.327475 73.537963 
L 215.440491 73.598138 
L 215.593853 73.679991 
L 215.860231 73.823302 
L 215.936267 73.864516 
L 216.12661 73.967941 
L 216.392988 74.11386 
L 216.423864 74.130894 
L 216.659367 74.261145 
L 216.903493 74.397273 
L 216.925745 74.409712 
L 217.192123 74.559666 
L 217.375387 74.663651 
L 217.458502 74.710933 
L 217.72488 74.863573 
L 217.840001 74.93003 
L 217.991258 75.017577 
L 218.257637 75.172933 
L 218.297614 75.196408 
L 218.524015 75.329713 
L 218.748282 75.462786 
L 218.790394 75.487842 
L 219.056772 75.647413 
L 219.192244 75.729165 
L 219.32315 75.80838 
L 219.589529 75.970751 
L 219.629931 75.995543 
L 219.855907 76.134597 
L 220.061287 76.261921 
L 220.122285 76.299845 
L 220.388664 76.466573 
L 220.486605 76.5283 
L 220.655042 76.634766 
L 220.906204 76.794678 
L 220.921421 76.804395 
L 221.187799 76.97557 
L 221.319896 77.061057 
L 221.454177 77.148216 
L 221.720556 77.322339 
L 221.728304 77.327435 
L 221.986934 77.49805 
L 222.131088 77.593813 
L 222.253312 77.675258 
L 222.519691 77.853984 
L 222.528888 77.860192 
L 222.786069 78.034334 
L 222.921362 78.12657 
L 223.052448 78.216221 
L 223.309112 78.392948 
L 223.318826 78.399659 
L 223.585204 78.58476 
L 223.691809 78.659327 
L 223.851583 78.771449 
L 224.069951 78.925705 
L 224.117961 78.959732 
L 224.38434 79.149682 
L 224.443437 79.192084 
L 224.650718 79.341304 
L 224.812416 79.458462 
L 224.917096 79.534565 
L 225.177152 79.72484 
L 225.183475 79.729482 
L 225.449853 79.926167 
L 225.537407 79.991219 
L 225.716231 80.124547 
L 225.893573 80.257597 
L 225.98261 80.324632 
L 226.245746 80.523976 
L 226.248988 80.52644 
L 226.515367 80.730083 
L 226.593728 80.790354 
L 226.781745 80.935488 
L 226.937867 81.056732 
L 227.048123 81.14267 
L 227.278242 81.323111 
L 227.314502 81.351648 
L 227.58088 81.562485 
L 227.614806 81.589489 
L 227.847258 81.775203 
L 227.947634 81.855867 
L 228.113637 81.989776 
L 228.276906 82.122246 
L 228.380015 82.206224 
L 228.602683 82.388624 
L 228.646394 82.424568 
L 228.912772 82.644848 
L 228.924986 82.655003 
L 229.17915 82.867129 
L 229.243789 82.921381 
L 229.445529 83.091372 
L 229.559284 83.187759 
L 229.711907 83.317599 
L 229.871524 83.454138 
L 229.978285 83.545833 
L 230.180562 83.720516 
L 230.244664 83.7761 
L 230.48645 83.986894 
L 230.511042 84.008423 
L 230.777421 84.242848 
L 230.789206 84.253273 
L 231.043799 84.47942 
L 231.088852 84.519651 
L 231.310177 84.718124 
L 231.385506 84.78603 
L 231.576556 84.958987 
L 231.679215 85.052408 
L 231.842934 85.202036 
L 231.970024 85.318786 
L 232.109312 85.447299 
L 232.257978 85.585165 
L 232.375691 85.694806 
L 232.543119 85.851543 
L 232.642069 85.944586 
L 232.82549 86.117921 
L 232.908448 86.196669 
L 233.105132 86.3843 
L 233.174826 86.451087 
L 233.382085 86.650678 
L 233.441204 86.707871 
L 233.656388 86.917057 
L 233.707583 86.967054 
L 233.928081 87.183435 
L 233.973961 87.228668 
L 234.1972 87.449813 
L 234.24034 87.492749 
L 234.463782 87.716192 
L 234.506718 87.759332 
L 234.727863 87.98257 
L 234.773096 88.028451 
L 234.989478 88.248948 
L 235.039475 88.300143 
L 235.24866 88.515327 
L 235.305853 88.574447 
L 235.505444 88.781705 
L 235.572231 88.8514 
L 235.759862 89.048084 
L 235.83861 89.131041 
L 236.011945 89.314462 
L 236.104988 89.413412 
L 236.261725 89.58084 
L 236.371367 89.698553 
L 236.509232 89.847219 
L 236.637745 89.986507 
L 236.754496 90.113597 
L 236.904123 90.277316 
L 236.997545 90.379976 
L 237.170502 90.571025 
L 237.238407 90.646354 
L 237.43688 90.867679 
L 237.477111 90.912732 
L 237.703258 91.167325 
L 237.713683 91.179111 
L 237.948109 91.445489 
L 237.969637 91.470081 
L 238.180432 91.711867 
L 238.236015 91.775969 
L 238.410698 91.978246 
L 238.502394 92.085008 
L 238.638933 92.244624 
L 238.768772 92.397248 
L 238.865159 92.511003 
L 239.03515 92.712742 
L 239.089402 92.777381 
L 239.301529 93.031545 
L 239.311683 93.043759 
L 239.531963 93.310138 
L 239.567907 93.353848 
L 239.750307 93.576516 
L 239.834285 93.679625 
L 239.966755 93.842894 
L 240.100664 94.008897 
L 240.181328 94.109273 
L 240.367042 94.341725 
L 240.394046 94.375651 
L 240.604884 94.64203 
L 240.633421 94.67829 
L 240.813861 94.908408 
L 240.899799 95.018664 
L 241.021043 95.174786 
L 241.166177 95.362803 
L 241.226448 95.441165 
L 241.430091 95.707543 
L 241.432556 95.710785 
L 241.631899 95.973921 
L 241.698934 96.062958 
L 241.831985 96.2403 
L 241.965312 96.419124 
L 242.030365 96.506678 
L 242.227049 96.773057 
L 242.231691 96.779379 
L 242.421966 97.039435 
L 242.498069 97.144115 
L 242.615227 97.305813 
L 242.764448 97.513095 
L 242.806849 97.572192 
L 242.996799 97.83857 
L 243.030826 97.88658 
L 243.185082 98.104948 
L 243.297204 98.264722 
L 243.371772 98.371327 
L 243.556873 98.637705 
L 243.563583 98.647419 
L 243.74031 98.904084 
L 243.829961 99.035169 
L 243.922197 99.170462 
L 244.09634 99.427644 
L 244.102547 99.43684 
L 244.281273 99.703219 
L 244.362718 99.825443 
L 244.458481 99.969597 
L 244.629096 100.228227 
L 244.634192 100.235976 
L 244.808315 100.502354 
L 244.895475 100.636635 
L 244.980961 100.768732 
L 245.152136 101.035111 
L 245.161853 101.050328 
L 245.321765 101.301489 
L 245.428231 101.469927 
L 245.489959 101.567867 
L 245.656686 101.834246 
L 245.69461 101.895244 
L 245.821934 102.100624 
L 245.960988 102.3266 
L 245.98578 102.367003 
L 246.148152 102.633381 
L 246.227367 102.764287 
L 246.309118 102.899759 
L 246.468689 103.166138 
L 246.493745 103.208249 
L 246.626818 103.432516 
L 246.760123 103.658918 
L 246.783598 103.698894 
L 246.938954 103.965273 
L 247.026502 104.11653 
L 247.092958 104.231651 
L 247.245598 104.49803 
L 247.29288 104.581145 
L 247.396865 104.764408 
L 247.546819 105.030786 
L 247.559258 105.053038 
L 247.695386 105.297165 
L 247.825637 105.532667 
L 247.842671 105.563543 
L 247.98859 105.829921 
L 248.092015 106.020264 
L 248.133229 106.0963 
L 248.27654 106.362678 
L 248.358394 106.51604 
L 248.418568 106.629057 
L 248.559301 106.895435 
L 248.624772 107.020342 
L 248.698751 107.161813 
L 248.836932 107.428192 
L 248.89115 107.533538 
L 248.973837 107.69457 
L 249.109495 107.960948 
L 249.157529 108.056019 
L 249.243886 108.227327 
L 249.377045 108.493705 
L 249.423907 108.588204 
L 249.508953 108.760084 
L 249.639641 109.026462 
L 249.690285 109.130537 
L 249.769093 109.29284 
L 249.897336 109.559219 
L 249.956664 109.683491 
L 250.024362 109.825597 
L 250.150183 110.091976 
L 250.223042 110.247572 
L 250.274809 110.358354 
L 250.398233 110.624732 
L 250.489421 110.823319 
L 250.520486 110.891111 
L 250.641536 111.157489 
L 250.755799 111.411309 
L 250.761441 111.423867 
L 250.88014 111.690246 
L 250.997707 111.956624 
L 251.022177 112.012545 
L 251.114092 112.223003 
L 251.22934 112.489381 
L 251.288556 112.627504 
L 251.343438 112.755759 
L 251.456388 113.022138 
L 251.554934 113.25682 
L 251.56822 113.288516 
L 251.678893 113.554894 
L 251.788464 113.821273 
L 251.821312 113.90187 
L 251.896897 114.087651 
L 252.00422 114.35403 
L 252.087691 114.563277 
L 252.110442 114.620408 
L 252.215536 114.886786 
L 252.319549 115.153165 
L 252.354069 115.242427 
L 252.422451 115.419543 
L 252.524262 115.685921 
L 252.620448 115.940243 
L 252.625 115.9523 
L 252.724629 116.218678 
L 252.823194 116.485057 
L 252.886826 116.658827 
L 252.920684 116.751435 
L 253.017092 117.017813 
L 253.112447 117.284192 
L 253.153204 117.399244 
L 253.206731 117.55057 
L 253.299953 117.816948 
L 253.392132 118.083327 
L 253.419583 118.163498 
L 253.483248 118.349705 
L 253.573317 118.616084 
L 253.662354 118.882462 
L 253.685961 118.953861 
L 253.750338 119.14884 
L 253.837288 119.415219 
L 253.923215 119.681597 
L 253.95234 119.772911 
L 254.008102 119.947976 
L 254.091963 120.214354 
L 254.17481 120.480732 
L 254.218718 120.623591 
L 254.256634 120.747111 
L 254.337436 121.013489 
L 254.417232 121.279867 
L 254.485096 121.509267 
L 254.496023 121.546246 
L 254.573794 121.812624 
L 254.650569 122.079003 
L 254.726349 122.345381 
L 254.751475 122.434821 
L 254.801124 122.611759 
L 254.874903 122.878138 
L 254.947696 123.144516 
L 255.017853 123.404762 
L 255.019504 123.410894 
L 255.090315 123.677273 
L 255.160146 123.943651 
L 255.229001 124.21003 
L 255.284231 124.426733 
L 255.296879 124.476408 
L 255.363773 124.742786 
L 255.429698 125.009165 
L 255.494655 125.275543 
L 255.55061 125.508442 
L 255.558646 125.541921 
L 255.621663 125.8083 
L 255.68372 126.074678 
L 255.744819 126.341057 
L 255.804961 126.607435 
L 255.816988 126.661535 
L 255.86414 126.873813 
L 255.922366 127.140192 
L 255.979641 127.40657 
L 256.035969 127.672948 
L 256.083367 127.900909 
L 256.091348 127.939327 
L 256.145776 128.205705 
L 256.199262 128.472084 
L 256.251807 128.738462 
L 256.303413 129.00484 
L 256.349745 129.248404 
L 256.354082 129.271219 
L 256.403809 129.537597 
L 256.452603 129.803976 
L 256.500465 130.070354 
L 256.547396 130.336732 
L 256.593398 130.603111 
L 256.616123 130.737373 
L 256.638471 130.869489 
L 256.682615 131.135867 
L 256.725836 131.402246 
L 256.768134 131.668624 
L 256.809511 131.935003 
L 256.849967 132.201381 
L 256.882502 132.420558 
L 256.889504 132.467759 
L 256.928122 132.734138 
L 256.965824 133.000516 
L 257.002611 133.266894 
L 257.038485 133.533273 
L 257.073446 133.799651 
L 257.107497 134.06603 
L 257.140637 134.332408 
L 257.14888 134.400509 
L 257.172868 134.598786 
L 257.20419 134.865165 
L 257.234606 135.131543 
L 257.264117 135.397921 
L 257.292722 135.6643 
L 257.320425 135.930678 
L 257.347224 136.197057 
L 257.373121 136.463435 
L 257.398118 136.729813 
L 257.415258 136.919279 
L 257.422214 136.996192 
L 257.445411 137.26257 
L 257.467709 137.528948 
L 257.489109 137.795327 
L 257.509612 138.061705 
L 257.529219 138.328084 
L 257.54793 138.594462 
L 257.565747 138.86084 
L 257.582668 139.127219 
L 257.598696 139.393597 
L 257.61383 139.659976 
L 257.628072 139.926354 
L 257.641421 140.192732 
L 257.653878 140.459111 
L 257.665443 140.725489 
L 257.676118 140.991867 
L 257.681637 141.142125 
L 257.685901 141.258246 
L 257.694795 141.524624 
L 257.702798 141.791003 
L 257.709911 142.057381 
L 257.716134 142.323759 
L 257.721468 142.590138 
L 257.725913 142.856516 
L 257.729468 143.122894 
L 257.732135 143.389273 
L 257.733913 143.655651 
L 257.734801 143.92203 
L 257.734801 144.188408 
L 257.733913 144.454786 
L 257.732135 144.721165 
L 257.729468 144.987543 
L 257.725913 145.253921 
L 257.721468 145.5203 
L 257.716134 145.786678 
L 257.709911 146.053057 
L 257.702798 146.319435 
L 257.694795 146.585813 
L 257.685901 146.852192 
L 257.681637 146.968312 
L 257.676118 147.11857 
L 257.665443 147.384948 
L 257.653878 147.651327 
L 257.641421 147.917705 
L 257.628072 148.184084 
L 257.61383 148.450462 
L 257.598696 148.71684 
L 257.582668 148.983219 
L 257.565747 149.249597 
L 257.54793 149.515976 
L 257.529219 149.782354 
L 257.509612 150.048732 
L 257.489109 150.315111 
L 257.467709 150.581489 
L 257.445411 150.847867 
L 257.422214 151.114246 
L 257.415258 151.191158 
L 257.398118 151.380624 
L 257.373121 151.647003 
L 257.347224 151.913381 
L 257.320425 152.179759 
L 257.292722 152.446138 
L 257.264117 152.712516 
L 257.234606 152.978894 
L 257.20419 153.245273 
L 257.172868 153.511651 
L 257.14888 153.709928 
L 257.140637 153.77803 
L 257.107497 154.044408 
L 257.073446 154.310786 
L 257.038485 154.577165 
L 257.002611 154.843543 
L 256.965824 155.109921 
L 256.928122 155.3763 
L 256.889504 155.642678 
L 256.882502 155.689879 
L 256.849967 155.909057 
L 256.809511 156.175435 
L 256.768134 156.441813 
L 256.725836 156.708192 
L 256.682615 156.97457 
L 256.638471 157.240948 
L 256.616123 157.373064 
L 256.593398 157.507327 
L 256.547396 157.773705 
L 256.500465 158.040084 
L 256.452603 158.306462 
L 256.403809 158.57284 
L 256.354082 158.839219 
L 256.349745 158.862034 
L 256.303413 159.105597 
L 256.251807 159.371976 
L 256.199262 159.638354 
L 256.145776 159.904732 
L 256.091348 160.171111 
L 256.083367 160.209528 
L 256.035969 160.437489 
L 255.979641 160.703867 
L 255.922366 160.970246 
L 255.86414 161.236624 
L 255.816988 161.448902 
L 255.804961 161.503003 
L 255.744819 161.769381 
L 255.68372 162.035759 
L 255.621663 162.302138 
L 255.558646 162.568516 
L 255.55061 162.601996 
L 255.494655 162.834894 
L 255.429698 163.101273 
L 255.363773 163.367651 
L 255.296879 163.63403 
L 255.284231 163.683704 
L 255.229001 163.900408 
L 255.160146 164.166786 
L 255.090315 164.433165 
L 255.019504 164.699543 
L 255.017853 164.705676 
L 254.947696 164.965921 
L 254.874903 165.2323 
L 254.801124 165.498678 
L 254.751475 165.675616 
L 254.726349 165.765057 
L 254.650569 166.031435 
L 254.573794 166.297813 
L 254.496023 166.564192 
L 254.485096 166.601171 
L 254.417232 166.83057 
L 254.337436 167.096948 
L 254.256634 167.363327 
L 254.218718 167.486847 
L 254.17481 167.629705 
L 254.091963 167.896084 
L 254.008102 168.162462 
L 253.95234 168.337526 
L 253.923215 168.42884 
L 253.837288 168.695219 
L 253.750338 168.961597 
L 253.685961 169.156577 
L 253.662354 169.227976 
L 253.573317 169.494354 
L 253.483248 169.760732 
L 253.419583 169.946939 
L 253.392132 170.027111 
L 253.299953 170.293489 
L 253.206731 170.559867 
L 253.153204 170.711193 
L 253.112447 170.826246 
L 253.017092 171.092624 
L 252.920684 171.359003 
L 252.886826 171.45161 
L 252.823194 171.625381 
L 252.724629 171.891759 
L 252.625 172.158138 
L 252.620448 172.170194 
L 252.524262 172.424516 
L 252.422451 172.690894 
L 252.354069 172.86801 
L 252.319549 172.957273 
L 252.215536 173.223651 
L 252.110442 173.49003 
L 252.087691 173.547161 
L 252.00422 173.756408 
L 251.896897 174.022786 
L 251.821312 174.208568 
L 251.788464 174.289165 
L 251.678893 174.555543 
L 251.56822 174.821921 
L 251.554934 174.853618 
L 251.456388 175.0883 
L 251.343438 175.354678 
L 251.288556 175.482933 
L 251.22934 175.621057 
L 251.114092 175.887435 
L 251.022177 176.097892 
L 250.997707 176.153813 
L 250.88014 176.420192 
L 250.761441 176.68657 
L 250.755799 176.699128 
L 250.641536 176.952948 
L 250.520486 177.219327 
L 250.489421 177.287118 
L 250.398233 177.485705 
L 250.274809 177.752084 
L 250.223042 177.862865 
L 250.150183 178.018462 
L 250.024362 178.28484 
L 249.956664 178.426946 
L 249.897336 178.551219 
L 249.769093 178.817597 
L 249.690285 178.9799 
L 249.639641 179.083976 
L 249.508953 179.350354 
L 249.423907 179.522233 
L 249.377045 179.616732 
L 249.243886 179.883111 
L 249.157529 180.054418 
L 249.109495 180.149489 
L 248.973837 180.415867 
L 248.89115 180.5769 
L 248.836932 180.682246 
L 248.698751 180.948624 
L 248.624772 181.090096 
L 248.559301 181.215003 
L 248.418568 181.481381 
L 248.358394 181.594397 
L 248.27654 181.747759 
L 248.133229 182.014138 
L 248.092015 182.090173 
L 247.98859 182.280516 
L 247.842671 182.546894 
L 247.825637 182.57777 
L 247.695386 182.813273 
L 247.559258 183.0574 
L 247.546819 183.079651 
L 247.396865 183.34603 
L 247.29288 183.529293 
L 247.245598 183.612408 
L 247.092958 183.878786 
L 247.026502 183.993907 
L 246.938954 184.145165 
L 246.783598 184.411543 
L 246.760123 184.45152 
L 246.626818 184.677921 
L 246.493745 184.902188 
L 246.468689 184.9443 
L 246.309118 185.210678 
L 246.227367 185.34615 
L 246.148152 185.477057 
L 245.98578 185.743435 
L 245.960988 185.783837 
L 245.821934 186.009813 
L 245.69461 186.215194 
L 245.656686 186.276192 
L 245.489959 186.54257 
L 245.428231 186.640511 
L 245.321765 186.808948 
L 245.161853 187.06011 
L 245.152136 187.075327 
L 244.980961 187.341705 
L 244.895475 187.473803 
L 244.808315 187.608084 
L 244.634192 187.874462 
L 244.629096 187.88221 
L 244.458481 188.14084 
L 244.362718 188.284995 
L 244.281273 188.407219 
L 244.102547 188.673597 
L 244.09634 188.682794 
L 243.922197 188.939976 
L 243.829961 189.075269 
L 243.74031 189.206354 
L 243.563583 189.463018 
L 243.556873 189.472732 
L 243.371772 189.739111 
L 243.297204 189.845715 
L 243.185082 190.005489 
L 243.030826 190.223857 
L 242.996799 190.271867 
L 242.806849 190.538246 
L 242.764448 190.597343 
L 242.615227 190.804624 
L 242.498069 190.966322 
L 242.421966 191.071003 
L 242.231691 191.331059 
L 242.227049 191.337381 
L 242.030365 191.603759 
L 241.965312 191.691313 
L 241.831985 191.870138 
L 241.698934 192.047479 
L 241.631899 192.136516 
L 241.432556 192.399653 
L 241.430091 192.402894 
L 241.226448 192.669273 
L 241.166177 192.747634 
L 241.021043 192.935651 
L 240.899799 193.091773 
L 240.813861 193.20203 
L 240.633421 193.432148 
L 240.604884 193.468408 
L 240.394046 193.734786 
L 240.367042 193.768713 
L 240.181328 194.001165 
L 240.100664 194.10154 
L 239.966755 194.267543 
L 239.834285 194.430812 
L 239.750307 194.533921 
L 239.567907 194.756589 
L 239.531963 194.8003 
L 239.311683 195.066678 
L 239.301529 195.078893 
L 239.089402 195.333057 
L 239.03515 195.397696 
L 238.865159 195.599435 
L 238.768772 195.71319 
L 238.638933 195.865813 
L 238.502394 196.02543 
L 238.410698 196.132192 
L 238.236015 196.334468 
L 238.180432 196.39857 
L 237.969637 196.640357 
L 237.948109 196.664948 
L 237.713683 196.931327 
L 237.703258 196.943112 
L 237.477111 197.197705 
L 237.43688 197.242758 
L 237.238407 197.464084 
L 237.170502 197.539412 
L 236.997545 197.730462 
L 236.904123 197.833122 
L 236.754496 197.99684 
L 236.637745 198.123931 
L 236.509232 198.263219 
L 236.371367 198.411884 
L 236.261725 198.529597 
L 236.104988 198.697025 
L 236.011945 198.795976 
L 235.83861 198.979396 
L 235.759862 199.062354 
L 235.572231 199.259038 
L 235.505444 199.328732 
L 235.305853 199.535991 
L 235.24866 199.595111 
L 235.039475 199.810294 
L 234.989478 199.861489 
L 234.773096 200.081987 
L 234.727863 200.127867 
L 234.506718 200.351106 
L 234.463782 200.394246 
L 234.24034 200.617688 
L 234.1972 200.660624 
L 233.973961 200.881769 
L 233.928081 200.927003 
L 233.707583 201.143384 
L 233.656388 201.193381 
L 233.441204 201.402567 
L 233.382085 201.459759 
L 233.174826 201.659351 
L 233.105132 201.726138 
L 232.908448 201.913768 
L 232.82549 201.992516 
L 232.642069 202.165852 
L 232.543119 202.258894 
L 232.375691 202.415632 
L 232.257978 202.525273 
L 232.109312 202.663138 
L 231.970024 202.791651 
L 231.842934 202.908402 
L 231.679215 203.05803 
L 231.576556 203.151451 
L 231.385506 203.324408 
L 231.310177 203.392314 
L 231.088852 203.590786 
L 231.043799 203.631017 
L 230.789206 203.857165 
L 230.777421 203.86759 
L 230.511042 204.102015 
L 230.48645 204.123543 
L 230.244664 204.334338 
L 230.180562 204.389921 
L 229.978285 204.564604 
L 229.871524 204.6563 
L 229.711907 204.792839 
L 229.559284 204.922678 
L 229.445529 205.019066 
L 229.243789 205.189057 
L 229.17915 205.243308 
L 228.924986 205.455435 
L 228.912772 205.465589 
L 228.646394 205.685869 
L 228.602683 205.721813 
L 228.380015 205.904213 
L 228.276906 205.988192 
L 228.113637 206.120661 
L 227.947634 206.25457 
L 227.847258 206.335234 
L 227.614806 206.520948 
L 227.58088 206.547952 
L 227.314502 206.75879 
L 227.278242 206.787327 
L 227.048123 206.967768 
L 226.937867 207.053705 
L 226.781745 207.17495 
L 226.593728 207.320084 
L 226.515367 207.380355 
L 226.248988 207.583997 
L 226.245746 207.586462 
L 225.98261 207.785805 
L 225.893573 207.85284 
L 225.716231 207.985891 
L 225.537407 208.119219 
L 225.449853 208.184271 
L 225.183475 208.380955 
L 225.177152 208.385597 
L 224.917096 208.575872 
L 224.812416 208.651976 
L 224.650718 208.769134 
L 224.443437 208.918354 
L 224.38434 208.960755 
L 224.117961 209.150706 
L 224.069951 209.184732 
L 223.851583 209.338989 
L 223.691809 209.451111 
L 223.585204 209.525678 
L 223.318826 209.710779 
L 223.309112 209.717489 
L 223.052448 209.894216 
L 222.921362 209.983867 
L 222.786069 210.076104 
L 222.528888 210.250246 
L 222.519691 210.256454 
L 222.253312 210.435179 
L 222.131088 210.516624 
L 221.986934 210.612387 
L 221.728304 210.783003 
L 221.720556 210.788098 
L 221.454177 210.962221 
L 221.319896 211.049381 
L 221.187799 211.134867 
L 220.921421 211.306042 
L 220.906204 211.315759 
L 220.655042 211.475671 
L 220.486605 211.582138 
L 220.388664 211.643865 
L 220.122285 211.810593 
L 220.061287 211.848516 
L 219.855907 211.97584 
L 219.629931 212.114894 
L 219.589529 212.139686 
L 219.32315 212.302058 
L 219.192244 212.381273 
L 219.056772 212.463024 
L 218.790394 212.622595 
L 218.748282 212.647651 
L 218.524015 212.780724 
L 218.297614 212.91403 
L 218.257637 212.937505 
L 217.991258 213.09286 
L 217.840001 213.180408 
L 217.72488 213.246865 
L 217.458502 213.399504 
L 217.375387 213.446786 
L 217.192123 213.550771 
L 216.925745 213.700725 
L 216.903493 213.713165 
L 216.659367 213.849293 
L 216.423864 213.979543 
L 216.392988 213.996577 
L 216.12661 214.142496 
L 215.936267 214.245921 
L 215.860231 214.287135 
L 215.593853 214.430447 
L 215.440491 214.5123 
L 215.327475 214.572474 
L 215.061096 214.713207 
L 214.936189 214.778678 
L 214.794718 214.852657 
L 214.52834 214.990839 
L 214.422994 215.045057 
L 214.261961 215.127743 
L 213.995583 215.263401 
L 213.900512 215.311435 
L 213.729204 215.397792 
L 213.462826 215.530952 
L 213.368327 215.577813 
L 213.196448 215.662859 
L 212.930069 215.793547 
L 212.825994 215.844192 
L 212.663691 215.923 
L 212.397312 216.051242 
L 212.27304 216.11057 
L 212.130934 216.178268 
L 211.864556 216.304089 
L 211.708959 216.376948 
L 211.598177 216.428715 
L 211.331799 216.552139 
L 211.133212 216.643327 
L 211.065421 216.674392 
L 210.799042 216.795442 
L 210.545222 216.909705 
L 210.532664 216.915347 
L 210.266285 217.034047 
L 209.999907 217.151614 
L 209.943986 217.176084 
L 209.733529 217.267999 
L 209.46715 217.383246 
L 209.329027 217.442462 
L 209.200772 217.497344 
L 208.934394 217.610294 
L 208.699712 217.70884 
L 208.668015 217.722126 
L 208.401637 217.832799 
L 208.135258 217.94237 
L 208.054661 217.975219 
L 207.86888 218.050803 
L 207.602502 218.158126 
L 207.393254 218.241597 
L 207.336123 218.264348 
L 207.069745 218.369443 
L 206.803367 218.473455 
L 206.714104 218.507976 
L 206.536988 218.576357 
L 206.27061 218.678168 
L 206.016288 218.774354 
L 206.004231 218.778906 
L 205.737853 218.878535 
L 205.471475 218.9771 
L 205.297704 219.040732 
L 205.205096 219.074591 
L 204.938718 219.170998 
L 204.67234 219.266353 
L 204.557287 219.307111 
L 204.405961 219.360637 
L 204.139583 219.453859 
L 203.873204 219.546038 
L 203.793033 219.573489 
L 203.606826 219.637154 
L 203.340448 219.727224 
L 203.074069 219.81626 
L 203.00267 219.839867 
L 202.807691 219.904245 
L 202.541312 219.991195 
L 202.274934 220.077121 
L 202.18362 220.106246 
L 202.008556 220.162008 
L 201.742177 220.24587 
L 201.475799 220.328716 
L 201.332941 220.372624 
L 201.209421 220.41054 
L 200.943042 220.491342 
L 200.676664 220.571138 
L 200.447264 220.639003 
L 200.410285 220.649929 
L 200.143907 220.7277 
L 199.877529 220.804475 
L 199.61115 220.880255 
L 199.52171 220.905381 
L 199.344772 220.95503 
L 199.078394 221.02881 
L 198.812015 221.101603 
L 198.55177 221.171759 
L 198.545637 221.173411 
L 198.279258 221.244221 
L 198.01288 221.314053 
L 197.746502 221.382907 
L 197.529798 221.438138 
L 197.480123 221.450785 
L 197.213745 221.517679 
L 196.947367 221.583604 
L 196.680988 221.648561 
L 196.44809 221.704516 
L 196.41461 221.712552 
L 196.148231 221.775569 
L 195.881853 221.837626 
L 195.615475 221.898725 
L 195.349096 221.958867 
L 195.294996 221.970894 
L 195.082718 222.018047 
L 194.81634 222.076272 
L 194.549961 222.133548 
L 194.283583 222.189875 
L 194.055622 222.237273 
L 194.017204 222.245254 
L 193.750826 222.299683 
L 193.484448 222.353168 
L 193.218069 222.405714 
L 192.951691 222.45732 
L 192.708128 222.503651 
L 192.685312 222.507988 
L 192.418934 222.557715 
L 192.152556 222.606509 
L 191.886177 222.654371 
L 191.619799 222.701302 
L 191.353421 222.747304 
L 191.219158 222.77003 
L 191.087042 222.792377 
L 190.820664 222.836522 
L 190.554285 222.879742 
L 190.287907 222.92204 
L 190.021529 222.963417 
L 189.75515 223.003873 
L 189.535973 223.036408 
L 189.488772 223.04341 
L 189.222394 223.082028 
L 188.956015 223.11973 
L 188.689637 223.156517 
L 188.423258 223.192391 
L 188.15688 223.227353 
L 187.890502 223.261403 
L 187.624123 223.294544 
L 187.556022 223.302786 
L 187.357745 223.326774 
L 187.091367 223.358097 
L 186.824988 223.388513 
L 186.55861 223.418023 
L 186.292231 223.446629 
L 186.025853 223.474331 
L 185.759475 223.50113 
L 185.493096 223.527028 
L 185.226718 223.552024 
L 185.037252 223.569165 
L 184.96034 223.57612 
L 184.693961 223.599317 
L 184.427583 223.621615 
L 184.161204 223.643015 
L 183.894826 223.663519 
L 183.628448 223.683125 
L 183.362069 223.701837 
L 183.095691 223.719653 
L 182.829312 223.736574 
L 182.562934 223.752602 
L 182.296556 223.767736 
L 182.030177 223.781978 
L 181.763799 223.795327 
L 181.497421 223.807784 
L 181.231042 223.81935 
L 180.964664 223.830024 
L 180.814406 223.835543 
L 180.698285 223.839808 
L 180.431907 223.848701 
L 180.165529 223.856704 
L 179.89915 223.863817 
L 179.632772 223.87004 
L 179.366394 223.875374 
L 179.100015 223.879819 
L 178.833637 223.883375 
L 178.567258 223.886041 
L 178.30088 223.887819 
L 178.034502 223.888708 
L 177.768123 223.888708 
L 177.501745 223.887819 
L 177.235367 223.886041 
L 176.968988 223.883375 
L 176.70261 223.879819 
L 176.436231 223.875374 
L 176.169853 223.87004 
L 175.903475 223.863817 
L 175.637096 223.856704 
L 175.370718 223.848701 
L 175.10434 223.839808 
z
" clip-path="url(#pa960ecec31)" style="fill: none; stroke: #2c728e; stroke-width: 1.5"/>
    <path d="M 175.637096 250.475935 
L 170.842285 250.265696 
L 166.047475 249.837929 
L 161.252664 249.189978 
L 156.457853 248.31774 
L 151.663042 247.21552 
L 146.868231 245.875856 
L 142.234752 244.346678 
L 137.811367 242.66196 
L 133.282934 240.697307 
L 129.02088 238.613111 
L 124.758826 236.285193 
L 120.492046 233.691543 
L 116.501096 231.006396 
L 112.505421 228.04253 
L 108.659447 224.901057 
L 105.046826 221.66137 
L 101.567344 218.241597 
L 98.348287 214.778678 
L 95.183256 211.049381 
L 92.260664 207.270468 
L 89.483818 203.324408 
L 86.932449 199.328732 
L 84.475815 195.066678 
L 82.271897 190.804624 
L 80.188046 186.276192 
L 78.353503 181.747759 
L 76.754705 177.219327 
L 75.38062 172.690894 
L 74.16073 167.896084 
L 73.174321 163.101273 
L 72.414834 158.306462 
L 71.877394 153.511651 
L 71.558637 148.71684 
L 71.456596 143.92203 
L 71.570648 139.127219 
L 71.901491 134.332408 
L 72.451164 129.537597 
L 73.223116 124.742786 
L 74.22231 119.947976 
L 75.455394 115.153165 
L 76.842432 110.624732 
L 78.454771 106.0963 
L 80.30357 101.567867 
L 82.404664 97.035174 
L 84.621759 92.777381 
L 87.094863 88.515327 
L 89.662956 84.519651 
L 92.527042 80.48067 
L 95.457204 76.724273 
L 98.653745 72.989682 
L 101.850285 69.578821 
L 105.377965 66.139543 
L 109.042502 62.882844 
L 112.920408 59.746462 
L 116.767475 56.916572 
L 120.76315 54.245858 
L 124.880824 51.755111 
L 129.02088 49.497326 
L 133.282934 47.413131 
L 137.811367 45.448477 
L 142.339799 43.726393 
L 147.09595 42.165489 
L 151.663042 40.894917 
L 156.457853 39.792698 
L 161.252664 38.920459 
L 166.047475 38.272509 
L 170.842285 37.844741 
L 175.637096 37.634503 
L 180.431907 37.640504 
L 185.226718 37.862781 
L 190.021529 38.302698 
L 194.853098 38.968948 
L 199.61115 39.84784 
L 204.405961 40.963037 
L 209.200772 42.316152 
L 213.729204 43.821211 
L 218.257637 45.557196 
L 222.786069 47.536556 
L 227.048123 49.635487 
L 231.382875 52.021489 
L 235.572231 54.587036 
L 239.646977 57.349057 
L 243.567716 60.279219 
L 247.452994 63.475759 
L 251.022177 66.69999 
L 254.493271 70.135219 
L 257.690373 73.598138 
L 260.878177 77.381923 
L 263.896502 81.323111 
L 266.738502 85.417025 
L 269.350942 89.58084 
L 271.758736 93.842894 
L 273.930718 98.133075 
L 275.956013 102.633381 
L 277.748046 107.161813 
L 279.306455 111.690246 
L 280.713668 116.485057 
L 281.881014 121.279867 
L 282.816493 126.074678 
L 283.526271 130.869489 
L 284.014874 135.6643 
L 284.28535 140.459111 
L 284.339363 145.253921 
L 284.177242 150.048732 
L 283.786718 154.952896 
L 283.199276 159.638354 
L 282.377311 164.433165 
L 281.326779 169.227976 
L 280.040629 174.022786 
L 278.601459 178.551219 
L 276.934576 183.079651 
L 274.996231 187.679302 
L 272.865204 192.142156 
L 270.587152 196.39857 
L 268.047427 200.660624 
L 265.40661 204.663116 
L 262.476448 208.689084 
L 259.522654 212.381273 
L 256.249983 216.11057 
L 252.886826 219.604306 
L 249.262772 223.036408 
L 245.5571 226.232948 
L 241.698934 229.262924 
L 237.703258 232.113274 
L 233.611816 234.757057 
L 229.445529 237.187852 
L 225.183475 239.422347 
L 220.655042 241.536556 
L 216.12661 243.399669 
L 211.598177 245.025586 
L 206.886061 246.477705 
L 202.274934 247.671921 
L 197.480123 248.68392 
L 192.685312 249.468351 
L 187.890502 250.03027 
L 183.095691 250.373203 
L 178.30088 250.499269 
L 175.637096 250.475935 
L 175.637096 250.475935 
" clip-path="url(#pa960ecec31)" style="fill: none; stroke: #21918c; stroke-width: 1.5"/>
    <path d="M 169.510394 276.846377 
L 164.182826 276.402119 
L 158.855258 275.741007 
L 153.527691 274.859749 
L 148.200123 273.75386 
L 142.872556 272.417535 
L 137.544988 270.843486 
L 132.483799 269.119796 
L 127.42261 267.164103 
L 122.361421 264.965171 
L 117.56661 262.645352 
L 112.739303 260.063003 
L 107.976988 257.256293 
L 103.448556 254.330695 
L 98.920123 251.133997 
L 94.601127 247.809597 
L 90.396015 244.288531 
L 86.360921 240.617381 
L 82.404664 236.706615 
L 78.675367 232.701159 
L 75.18353 228.630354 
L 71.749529 224.277957 
L 68.536854 219.839867 
L 65.533852 215.311435 
L 62.692664 210.619877 
L 60.137981 205.988192 
L 57.738396 201.193381 
L 55.459953 196.132192 
L 53.428771 191.071003 
L 51.63291 186.009813 
L 49.985876 180.682246 
L 48.57461 175.336184 
L 47.404725 170.027111 
L 46.443583 164.616092 
L 45.729849 159.371976 
L 45.220812 154.044408 
L 44.926998 148.71684 
L 44.846979 143.389273 
L 44.98037 138.061705 
L 45.327815 132.734138 
L 45.910826 127.250646 
L 46.672715 122.079003 
L 47.676884 116.751435 
L 48.908703 111.423867 
L 50.374772 106.0963 
L 52.037529 100.902105 
L 53.902177 95.804837 
L 55.91864 90.912732 
L 58.25087 85.851543 
L 60.70453 81.056732 
L 63.411295 76.261921 
L 66.216654 71.733489 
L 69.352123 67.107433 
L 72.632999 62.676624 
L 76.07021 58.41457 
L 79.74088 54.230831 
L 83.470177 50.318079 
L 87.211317 46.693921 
L 91.38783 42.964624 
L 95.606409 39.501705 
L 99.985637 36.198644 
L 104.514069 33.067792 
L 109.08288 30.178462 
L 113.837312 27.437469 
L 118.789432 24.850894 
L 123.693312 22.542301 
L 128.754502 20.408593 
L 133.815691 18.514963 
L 138.87688 16.850688 
L 144.204448 15.336846 
L 149.532015 14.058752 
L 154.859583 13.009512 
L 160.18715 12.183663 
L 165.514718 11.577027 
L 170.842285 11.186602 
L 176.169853 11.010485 
L 181.497421 11.047824 
L 186.824988 11.298799 
L 192.152556 11.764625 
L 197.480123 12.447586 
L 202.807691 13.351083 
L 208.135258 14.479729 
L 213.462826 15.839474 
L 218.790394 17.437759 
L 224.045418 19.256948 
L 228.912772 21.166128 
L 233.973961 23.391413 
L 238.768772 25.737645 
L 243.563583 28.329835 
L 248.358394 31.184959 
L 252.934905 34.174138 
L 257.415258 37.371427 
L 261.677312 40.684652 
L 265.672988 44.055071 
L 269.721872 47.759435 
L 273.66434 51.67917 
L 277.194337 55.484408 
L 280.619095 59.480084 
L 284.053096 63.83248 
L 287.265771 68.27057 
L 290.268773 72.799003 
L 293.109961 77.49056 
L 295.664644 82.122246 
L 298.064229 86.917057 
L 300.342672 91.978246 
L 302.373854 97.039435 
L 304.169715 102.100624 
L 305.816749 107.428192 
L 307.228015 112.774254 
L 308.3979 118.083327 
L 309.359042 123.494345 
L 310.072776 128.738462 
L 310.581813 134.06603 
L 310.875627 139.393597 
L 310.955646 144.721165 
L 310.822255 150.048732 
L 310.47481 155.3763 
L 309.891799 160.859791 
L 309.12991 166.031435 
L 308.125741 171.359003 
L 306.893922 176.68657 
L 305.427853 182.014138 
L 303.765096 187.208332 
L 301.900448 192.3056 
L 299.883985 197.197705 
L 297.551755 202.258894 
L 295.098095 207.053705 
L 292.39133 211.848516 
L 289.585971 216.376948 
L 286.450502 221.003004 
L 283.169626 225.433813 
L 279.732415 229.695867 
L 276.061745 233.879606 
L 272.332448 237.792358 
L 268.591308 241.416516 
L 264.414795 245.145813 
L 260.196216 248.608732 
L 255.816988 251.911794 
L 251.288556 255.042645 
L 246.719745 257.931976 
L 241.965312 260.672969 
L 237.013193 263.259543 
L 232.109312 265.568137 
L 227.048123 267.701844 
L 221.986934 269.595474 
L 216.925745 271.259749 
L 211.598177 272.773592 
L 206.27061 274.051685 
L 200.943042 275.100926 
L 195.615475 275.926775 
L 190.287907 276.533411 
L 184.96034 276.923835 
L 179.632772 277.099953 
L 174.305204 277.062614 
L 169.510394 276.846377 
L 169.510394 276.846377 
" clip-path="url(#pa960ecec31)" style="fill: none; stroke: #28ae80; stroke-width: 1.5"/>
    <path d="M 89.641986 277.111219 
L 84.802069 273.770829 
L 79.999343 270.185381 
L 75.375057 266.456084 
L 70.950394 262.609459 
L 66.527755 258.464732 
L 62.310899 254.202678 
L 58.394442 249.940624 
L 54.434934 245.295812 
L 50.705637 240.568783 
L 47.240041 235.82257 
L 44.845313 232.314545 
M 310.957312 232.314545 
L 307.616923 237.154462 
L 304.031475 241.957188 
L 300.302177 246.581475 
L 296.455553 251.006138 
L 292.310826 255.428776 
L 288.048772 259.645632 
L 283.786718 263.562089 
L 279.141906 267.521597 
L 274.414877 271.250894 
L 269.668664 274.71649 
L 266.160639 277.111219 
M 44.845313 55.795892 
L 48.185702 50.955976 
L 51.77115 46.153249 
L 55.500448 41.528963 
L 59.347072 37.1043 
L 63.491799 32.681662 
L 67.753853 28.464805 
L 72.015907 24.548349 
L 76.660719 20.58884 
L 81.387748 16.859543 
L 86.133961 13.393948 
L 89.641986 10.999219 
M 266.160639 10.999219 
L 271.000556 14.339608 
L 275.803282 17.925057 
L 280.427568 21.654354 
L 284.852231 25.500979 
L 289.27487 29.645705 
L 293.491726 33.907759 
L 297.408183 38.169813 
L 301.367691 42.814625 
L 305.096988 47.541654 
L 308.562584 52.287867 
L 310.957312 55.795892 
L 310.957312 55.795892 
" clip-path="url(#pa960ecec31)" style="fill: none; stroke: #5ec962; stroke-width: 1.5"/>
    <path d="M 47.533601 277.111219 
L 47.509096 277.087205 
L 47.262282 276.84484 
L 47.242718 276.825591 
L 46.992068 276.578462 
L 46.97634 276.562924 
L 46.722952 276.312084 
L 46.709961 276.299198 
L 46.454927 276.045705 
L 46.443583 276.034407 
L 46.187986 275.779327 
L 46.177204 275.768545 
L 45.922124 275.512948 
L 45.910826 275.501605 
L 45.657333 275.24657 
L 45.644448 275.23358 
L 45.393608 274.980192 
L 45.378069 274.964463 
L 45.130941 274.713813 
L 45.111691 274.694249 
L 44.869326 274.447435 
L 44.845313 274.42293 
M 310.957312 274.42293 
L 310.933299 274.447435 
L 310.690934 274.694249 
L 310.671684 274.713813 
L 310.424556 274.964463 
L 310.409017 274.980192 
L 310.158177 275.23358 
L 310.145292 275.24657 
L 309.891799 275.501605 
L 309.880501 275.512948 
L 309.625421 275.768545 
L 309.614639 275.779327 
L 309.359042 276.034407 
L 309.347698 276.045705 
L 309.092664 276.299198 
L 309.079673 276.312084 
L 308.826285 276.562924 
L 308.810557 276.578462 
L 308.559907 276.825591 
L 308.540343 276.84484 
L 308.293529 277.087205 
L 308.269024 277.111219 
M 44.845313 13.687507 
L 44.869326 13.663003 
L 45.111691 13.416188 
L 45.130941 13.396624 
L 45.378069 13.145974 
L 45.393608 13.130246 
L 45.644448 12.876858 
L 45.657333 12.863867 
L 45.910826 12.608833 
L 45.922124 12.597489 
L 46.177204 12.341893 
L 46.187986 12.331111 
L 46.443583 12.07603 
L 46.454927 12.064732 
L 46.709961 11.81124 
L 46.722952 11.798354 
L 46.97634 11.547514 
L 46.992068 11.531976 
L 47.242718 11.284847 
L 47.262282 11.265597 
L 47.509096 11.023232 
L 47.533601 10.999219 
M 308.269024 10.999219 
L 308.293529 11.023232 
L 308.540343 11.265597 
L 308.559907 11.284847 
L 308.810557 11.531976 
L 308.826285 11.547514 
L 309.079673 11.798354 
L 309.092664 11.81124 
L 309.347698 12.064732 
L 309.359042 12.07603 
L 309.614639 12.331111 
L 309.625421 12.341893 
L 309.880501 12.597489 
L 309.891799 12.608833 
L 310.145292 12.863867 
L 310.158177 12.876858 
L 310.409017 13.130246 
L 310.424556 13.145974 
L 310.671684 13.396624 
L 310.690934 13.416188 
L 310.933299 13.663003 
L 310.957312 13.687507 
" clip-path="url(#pa960ecec31)" style="fill: none; stroke: #addc30; stroke-width: 1.5"/>
    <path clip-path="url(#pa960ecec31)" style="fill: none; stroke: #fde725; stroke-width: 1.5"/>
   </g>
   <g id="patch_3">
    <path d="M 44.845313 277.111219 
L 44.845313 10.999219 
" style="fill: none; stroke: #000000; stroke-width: 0.8; stroke-linejoin: miter; stroke-linecap: square"/>
   </g>
   <g id="patch_4">
    <path d="M 310.957312 277.111219 
L 310.957312 10.999219 
" style="fill: none; stroke: #000000; stroke-width: 0.8; stroke-linejoin: miter; stroke-linecap: square"/>
   </g>
   <g id="patch_5">
    <path d="M 44.845313 277.111219 
L 310.957312 277.111219 
" style="fill: none; stroke: #000000; stroke-width: 0.8; stroke-linejoin: miter; stroke-linecap: square"/>
   </g>
   <g id="patch_6">
    <path d="M 44.845313 10.999219 
L 310.957312 10.999219 
" style="fill: none; stroke: #000000; stroke-width: 0.8; stroke-linejoin: miter; stroke-linecap: square"/>
   </g>
  </g>
 </g>
 <defs>
  <clipPath id="pa960ecec31">
   <rect x="44.845313" y="10.999219" width="266.112" height="266.112"/>
  </clipPath>
 </defs>
</svg>
