<?xml version="1.0" encoding="UTF-8" standalone="no"?>
<!-- Created with Inkscape (http://www.inkscape.org/) -->

<svg
   width="166.79828mm"
   height="15.345834mm"
   viewBox="0 0 166.79828 15.345834"
   version="1.1"
   id="svg1"
   xml:space="preserve"
   xmlns="http://www.w3.org/2000/svg"
   xmlns:svg="http://www.w3.org/2000/svg"><defs
     id="defs1" /><g
     id="layer1"
     transform="translate(-17.149274,-140.75833)"><path
       style="fill:#000000;stroke:#000000;stroke-width:0.565;stroke-dasharray:0.565, 0.565;stroke-dashoffset:0;stroke-opacity:1"
       d="M 24.782609,148.69565 H 174.78261"
       id="path14" /><g
       id="g1"
       transform="matrix(0.26458333,0,0,0.26458333,15.297191,138.90625)"><g
         id="color"><circle
           cx="36"
           cy="36"
           r="28"
           fill="#fcea2b"
           stroke="#fcea2b"
           stroke-linecap="round"
           stroke-linejoin="round"
           stroke-width="2"
           id="circle1" /></g><g
         id="line"><circle
           cx="36"
           cy="36"
           r="28"
           fill="none"
           stroke="#000000"
           stroke-linecap="round"
           stroke-linejoin="round"
           stroke-width="2"
           id="circle2" /></g></g><g
       id="g2"
       transform="matrix(0.18765639,0.18651921,-0.18651921,0.18765639,104.99746,135.13516)"><g
         id="color-3"><circle
           cx="48.4645"
           cy="23.759399"
           r="2.1013999"
           fill="#ffffff"
           id="circle1-6" /><path
           fill="#fcea2b"
           d="m 16.12,48.114 c -3.1584,3.1634 -4.6518,7.5601 -3.97,11.688 4.128,0.6763 8.5223,-0.8196 11.683,-3.977 3.1584,-3.1634 4.6518,-7.5601 3.97,-11.688 -4.128,-0.6763 -8.5223,0.8196 -11.683,3.977 z"
           id="path1" /><path
           fill="#61b2e4"
           d="m 31.973,45.839 c -0.1919,0.966 -0.6657,1.8536 -1.3616,2.5507 -0.3389,0.3373 -0.7246,0.6241 -1.1452,0.8516 2.1626,2.9716 3.7579,6.2847 4.6952,9.7506 0.7092,-0.6216 1.3906,-1.2786 2.0417,-1.9685 1.9136,-2.0343 3.5491,-4.3376 4.8516,-6.8326 1.2507,-2.4201 2.1751,-4.9922 2.7442,-7.6354 -3.7285,1.9544 -7.7719,3.0771 -11.826,3.2837 v 0 z"
           id="path2" /><path
           fill="#92d3f5"
           d="m 14.923,35.749 c -0.69,0.65 -1.3472,1.3303 -1.9691,2.0383 3.4682,0.9313 6.7846,2.521 9.7604,4.6784 0.2264,-0.414 0.5104,-0.7939 0.8435,-1.1281 0.6949,-0.6935 1.5791,-1.1665 2.5417,-1.3598 0.2106,-4.0507 1.3364,-8.0899 3.293,-11.814 0.0019,-0.0037 0.0037,-0.0074 0.0056,-0.0112 -2.645,0.5687 -5.2188,1.4928 -7.6405,2.7434 -2.496,1.303 -4.7999,2.9389 -6.8346,4.853 z"
           id="path3" /><path
           fill="#ea5a47"
           d="m 34.821,20.747 c -5.2314,5.2507 -8.3665,12.1635 -8.7228,19.233 1.6376,-0.3318 3.3326,0.1781 4.515,1.3584 1.186,1.1868 1.6956,2.8903 1.356,4.5332 7.0754,-0.3609 13.9919,-3.5024 19.242,-8.7398 6.7117,-6.7229 9.8843,-16.067 8.4337,-24.839 -1.7318,-0.2827 -3.5044,-0.3879 -5.2915,-0.3141 -7.1741,0.2926 -14.2097,3.4508 -19.532,8.7677 z M 45.07,20.2179 c 1.8412,-1.8413 4.8269,-1.8418 6.6687,-0.0012 4e-4,4e-4 8e-4,8e-4 0.0012,0.0012 1.8418,1.8407 1.8424,4.8255 0.0012,6.6667 -4e-4,4e-4 -8e-4,8e-4 -0.0012,0.0012 -1.8419,1.8404 -4.8274,1.8398 -6.6685,-0.0014 C 43.2297,25.0438 43.229,22.0592 45.07,20.2179 Z"
           id="path4" /><path
           fill="#f1b31c"
           d="m 26.538,52.037 c -0.8756,0.9831 -1.8894,1.8467 -3.0072,2.5617 -3.4907,2.2228 -7.7244,2.8345 -11.441,1.653 -0.1495,1.1964 -0.1293,2.3916 0.06,3.5496 4.128,0.6763 8.5223,-0.8195 11.683,-3.9769 1.1048,-1.1131 2.0209,-2.3956 2.7055,-3.7874 z"
           id="path5" /><path
           fill="#d22f27"
           d="m 26.204,38.687 c -0.033,0.4281 -0.0559,0.8558 -0.0684,1.283 1.6271,-0.316 3.305,0.1967 4.4773,1.3682 1.186,1.1868 1.6956,2.8903 1.356,4.5332 7.075,-0.3618 13.9907,-3.5038 19.24,-8.7412 1.4932,-1.5067 2.8266,-3.1619 3.9746,-4.9339 -1.3472,1.2267 -2.8051,2.3344 -4.353,3.3074 -7.5574,4.7109 -16.6938,5.8918 -24.627,3.1832 h 5e-4 z"
           id="path6" /><path
           fill="#61b2e4"
           d="m 24.039,48.551 c 0.8703,-0.4372 1.7206,-0.9178 2.5501,-1.438 2.4433,-1.5323 4.6776,-3.4046 6.6294,-5.5552 l 0.0028,-0.0028 c 1.8803,-2.0911 3.4745,-4.4187 4.7329,-6.9122 0.061,-0.1204 0.0967,-0.252 0.1047,-0.3867 -3.3985,-0.7533 -14.846,10.251 -14.0199,14.2949 z"
           id="path7" /></g><g
         id="line-7"><path
           d="m 48.405,29.49 c -3.2761,0 -5.941,-2.6641 -5.941,-5.9392 0,-3.2751 2.6649,-5.9392 5.941,-5.9392 3.2761,0 5.941,2.6641 5.941,5.9392 0,3.2751 -2.6649,5.9392 -5.941,5.9392 z m 0,-9.8987 c -2.1839,0 -3.9607,1.7757 -3.9607,3.9595 0,2.1838 1.7768,3.9595 3.9607,3.9595 2.1839,0 3.9607,-1.7758 3.9607,-3.9595 0,-2.1837 -1.7769,-3.9595 -3.9607,-3.9595 z"
           id="path8" /><path
           fill="none"
           stroke="#000000"
           stroke-linecap="round"
           stroke-linejoin="round"
           stroke-width="1.949"
           d="m 20.653,45.063 c -1.678,0.7083 -3.2222,1.7475 -4.5331,3.0508 -3.1581,3.1631 -4.6517,7.5594 -3.9703,11.687 4.128,0.6762 8.5221,-0.8196 11.683,-3.9769 1.3043,-1.3104 2.3446,-2.8541 3.0537,-4.5318"
           id="path9" /><path
           fill="none"
           stroke="#000000"
           stroke-linecap="round"
           stroke-linejoin="round"
           stroke-width="1.949"
           d="m 14.923,35.749 c -0.69,0.65 -1.3472,1.3303 -1.9691,2.0383 3.4682,0.9313 6.7846,2.521 9.7604,4.6784 0.2264,-0.414 0.5104,-0.7939 0.8435,-1.1281 0.6949,-0.6935 1.5791,-1.1665 2.5417,-1.3598 0.2106,-4.0507 1.3364,-8.0899 3.293,-11.814 0.0019,-0.0037 0.0037,-0.0074 0.0056,-0.0112 -2.645,0.5687 -5.2188,1.4928 -7.6405,2.7434 -2.496,1.303 -4.7999,2.9389 -6.8346,4.853 z"
           id="path10" /><path
           fill="none"
           stroke="#000000"
           stroke-linecap="round"
           stroke-linejoin="round"
           stroke-width="1.949"
           d="m 31.973,45.839 c -0.1919,0.966 -0.6657,1.8536 -1.3616,2.5507 -0.3389,0.3373 -0.7246,0.6241 -1.1452,0.8516 2.1626,2.9716 3.7579,6.2847 4.6952,9.7506 0.7092,-0.6216 1.3906,-1.2786 2.0417,-1.9685 1.9136,-2.0343 3.5491,-4.3376 4.8516,-6.8326 1.2507,-2.4201 2.1751,-4.9922 2.7442,-7.6354 -3.7285,1.9544 -7.7719,3.0771 -11.826,3.2837 v 0 z"
           id="path11" /><path
           fill="none"
           stroke="#000000"
           stroke-linecap="round"
           stroke-linejoin="round"
           stroke-width="1.949"
           d="m 31.83,43.345 c 0.2696,0.8863 0.2506,1.6919 0.1371,2.5245 7.0759,-0.3611 13.993,-3.5031 19.243,-8.7412 6.7106,-6.7215 9.8836,-16.063 8.4351,-24.834 -8.7712,-1.4365 -18.108,1.742 -24.823,8.4508 -5.2322,5.2509 -8.3679,12.164 -8.7242,19.234 0.9413,-0.1907 1.8984,-0.0942 2.7693,0.2387"
           id="path12" /><path
           fill="none"
           stroke="#000000"
           stroke-linecap="round"
           stroke-linejoin="round"
           stroke-width="1.949"
           d="m 37.072,34.196 h -2e-4 c -2.4156,1.2183 -4.6724,2.7626 -6.6996,4.5844 -2.0849,1.8911 -3.9,4.0556 -5.3844,6.4211 -0.5039,0.8031 -0.9684,1.6273 -1.3917,2.4694"
           id="path13" /></g></g><g
       id="g3"
       transform="matrix(0.26458333,0,0,0.26458333,165.91129,138.79296)"><g
         id="color-5"><circle
           cx="36.145599"
           cy="36.4282"
           r="22.542801"
           fill="#ea5a47"
           id="circle1-3" /><path
           fill="#d22f27"
           d="M 52.5238,20.931 A 22.5441,22.5441 0 0 1 16.2821,47.0757 22.5423,22.5423 0 1 0 52.5238,20.931 Z"
           id="path1-5" /><path
           fill="#f1b31c"
           d="M 52.7935,22.7551 C 60.4681,21.8295 65.9319,22.7315 66.9853,25.604 68.8256,30.6221 56.51,39.7536 39.4777,46 22.4454,52.2464 7.1461,53.2415 5.3059,48.2235 c -1.07,-2.9183 2.6472,-7.2279 9.2958,-11.552 l 0.0766,1.5538 c -2.5091,2.2523 -3.7143,4.3411 -3.1382,5.9122 1.4336,3.909 13.3515,3.1334 26.6194,-1.7323 C 51.4274,37.5395 61.0211,30.4263 59.5875,26.5173 59.0348,25.01 56.9231,24.1992 53.7763,24.0509 Z"
           id="path2-6" /></g><g
         id="line-2"><path
           fill="none"
           stroke="#000000"
           stroke-linecap="round"
           stroke-linejoin="round"
           stroke-width="2"
           d="M 17.1562,46.5937 A 21.5389,21.5389 0 1 1 55.9267,27.9065"
           id="path3-9" /><path
           fill="none"
           stroke="#000000"
           stroke-linecap="round"
           stroke-linejoin="round"
           stroke-width="2"
           d="M 57.6771,37.1641 A 21.5552,21.5552 0 0 1 22.7851,53.3282"
           id="path4-1" /><path
           fill="none"
           stroke="#000000"
           stroke-linecap="round"
           stroke-linejoin="round"
           stroke-width="2"
           d="M 52.7935,22.7551 C 60.4681,21.8295 65.9319,22.7315 66.9853,25.604 68.8256,30.6221 56.51,39.7536 39.4777,46 22.4454,52.2464 7.1461,53.2415 5.3059,48.2235 c -1.07,-2.9183 2.6472,-7.2279 9.2958,-11.552"
           id="path5-2" /><path
           fill="none"
           stroke="#000000"
           stroke-linecap="round"
           stroke-linejoin="round"
           stroke-width="2"
           d="m 53.7763,24.0509 c 3.1468,0.1483 5.2585,0.9591 5.8112,2.4664 1.4336,3.909 -8.16,11.0223 -21.428,15.8879 -13.268,4.8656 -25.1858,5.6413 -26.6195,1.7323 -0.5761,-1.5711 0.6291,-3.66 3.1382,-5.9122"
           id="path6-7" /></g></g></g></svg>
