<?xml version="1.0" encoding="utf-8" standalone="no"?>
<!DOCTYPE svg PUBLIC "-//W3C//DTD SVG 1.1//EN"
  "http://www.w3.org/Graphics/SVG/1.1/DTD/svg11.dtd">
<svg xmlns:xlink="http://www.w3.org/1999/xlink" width="460.8pt" height="345.6pt" viewBox="0 0 460.8 345.6" xmlns="http://www.w3.org/2000/svg" version="1.1">
 <metadata>
  <rdf:RDF xmlns:dc="http://purl.org/dc/elements/1.1/" xmlns:cc="http://creativecommons.org/ns#" xmlns:rdf="http://www.w3.org/1999/02/22-rdf-syntax-ns#">
   <cc:Work>
    <dc:type rdf:resource="http://purl.org/dc/dcmitype/StillImage"/>
    <dc:date>2025-03-07T18:43:18.477380</dc:date>
    <dc:format>image/svg+xml</dc:format>
    <dc:creator>
     <cc:Agent>
      <dc:title>Matplotlib v3.10.0, https://matplotlib.org/</dc:title>
     </cc:Agent>
    </dc:creator>
   </cc:Work>
  </rdf:RDF>
 </metadata>
 <defs>
  <style type="text/css">*{stroke-linejoin: round; stroke-linecap: butt}</style>
 </defs>
 <g id="figure_1">
  <g id="patch_1">
   <path d="M 0 345.6 
L 460.8 345.6 
L 460.8 0 
L 0 0 
z
" style="fill: #ffffff"/>
  </g>
  <g id="axes_1">
   <g id="patch_2">
    <path d="M 57.6 307.584 
L 414.72 307.584 
L 414.72 41.472 
L 57.6 41.472 
z
" style="fill: #ffffff"/>
   </g>
   <g id="matplotlib.axis_1">
    <g id="xtick_1">
     <g id="line2d_1">
      <defs>
       <path id="me24e36c225" d="M 0 0 
L 0 3.5 
" style="stroke: #000000; stroke-width: 0.8"/>
      </defs>
      <g>
       <use xlink:href="#me24e36c225" x="73.832727" y="307.584" style="stroke: #000000; stroke-width: 0.8"/>
      </g>
     </g>
     <g id="text_1">
      <!-- 0 -->
      <g transform="translate(70.651477 322.182437) scale(0.1 -0.1)">
       <defs>
        <path id="DejaVuSans-30" d="M 2034 4250 
Q 1547 4250 1301 3770 
Q 1056 3291 1056 2328 
Q 1056 1369 1301 889 
Q 1547 409 2034 409 
Q 2525 409 2770 889 
Q 3016 1369 3016 2328 
Q 3016 3291 2770 3770 
Q 2525 4250 2034 4250 
z
M 2034 4750 
Q 2819 4750 3233 4129 
Q 3647 3509 3647 2328 
Q 3647 1150 3233 529 
Q 2819 -91 2034 -91 
Q 1250 -91 836 529 
Q 422 1150 422 2328 
Q 422 3509 836 4129 
Q 1250 4750 2034 4750 
z
" transform="scale(0.015625)"/>
       </defs>
       <use xlink:href="#DejaVuSans-30"/>
      </g>
     </g>
    </g>
    <g id="xtick_2">
     <g id="line2d_2">
      <g>
       <use xlink:href="#me24e36c225" x="138.763636" y="307.584" style="stroke: #000000; stroke-width: 0.8"/>
      </g>
     </g>
     <g id="text_2">
      <!-- 2 -->
      <g transform="translate(135.582386 322.182437) scale(0.1 -0.1)">
       <defs>
        <path id="DejaVuSans-32" d="M 1228 531 
L 3431 531 
L 3431 0 
L 469 0 
L 469 531 
Q 828 903 1448 1529 
Q 2069 2156 2228 2338 
Q 2531 2678 2651 2914 
Q 2772 3150 2772 3378 
Q 2772 3750 2511 3984 
Q 2250 4219 1831 4219 
Q 1534 4219 1204 4116 
Q 875 4013 500 3803 
L 500 4441 
Q 881 4594 1212 4672 
Q 1544 4750 1819 4750 
Q 2544 4750 2975 4387 
Q 3406 4025 3406 3419 
Q 3406 3131 3298 2873 
Q 3191 2616 2906 2266 
Q 2828 2175 2409 1742 
Q 1991 1309 1228 531 
z
" transform="scale(0.015625)"/>
       </defs>
       <use xlink:href="#DejaVuSans-32"/>
      </g>
     </g>
    </g>
    <g id="xtick_3">
     <g id="line2d_3">
      <g>
       <use xlink:href="#me24e36c225" x="203.694545" y="307.584" style="stroke: #000000; stroke-width: 0.8"/>
      </g>
     </g>
     <g id="text_3">
      <!-- 4 -->
      <g transform="translate(200.513295 322.182437) scale(0.1 -0.1)">
       <defs>
        <path id="DejaVuSans-34" d="M 2419 4116 
L 825 1625 
L 2419 1625 
L 2419 4116 
z
M 2253 4666 
L 3047 4666 
L 3047 1625 
L 3713 1625 
L 3713 1100 
L 3047 1100 
L 3047 0 
L 2419 0 
L 2419 1100 
L 313 1100 
L 313 1709 
L 2253 4666 
z
" transform="scale(0.015625)"/>
       </defs>
       <use xlink:href="#DejaVuSans-34"/>
      </g>
     </g>
    </g>
    <g id="xtick_4">
     <g id="line2d_4">
      <g>
       <use xlink:href="#me24e36c225" x="268.625455" y="307.584" style="stroke: #000000; stroke-width: 0.8"/>
      </g>
     </g>
     <g id="text_4">
      <!-- 6 -->
      <g transform="translate(265.444205 322.182437) scale(0.1 -0.1)">
       <defs>
        <path id="DejaVuSans-36" d="M 2113 2584 
Q 1688 2584 1439 2293 
Q 1191 2003 1191 1497 
Q 1191 994 1439 701 
Q 1688 409 2113 409 
Q 2538 409 2786 701 
Q 3034 994 3034 1497 
Q 3034 2003 2786 2293 
Q 2538 2584 2113 2584 
z
M 3366 4563 
L 3366 3988 
Q 3128 4100 2886 4159 
Q 2644 4219 2406 4219 
Q 1781 4219 1451 3797 
Q 1122 3375 1075 2522 
Q 1259 2794 1537 2939 
Q 1816 3084 2150 3084 
Q 2853 3084 3261 2657 
Q 3669 2231 3669 1497 
Q 3669 778 3244 343 
Q 2819 -91 2113 -91 
Q 1303 -91 875 529 
Q 447 1150 447 2328 
Q 447 3434 972 4092 
Q 1497 4750 2381 4750 
Q 2619 4750 2861 4703 
Q 3103 4656 3366 4563 
z
" transform="scale(0.015625)"/>
       </defs>
       <use xlink:href="#DejaVuSans-36"/>
      </g>
     </g>
    </g>
    <g id="xtick_5">
     <g id="line2d_5">
      <g>
       <use xlink:href="#me24e36c225" x="333.556364" y="307.584" style="stroke: #000000; stroke-width: 0.8"/>
      </g>
     </g>
     <g id="text_5">
      <!-- 8 -->
      <g transform="translate(330.375114 322.182437) scale(0.1 -0.1)">
       <defs>
        <path id="DejaVuSans-38" d="M 2034 2216 
Q 1584 2216 1326 1975 
Q 1069 1734 1069 1313 
Q 1069 891 1326 650 
Q 1584 409 2034 409 
Q 2484 409 2743 651 
Q 3003 894 3003 1313 
Q 3003 1734 2745 1975 
Q 2488 2216 2034 2216 
z
M 1403 2484 
Q 997 2584 770 2862 
Q 544 3141 544 3541 
Q 544 4100 942 4425 
Q 1341 4750 2034 4750 
Q 2731 4750 3128 4425 
Q 3525 4100 3525 3541 
Q 3525 3141 3298 2862 
Q 3072 2584 2669 2484 
Q 3125 2378 3379 2068 
Q 3634 1759 3634 1313 
Q 3634 634 3220 271 
Q 2806 -91 2034 -91 
Q 1263 -91 848 271 
Q 434 634 434 1313 
Q 434 1759 690 2068 
Q 947 2378 1403 2484 
z
M 1172 3481 
Q 1172 3119 1398 2916 
Q 1625 2713 2034 2713 
Q 2441 2713 2670 2916 
Q 2900 3119 2900 3481 
Q 2900 3844 2670 4047 
Q 2441 4250 2034 4250 
Q 1625 4250 1398 4047 
Q 1172 3844 1172 3481 
z
" transform="scale(0.015625)"/>
       </defs>
       <use xlink:href="#DejaVuSans-38"/>
      </g>
     </g>
    </g>
    <g id="xtick_6">
     <g id="line2d_6">
      <g>
       <use xlink:href="#me24e36c225" x="398.487273" y="307.584" style="stroke: #000000; stroke-width: 0.8"/>
      </g>
     </g>
     <g id="text_6">
      <!-- 10 -->
      <g transform="translate(392.124773 322.182437) scale(0.1 -0.1)">
       <defs>
        <path id="DejaVuSans-31" d="M 794 531 
L 1825 531 
L 1825 4091 
L 703 3866 
L 703 4441 
L 1819 4666 
L 2450 4666 
L 2450 531 
L 3481 531 
L 3481 0 
L 794 0 
L 794 531 
z
" transform="scale(0.015625)"/>
       </defs>
       <use xlink:href="#DejaVuSans-31"/>
       <use xlink:href="#DejaVuSans-30" transform="translate(63.623047 0)"/>
      </g>
     </g>
    </g>
   </g>
   <g id="matplotlib.axis_2">
    <g id="ytick_1">
     <g id="line2d_7">
      <defs>
       <path id="mea2bc73a3e" d="M 0 0 
L -3.5 0 
" style="stroke: #000000; stroke-width: 0.8"/>
      </defs>
      <g>
       <use xlink:href="#mea2bc73a3e" x="57.6" y="295.497001" style="stroke: #000000; stroke-width: 0.8"/>
      </g>
     </g>
     <g id="text_7">
      <!-- −1.00 -->
      <g transform="translate(19.954687 299.29622) scale(0.1 -0.1)">
       <defs>
        <path id="DejaVuSans-2212" d="M 678 2272 
L 4684 2272 
L 4684 1741 
L 678 1741 
L 678 2272 
z
" transform="scale(0.015625)"/>
        <path id="DejaVuSans-2e" d="M 684 794 
L 1344 794 
L 1344 0 
L 684 0 
L 684 794 
z
" transform="scale(0.015625)"/>
       </defs>
       <use xlink:href="#DejaVuSans-2212"/>
       <use xlink:href="#DejaVuSans-31" transform="translate(83.789062 0)"/>
       <use xlink:href="#DejaVuSans-2e" transform="translate(147.412109 0)"/>
       <use xlink:href="#DejaVuSans-30" transform="translate(179.199219 0)"/>
       <use xlink:href="#DejaVuSans-30" transform="translate(242.822266 0)"/>
      </g>
     </g>
    </g>
    <g id="ytick_2">
     <g id="line2d_8">
      <g>
       <use xlink:href="#mea2bc73a3e" x="57.6" y="265.255876" style="stroke: #000000; stroke-width: 0.8"/>
      </g>
     </g>
     <g id="text_8">
      <!-- −0.75 -->
      <g transform="translate(19.954687 269.055095) scale(0.1 -0.1)">
       <defs>
        <path id="DejaVuSans-37" d="M 525 4666 
L 3525 4666 
L 3525 4397 
L 1831 0 
L 1172 0 
L 2766 4134 
L 525 4134 
L 525 4666 
z
" transform="scale(0.015625)"/>
        <path id="DejaVuSans-35" d="M 691 4666 
L 3169 4666 
L 3169 4134 
L 1269 4134 
L 1269 2991 
Q 1406 3038 1543 3061 
Q 1681 3084 1819 3084 
Q 2600 3084 3056 2656 
Q 3513 2228 3513 1497 
Q 3513 744 3044 326 
Q 2575 -91 1722 -91 
Q 1428 -91 1123 -41 
Q 819 9 494 109 
L 494 744 
Q 775 591 1075 516 
Q 1375 441 1709 441 
Q 2250 441 2565 725 
Q 2881 1009 2881 1497 
Q 2881 1984 2565 2268 
Q 2250 2553 1709 2553 
Q 1456 2553 1204 2497 
Q 953 2441 691 2322 
L 691 4666 
z
" transform="scale(0.015625)"/>
       </defs>
       <use xlink:href="#DejaVuSans-2212"/>
       <use xlink:href="#DejaVuSans-30" transform="translate(83.789062 0)"/>
       <use xlink:href="#DejaVuSans-2e" transform="translate(147.412109 0)"/>
       <use xlink:href="#DejaVuSans-37" transform="translate(179.199219 0)"/>
       <use xlink:href="#DejaVuSans-35" transform="translate(242.822266 0)"/>
      </g>
     </g>
    </g>
    <g id="ytick_3">
     <g id="line2d_9">
      <g>
       <use xlink:href="#mea2bc73a3e" x="57.6" y="235.014751" style="stroke: #000000; stroke-width: 0.8"/>
      </g>
     </g>
     <g id="text_9">
      <!-- −0.50 -->
      <g transform="translate(19.954687 238.81397) scale(0.1 -0.1)">
       <use xlink:href="#DejaVuSans-2212"/>
       <use xlink:href="#DejaVuSans-30" transform="translate(83.789062 0)"/>
       <use xlink:href="#DejaVuSans-2e" transform="translate(147.412109 0)"/>
       <use xlink:href="#DejaVuSans-35" transform="translate(179.199219 0)"/>
       <use xlink:href="#DejaVuSans-30" transform="translate(242.822266 0)"/>
      </g>
     </g>
    </g>
    <g id="ytick_4">
     <g id="line2d_10">
      <g>
       <use xlink:href="#mea2bc73a3e" x="57.6" y="204.773626" style="stroke: #000000; stroke-width: 0.8"/>
      </g>
     </g>
     <g id="text_10">
      <!-- −0.25 -->
      <g transform="translate(19.954687 208.572844) scale(0.1 -0.1)">
       <use xlink:href="#DejaVuSans-2212"/>
       <use xlink:href="#DejaVuSans-30" transform="translate(83.789062 0)"/>
       <use xlink:href="#DejaVuSans-2e" transform="translate(147.412109 0)"/>
       <use xlink:href="#DejaVuSans-32" transform="translate(179.199219 0)"/>
       <use xlink:href="#DejaVuSans-35" transform="translate(242.822266 0)"/>
      </g>
     </g>
    </g>
    <g id="ytick_5">
     <g id="line2d_11">
      <g>
       <use xlink:href="#mea2bc73a3e" x="57.6" y="174.5325" style="stroke: #000000; stroke-width: 0.8"/>
      </g>
     </g>
     <g id="text_11">
      <!-- 0.00 -->
      <g transform="translate(28.334375 178.331719) scale(0.1 -0.1)">
       <use xlink:href="#DejaVuSans-30"/>
       <use xlink:href="#DejaVuSans-2e" transform="translate(63.623047 0)"/>
       <use xlink:href="#DejaVuSans-30" transform="translate(95.410156 0)"/>
       <use xlink:href="#DejaVuSans-30" transform="translate(159.033203 0)"/>
      </g>
     </g>
    </g>
    <g id="ytick_6">
     <g id="line2d_12">
      <g>
       <use xlink:href="#mea2bc73a3e" x="57.6" y="144.291375" style="stroke: #000000; stroke-width: 0.8"/>
      </g>
     </g>
     <g id="text_12">
      <!-- 0.25 -->
      <g transform="translate(28.334375 148.090594) scale(0.1 -0.1)">
       <use xlink:href="#DejaVuSans-30"/>
       <use xlink:href="#DejaVuSans-2e" transform="translate(63.623047 0)"/>
       <use xlink:href="#DejaVuSans-32" transform="translate(95.410156 0)"/>
       <use xlink:href="#DejaVuSans-35" transform="translate(159.033203 0)"/>
      </g>
     </g>
    </g>
    <g id="ytick_7">
     <g id="line2d_13">
      <g>
       <use xlink:href="#mea2bc73a3e" x="57.6" y="114.05025" style="stroke: #000000; stroke-width: 0.8"/>
      </g>
     </g>
     <g id="text_13">
      <!-- 0.50 -->
      <g transform="translate(28.334375 117.849469) scale(0.1 -0.1)">
       <use xlink:href="#DejaVuSans-30"/>
       <use xlink:href="#DejaVuSans-2e" transform="translate(63.623047 0)"/>
       <use xlink:href="#DejaVuSans-35" transform="translate(95.410156 0)"/>
       <use xlink:href="#DejaVuSans-30" transform="translate(159.033203 0)"/>
      </g>
     </g>
    </g>
    <g id="ytick_8">
     <g id="line2d_14">
      <g>
       <use xlink:href="#mea2bc73a3e" x="57.6" y="83.809125" style="stroke: #000000; stroke-width: 0.8"/>
      </g>
     </g>
     <g id="text_14">
      <!-- 0.75 -->
      <g transform="translate(28.334375 87.608344) scale(0.1 -0.1)">
       <use xlink:href="#DejaVuSans-30"/>
       <use xlink:href="#DejaVuSans-2e" transform="translate(63.623047 0)"/>
       <use xlink:href="#DejaVuSans-37" transform="translate(95.410156 0)"/>
       <use xlink:href="#DejaVuSans-35" transform="translate(159.033203 0)"/>
      </g>
     </g>
    </g>
    <g id="ytick_9">
     <g id="line2d_15">
      <g>
       <use xlink:href="#mea2bc73a3e" x="57.6" y="53.568" style="stroke: #000000; stroke-width: 0.8"/>
      </g>
     </g>
     <g id="text_15">
      <!-- 1.00 -->
      <g transform="translate(28.334375 57.367218) scale(0.1 -0.1)">
       <use xlink:href="#DejaVuSans-31"/>
       <use xlink:href="#DejaVuSans-2e" transform="translate(63.623047 0)"/>
       <use xlink:href="#DejaVuSans-30" transform="translate(95.410156 0)"/>
       <use xlink:href="#DejaVuSans-30" transform="translate(159.033203 0)"/>
      </g>
     </g>
    </g>
   </g>
   <g id="line2d_16">
    <path d="M 73.832727 174.5325 
L 77.082523 127.382098 
L 79.0324 102.230909 
L 80.657297 84.38926 
L 81.957215 72.679011 
L 82.932154 65.593283 
L 83.907093 60.077532 
L 84.557052 57.312798 
L 85.207011 55.29937 
L 85.85697 54.050155 
L 86.181949 53.714821 
L 86.506929 53.573158 
L 86.831908 53.625391 
L 87.156888 53.871437 
L 87.481867 54.310901 
L 88.131826 55.766959 
L 88.781785 57.984232 
L 89.431744 60.948509 
L 90.406683 66.752715 
L 91.381622 74.11019 
L 92.68154 86.150049 
L 93.981458 100.452189 
L 95.606355 120.94872 
L 97.881212 153.039379 
L 103.405864 232.743575 
L 105.030762 252.668051 
L 106.33068 266.394589 
L 107.630598 277.76978 
L 108.605536 284.580465 
L 109.580475 289.805193 
L 110.230434 292.369099 
L 110.880393 294.177745 
L 111.530352 295.219536 
L 111.855332 295.450582 
L 112.180311 295.487798 
L 112.505291 295.331123 
L 112.83027 294.980809 
L 113.480229 293.70182 
L 114.130188 291.659027 
L 114.780147 288.865525 
L 115.755086 283.308145 
L 116.730025 276.183145 
L 117.704963 267.593206 
L 119.004881 254.077947 
L 120.629779 234.366274 
L 122.579656 207.633675 
L 129.729206 105.861722 
L 131.354103 87.429711 
L 132.654021 75.15842 
L 133.62896 67.609412 
L 134.603898 61.601327 
L 135.578837 57.220749 
L 136.228796 55.236705 
L 136.878755 54.017276 
L 137.203735 53.696926 
L 137.528714 53.570275 
L 137.853694 53.637526 
L 138.178673 53.898569 
L 138.503653 54.352988 
L 139.153612 55.838728 
L 139.803571 58.085224 
L 140.45353 61.078075 
L 141.428468 66.923531 
L 142.403407 74.319794 
L 143.703325 86.406581 
L 145.003243 100.749082 
L 146.628141 121.285275 
L 148.902998 153.408621 
L 154.10267 228.787842 
L 155.727568 249.204458 
L 157.027486 263.425462 
L 158.327404 275.371119 
L 159.302342 282.650806 
L 160.277281 288.372346 
L 160.92724 291.279388 
L 161.577199 293.438153 
L 162.227158 294.834805 
L 162.552138 295.244348 
L 162.877117 295.460392 
L 163.202097 295.482589 
L 163.527076 295.310904 
L 163.852056 294.945613 
L 164.502015 293.636862 
L 165.151974 291.564725 
L 165.801933 288.742482 
L 166.776871 283.143526 
L 167.75181 275.979322 
L 169.051728 264.173738 
L 170.351646 250.073654 
L 171.976544 229.776592 
L 174.2514 197.85248 
L 179.776052 117.957874 
L 181.40095 97.825301 
L 182.700868 83.890725 
L 184.000786 72.276261 
L 184.975725 65.269281 
L 185.950663 59.836948 
L 186.600622 57.129828 
L 187.250581 55.175188 
L 187.900541 53.985556 
L 188.22552 53.680193 
L 188.5505 53.568556 
L 188.875479 53.650823 
L 189.200459 53.926862 
L 189.850418 55.058177 
L 190.500377 56.955249 
L 191.150336 59.605921 
L 192.125274 64.956467 
L 193.100213 71.886169 
L 194.075152 80.295159 
L 195.37507 93.595945 
L 196.999967 113.09016 
L 198.949844 139.647214 
L 203.174578 201.870854 
L 205.449435 233.400089 
L 207.074333 253.239253 
L 208.374251 266.880916 
L 209.674169 278.158785 
L 210.649107 284.889797 
L 211.624046 290.030394 
L 212.274005 292.536333 
L 212.923964 294.28594 
L 213.573923 295.267999 
L 213.898903 295.469038 
L 214.223882 295.476217 
L 214.548862 295.289525 
L 214.873841 294.90926 
L 215.5238 293.57076 
L 216.173759 291.469297 
L 216.823718 288.618341 
L 217.798657 282.977863 
L 218.773595 275.774524 
L 220.073514 263.921443 
L 221.373432 249.780319 
L 222.998329 229.442622 
L 225.273186 197.484297 
L 230.797838 117.626592 
L 232.422735 97.535626 
L 233.722654 83.642764 
L 235.022572 72.07636 
L 235.99751 65.108855 
L 236.972449 59.71831 
L 237.622408 57.040037 
L 238.272367 55.114818 
L 238.922326 53.954995 
L 239.247305 53.664622 
L 239.572285 53.568 
L 239.897265 53.665283 
L 240.222244 53.956314 
L 240.872203 55.117449 
L 241.522162 57.043961 
L 242.172121 59.723503 
L 243.14706 65.115887 
L 244.121998 72.085128 
L 245.096937 80.53079 
L 246.396855 93.875106 
L 248.021753 113.413571 
L 249.97163 140.006552 
L 257.446159 245.942102 
L 259.071057 263.932554 
L 260.370975 275.783549 
L 261.345913 282.985168 
L 262.320852 288.623822 
L 262.970811 291.473517 
L 263.62077 293.57369 
L 264.270729 294.910882 
L 264.595708 295.290489 
L 264.920688 295.476522 
L 265.245667 295.468683 
L 265.570647 295.266984 
L 265.895627 294.871748 
L 266.545586 293.503513 
L 267.195545 291.372745 
L 267.845504 288.493103 
L 268.820442 282.811156 
L 269.795381 275.568752 
L 271.095299 263.668288 
L 272.395217 249.486261 
L 274.020115 229.108124 
L 276.294971 197.115893 
L 281.819623 117.295858 
L 283.444521 97.246692 
L 284.744439 83.395677 
L 286.044357 71.877444 
L 287.019296 64.949482 
L 287.994234 59.600776 
L 288.644193 56.951375 
L 289.294152 55.055597 
L 289.944111 53.925594 
L 290.269091 53.650214 
L 290.59407 53.568607 
L 290.91905 53.680905 
L 291.244029 53.986926 
L 291.893989 55.177869 
L 292.543948 57.133802 
L 293.193907 59.84219 
L 294.168845 65.276359 
L 295.143784 72.285073 
L 296.118722 80.767326 
L 297.41864 94.155043 
L 299.043538 113.73757 
L 300.993415 140.366222 
L 308.467944 246.24453 
L 310.092842 264.184812 
L 311.39276 275.988304 
L 312.367699 283.150786 
L 313.342637 288.747915 
L 313.992596 291.568895 
L 314.642555 293.639743 
L 315.292514 294.947185 
L 315.617494 295.311818 
L 315.942473 295.482842 
L 316.267453 295.459985 
L 316.592432 295.243282 
L 316.917412 294.83308 
L 317.567371 293.435122 
L 318.21733 291.27507 
L 318.867289 288.366769 
L 319.842228 282.643409 
L 320.817166 275.362008 
L 322.117084 263.414276 
L 323.417002 249.191482 
L 325.0419 228.773101 
L 327.316757 196.747272 
L 332.841409 116.965674 
L 334.466306 96.958501 
L 335.766224 83.149466 
L 337.066143 71.679515 
L 338.041081 64.791162 
L 339.01602 59.484347 
L 339.665979 56.863843 
L 340.315938 54.997524 
L 340.965897 53.897352 
L 341.290876 53.636968 
L 341.615856 53.570378 
L 341.940835 53.697689 
L 342.265815 54.018697 
L 342.915774 55.239437 
L 343.565733 57.224772 
L 344.215692 59.96198 
L 345.190631 65.437881 
L 346.165569 72.486 
L 347.140508 81.004763 
L 348.440426 94.435752 
L 350.065324 114.062153 
L 352.015201 140.726221 
L 359.16475 242.597988 
L 360.789648 261.124558 
L 362.089566 273.486395 
L 363.064505 281.110508 
L 364.039443 287.198672 
L 365.014382 291.663148 
L 365.664341 293.704649 
L 366.3143 294.98233 
L 366.639279 295.331985 
L 366.964259 295.488 
L 367.289238 295.450124 
L 367.614218 295.218419 
L 367.939197 294.793255 
L 368.589156 293.365587 
L 369.239115 291.176271 
L 369.889075 288.23934 
L 370.864013 282.474622 
L 371.838952 275.154295 
L 373.13887 263.159409 
L 374.438788 248.895985 
L 376.063686 228.437557 
L 378.338542 196.378437 
L 383.863194 116.636043 
L 385.488092 96.671056 
L 386.78801 82.904133 
L 388.087928 71.482575 
L 389.062867 64.633898 
L 390.037805 59.369025 
L 390.687764 56.777444 
L 391.337723 54.940601 
L 391.987682 53.87027 
L 392.312662 53.624884 
L 392.637641 53.573311 
L 392.962621 53.715635 
L 393.2876 54.051627 
L 393.937559 55.302152 
L 394.587518 57.316871 
L 395.237477 60.082871 
L 396.212416 65.600453 
L 397.187355 72.687909 
L 398.162293 81.243099 
L 398.487273 84.400259 
L 398.487273 84.400259 
" clip-path="url(#pd7ef2fd2ef)" style="fill: none; stroke: #1f77b4; stroke-width: 1.5; stroke-linecap: square"/>
   </g>
   <g id="patch_3">
    <path d="M 57.6 307.584 
L 57.6 41.472 
" style="fill: none; stroke: #000000; stroke-width: 0.8; stroke-linejoin: miter; stroke-linecap: square"/>
   </g>
   <g id="patch_4">
    <path d="M 414.72 307.584 
L 414.72 41.472 
" style="fill: none; stroke: #000000; stroke-width: 0.8; stroke-linejoin: miter; stroke-linecap: square"/>
   </g>
   <g id="patch_5">
    <path d="M 57.6 307.584 
L 414.72 307.584 
" style="fill: none; stroke: #000000; stroke-width: 0.8; stroke-linejoin: miter; stroke-linecap: square"/>
   </g>
   <g id="patch_6">
    <path d="M 57.6 41.472 
L 414.72 41.472 
" style="fill: none; stroke: #000000; stroke-width: 0.8; stroke-linejoin: miter; stroke-linecap: square"/>
   </g>
  </g>
 </g>
 <defs>
  <clipPath id="pd7ef2fd2ef">
   <rect x="57.6" y="41.472" width="357.12" height="266.112"/>
  </clipPath>
 </defs>
</svg>
